%TF.GenerationSoftware,KiCad,Pcbnew,7.0.0-da2b9df05c~163~ubuntu22.04.1*%
%TF.CreationDate,2023-02-25T19:34:11+08:00*%
%TF.ProjectId,circuit,63697263-7569-4742-9e6b-696361645f70,1.0*%
%TF.SameCoordinates,Original*%
%TF.FileFunction,Copper,L3,Inr*%
%TF.FilePolarity,Positive*%
%FSLAX46Y46*%
G04 Gerber Fmt 4.6, Leading zero omitted, Abs format (unit mm)*
G04 Created by KiCad (PCBNEW 7.0.0-da2b9df05c~163~ubuntu22.04.1) date 2023-02-25 19:34:11*
%MOMM*%
%LPD*%
G01*
G04 APERTURE LIST*
G04 Aperture macros list*
%AMRoundRect*
0 Rectangle with rounded corners*
0 $1 Rounding radius*
0 $2 $3 $4 $5 $6 $7 $8 $9 X,Y pos of 4 corners*
0 Add a 4 corners polygon primitive as box body*
4,1,4,$2,$3,$4,$5,$6,$7,$8,$9,$2,$3,0*
0 Add four circle primitives for the rounded corners*
1,1,$1+$1,$2,$3*
1,1,$1+$1,$4,$5*
1,1,$1+$1,$6,$7*
1,1,$1+$1,$8,$9*
0 Add four rect primitives between the rounded corners*
20,1,$1+$1,$2,$3,$4,$5,0*
20,1,$1+$1,$4,$5,$6,$7,0*
20,1,$1+$1,$6,$7,$8,$9,0*
20,1,$1+$1,$8,$9,$2,$3,0*%
G04 Aperture macros list end*
%TA.AperFunction,ComponentPad*%
%ADD10C,1.800000*%
%TD*%
%TA.AperFunction,ComponentPad*%
%ADD11C,4.460000*%
%TD*%
%TA.AperFunction,ComponentPad*%
%ADD12C,1.500000*%
%TD*%
%TA.AperFunction,ComponentPad*%
%ADD13C,1.200000*%
%TD*%
%TA.AperFunction,ComponentPad*%
%ADD14R,1.200000X1.200000*%
%TD*%
%TA.AperFunction,ComponentPad*%
%ADD15C,2.000000*%
%TD*%
%TA.AperFunction,ComponentPad*%
%ADD16C,1.400000*%
%TD*%
%TA.AperFunction,ComponentPad*%
%ADD17O,1.400000X1.400000*%
%TD*%
%TA.AperFunction,ComponentPad*%
%ADD18C,2.600000*%
%TD*%
%TA.AperFunction,ComponentPad*%
%ADD19C,1.600000*%
%TD*%
%TA.AperFunction,ComponentPad*%
%ADD20R,1.500000X1.050000*%
%TD*%
%TA.AperFunction,ComponentPad*%
%ADD21O,1.500000X1.050000*%
%TD*%
%TA.AperFunction,ComponentPad*%
%ADD22R,1.600000X1.600000*%
%TD*%
%TA.AperFunction,ComponentPad*%
%ADD23O,1.600000X1.600000*%
%TD*%
%TA.AperFunction,ComponentPad*%
%ADD24R,2.000000X2.000000*%
%TD*%
%TA.AperFunction,ComponentPad*%
%ADD25R,1.800000X1.800000*%
%TD*%
%TA.AperFunction,ComponentPad*%
%ADD26C,1.700000*%
%TD*%
%TA.AperFunction,ComponentPad*%
%ADD27RoundRect,0.250000X-0.600000X-0.600000X0.600000X-0.600000X0.600000X0.600000X-0.600000X0.600000X0*%
%TD*%
%TA.AperFunction,ViaPad*%
%ADD28C,0.475000*%
%TD*%
%TA.AperFunction,Conductor*%
%ADD29C,0.200000*%
%TD*%
G04 APERTURE END LIST*
D10*
%TO.N,VCC*%
%TO.C,VR1*%
X142748000Y-41148000D03*
%TO.N,Net-(U1-PC4)*%
X142748000Y-38648000D03*
%TO.N,GND*%
X142748000Y-36148000D03*
D11*
%TO.N,unconnected-(VR1-Pad4)*%
X135748000Y-43048000D03*
%TO.N,unconnected-(VR1-Pad5)*%
X135748000Y-34248000D03*
%TD*%
D12*
%TO.N,Net-(SW2-COM1)*%
%TO.C,SW2*%
X66294000Y-76395000D03*
%TO.N,Net-(SW2-COM2)*%
X68834000Y-76395000D03*
%TO.N,Net-(SW2-COM3)*%
X71374000Y-76395000D03*
%TO.N,Net-(SW2-COM4)*%
X73914000Y-76395000D03*
%TO.N,Net-(SW2-NO1)*%
X66294000Y-68775000D03*
X68834000Y-68775000D03*
X71374000Y-68775000D03*
X73914000Y-68775000D03*
%TD*%
D13*
%TO.N,GND*%
%TO.C,C7*%
X130810000Y-63500000D03*
D14*
%TO.N,VCC*%
X128809999Y-63499999D03*
%TD*%
%TO.N,Net-(Q1-C)*%
%TO.C,U2*%
X74899999Y-42159999D03*
D13*
%TO.N,Net-(Q2-C)*%
X77440000Y-42160000D03*
%TO.N,Net-(U2-CATHODE_D)*%
X79980000Y-42160000D03*
%TO.N,unconnected-(U2-COMMON_ANODE_L1L2L3-Pad4)*%
X82520000Y-42160000D03*
%TO.N,Net-(U2-CATHODE_E)*%
X85060000Y-42160000D03*
%TO.N,Net-(Q3-C)*%
X87600000Y-42160000D03*
%TO.N,Net-(U2-CATHODE_DP)*%
X90140000Y-42160000D03*
%TO.N,Net-(Q4-C)*%
X92680000Y-42160000D03*
%TO.N,unconnected-(U2-NO_CONNECTION-Pad9)*%
X92680000Y-32000000D03*
%TO.N,unconnected-(U2-NO_PIN_1-Pad10)*%
X90140000Y-32000000D03*
%TO.N,Net-(U2-CATHODE_F)*%
X87600000Y-32000000D03*
%TO.N,unconnected-(U2-NO_PIN_2-Pad12)*%
X85060000Y-32000000D03*
%TO.N,Net-(U2-CATHODE_CL3)*%
X82520000Y-32000000D03*
%TO.N,Net-(U2-CATHODE_AL1)*%
X79980000Y-32000000D03*
%TO.N,Net-(U2-CATHODE_G)*%
X77440000Y-32000000D03*
%TO.N,Net-(U2-CATHODE_BL2)*%
X74900000Y-32000000D03*
%TD*%
D15*
%TO.N,Net-(U3-R)*%
%TO.C,SW3*%
X88190000Y-81062000D03*
X94690000Y-81062000D03*
%TO.N,GND*%
X88190000Y-85562000D03*
X94690000Y-85562000D03*
%TD*%
%TO.N,GND*%
%TO.C,SW1*%
X118025000Y-32600000D03*
X124525000Y-32600000D03*
%TO.N,~{RESET}*%
X118025000Y-37100000D03*
X124525000Y-37100000D03*
%TD*%
D16*
%TO.N,VCC*%
%TO.C,R21*%
X79248000Y-76200000D03*
D17*
%TO.N,Net-(U3-R)*%
X84327999Y-76199999D03*
%TD*%
D16*
%TO.N,VCC*%
%TO.C,R12*%
X84328000Y-79756000D03*
D17*
%TO.N,Net-(SW2-COM4)*%
X79247999Y-79755999D03*
%TD*%
D16*
%TO.N,/A*%
%TO.C,R4*%
X112639000Y-47752000D03*
D17*
%TO.N,Net-(U2-CATHODE_AL1)*%
X107558999Y-47751999D03*
%TD*%
D16*
%TO.N,/G*%
%TO.C,R10*%
X112639000Y-50292000D03*
D17*
%TO.N,Net-(U2-CATHODE_G)*%
X107558999Y-50291999D03*
%TD*%
D16*
%TO.N,~{DIGIT_1}*%
%TO.C,R20*%
X82637291Y-54840000D03*
D17*
%TO.N,Net-(Q2-B)*%
X77557290Y-54839999D03*
%TD*%
D16*
%TO.N,~{DIGIT_2}*%
%TO.C,R22*%
X89833957Y-54840000D03*
D17*
%TO.N,Net-(Q3-B)*%
X84753956Y-54839999D03*
%TD*%
D18*
%TO.N,N/C*%
%TO.C,H2*%
X142960000Y-89940000D03*
%TD*%
D16*
%TO.N,/DEC*%
%TO.C,R11*%
X112385000Y-78105000D03*
D17*
%TO.N,Net-(U2-CATHODE_DP)*%
X107304999Y-78104999D03*
%TD*%
D18*
%TO.N,N/C*%
%TO.C,H4*%
X142960000Y-27940000D03*
%TD*%
D19*
%TO.N,Net-(U3-THR)*%
%TO.C,C4*%
X98552000Y-78740000D03*
%TO.N,GND*%
X98552000Y-81240000D03*
%TD*%
D12*
%TO.N,Net-(U1-PB7{slash}XTAL2)*%
%TO.C,Y1*%
X112317750Y-66675000D03*
%TO.N,Net-(U1-PB6{slash}XTAL1)*%
X112317750Y-61795000D03*
%TD*%
D16*
%TO.N,/B*%
%TO.C,R5*%
X112639000Y-52832000D03*
D17*
%TO.N,Net-(U2-CATHODE_BL2)*%
X107558999Y-52831999D03*
%TD*%
D19*
%TO.N,GND*%
%TO.C,C2*%
X107559000Y-69175000D03*
%TO.N,Net-(U1-PB7{slash}XTAL2)*%
X107559000Y-66675000D03*
%TD*%
D16*
%TO.N,/C*%
%TO.C,R6*%
X112639000Y-45212000D03*
D17*
%TO.N,Net-(U2-CATHODE_CL3)*%
X107558999Y-45211999D03*
%TD*%
D20*
%TO.N,VCC*%
%TO.C,Q4*%
X94850624Y-51029999D03*
D21*
%TO.N,Net-(Q4-B)*%
X94850624Y-49759999D03*
%TO.N,Net-(Q4-C)*%
X94850624Y-48489999D03*
%TD*%
D22*
%TO.N,GND*%
%TO.C,U3*%
X87639999Y-68589999D03*
D23*
%TO.N,Net-(U3-THR)*%
X87639999Y-71129999D03*
%TO.N,Frequency*%
X87639999Y-73669999D03*
%TO.N,Net-(U3-R)*%
X87639999Y-76209999D03*
%TO.N,unconnected-(U3-CV-Pad5)*%
X95259999Y-76209999D03*
%TO.N,Net-(U3-THR)*%
X95259999Y-73669999D03*
%TO.N,Net-(SW2-NO1)*%
X95259999Y-71129999D03*
%TO.N,VCC*%
X95259999Y-68589999D03*
%TD*%
D22*
%TO.N,~{RESET}*%
%TO.C,U1*%
X117474999Y-42439999D03*
D23*
%TO.N,/F*%
X117474999Y-44979999D03*
%TO.N,/C*%
X117474999Y-47519999D03*
%TO.N,/A*%
X117474999Y-50059999D03*
%TO.N,/G*%
X117474999Y-52599999D03*
%TO.N,/B*%
X117474999Y-55139999D03*
%TO.N,VCC*%
X117474999Y-57679999D03*
%TO.N,GND*%
X117474999Y-60219999D03*
%TO.N,Net-(U1-PB6{slash}XTAL1)*%
X117474999Y-62759999D03*
%TO.N,Net-(U1-PB7{slash}XTAL2)*%
X117474999Y-65299999D03*
%TO.N,/D*%
X117474999Y-67839999D03*
%TO.N,/E*%
X117474999Y-70379999D03*
%TO.N,/DEC*%
X117474999Y-72919999D03*
%TO.N,Frequency*%
X117474999Y-75459999D03*
%TO.N,Net-(D2-A)*%
X125094999Y-75459999D03*
%TO.N,Net-(D1-A)*%
X125094999Y-72919999D03*
%TO.N,MOSI*%
X125094999Y-70379999D03*
%TO.N,MISO*%
X125094999Y-67839999D03*
%TO.N,SCK*%
X125094999Y-65299999D03*
%TO.N,VCC*%
X125094999Y-62759999D03*
%TO.N,Net-(U1-AREF)*%
X125094999Y-60219999D03*
%TO.N,GND*%
X125094999Y-57679999D03*
%TO.N,~{DIGIT_0}*%
X125094999Y-55139999D03*
%TO.N,~{DIGIT_1}*%
X125094999Y-52599999D03*
%TO.N,~{DIGIT_2}*%
X125094999Y-50059999D03*
%TO.N,~{DIGIT_3}*%
X125094999Y-47519999D03*
%TO.N,Net-(U1-PC4)*%
X125094999Y-44979999D03*
%TO.N,unconnected-(U1-PC5-Pad28)*%
X125094999Y-42439999D03*
%TD*%
D16*
%TO.N,Net-(D1-K)*%
%TO.C,R2*%
X122428000Y-83554000D03*
D17*
%TO.N,GND*%
X117347999Y-83553999D03*
%TD*%
D19*
%TO.N,GND*%
%TO.C,C3*%
X128895000Y-55880000D03*
%TO.N,Net-(U1-AREF)*%
X128895000Y-58380000D03*
%TD*%
D16*
%TO.N,VCC*%
%TO.C,R18*%
X79248000Y-73660000D03*
D17*
%TO.N,Frequency*%
X84327999Y-73659999D03*
%TD*%
D16*
%TO.N,/D*%
%TO.C,R7*%
X112385000Y-73063000D03*
D17*
%TO.N,Net-(U2-CATHODE_D)*%
X107304999Y-73062999D03*
%TD*%
D19*
%TO.N,VCC*%
%TO.C,C5*%
X98584000Y-67056000D03*
%TO.N,GND*%
X101084000Y-67056000D03*
%TD*%
D24*
%TO.N,Frequency*%
%TO.C,TP2*%
X109727999Y-86359999D03*
%TD*%
D16*
%TO.N,/E*%
%TO.C,R8*%
X112385000Y-75565000D03*
D17*
%TO.N,Net-(U2-CATHODE_E)*%
X107304999Y-75564999D03*
%TD*%
D18*
%TO.N,N/C*%
%TO.C,H3*%
X60960000Y-27940000D03*
%TD*%
D16*
%TO.N,VCC*%
%TO.C,R13*%
X84328000Y-82296000D03*
D17*
%TO.N,Net-(SW2-COM3)*%
X79247999Y-82295999D03*
%TD*%
D16*
%TO.N,~{DIGIT_0}*%
%TO.C,R19*%
X75440625Y-54840000D03*
D17*
%TO.N,Net-(Q1-B)*%
X70360624Y-54839999D03*
%TD*%
D16*
%TO.N,Net-(SW2-NO1)*%
%TO.C,R17*%
X98552000Y-69850000D03*
D17*
%TO.N,Net-(U3-THR)*%
X98551999Y-74929999D03*
%TD*%
D16*
%TO.N,/F*%
%TO.C,R9*%
X112649000Y-42672000D03*
D17*
%TO.N,Net-(U2-CATHODE_F)*%
X107568999Y-42671999D03*
%TD*%
D19*
%TO.N,VCC*%
%TO.C,C6*%
X113792000Y-56388000D03*
%TO.N,GND*%
X111292000Y-56388000D03*
%TD*%
D16*
%TO.N,VCC*%
%TO.C,R1*%
X107559000Y-40132000D03*
D17*
%TO.N,~{RESET}*%
X112638999Y-40131999D03*
%TD*%
D20*
%TO.N,VCC*%
%TO.C,Q1*%
X73260624Y-51029999D03*
D21*
%TO.N,Net-(Q1-B)*%
X73260624Y-49759999D03*
%TO.N,Net-(Q1-C)*%
X73260624Y-48489999D03*
%TD*%
D16*
%TO.N,Net-(D2-K)*%
%TO.C,R3*%
X122428000Y-81026000D03*
D17*
%TO.N,GND*%
X117347999Y-81025999D03*
%TD*%
D16*
%TO.N,~{DIGIT_3}*%
%TO.C,R23*%
X97030625Y-54840000D03*
D17*
%TO.N,Net-(Q4-B)*%
X91950624Y-54839999D03*
%TD*%
D18*
%TO.N,N/C*%
%TO.C,H1*%
X60960000Y-89940000D03*
%TD*%
D20*
%TO.N,VCC*%
%TO.C,Q3*%
X87653956Y-51029999D03*
D21*
%TO.N,Net-(Q3-B)*%
X87653956Y-49759999D03*
%TO.N,Net-(Q3-C)*%
X87653956Y-48489999D03*
%TD*%
D16*
%TO.N,VCC*%
%TO.C,R15*%
X84328000Y-87376000D03*
D17*
%TO.N,Net-(SW2-COM1)*%
X79247999Y-87375999D03*
%TD*%
D20*
%TO.N,VCC*%
%TO.C,Q2*%
X80457290Y-51029999D03*
D21*
%TO.N,Net-(Q2-B)*%
X80457290Y-49759999D03*
%TO.N,Net-(Q2-C)*%
X80457290Y-48489999D03*
%TD*%
D25*
%TO.N,Net-(D2-K)*%
%TO.C,D2*%
X128523999Y-82549999D03*
D10*
%TO.N,Net-(D2-A)*%
X131064000Y-82550000D03*
%TD*%
D19*
%TO.N,Net-(U1-PB6{slash}XTAL1)*%
%TO.C,C1*%
X107559000Y-61795000D03*
%TO.N,GND*%
X107559000Y-59295000D03*
%TD*%
D26*
%TO.N,GND*%
%TO.C,J1*%
X139330000Y-66040000D03*
%TO.N,MISO*%
X136790000Y-66040000D03*
%TO.N,GND*%
X139330000Y-63500000D03*
%TO.N,SCK*%
X136790000Y-63500000D03*
%TO.N,GND*%
X139330000Y-60960000D03*
%TO.N,~{RESET}*%
X136790000Y-60960000D03*
%TO.N,GND*%
X139330000Y-58420000D03*
%TO.N,unconnected-(J1-NC-Pad3)*%
X136790000Y-58420000D03*
%TO.N,VCC*%
X139330000Y-55880000D03*
D27*
%TO.N,MOSI*%
X136790000Y-55880000D03*
%TD*%
D16*
%TO.N,VCC*%
%TO.C,R14*%
X84328000Y-84836000D03*
D17*
%TO.N,Net-(SW2-COM2)*%
X79247999Y-84835999D03*
%TD*%
D25*
%TO.N,Net-(D1-K)*%
%TO.C,D1*%
X136900999Y-82549999D03*
D10*
%TO.N,Net-(D1-A)*%
X139441000Y-82550000D03*
%TD*%
D24*
%TO.N,GND*%
%TO.C,TP1*%
X103631999Y-86373999D03*
%TD*%
D16*
%TO.N,VCC*%
%TO.C,R16*%
X79248000Y-71120000D03*
D17*
%TO.N,Net-(SW2-NO1)*%
X84327999Y-71119999D03*
%TD*%
D28*
%TO.N,~{DIGIT_0}*%
X102108000Y-54864000D03*
%TO.N,~{DIGIT_1}*%
X102108000Y-53848000D03*
%TO.N,~{DIGIT_2}*%
X102108000Y-52832000D03*
%TO.N,~{DIGIT_3}*%
X102108000Y-51816000D03*
%TD*%
D29*
%TO.N,~{RESET}*%
X124525000Y-37100000D02*
X131064000Y-43639000D01*
X131064000Y-56504000D02*
X135520000Y-60960000D01*
X131064000Y-43639000D02*
X131064000Y-56504000D01*
X135520000Y-60960000D02*
X136790000Y-60960000D01*
%TO.N,Net-(D1-A)*%
X131081000Y-72920000D02*
X139441000Y-81280000D01*
X139441000Y-81280000D02*
X139441000Y-82550000D01*
X125095000Y-72920000D02*
X131081000Y-72920000D01*
%TO.N,Net-(D2-A)*%
X131064000Y-82550000D02*
X131064000Y-79756000D01*
X126768000Y-75460000D02*
X125095000Y-75460000D01*
X131064000Y-79756000D02*
X126768000Y-75460000D01*
%TO.N,~{DIGIT_0}*%
X116304518Y-56388000D02*
X123847000Y-56388000D01*
X114780518Y-54864000D02*
X116304518Y-56388000D01*
X102108000Y-54864000D02*
X114780518Y-54864000D01*
X123847000Y-56388000D02*
X125095000Y-55140000D01*
%TO.N,~{DIGIT_1}*%
X102108000Y-53848000D02*
X105156000Y-53848000D01*
X123913000Y-53782000D02*
X125095000Y-52600000D01*
X105664000Y-54356000D02*
X115824000Y-54356000D01*
X105156000Y-53848000D02*
X105664000Y-54356000D01*
X115824000Y-54356000D02*
X116398000Y-53782000D01*
X116398000Y-53782000D02*
X123913000Y-53782000D01*
%TO.N,~{DIGIT_2}*%
X116205000Y-51562000D02*
X116459000Y-51308000D01*
X106426000Y-51562000D02*
X116205000Y-51562000D01*
X116459000Y-51308000D02*
X123847000Y-51308000D01*
X123847000Y-51308000D02*
X125095000Y-50060000D01*
X102108000Y-52832000D02*
X105156000Y-52832000D01*
X105156000Y-52832000D02*
X106426000Y-51562000D01*
%TO.N,~{DIGIT_3}*%
X115951000Y-49022000D02*
X116205000Y-48768000D01*
X123847000Y-48768000D02*
X125095000Y-47520000D01*
X104140000Y-51816000D02*
X106934000Y-49022000D01*
X102108000Y-51816000D02*
X104140000Y-51816000D01*
X106934000Y-49022000D02*
X115951000Y-49022000D01*
X116205000Y-48768000D02*
X123847000Y-48768000D01*
%TO.N,~{RESET}*%
X118025000Y-37100000D02*
X124525000Y-37100000D01*
%TO.N,Net-(U3-R)*%
X88190000Y-81062000D02*
X94690000Y-81062000D01*
%TD*%
M02*
