%TF.GenerationSoftware,KiCad,Pcbnew,7.0.0-da2b9df05c~171~ubuntu22.04.1*%
%TF.CreationDate,2023-03-11T20:29:59+08:00*%
%TF.ProjectId,circuit,63697263-7569-4742-9e6b-696361645f70,1.0*%
%TF.SameCoordinates,Original*%
%TF.FileFunction,Copper,L3,Inr*%
%TF.FilePolarity,Positive*%
%FSLAX46Y46*%
G04 Gerber Fmt 4.6, Leading zero omitted, Abs format (unit mm)*
G04 Created by KiCad (PCBNEW 7.0.0-da2b9df05c~171~ubuntu22.04.1) date 2023-03-11 20:29:59*
%MOMM*%
%LPD*%
G01*
G04 APERTURE LIST*
%TA.AperFunction,ComponentPad*%
%ADD10C,1.600000*%
%TD*%
%TA.AperFunction,ComponentPad*%
%ADD11R,1.700000X1.700000*%
%TD*%
%TA.AperFunction,ComponentPad*%
%ADD12O,1.700000X1.700000*%
%TD*%
%TA.AperFunction,ComponentPad*%
%ADD13C,2.000000*%
%TD*%
%TA.AperFunction,ComponentPad*%
%ADD14O,1.600000X1.600000*%
%TD*%
%TA.AperFunction,ComponentPad*%
%ADD15C,2.600000*%
%TD*%
%TA.AperFunction,ComponentPad*%
%ADD16C,1.500000*%
%TD*%
%TA.AperFunction,ComponentPad*%
%ADD17R,1.500000X1.050000*%
%TD*%
%TA.AperFunction,ComponentPad*%
%ADD18O,1.500000X1.050000*%
%TD*%
%TA.AperFunction,ComponentPad*%
%ADD19R,1.600000X1.600000*%
%TD*%
%TA.AperFunction,ComponentPad*%
%ADD20R,1.800000X1.800000*%
%TD*%
%TA.AperFunction,ComponentPad*%
%ADD21C,1.800000*%
%TD*%
%TA.AperFunction,ComponentPad*%
%ADD22R,1.200000X1.200000*%
%TD*%
%TA.AperFunction,ComponentPad*%
%ADD23C,1.200000*%
%TD*%
%TA.AperFunction,ComponentPad*%
%ADD24C,4.460000*%
%TD*%
%TA.AperFunction,ViaPad*%
%ADD25C,0.475000*%
%TD*%
%TA.AperFunction,Conductor*%
%ADD26C,0.200000*%
%TD*%
G04 APERTURE END LIST*
D10*
%TO.N,VCC*%
%TO.C,C7*%
X97810000Y-68326000D03*
%TO.N,GND*%
X100310000Y-68326000D03*
%TD*%
D11*
%TO.N,MISO*%
%TO.C,J1*%
X136778999Y-63499999D03*
D12*
%TO.N,VCC*%
X139318999Y-63499999D03*
%TO.N,SCK*%
X136778999Y-66039999D03*
%TO.N,MOSI*%
X139318999Y-66039999D03*
%TO.N,~{RESET}*%
X136778999Y-68579999D03*
%TO.N,GND*%
X139318999Y-68579999D03*
%TD*%
D13*
%TO.N,Net-(U3-R)*%
%TO.C,SW3*%
X87936000Y-81306000D03*
X94436000Y-81306000D03*
%TO.N,GND*%
X87936000Y-85806000D03*
X94436000Y-85806000D03*
%TD*%
%TO.N,GND*%
%TO.C,SW1*%
X118025000Y-32600000D03*
X124525000Y-32600000D03*
%TO.N,Net-(R1-Pad2)*%
X118025000Y-37100000D03*
X124525000Y-37100000D03*
%TD*%
D10*
%TO.N,VCC*%
%TO.C,R24*%
X77216000Y-74930000D03*
D14*
%TO.N,Net-(U3-R)*%
X84835999Y-74929999D03*
%TD*%
D10*
%TO.N,VCC*%
%TO.C,R15*%
X84836000Y-78486000D03*
D14*
%TO.N,Net-(SW2-COM4)*%
X77215999Y-78485999D03*
%TD*%
D10*
%TO.N,Net-(U2-CATHODE_AL1)*%
%TO.C,R5*%
X106426000Y-45720000D03*
D14*
%TO.N,/A*%
X114045999Y-45719999D03*
%TD*%
D10*
%TO.N,Net-(U2-CATHODE_G)*%
%TO.C,R4*%
X106426000Y-49276000D03*
D14*
%TO.N,/G*%
X114045999Y-49275999D03*
%TD*%
D10*
%TO.N,~{DIGIT_1}*%
%TO.C,R23*%
X80264000Y-53594000D03*
D14*
%TO.N,Net-(Q2-B)*%
X72643999Y-53593999D03*
%TD*%
D10*
%TO.N,~{DIGIT_2}*%
%TO.C,R25*%
X90424000Y-53594000D03*
D14*
%TO.N,Net-(Q3-B)*%
X82803999Y-53593999D03*
%TD*%
D15*
%TO.N,N/C*%
%TO.C,H4*%
X142960000Y-89940000D03*
%TD*%
D10*
%TO.N,/DEC*%
%TO.C,R20*%
X114046000Y-80264000D03*
D14*
%TO.N,Net-(U2-CATHODE_DP)*%
X106425999Y-80263999D03*
%TD*%
D10*
%TO.N,GND*%
%TO.C,R10*%
X128524000Y-49784000D03*
D14*
%TO.N,Net-(R10-Pad2)*%
X136143999Y-49783999D03*
%TD*%
D15*
%TO.N,N/C*%
%TO.C,H1*%
X142960000Y-27940000D03*
%TD*%
D10*
%TO.N,GND*%
%TO.C,C6*%
X98298000Y-84562000D03*
%TO.N,Net-(U3-THR)*%
X98298000Y-82062000D03*
%TD*%
D16*
%TO.N,Net-(U1-PB7{slash}XTAL2)*%
%TO.C,Y1*%
X112317750Y-66675000D03*
%TO.N,Net-(U1-PB6{slash}XTAL1)*%
X112317750Y-61795000D03*
%TD*%
D10*
%TO.N,Net-(U2-CATHODE_BL2)*%
%TO.C,R3*%
X106426000Y-52832000D03*
D14*
%TO.N,/B*%
X114045999Y-52831999D03*
%TD*%
D10*
%TO.N,Net-(U1-PB7{slash}XTAL2)*%
%TO.C,C3*%
X107559000Y-66675000D03*
%TO.N,GND*%
X107559000Y-69175000D03*
%TD*%
%TO.N,Net-(U2-CATHODE_CL3)*%
%TO.C,R6*%
X106426000Y-42164000D03*
D14*
%TO.N,/C*%
X114045999Y-42163999D03*
%TD*%
D17*
%TO.N,VCC*%
%TO.C,Q4*%
X94850624Y-49275999D03*
D18*
%TO.N,Net-(Q4-B)*%
X94850624Y-48005999D03*
%TO.N,Net-(Q4-C)*%
X94850624Y-46735999D03*
%TD*%
D19*
%TO.N,GND*%
%TO.C,U3*%
X87385999Y-68833999D03*
D14*
%TO.N,Net-(U3-THR)*%
X87385999Y-71373999D03*
%TO.N,Frequency*%
X87385999Y-73913999D03*
%TO.N,Net-(U3-R)*%
X87385999Y-76453999D03*
%TO.N,unconnected-(U3-CV-Pad5)*%
X95005999Y-76453999D03*
%TO.N,Net-(U3-THR)*%
X95005999Y-73913999D03*
%TO.N,Net-(SW2-NO1)*%
X95005999Y-71373999D03*
%TO.N,VCC*%
X95005999Y-68833999D03*
%TD*%
D19*
%TO.N,~{RESET}*%
%TO.C,U1*%
X117474999Y-42439999D03*
D14*
%TO.N,/F*%
X117474999Y-44979999D03*
%TO.N,/C*%
X117474999Y-47519999D03*
%TO.N,/A*%
X117474999Y-50059999D03*
%TO.N,/G*%
X117474999Y-52599999D03*
%TO.N,/B*%
X117474999Y-55139999D03*
%TO.N,VCC*%
X117474999Y-57679999D03*
%TO.N,GND*%
X117474999Y-60219999D03*
%TO.N,Net-(U1-PB6{slash}XTAL1)*%
X117474999Y-62759999D03*
%TO.N,Net-(U1-PB7{slash}XTAL2)*%
X117474999Y-65299999D03*
%TO.N,/D*%
X117474999Y-67839999D03*
%TO.N,/E*%
X117474999Y-70379999D03*
%TO.N,/DEC*%
X117474999Y-72919999D03*
%TO.N,Frequency*%
X117474999Y-75459999D03*
%TO.N,Net-(D1-A)*%
X125094999Y-75459999D03*
%TO.N,Net-(D2-A)*%
X125094999Y-72919999D03*
%TO.N,MOSI*%
X125094999Y-70379999D03*
%TO.N,MISO*%
X125094999Y-67839999D03*
%TO.N,SCK*%
X125094999Y-65299999D03*
%TO.N,VCC*%
X125094999Y-62759999D03*
%TO.N,Net-(U1-AREF)*%
X125094999Y-60219999D03*
%TO.N,GND*%
X125094999Y-57679999D03*
%TO.N,~{DIGIT_0}*%
X125094999Y-55139999D03*
%TO.N,~{DIGIT_1}*%
X125094999Y-52599999D03*
%TO.N,~{DIGIT_2}*%
X125094999Y-50059999D03*
%TO.N,~{DIGIT_3}*%
X125094999Y-47519999D03*
%TO.N,Net-(U1-PC4)*%
X125094999Y-44979999D03*
%TO.N,unconnected-(U1-PC5-Pad28)*%
X125094999Y-42439999D03*
%TD*%
D10*
%TO.N,Net-(D1-K)*%
%TO.C,R8*%
X124968000Y-80264000D03*
D14*
%TO.N,GND*%
X117347999Y-80263999D03*
%TD*%
D10*
%TO.N,Net-(U1-AREF)*%
%TO.C,C4*%
X129032000Y-61234000D03*
%TO.N,GND*%
X129032000Y-63734000D03*
%TD*%
%TO.N,VCC*%
%TO.C,R22*%
X77216000Y-71374000D03*
D14*
%TO.N,Frequency*%
X84835999Y-71373999D03*
%TD*%
D10*
%TO.N,/D*%
%TO.C,R18*%
X114046000Y-73063000D03*
D14*
%TO.N,Net-(U2-CATHODE_D)*%
X106425999Y-73062999D03*
%TD*%
D10*
%TO.N,/E*%
%TO.C,R19*%
X114046000Y-76708000D03*
D14*
%TO.N,Net-(U2-CATHODE_E)*%
X106425999Y-76707999D03*
%TD*%
D15*
%TO.N,N/C*%
%TO.C,H3*%
X60960000Y-27940000D03*
%TD*%
D10*
%TO.N,~{RESET}*%
%TO.C,R1*%
X106426000Y-31496000D03*
D14*
%TO.N,Net-(R1-Pad2)*%
X114045999Y-31495999D03*
%TD*%
D10*
%TO.N,VCC*%
%TO.C,R14*%
X84836000Y-82042000D03*
D14*
%TO.N,Net-(SW2-COM3)*%
X77215999Y-82041999D03*
%TD*%
D10*
%TO.N,~{RESET}*%
%TO.C,C1*%
X127762000Y-36556000D03*
%TO.N,GND*%
X127762000Y-34056000D03*
%TD*%
%TO.N,~{DIGIT_0}*%
%TO.C,R21*%
X70104000Y-53594000D03*
D14*
%TO.N,Net-(Q1-B)*%
X62483999Y-53593999D03*
%TD*%
D10*
%TO.N,Net-(SW2-NO1)*%
%TO.C,R17*%
X98298000Y-71374000D03*
D14*
%TO.N,Net-(U3-THR)*%
X98297999Y-78993999D03*
%TD*%
D10*
%TO.N,Net-(U2-CATHODE_F)*%
%TO.C,R7*%
X106426000Y-38608000D03*
D14*
%TO.N,/F*%
X114045999Y-38607999D03*
%TD*%
D10*
%TO.N,GND*%
%TO.C,C5*%
X111292000Y-56388000D03*
%TO.N,VCC*%
X113792000Y-56388000D03*
%TD*%
%TO.N,VCC*%
%TO.C,R2*%
X106426000Y-35052000D03*
D14*
%TO.N,~{RESET}*%
X114045999Y-35051999D03*
%TD*%
D17*
%TO.N,VCC*%
%TO.C,Q1*%
X73260624Y-49275999D03*
D18*
%TO.N,Net-(Q1-B)*%
X73260624Y-48005999D03*
%TO.N,Net-(Q1-C)*%
X73260624Y-46735999D03*
%TD*%
D10*
%TO.N,Net-(D2-K)*%
%TO.C,R11*%
X124968000Y-83820000D03*
D14*
%TO.N,GND*%
X117347999Y-83819999D03*
%TD*%
D10*
%TO.N,~{DIGIT_3}*%
%TO.C,R26*%
X100584000Y-53594000D03*
D14*
%TO.N,Net-(Q4-B)*%
X92963999Y-53593999D03*
%TD*%
D15*
%TO.N,N/C*%
%TO.C,H2*%
X60960000Y-89940000D03*
%TD*%
D17*
%TO.N,VCC*%
%TO.C,Q3*%
X87653956Y-49275999D03*
D18*
%TO.N,Net-(Q3-B)*%
X87653956Y-48005999D03*
%TO.N,Net-(Q3-C)*%
X87653956Y-46735999D03*
%TD*%
D10*
%TO.N,VCC*%
%TO.C,R12*%
X70612000Y-83058000D03*
D14*
%TO.N,Net-(SW2-COM1)*%
X62991999Y-83057999D03*
%TD*%
D17*
%TO.N,VCC*%
%TO.C,Q2*%
X80457290Y-49275999D03*
D18*
%TO.N,Net-(Q2-B)*%
X80457290Y-48005999D03*
%TO.N,Net-(Q2-C)*%
X80457290Y-46735999D03*
%TD*%
D20*
%TO.N,Net-(D2-K)*%
%TO.C,D2*%
X137159999Y-80263999D03*
D21*
%TO.N,Net-(D2-A)*%
X139700000Y-80264000D03*
%TD*%
D22*
%TO.N,Net-(Q1-C)*%
%TO.C,U2*%
X74899999Y-42159999D03*
D23*
%TO.N,Net-(Q2-C)*%
X77440000Y-42160000D03*
%TO.N,Net-(U2-CATHODE_D)*%
X79980000Y-42160000D03*
%TO.N,unconnected-(U2-COMMON_ANODE_L1L2L3-Pad4)*%
X82520000Y-42160000D03*
%TO.N,Net-(U2-CATHODE_E)*%
X85060000Y-42160000D03*
%TO.N,Net-(Q3-C)*%
X87600000Y-42160000D03*
%TO.N,Net-(U2-CATHODE_DP)*%
X90140000Y-42160000D03*
%TO.N,Net-(Q4-C)*%
X92680000Y-42160000D03*
%TO.N,unconnected-(U2-NO_CONNECTION-Pad9)*%
X92680000Y-32000000D03*
%TO.N,unconnected-(U2-NO_PIN_1-Pad10)*%
X90140000Y-32000000D03*
%TO.N,Net-(U2-CATHODE_F)*%
X87600000Y-32000000D03*
%TO.N,unconnected-(U2-NO_PIN_2-Pad12)*%
X85060000Y-32000000D03*
%TO.N,Net-(U2-CATHODE_CL3)*%
X82520000Y-32000000D03*
%TO.N,Net-(U2-CATHODE_AL1)*%
X79980000Y-32000000D03*
%TO.N,Net-(U2-CATHODE_G)*%
X77440000Y-32000000D03*
%TO.N,Net-(U2-CATHODE_BL2)*%
X74900000Y-32000000D03*
%TD*%
D10*
%TO.N,GND*%
%TO.C,C2*%
X107559000Y-59295000D03*
%TO.N,Net-(U1-PB6{slash}XTAL1)*%
X107559000Y-61795000D03*
%TD*%
%TO.N,VCC*%
%TO.C,R9*%
X128524000Y-53340000D03*
D14*
%TO.N,Net-(R9-Pad2)*%
X136143999Y-53339999D03*
%TD*%
D10*
%TO.N,VCC*%
%TO.C,R13*%
X84836000Y-85598000D03*
D14*
%TO.N,Net-(SW2-COM2)*%
X77215999Y-85597999D03*
%TD*%
D16*
%TO.N,Net-(SW2-COM1)*%
%TO.C,SW2*%
X65032000Y-76395000D03*
%TO.N,Net-(SW2-COM2)*%
X67572000Y-76395000D03*
%TO.N,Net-(SW2-COM3)*%
X70112000Y-76395000D03*
%TO.N,Net-(SW2-COM4)*%
X72652000Y-76395000D03*
%TO.N,Net-(SW2-NO1)*%
X65032000Y-68775000D03*
X67572000Y-68775000D03*
X70112000Y-68775000D03*
X72652000Y-68775000D03*
%TD*%
D21*
%TO.N,Net-(R9-Pad2)*%
%TO.C,VR1*%
X142748000Y-41148000D03*
%TO.N,Net-(U1-PC4)*%
X142748000Y-38648000D03*
%TO.N,Net-(R10-Pad2)*%
X142748000Y-36148000D03*
D24*
%TO.N,unconnected-(VR1-Pad4)*%
X135748000Y-43048000D03*
%TO.N,unconnected-(VR1-Pad5)*%
X135748000Y-34248000D03*
%TD*%
D20*
%TO.N,Net-(D1-K)*%
%TO.C,D1*%
X130047999Y-80263999D03*
D21*
%TO.N,Net-(D1-A)*%
X132588000Y-80264000D03*
%TD*%
D10*
%TO.N,VCC*%
%TO.C,R16*%
X77216000Y-67818000D03*
D14*
%TO.N,Net-(SW2-NO1)*%
X84835999Y-67817999D03*
%TD*%
D25*
%TO.N,~{DIGIT_0}*%
X101346000Y-57912000D03*
%TO.N,~{DIGIT_1}*%
X101346000Y-57150000D03*
%TO.N,~{DIGIT_2}*%
X101346000Y-56388000D03*
%TO.N,~{DIGIT_3}*%
X101346000Y-55626000D03*
%TO.N,~{RESET}*%
X138049000Y-60960000D03*
%TD*%
D26*
%TO.N,Net-(D2-K)*%
X124968000Y-83820000D02*
X133604000Y-83820000D01*
X133604000Y-83820000D02*
X137160000Y-80264000D01*
%TO.N,Net-(D1-K)*%
X130048000Y-80264000D02*
X124968000Y-80264000D01*
%TO.N,Net-(U1-AREF)*%
X125095000Y-60220000D02*
X128018000Y-60220000D01*
X128018000Y-60220000D02*
X129032000Y-61234000D01*
%TO.N,~{RESET}*%
X138049000Y-60960000D02*
X138049000Y-59436000D01*
X132080000Y-44704000D02*
X127127000Y-39751000D01*
X138049000Y-59436000D02*
X132080000Y-53467000D01*
X132080000Y-53467000D02*
X132080000Y-44704000D01*
%TO.N,Frequency*%
X87386000Y-73914000D02*
X88656000Y-72644000D01*
X116945000Y-74930000D02*
X117475000Y-75460000D01*
X98121107Y-74930000D02*
X116945000Y-74930000D01*
X88656000Y-72644000D02*
X95835107Y-72644000D01*
X95835107Y-72644000D02*
X98121107Y-74930000D01*
X87386000Y-73914000D02*
X84846000Y-71374000D01*
%TO.N,~{DIGIT_0}*%
X115062000Y-57912000D02*
X116586000Y-56388000D01*
X116586000Y-56388000D02*
X123847000Y-56388000D01*
X101346000Y-57912000D02*
X115062000Y-57912000D01*
X123847000Y-56388000D02*
X125095000Y-55140000D01*
%TO.N,~{DIGIT_1}*%
X116586000Y-53848000D02*
X123847000Y-53848000D01*
X101346000Y-57150000D02*
X107696000Y-57150000D01*
X107696000Y-57150000D02*
X109982000Y-54864000D01*
X123847000Y-53848000D02*
X125095000Y-52600000D01*
X115570000Y-54864000D02*
X116586000Y-53848000D01*
X109982000Y-54864000D02*
X115570000Y-54864000D01*
%TO.N,~{DIGIT_2}*%
X101346000Y-56388000D02*
X107442000Y-56388000D01*
X123847000Y-51308000D02*
X125095000Y-50060000D01*
X107442000Y-56388000D02*
X112522000Y-51308000D01*
X112522000Y-51308000D02*
X123847000Y-51308000D01*
%TO.N,~{DIGIT_3}*%
X116840000Y-48768000D02*
X123847000Y-48768000D01*
X112014000Y-50800000D02*
X114808000Y-50800000D01*
X123847000Y-48768000D02*
X125095000Y-47520000D01*
X101346000Y-55626000D02*
X107188000Y-55626000D01*
X107188000Y-55626000D02*
X112014000Y-50800000D01*
X114808000Y-50800000D02*
X116840000Y-48768000D01*
%TO.N,MOSI*%
X134747000Y-67310000D02*
X131677000Y-70380000D01*
X131677000Y-70380000D02*
X125095000Y-70380000D01*
X138049000Y-67310000D02*
X134747000Y-67310000D01*
X139319000Y-66040000D02*
X138049000Y-67310000D01*
%TO.N,~{RESET}*%
X127762000Y-39116000D02*
X127127000Y-39751000D01*
X120164000Y-39751000D02*
X127127000Y-39751000D01*
X127762000Y-36556000D02*
X127762000Y-39116000D01*
X117475000Y-42440000D02*
X120164000Y-39751000D01*
%TO.N,SCK*%
X136017000Y-65278000D02*
X125117000Y-65278000D01*
X136779000Y-66040000D02*
X136017000Y-65278000D01*
%TO.N,Net-(R9-Pad2)*%
X142748000Y-46736000D02*
X142748000Y-41148000D01*
X136144000Y-53340000D02*
X142748000Y-46736000D01*
%TO.N,Net-(R10-Pad2)*%
X139700000Y-46228000D02*
X139700000Y-39196000D01*
X136144000Y-49784000D02*
X139700000Y-46228000D01*
X139700000Y-39196000D02*
X142748000Y-36148000D01*
%TD*%
M02*
