%TF.GenerationSoftware,KiCad,Pcbnew,7.0.0-da2b9df05c~171~ubuntu22.04.1*%
%TF.CreationDate,2023-03-09T21:45:25+08:00*%
%TF.ProjectId,circuit,63697263-7569-4742-9e6b-696361645f70,1.0*%
%TF.SameCoordinates,Original*%
%TF.FileFunction,Soldermask,Bot*%
%TF.FilePolarity,Negative*%
%FSLAX46Y46*%
G04 Gerber Fmt 4.6, Leading zero omitted, Abs format (unit mm)*
G04 Created by KiCad (PCBNEW 7.0.0-da2b9df05c~171~ubuntu22.04.1) date 2023-03-09 21:45:25*
%MOMM*%
%LPD*%
G01*
G04 APERTURE LIST*
G04 Aperture macros list*
%AMRoundRect*
0 Rectangle with rounded corners*
0 $1 Rounding radius*
0 $2 $3 $4 $5 $6 $7 $8 $9 X,Y pos of 4 corners*
0 Add a 4 corners polygon primitive as box body*
4,1,4,$2,$3,$4,$5,$6,$7,$8,$9,$2,$3,0*
0 Add four circle primitives for the rounded corners*
1,1,$1+$1,$2,$3*
1,1,$1+$1,$4,$5*
1,1,$1+$1,$6,$7*
1,1,$1+$1,$8,$9*
0 Add four rect primitives between the rounded corners*
20,1,$1+$1,$2,$3,$4,$5,0*
20,1,$1+$1,$4,$5,$6,$7,0*
20,1,$1+$1,$6,$7,$8,$9,0*
20,1,$1+$1,$8,$9,$2,$3,0*%
G04 Aperture macros list end*
%ADD10C,2.000000*%
%ADD11C,1.600000*%
%ADD12O,1.600000X1.600000*%
%ADD13C,2.600000*%
%ADD14C,3.800000*%
%ADD15C,1.500000*%
%ADD16R,1.500000X1.050000*%
%ADD17O,1.500000X1.050000*%
%ADD18R,1.600000X1.600000*%
%ADD19C,1.200000*%
%ADD20R,1.200000X1.200000*%
%ADD21R,1.800000X1.800000*%
%ADD22C,1.800000*%
%ADD23RoundRect,0.250000X-0.600000X-0.600000X0.600000X-0.600000X0.600000X0.600000X-0.600000X0.600000X0*%
%ADD24C,1.700000*%
%ADD25C,4.460000*%
G04 APERTURE END LIST*
D10*
%TO.C,SW3*%
X94436000Y-85806000D03*
X87936000Y-85806000D03*
X94436000Y-81306000D03*
X87936000Y-81306000D03*
%TD*%
%TO.C,SW1*%
X118025000Y-32600000D03*
X124525000Y-32600000D03*
X118025000Y-37100000D03*
X124525000Y-37100000D03*
%TD*%
D11*
%TO.C,R24*%
X77216000Y-74930000D03*
D12*
X84835999Y-74929999D03*
%TD*%
D11*
%TO.C,R15*%
X84836000Y-78486000D03*
D12*
X77215999Y-78485999D03*
%TD*%
D11*
%TO.C,R5*%
X106426000Y-45720000D03*
D12*
X114045999Y-45719999D03*
%TD*%
D11*
%TO.C,R4*%
X106426000Y-49276000D03*
D12*
X114045999Y-49275999D03*
%TD*%
D11*
%TO.C,R23*%
X80264000Y-53594000D03*
D12*
X72643999Y-53593999D03*
%TD*%
%TO.C,R25*%
X82803999Y-53593999D03*
D11*
X90424000Y-53594000D03*
%TD*%
D13*
%TO.C,H4*%
X142960000Y-89940000D03*
D14*
X142960000Y-89940000D03*
%TD*%
D11*
%TO.C,R20*%
X114046000Y-80264000D03*
D12*
X106425999Y-80263999D03*
%TD*%
D11*
%TO.C,R10*%
X128524000Y-49784000D03*
D12*
X136143999Y-49783999D03*
%TD*%
D13*
%TO.C,H1*%
X142960000Y-27940000D03*
D14*
X142960000Y-27940000D03*
%TD*%
D11*
%TO.C,C7*%
X98298000Y-84562000D03*
X98298000Y-82062000D03*
%TD*%
D15*
%TO.C,Y1*%
X112317750Y-66675000D03*
X112317750Y-61795000D03*
%TD*%
D11*
%TO.C,R3*%
X106426000Y-52832000D03*
D12*
X114045999Y-52831999D03*
%TD*%
D11*
%TO.C,C4*%
X107559000Y-69175000D03*
X107559000Y-66675000D03*
%TD*%
%TO.C,R6*%
X106426000Y-42164000D03*
D12*
X114045999Y-42163999D03*
%TD*%
D16*
%TO.C,Q4*%
X94850624Y-49275999D03*
D17*
X94850624Y-48005999D03*
X94850624Y-46735999D03*
%TD*%
D12*
%TO.C,U3*%
X95005999Y-68833999D03*
X95005999Y-71373999D03*
X95005999Y-73913999D03*
X95005999Y-76453999D03*
X87385999Y-76453999D03*
X87385999Y-73913999D03*
X87385999Y-71373999D03*
D18*
X87385999Y-68833999D03*
%TD*%
%TO.C,U1*%
X117474999Y-42439999D03*
D12*
X117474999Y-44979999D03*
X117474999Y-47519999D03*
X117474999Y-50059999D03*
X117474999Y-52599999D03*
X117474999Y-55139999D03*
X117474999Y-57679999D03*
X117474999Y-60219999D03*
X117474999Y-62759999D03*
X117474999Y-65299999D03*
X117474999Y-67839999D03*
X117474999Y-70379999D03*
X117474999Y-72919999D03*
X117474999Y-75459999D03*
X125094999Y-75459999D03*
X125094999Y-72919999D03*
X125094999Y-70379999D03*
X125094999Y-67839999D03*
X125094999Y-65299999D03*
X125094999Y-62759999D03*
X125094999Y-60219999D03*
X125094999Y-57679999D03*
X125094999Y-55139999D03*
X125094999Y-52599999D03*
X125094999Y-50059999D03*
X125094999Y-47519999D03*
X125094999Y-44979999D03*
X125094999Y-42439999D03*
%TD*%
%TO.C,R8*%
X117347999Y-80263999D03*
D11*
X124968000Y-80264000D03*
%TD*%
D19*
%TO.C,C1*%
X141224000Y-53340000D03*
D20*
X139223999Y-53339999D03*
%TD*%
D11*
%TO.C,C5*%
X128895000Y-63480000D03*
X128895000Y-60980000D03*
%TD*%
%TO.C,R22*%
X77216000Y-71374000D03*
D12*
X84835999Y-71373999D03*
%TD*%
D11*
%TO.C,R18*%
X114046000Y-73063000D03*
D12*
X106425999Y-73062999D03*
%TD*%
D11*
%TO.C,C8*%
X97810000Y-68326000D03*
X100310000Y-68326000D03*
%TD*%
%TO.C,R19*%
X114046000Y-76708000D03*
D12*
X106425999Y-76707999D03*
%TD*%
D13*
%TO.C,H3*%
X60960000Y-27940000D03*
D14*
X60960000Y-27940000D03*
%TD*%
D11*
%TO.C,R1*%
X106426000Y-31496000D03*
D12*
X114045999Y-31495999D03*
%TD*%
D11*
%TO.C,R14*%
X84836000Y-82042000D03*
D12*
X77215999Y-82041999D03*
%TD*%
D11*
%TO.C,C2*%
X127762000Y-34056000D03*
X127762000Y-36556000D03*
%TD*%
%TO.C,R21*%
X70104000Y-53594000D03*
D12*
X62483999Y-53593999D03*
%TD*%
%TO.C,R17*%
X98297999Y-78993999D03*
D11*
X98298000Y-71374000D03*
%TD*%
%TO.C,R7*%
X106426000Y-38608000D03*
D12*
X114045999Y-38607999D03*
%TD*%
D11*
%TO.C,C6*%
X113792000Y-56388000D03*
X111292000Y-56388000D03*
%TD*%
%TO.C,R2*%
X106426000Y-35052000D03*
D12*
X114045999Y-35051999D03*
%TD*%
D16*
%TO.C,Q1*%
X73260624Y-49275999D03*
D17*
X73260624Y-48005999D03*
X73260624Y-46735999D03*
%TD*%
D12*
%TO.C,R11*%
X117347999Y-83819999D03*
D11*
X124968000Y-83820000D03*
%TD*%
%TO.C,R26*%
X100584000Y-53594000D03*
D12*
X92963999Y-53593999D03*
%TD*%
D13*
%TO.C,H2*%
X60960000Y-89940000D03*
D14*
X60960000Y-89940000D03*
%TD*%
D16*
%TO.C,Q3*%
X87653956Y-49275999D03*
D17*
X87653956Y-48005999D03*
X87653956Y-46735999D03*
%TD*%
D11*
%TO.C,R12*%
X70612000Y-83058000D03*
D12*
X62991999Y-83057999D03*
%TD*%
D16*
%TO.C,Q2*%
X80457290Y-49275999D03*
D17*
X80457290Y-48005999D03*
X80457290Y-46735999D03*
%TD*%
D21*
%TO.C,D2*%
X132836999Y-85597999D03*
D22*
X135377000Y-85598000D03*
%TD*%
D20*
%TO.C,U2*%
X74899999Y-42159999D03*
D19*
X77440000Y-42160000D03*
X79980000Y-42160000D03*
X82520000Y-42160000D03*
X85060000Y-42160000D03*
X87600000Y-42160000D03*
X90140000Y-42160000D03*
X92680000Y-42160000D03*
X92680000Y-32000000D03*
X90140000Y-32000000D03*
X87600000Y-32000000D03*
X85060000Y-32000000D03*
X82520000Y-32000000D03*
X79980000Y-32000000D03*
X77440000Y-32000000D03*
X74900000Y-32000000D03*
%TD*%
D11*
%TO.C,C3*%
X107559000Y-61795000D03*
X107559000Y-59295000D03*
%TD*%
D23*
%TO.C,J1*%
X136779000Y-63500000D03*
D24*
X139319000Y-63500000D03*
X136779000Y-66040000D03*
X139319000Y-66040000D03*
X136779000Y-68580000D03*
X139319000Y-68580000D03*
%TD*%
D11*
%TO.C,R9*%
X128524000Y-53340000D03*
D12*
X136143999Y-53339999D03*
%TD*%
D11*
%TO.C,R13*%
X84836000Y-85598000D03*
D12*
X77215999Y-85597999D03*
%TD*%
D15*
%TO.C,SW2*%
X72652000Y-68775000D03*
X70112000Y-68775000D03*
X67572000Y-68775000D03*
X65032000Y-68775000D03*
X72652000Y-76395000D03*
X70112000Y-76395000D03*
X67572000Y-76395000D03*
X65032000Y-76395000D03*
%TD*%
D22*
%TO.C,VR1*%
X142748000Y-41148000D03*
X142748000Y-38648000D03*
X142748000Y-36148000D03*
D25*
X135748000Y-43048000D03*
X135748000Y-34248000D03*
%TD*%
D22*
%TO.C,D1*%
X135372000Y-78740000D03*
D21*
X132831999Y-78739999D03*
%TD*%
D11*
%TO.C,R16*%
X77216000Y-67818000D03*
D12*
X84835999Y-67817999D03*
%TD*%
M02*
