%TF.GenerationSoftware,KiCad,Pcbnew,7.0.0-da2b9df05c~171~ubuntu22.04.1*%
%TF.CreationDate,2023-03-05T16:37:29+08:00*%
%TF.ProjectId,circuit,63697263-7569-4742-9e6b-696361645f70,1.0*%
%TF.SameCoordinates,Original*%
%TF.FileFunction,Soldermask,Bot*%
%TF.FilePolarity,Negative*%
%FSLAX46Y46*%
G04 Gerber Fmt 4.6, Leading zero omitted, Abs format (unit mm)*
G04 Created by KiCad (PCBNEW 7.0.0-da2b9df05c~171~ubuntu22.04.1) date 2023-03-05 16:37:29*
%MOMM*%
%LPD*%
G01*
G04 APERTURE LIST*
G04 Aperture macros list*
%AMRoundRect*
0 Rectangle with rounded corners*
0 $1 Rounding radius*
0 $2 $3 $4 $5 $6 $7 $8 $9 X,Y pos of 4 corners*
0 Add a 4 corners polygon primitive as box body*
4,1,4,$2,$3,$4,$5,$6,$7,$8,$9,$2,$3,0*
0 Add four circle primitives for the rounded corners*
1,1,$1+$1,$2,$3*
1,1,$1+$1,$4,$5*
1,1,$1+$1,$6,$7*
1,1,$1+$1,$8,$9*
0 Add four rect primitives between the rounded corners*
20,1,$1+$1,$2,$3,$4,$5,0*
20,1,$1+$1,$4,$5,$6,$7,0*
20,1,$1+$1,$6,$7,$8,$9,0*
20,1,$1+$1,$8,$9,$2,$3,0*%
G04 Aperture macros list end*
%ADD10C,1.800000*%
%ADD11C,4.460000*%
%ADD12C,1.500000*%
%ADD13RoundRect,0.250000X-0.600000X-0.600000X0.600000X-0.600000X0.600000X0.600000X-0.600000X0.600000X0*%
%ADD14C,1.700000*%
%ADD15C,2.000000*%
%ADD16C,1.400000*%
%ADD17O,1.400000X1.400000*%
%ADD18C,2.600000*%
%ADD19C,3.800000*%
%ADD20C,1.600000*%
%ADD21R,1.500000X1.050000*%
%ADD22O,1.500000X1.050000*%
%ADD23R,1.600000X1.600000*%
%ADD24O,1.600000X1.600000*%
%ADD25R,1.200000X1.200000*%
%ADD26C,1.200000*%
%ADD27R,2.000000X2.000000*%
%ADD28R,1.800000X1.800000*%
G04 APERTURE END LIST*
D10*
%TO.C,VR1*%
X142748000Y-41148000D03*
X142748000Y-38648000D03*
X142748000Y-36148000D03*
D11*
X135748000Y-43048000D03*
X135748000Y-34248000D03*
%TD*%
D12*
%TO.C,SW2*%
X65032000Y-76395000D03*
X67572000Y-76395000D03*
X70112000Y-76395000D03*
X72652000Y-76395000D03*
X65032000Y-68775000D03*
X67572000Y-68775000D03*
X70112000Y-68775000D03*
X72652000Y-68775000D03*
%TD*%
D13*
%TO.C,J1*%
X136779000Y-63500000D03*
D14*
X139319000Y-63500000D03*
X136779000Y-66040000D03*
X139319000Y-66040000D03*
X136779000Y-68580000D03*
X139319000Y-68580000D03*
%TD*%
D15*
%TO.C,SW3*%
X86928000Y-81062000D03*
X93428000Y-81062000D03*
X86928000Y-85562000D03*
X93428000Y-85562000D03*
%TD*%
%TO.C,SW1*%
X118025000Y-32600000D03*
X124525000Y-32600000D03*
X118025000Y-37100000D03*
X124525000Y-37100000D03*
%TD*%
D16*
%TO.C,R24*%
X77986000Y-76200000D03*
D17*
X83065999Y-76199999D03*
%TD*%
D16*
%TO.C,R15*%
X83066000Y-79756000D03*
D17*
X77985999Y-79755999D03*
%TD*%
D16*
%TO.C,R5*%
X112639000Y-47752000D03*
D17*
X107558999Y-47751999D03*
%TD*%
D16*
%TO.C,R4*%
X112639000Y-50292000D03*
D17*
X107558999Y-50291999D03*
%TD*%
D16*
%TO.C,R23*%
X82637291Y-54840000D03*
D17*
X77557290Y-54839999D03*
%TD*%
D16*
%TO.C,R25*%
X89833957Y-54840000D03*
D17*
X84753956Y-54839999D03*
%TD*%
D18*
%TO.C,H4*%
X142960000Y-89940000D03*
D19*
X142960000Y-89940000D03*
%TD*%
D16*
%TO.C,R20*%
X112385000Y-78105000D03*
D17*
X107304999Y-78104999D03*
%TD*%
D16*
%TO.C,R10*%
X129540000Y-47752000D03*
D17*
X134619999Y-47751999D03*
%TD*%
D18*
%TO.C,H1*%
X142960000Y-27940000D03*
D19*
X142960000Y-27940000D03*
%TD*%
D20*
%TO.C,C7*%
X97290000Y-78740000D03*
X97290000Y-81240000D03*
%TD*%
D12*
%TO.C,Y1*%
X112317750Y-66675000D03*
X112317750Y-61795000D03*
%TD*%
D16*
%TO.C,R3*%
X112639000Y-52832000D03*
D17*
X107558999Y-52831999D03*
%TD*%
D20*
%TO.C,C4*%
X107559000Y-69175000D03*
X107559000Y-66675000D03*
%TD*%
D16*
%TO.C,R6*%
X112639000Y-45212000D03*
D17*
X107558999Y-45211999D03*
%TD*%
D21*
%TO.C,Q4*%
X94850624Y-51029999D03*
D22*
X94850624Y-49759999D03*
X94850624Y-48489999D03*
%TD*%
D23*
%TO.C,U3*%
X86377999Y-68589999D03*
D24*
X86377999Y-71129999D03*
X86377999Y-73669999D03*
X86377999Y-76209999D03*
X93997999Y-76209999D03*
X93997999Y-73669999D03*
X93997999Y-71129999D03*
X93997999Y-68589999D03*
%TD*%
D23*
%TO.C,U1*%
X117474999Y-42439999D03*
D24*
X117474999Y-44979999D03*
X117474999Y-47519999D03*
X117474999Y-50059999D03*
X117474999Y-52599999D03*
X117474999Y-55139999D03*
X117474999Y-57679999D03*
X117474999Y-60219999D03*
X117474999Y-62759999D03*
X117474999Y-65299999D03*
X117474999Y-67839999D03*
X117474999Y-70379999D03*
X117474999Y-72919999D03*
X117474999Y-75459999D03*
X125094999Y-75459999D03*
X125094999Y-72919999D03*
X125094999Y-70379999D03*
X125094999Y-67839999D03*
X125094999Y-65299999D03*
X125094999Y-62759999D03*
X125094999Y-60219999D03*
X125094999Y-57679999D03*
X125094999Y-55139999D03*
X125094999Y-52599999D03*
X125094999Y-50059999D03*
X125094999Y-47519999D03*
X125094999Y-44979999D03*
X125094999Y-42439999D03*
%TD*%
D16*
%TO.C,R8*%
X122428000Y-83554000D03*
D17*
X117347999Y-83553999D03*
%TD*%
D25*
%TO.C,C1*%
X139223999Y-54355999D03*
D26*
X141224000Y-54356000D03*
%TD*%
D20*
%TO.C,C5*%
X128895000Y-55880000D03*
X128895000Y-58380000D03*
%TD*%
D16*
%TO.C,R22*%
X77986000Y-73660000D03*
D17*
X83065999Y-73659999D03*
%TD*%
D16*
%TO.C,R18*%
X112385000Y-73063000D03*
D17*
X107304999Y-73062999D03*
%TD*%
D20*
%TO.C,C8*%
X97322000Y-67056000D03*
X99822000Y-67056000D03*
%TD*%
D27*
%TO.C,TP1*%
X109727999Y-86359999D03*
%TD*%
D16*
%TO.C,R19*%
X112385000Y-75565000D03*
D17*
X107304999Y-75564999D03*
%TD*%
D18*
%TO.C,H3*%
X60960000Y-27940000D03*
D19*
X60960000Y-27940000D03*
%TD*%
D16*
%TO.C,R1*%
X107569000Y-34290000D03*
D17*
X112648999Y-34289999D03*
%TD*%
D16*
%TO.C,R14*%
X83066000Y-82296000D03*
D17*
X77985999Y-82295999D03*
%TD*%
D20*
%TO.C,C2*%
X110149000Y-37211000D03*
X112649000Y-37211000D03*
%TD*%
D16*
%TO.C,R21*%
X75440625Y-54840000D03*
D17*
X70360624Y-54839999D03*
%TD*%
D16*
%TO.C,R17*%
X97290000Y-69850000D03*
D17*
X97289999Y-74929999D03*
%TD*%
D16*
%TO.C,R7*%
X112649000Y-42672000D03*
D17*
X107568999Y-42671999D03*
%TD*%
D20*
%TO.C,C6*%
X113792000Y-56388000D03*
X111292000Y-56388000D03*
%TD*%
D16*
%TO.C,R2*%
X107559000Y-40132000D03*
D17*
X112638999Y-40131999D03*
%TD*%
D21*
%TO.C,Q1*%
X73260624Y-51029999D03*
D22*
X73260624Y-49759999D03*
X73260624Y-48489999D03*
%TD*%
D16*
%TO.C,R11*%
X122428000Y-81026000D03*
D17*
X117347999Y-81025999D03*
%TD*%
D16*
%TO.C,R26*%
X97030625Y-54840000D03*
D17*
X91950624Y-54839999D03*
%TD*%
D18*
%TO.C,H2*%
X60960000Y-89940000D03*
D19*
X60960000Y-89940000D03*
%TD*%
D21*
%TO.C,Q3*%
X87653956Y-51029999D03*
D22*
X87653956Y-49759999D03*
X87653956Y-48489999D03*
%TD*%
D16*
%TO.C,R12*%
X83066000Y-87376000D03*
D17*
X77985999Y-87375999D03*
%TD*%
D21*
%TO.C,Q2*%
X80457290Y-51029999D03*
D22*
X80457290Y-49759999D03*
X80457290Y-48489999D03*
%TD*%
D28*
%TO.C,D2*%
X128523999Y-82549999D03*
D10*
X131064000Y-82550000D03*
%TD*%
D25*
%TO.C,U2*%
X74899999Y-42159999D03*
D26*
X77440000Y-42160000D03*
X79980000Y-42160000D03*
X82520000Y-42160000D03*
X85060000Y-42160000D03*
X87600000Y-42160000D03*
X90140000Y-42160000D03*
X92680000Y-42160000D03*
X92680000Y-32000000D03*
X90140000Y-32000000D03*
X87600000Y-32000000D03*
X85060000Y-32000000D03*
X82520000Y-32000000D03*
X79980000Y-32000000D03*
X77440000Y-32000000D03*
X74900000Y-32000000D03*
%TD*%
D20*
%TO.C,C3*%
X107559000Y-61795000D03*
X107559000Y-59295000D03*
%TD*%
D17*
%TO.C,R9*%
X134619999Y-50799999D03*
D16*
X129540000Y-50800000D03*
%TD*%
%TO.C,R13*%
X83066000Y-84836000D03*
D17*
X77985999Y-84835999D03*
%TD*%
D28*
%TO.C,D1*%
X136900999Y-82549999D03*
D10*
X139441000Y-82550000D03*
%TD*%
D27*
%TO.C,TP2*%
X103631999Y-86373999D03*
%TD*%
D16*
%TO.C,R16*%
X77986000Y-71120000D03*
D17*
X83065999Y-71119999D03*
%TD*%
M02*
