%TF.GenerationSoftware,KiCad,Pcbnew,7.0.0-da2b9df05c~171~ubuntu22.04.1*%
%TF.CreationDate,2023-03-09T21:45:25+08:00*%
%TF.ProjectId,circuit,63697263-7569-4742-9e6b-696361645f70,1.0*%
%TF.SameCoordinates,Original*%
%TF.FileFunction,Copper,L2,Inr*%
%TF.FilePolarity,Positive*%
%FSLAX46Y46*%
G04 Gerber Fmt 4.6, Leading zero omitted, Abs format (unit mm)*
G04 Created by KiCad (PCBNEW 7.0.0-da2b9df05c~171~ubuntu22.04.1) date 2023-03-09 21:45:25*
%MOMM*%
%LPD*%
G01*
G04 APERTURE LIST*
G04 Aperture macros list*
%AMRoundRect*
0 Rectangle with rounded corners*
0 $1 Rounding radius*
0 $2 $3 $4 $5 $6 $7 $8 $9 X,Y pos of 4 corners*
0 Add a 4 corners polygon primitive as box body*
4,1,4,$2,$3,$4,$5,$6,$7,$8,$9,$2,$3,0*
0 Add four circle primitives for the rounded corners*
1,1,$1+$1,$2,$3*
1,1,$1+$1,$4,$5*
1,1,$1+$1,$6,$7*
1,1,$1+$1,$8,$9*
0 Add four rect primitives between the rounded corners*
20,1,$1+$1,$2,$3,$4,$5,0*
20,1,$1+$1,$4,$5,$6,$7,0*
20,1,$1+$1,$6,$7,$8,$9,0*
20,1,$1+$1,$8,$9,$2,$3,0*%
G04 Aperture macros list end*
%TA.AperFunction,ComponentPad*%
%ADD10C,2.000000*%
%TD*%
%TA.AperFunction,ComponentPad*%
%ADD11C,1.600000*%
%TD*%
%TA.AperFunction,ComponentPad*%
%ADD12O,1.600000X1.600000*%
%TD*%
%TA.AperFunction,ComponentPad*%
%ADD13C,2.600000*%
%TD*%
%TA.AperFunction,ComponentPad*%
%ADD14C,1.500000*%
%TD*%
%TA.AperFunction,ComponentPad*%
%ADD15R,1.500000X1.050000*%
%TD*%
%TA.AperFunction,ComponentPad*%
%ADD16O,1.500000X1.050000*%
%TD*%
%TA.AperFunction,ComponentPad*%
%ADD17R,1.600000X1.600000*%
%TD*%
%TA.AperFunction,ComponentPad*%
%ADD18C,1.200000*%
%TD*%
%TA.AperFunction,ComponentPad*%
%ADD19R,1.200000X1.200000*%
%TD*%
%TA.AperFunction,ComponentPad*%
%ADD20R,1.800000X1.800000*%
%TD*%
%TA.AperFunction,ComponentPad*%
%ADD21C,1.800000*%
%TD*%
%TA.AperFunction,ComponentPad*%
%ADD22RoundRect,0.250000X-0.600000X-0.600000X0.600000X-0.600000X0.600000X0.600000X-0.600000X0.600000X0*%
%TD*%
%TA.AperFunction,ComponentPad*%
%ADD23C,1.700000*%
%TD*%
%TA.AperFunction,ComponentPad*%
%ADD24C,4.460000*%
%TD*%
%TA.AperFunction,ViaPad*%
%ADD25C,0.475000*%
%TD*%
%TA.AperFunction,Conductor*%
%ADD26C,0.200000*%
%TD*%
G04 APERTURE END LIST*
D10*
%TO.N,GND*%
%TO.C,SW3*%
X94436000Y-85806000D03*
X87936000Y-85806000D03*
%TO.N,Net-(U3-R)*%
X94436000Y-81306000D03*
X87936000Y-81306000D03*
%TD*%
%TO.N,GND*%
%TO.C,SW1*%
X118025000Y-32600000D03*
X124525000Y-32600000D03*
%TO.N,Net-(R1-Pad2)*%
X118025000Y-37100000D03*
X124525000Y-37100000D03*
%TD*%
D11*
%TO.N,VCC*%
%TO.C,R24*%
X77216000Y-74930000D03*
D12*
%TO.N,Net-(U3-R)*%
X84835999Y-74929999D03*
%TD*%
D11*
%TO.N,VCC*%
%TO.C,R15*%
X84836000Y-78486000D03*
D12*
%TO.N,Net-(SW2-COM4)*%
X77215999Y-78485999D03*
%TD*%
D11*
%TO.N,Net-(U2-CATHODE_AL1)*%
%TO.C,R5*%
X106426000Y-45720000D03*
D12*
%TO.N,/A*%
X114045999Y-45719999D03*
%TD*%
D11*
%TO.N,Net-(U2-CATHODE_G)*%
%TO.C,R4*%
X106426000Y-49276000D03*
D12*
%TO.N,/G*%
X114045999Y-49275999D03*
%TD*%
D11*
%TO.N,~{DIGIT_1}*%
%TO.C,R23*%
X80264000Y-53594000D03*
D12*
%TO.N,Net-(Q2-B)*%
X72643999Y-53593999D03*
%TD*%
%TO.N,Net-(Q3-B)*%
%TO.C,R25*%
X82803999Y-53593999D03*
D11*
%TO.N,~{DIGIT_2}*%
X90424000Y-53594000D03*
%TD*%
D13*
%TO.N,N/C*%
%TO.C,H4*%
X142960000Y-89940000D03*
%TD*%
D11*
%TO.N,/DEC*%
%TO.C,R20*%
X114046000Y-80264000D03*
D12*
%TO.N,Net-(U2-CATHODE_DP)*%
X106425999Y-80263999D03*
%TD*%
D11*
%TO.N,GND*%
%TO.C,R10*%
X128524000Y-49784000D03*
D12*
%TO.N,Net-(R10-Pad2)*%
X136143999Y-49783999D03*
%TD*%
D13*
%TO.N,N/C*%
%TO.C,H1*%
X142960000Y-27940000D03*
%TD*%
D11*
%TO.N,GND*%
%TO.C,C7*%
X98298000Y-84562000D03*
%TO.N,Net-(U3-THR)*%
X98298000Y-82062000D03*
%TD*%
D14*
%TO.N,Net-(U1-PB7{slash}XTAL2)*%
%TO.C,Y1*%
X112317750Y-66675000D03*
%TO.N,Net-(U1-PB6{slash}XTAL1)*%
X112317750Y-61795000D03*
%TD*%
D11*
%TO.N,Net-(U2-CATHODE_BL2)*%
%TO.C,R3*%
X106426000Y-52832000D03*
D12*
%TO.N,/B*%
X114045999Y-52831999D03*
%TD*%
D11*
%TO.N,GND*%
%TO.C,C4*%
X107559000Y-69175000D03*
%TO.N,Net-(U1-PB7{slash}XTAL2)*%
X107559000Y-66675000D03*
%TD*%
%TO.N,Net-(U2-CATHODE_CL3)*%
%TO.C,R6*%
X106426000Y-42164000D03*
D12*
%TO.N,/C*%
X114045999Y-42163999D03*
%TD*%
D15*
%TO.N,VCC*%
%TO.C,Q4*%
X94850624Y-49275999D03*
D16*
%TO.N,Net-(Q4-B)*%
X94850624Y-48005999D03*
%TO.N,Net-(Q4-C)*%
X94850624Y-46735999D03*
%TD*%
D12*
%TO.N,VCC*%
%TO.C,U3*%
X95005999Y-68833999D03*
%TO.N,Net-(SW2-NO1)*%
X95005999Y-71373999D03*
%TO.N,Net-(U3-THR)*%
X95005999Y-73913999D03*
%TO.N,unconnected-(U3-CV-Pad5)*%
X95005999Y-76453999D03*
%TO.N,Net-(U3-R)*%
X87385999Y-76453999D03*
%TO.N,Frequency*%
X87385999Y-73913999D03*
%TO.N,Net-(U3-THR)*%
X87385999Y-71373999D03*
D17*
%TO.N,GND*%
X87385999Y-68833999D03*
%TD*%
%TO.N,~{RESET}*%
%TO.C,U1*%
X117474999Y-42439999D03*
D12*
%TO.N,/F*%
X117474999Y-44979999D03*
%TO.N,/C*%
X117474999Y-47519999D03*
%TO.N,/A*%
X117474999Y-50059999D03*
%TO.N,/G*%
X117474999Y-52599999D03*
%TO.N,/B*%
X117474999Y-55139999D03*
%TO.N,VCC*%
X117474999Y-57679999D03*
%TO.N,GND*%
X117474999Y-60219999D03*
%TO.N,Net-(U1-PB6{slash}XTAL1)*%
X117474999Y-62759999D03*
%TO.N,Net-(U1-PB7{slash}XTAL2)*%
X117474999Y-65299999D03*
%TO.N,/D*%
X117474999Y-67839999D03*
%TO.N,/E*%
X117474999Y-70379999D03*
%TO.N,/DEC*%
X117474999Y-72919999D03*
%TO.N,Frequency*%
X117474999Y-75459999D03*
%TO.N,Net-(D1-A)*%
X125094999Y-75459999D03*
%TO.N,Net-(D2-A)*%
X125094999Y-72919999D03*
%TO.N,MOSI*%
X125094999Y-70379999D03*
%TO.N,MISO*%
X125094999Y-67839999D03*
%TO.N,SCK*%
X125094999Y-65299999D03*
%TO.N,VCC*%
X125094999Y-62759999D03*
%TO.N,Net-(U1-AREF)*%
X125094999Y-60219999D03*
%TO.N,GND*%
X125094999Y-57679999D03*
%TO.N,~{DIGIT_0}*%
X125094999Y-55139999D03*
%TO.N,~{DIGIT_1}*%
X125094999Y-52599999D03*
%TO.N,~{DIGIT_2}*%
X125094999Y-50059999D03*
%TO.N,~{DIGIT_3}*%
X125094999Y-47519999D03*
%TO.N,Net-(U1-PC4)*%
X125094999Y-44979999D03*
%TO.N,unconnected-(U1-PC5-Pad28)*%
X125094999Y-42439999D03*
%TD*%
%TO.N,GND*%
%TO.C,R8*%
X117347999Y-80263999D03*
D11*
%TO.N,Net-(D1-K)*%
X124968000Y-80264000D03*
%TD*%
D18*
%TO.N,GND*%
%TO.C,C1*%
X141224000Y-53340000D03*
D19*
%TO.N,VCC*%
X139223999Y-53339999D03*
%TD*%
D11*
%TO.N,GND*%
%TO.C,C5*%
X128895000Y-63480000D03*
%TO.N,Net-(U1-AREF)*%
X128895000Y-60980000D03*
%TD*%
%TO.N,VCC*%
%TO.C,R22*%
X77216000Y-71374000D03*
D12*
%TO.N,Frequency*%
X84835999Y-71373999D03*
%TD*%
D11*
%TO.N,/D*%
%TO.C,R18*%
X114046000Y-73063000D03*
D12*
%TO.N,Net-(U2-CATHODE_D)*%
X106425999Y-73062999D03*
%TD*%
D11*
%TO.N,VCC*%
%TO.C,C8*%
X97810000Y-68326000D03*
%TO.N,GND*%
X100310000Y-68326000D03*
%TD*%
%TO.N,/E*%
%TO.C,R19*%
X114046000Y-76708000D03*
D12*
%TO.N,Net-(U2-CATHODE_E)*%
X106425999Y-76707999D03*
%TD*%
D13*
%TO.N,N/C*%
%TO.C,H3*%
X60960000Y-27940000D03*
%TD*%
D11*
%TO.N,~{RESET}*%
%TO.C,R1*%
X106426000Y-31496000D03*
D12*
%TO.N,Net-(R1-Pad2)*%
X114045999Y-31495999D03*
%TD*%
D11*
%TO.N,VCC*%
%TO.C,R14*%
X84836000Y-82042000D03*
D12*
%TO.N,Net-(SW2-COM3)*%
X77215999Y-82041999D03*
%TD*%
D11*
%TO.N,GND*%
%TO.C,C2*%
X127762000Y-34056000D03*
%TO.N,~{RESET}*%
X127762000Y-36556000D03*
%TD*%
%TO.N,~{DIGIT_0}*%
%TO.C,R21*%
X70104000Y-53594000D03*
D12*
%TO.N,Net-(Q1-B)*%
X62483999Y-53593999D03*
%TD*%
%TO.N,Net-(U3-THR)*%
%TO.C,R17*%
X98297999Y-78993999D03*
D11*
%TO.N,Net-(SW2-NO1)*%
X98298000Y-71374000D03*
%TD*%
%TO.N,Net-(U2-CATHODE_F)*%
%TO.C,R7*%
X106426000Y-38608000D03*
D12*
%TO.N,/F*%
X114045999Y-38607999D03*
%TD*%
D11*
%TO.N,VCC*%
%TO.C,C6*%
X113792000Y-56388000D03*
%TO.N,GND*%
X111292000Y-56388000D03*
%TD*%
%TO.N,VCC*%
%TO.C,R2*%
X106426000Y-35052000D03*
D12*
%TO.N,~{RESET}*%
X114045999Y-35051999D03*
%TD*%
D15*
%TO.N,VCC*%
%TO.C,Q1*%
X73260624Y-49275999D03*
D16*
%TO.N,Net-(Q1-B)*%
X73260624Y-48005999D03*
%TO.N,Net-(Q1-C)*%
X73260624Y-46735999D03*
%TD*%
D12*
%TO.N,GND*%
%TO.C,R11*%
X117347999Y-83819999D03*
D11*
%TO.N,Net-(D2-K)*%
X124968000Y-83820000D03*
%TD*%
%TO.N,~{DIGIT_3}*%
%TO.C,R26*%
X100584000Y-53594000D03*
D12*
%TO.N,Net-(Q4-B)*%
X92963999Y-53593999D03*
%TD*%
D13*
%TO.N,N/C*%
%TO.C,H2*%
X60960000Y-89940000D03*
%TD*%
D15*
%TO.N,VCC*%
%TO.C,Q3*%
X87653956Y-49275999D03*
D16*
%TO.N,Net-(Q3-B)*%
X87653956Y-48005999D03*
%TO.N,Net-(Q3-C)*%
X87653956Y-46735999D03*
%TD*%
D11*
%TO.N,VCC*%
%TO.C,R12*%
X70612000Y-83058000D03*
D12*
%TO.N,Net-(SW2-COM1)*%
X62991999Y-83057999D03*
%TD*%
D15*
%TO.N,VCC*%
%TO.C,Q2*%
X80457290Y-49275999D03*
D16*
%TO.N,Net-(Q2-B)*%
X80457290Y-48005999D03*
%TO.N,Net-(Q2-C)*%
X80457290Y-46735999D03*
%TD*%
D20*
%TO.N,Net-(D2-K)*%
%TO.C,D2*%
X132836999Y-85597999D03*
D21*
%TO.N,Net-(D2-A)*%
X135377000Y-85598000D03*
%TD*%
D19*
%TO.N,Net-(Q1-C)*%
%TO.C,U2*%
X74899999Y-42159999D03*
D18*
%TO.N,Net-(Q2-C)*%
X77440000Y-42160000D03*
%TO.N,Net-(U2-CATHODE_D)*%
X79980000Y-42160000D03*
%TO.N,unconnected-(U2-COMMON_ANODE_L1L2L3-Pad4)*%
X82520000Y-42160000D03*
%TO.N,Net-(U2-CATHODE_E)*%
X85060000Y-42160000D03*
%TO.N,Net-(Q3-C)*%
X87600000Y-42160000D03*
%TO.N,Net-(U2-CATHODE_DP)*%
X90140000Y-42160000D03*
%TO.N,Net-(Q4-C)*%
X92680000Y-42160000D03*
%TO.N,unconnected-(U2-NO_CONNECTION-Pad9)*%
X92680000Y-32000000D03*
%TO.N,unconnected-(U2-NO_PIN_1-Pad10)*%
X90140000Y-32000000D03*
%TO.N,Net-(U2-CATHODE_F)*%
X87600000Y-32000000D03*
%TO.N,unconnected-(U2-NO_PIN_2-Pad12)*%
X85060000Y-32000000D03*
%TO.N,Net-(U2-CATHODE_CL3)*%
X82520000Y-32000000D03*
%TO.N,Net-(U2-CATHODE_AL1)*%
X79980000Y-32000000D03*
%TO.N,Net-(U2-CATHODE_G)*%
X77440000Y-32000000D03*
%TO.N,Net-(U2-CATHODE_BL2)*%
X74900000Y-32000000D03*
%TD*%
D11*
%TO.N,Net-(U1-PB6{slash}XTAL1)*%
%TO.C,C3*%
X107559000Y-61795000D03*
%TO.N,GND*%
X107559000Y-59295000D03*
%TD*%
D22*
%TO.N,MISO*%
%TO.C,J1*%
X136779000Y-63500000D03*
D23*
%TO.N,VCC*%
X139319000Y-63500000D03*
%TO.N,SCK*%
X136779000Y-66040000D03*
%TO.N,MOSI*%
X139319000Y-66040000D03*
%TO.N,~{RESET}*%
X136779000Y-68580000D03*
%TO.N,GND*%
X139319000Y-68580000D03*
%TD*%
D11*
%TO.N,VCC*%
%TO.C,R9*%
X128524000Y-53340000D03*
D12*
%TO.N,Net-(R9-Pad2)*%
X136143999Y-53339999D03*
%TD*%
D11*
%TO.N,VCC*%
%TO.C,R13*%
X84836000Y-85598000D03*
D12*
%TO.N,Net-(SW2-COM2)*%
X77215999Y-85597999D03*
%TD*%
D14*
%TO.N,Net-(SW2-NO1)*%
%TO.C,SW2*%
X72652000Y-68775000D03*
X70112000Y-68775000D03*
X67572000Y-68775000D03*
X65032000Y-68775000D03*
%TO.N,Net-(SW2-COM4)*%
X72652000Y-76395000D03*
%TO.N,Net-(SW2-COM3)*%
X70112000Y-76395000D03*
%TO.N,Net-(SW2-COM2)*%
X67572000Y-76395000D03*
%TO.N,Net-(SW2-COM1)*%
X65032000Y-76395000D03*
%TD*%
D21*
%TO.N,Net-(R9-Pad2)*%
%TO.C,VR1*%
X142748000Y-41148000D03*
%TO.N,Net-(U1-PC4)*%
X142748000Y-38648000D03*
%TO.N,Net-(R10-Pad2)*%
X142748000Y-36148000D03*
D24*
%TO.N,unconnected-(VR1-Pad4)*%
X135748000Y-43048000D03*
%TO.N,unconnected-(VR1-Pad5)*%
X135748000Y-34248000D03*
%TD*%
D21*
%TO.N,Net-(D1-A)*%
%TO.C,D1*%
X135372000Y-78740000D03*
D20*
%TO.N,Net-(D1-K)*%
X132831999Y-78739999D03*
%TD*%
D11*
%TO.N,VCC*%
%TO.C,R16*%
X77216000Y-67818000D03*
D12*
%TO.N,Net-(SW2-NO1)*%
X84835999Y-67817999D03*
%TD*%
D25*
%TO.N,~{RESET}*%
X138049000Y-60706000D03*
%TO.N,~{DIGIT_3}*%
X101346000Y-55626000D03*
%TO.N,~{DIGIT_2}*%
X101346000Y-56388000D03*
%TO.N,~{DIGIT_1}*%
X101346000Y-57150000D03*
%TO.N,~{DIGIT_0}*%
X101346000Y-57912000D03*
%TD*%
D26*
%TO.N,Net-(D2-A)*%
X135377000Y-85598000D02*
X137160000Y-83815000D01*
X137160000Y-83815000D02*
X137160000Y-77967182D01*
X132112818Y-72920000D02*
X125095000Y-72920000D01*
X137160000Y-77967182D02*
X132112818Y-72920000D01*
%TO.N,Net-(D1-A)*%
X135372000Y-78740000D02*
X132092000Y-75460000D01*
X132092000Y-75460000D02*
X125095000Y-75460000D01*
%TO.N,~{DIGIT_0}*%
X74422000Y-57912000D02*
X70104000Y-53594000D01*
X101346000Y-57912000D02*
X74422000Y-57912000D01*
%TO.N,~{DIGIT_1}*%
X101346000Y-57150000D02*
X83820000Y-57150000D01*
X83820000Y-57150000D02*
X80264000Y-53594000D01*
%TO.N,~{DIGIT_2}*%
X101346000Y-56388000D02*
X93218000Y-56388000D01*
X93218000Y-56388000D02*
X90424000Y-53594000D01*
%TO.N,~{DIGIT_3}*%
X100584000Y-54864000D02*
X100584000Y-53594000D01*
X101346000Y-55626000D02*
X100584000Y-54864000D01*
%TO.N,Net-(Q4-B)*%
X94850625Y-48006000D02*
X93900625Y-48006000D01*
X93900625Y-48006000D02*
X92964000Y-48942625D01*
X92964000Y-48942625D02*
X92964000Y-53594000D01*
%TO.N,Net-(Q3-B)*%
X87653957Y-48006000D02*
X86703957Y-48006000D01*
X86703957Y-48006000D02*
X82804000Y-51905957D01*
X82804000Y-51905957D02*
X82804000Y-53594000D01*
%TO.N,Net-(Q2-B)*%
X80457291Y-48006000D02*
X77724000Y-48006000D01*
X77724000Y-48006000D02*
X72644000Y-53086000D01*
%TO.N,Net-(Q1-B)*%
X73260625Y-48006000D02*
X67564000Y-48006000D01*
X67564000Y-48006000D02*
X62484000Y-53086000D01*
%TO.N,Net-(R1-Pad2)*%
X118025000Y-37100000D02*
X124525000Y-37100000D01*
%TO.N,Net-(U3-R)*%
X94436000Y-81306000D02*
X87936000Y-81306000D01*
%TO.N,~{RESET}*%
X138049000Y-60706000D02*
X138049000Y-67310000D01*
X138049000Y-67310000D02*
X136779000Y-68580000D01*
X106426000Y-31496000D02*
X109982000Y-35052000D01*
X109982000Y-35052000D02*
X114046000Y-35052000D01*
%TO.N,Net-(R1-Pad2)*%
X114046000Y-31496000D02*
X115824000Y-33274000D01*
X115824000Y-33274000D02*
X115824000Y-34899000D01*
X115824000Y-34899000D02*
X118025000Y-37100000D01*
%TO.N,/DEC*%
X114046000Y-80264000D02*
X116078000Y-78232000D01*
X116078000Y-78232000D02*
X116078000Y-74317000D01*
X116078000Y-74317000D02*
X117475000Y-72920000D01*
%TO.N,/E*%
X114046000Y-76708000D02*
X115570000Y-75184000D01*
X115570000Y-75184000D02*
X115570000Y-72285000D01*
X115570000Y-72285000D02*
X117475000Y-70380000D01*
%TO.N,/D*%
X114046000Y-73063000D02*
X114046000Y-71269000D01*
X114046000Y-71269000D02*
X117475000Y-67840000D01*
%TO.N,Net-(U2-CATHODE_DP)*%
X90140000Y-42160000D02*
X92168000Y-40132000D01*
X92168000Y-40132000D02*
X94234000Y-40132000D01*
X94234000Y-40132000D02*
X102616000Y-48514000D01*
X102616000Y-48514000D02*
X102616000Y-76454000D01*
X102616000Y-76454000D02*
X106426000Y-80264000D01*
%TO.N,Net-(U2-CATHODE_E)*%
X85060000Y-42160000D02*
X87596000Y-39624000D01*
X87596000Y-39624000D02*
X94488000Y-39624000D01*
X94488000Y-39624000D02*
X103124000Y-48260000D01*
X103124000Y-48260000D02*
X103124000Y-73406000D01*
X103124000Y-73406000D02*
X106426000Y-76708000D01*
%TO.N,Net-(U2-CATHODE_D)*%
X103632000Y-70269000D02*
X103632000Y-48006000D01*
X106426000Y-73063000D02*
X103632000Y-70269000D01*
%TO.N,Net-(SW2-NO1)*%
X98298000Y-71374000D02*
X95006000Y-71374000D01*
%TO.N,Net-(U3-THR)*%
X98298000Y-78994000D02*
X98298000Y-82062000D01*
X95006000Y-73914000D02*
X98298000Y-77206000D01*
X98298000Y-77206000D02*
X98298000Y-78994000D01*
X87386000Y-71374000D02*
X92466000Y-71374000D01*
X92466000Y-71374000D02*
X95006000Y-73914000D01*
%TO.N,Net-(SW2-NO1)*%
X86360000Y-66294000D02*
X75133000Y-66294000D01*
X75133000Y-66294000D02*
X72652000Y-68775000D01*
X84836000Y-67818000D02*
X86360000Y-66294000D01*
X86360000Y-66294000D02*
X89926000Y-66294000D01*
X89926000Y-66294000D02*
X95006000Y-71374000D01*
%TO.N,Net-(U3-R)*%
X84836000Y-74930000D02*
X86360000Y-76454000D01*
X86360000Y-76454000D02*
X87386000Y-76454000D01*
%TO.N,Net-(SW2-COM2)*%
X67572000Y-76395000D02*
X76775000Y-85598000D01*
%TO.N,Net-(SW2-COM3)*%
X75759000Y-82042000D02*
X70112000Y-76395000D01*
X77216000Y-82042000D02*
X75759000Y-82042000D01*
%TO.N,Net-(SW2-COM4)*%
X74743000Y-78486000D02*
X72652000Y-76395000D01*
X77216000Y-78486000D02*
X74743000Y-78486000D01*
%TO.N,Net-(SW2-COM1)*%
X65032000Y-76395000D02*
X65032000Y-81018000D01*
X65032000Y-81018000D02*
X62992000Y-83058000D01*
%TO.N,Net-(Q3-C)*%
X87600000Y-42160000D02*
X87600000Y-46682043D01*
%TO.N,Net-(Q1-C)*%
X73260625Y-43799375D02*
X73260625Y-46736000D01*
%TO.N,Net-(Q2-C)*%
X80457291Y-45177291D02*
X80457291Y-46736000D01*
%TO.N,Net-(Q4-C)*%
X94850625Y-44330625D02*
X94850625Y-46736000D01*
%TO.N,~{RESET}*%
X117475000Y-42440000D02*
X116332000Y-41297000D01*
X116332000Y-41297000D02*
X116332000Y-37338000D01*
X116332000Y-37338000D02*
X114046000Y-35052000D01*
%TO.N,/B*%
X117475000Y-55140000D02*
X116354000Y-55140000D01*
X116354000Y-55140000D02*
X114046000Y-52832000D01*
%TO.N,/A*%
X117475000Y-50060000D02*
X115824000Y-48409000D01*
X115824000Y-48409000D02*
X115824000Y-47498000D01*
X115824000Y-47498000D02*
X114046000Y-45720000D01*
%TO.N,/F*%
X117475000Y-44980000D02*
X115824000Y-43329000D01*
X115824000Y-43329000D02*
X115824000Y-40386000D01*
X115824000Y-40386000D02*
X114046000Y-38608000D01*
%TO.N,/C*%
X117475000Y-47520000D02*
X115316000Y-45361000D01*
X115316000Y-45361000D02*
X115316000Y-43434000D01*
X115316000Y-43434000D02*
X114046000Y-42164000D01*
%TO.N,/G*%
X117475000Y-52600000D02*
X114151000Y-49276000D01*
%TO.N,Net-(U2-CATHODE_G)*%
X106426000Y-49276000D02*
X105156000Y-49276000D01*
X105156000Y-49276000D02*
X104648000Y-48768000D01*
X104648000Y-48768000D02*
X104648000Y-47381000D01*
X104648000Y-47381000D02*
X92573000Y-35306000D01*
X92573000Y-35306000D02*
X80746000Y-35306000D01*
X80746000Y-35306000D02*
X77440000Y-32000000D01*
%TO.N,Net-(U2-CATHODE_BL2)*%
X74900000Y-32000000D02*
X78714000Y-35814000D01*
X78714000Y-35814000D02*
X92306236Y-35814000D01*
X92306236Y-35814000D02*
X104140000Y-47647764D01*
X104140000Y-47647764D02*
X104140000Y-50546000D01*
X104140000Y-50546000D02*
X106426000Y-52832000D01*
%TO.N,Net-(U2-CATHODE_D)*%
X83024000Y-39116000D02*
X79980000Y-42160000D01*
X103632000Y-48006000D02*
X94742000Y-39116000D01*
X94742000Y-39116000D02*
X83024000Y-39116000D01*
%TO.N,Net-(U2-CATHODE_CL3)*%
X106426000Y-42164000D02*
X101092000Y-42164000D01*
X101092000Y-42164000D02*
X93218000Y-34290000D01*
X93218000Y-34290000D02*
X84810000Y-34290000D01*
X84810000Y-34290000D02*
X82520000Y-32000000D01*
%TO.N,Net-(U2-CATHODE_F)*%
X106426000Y-38608000D02*
X98298000Y-38608000D01*
X98298000Y-38608000D02*
X93472000Y-33782000D01*
X93472000Y-33782000D02*
X89382000Y-33782000D01*
X89382000Y-33782000D02*
X87600000Y-32000000D01*
%TO.N,Net-(U2-CATHODE_AL1)*%
X106426000Y-45720000D02*
X103759000Y-45720000D01*
X103759000Y-45720000D02*
X92837000Y-34798000D01*
X92837000Y-34798000D02*
X82778000Y-34798000D01*
X82778000Y-34798000D02*
X79980000Y-32000000D01*
%TO.N,Net-(U1-PB6{slash}XTAL1)*%
X107559000Y-61795000D02*
X112317750Y-61795000D01*
X116510000Y-61795000D02*
X117475000Y-62760000D01*
X112317750Y-61795000D02*
X116510000Y-61795000D01*
%TO.N,Net-(U1-PB7{slash}XTAL2)*%
X107559000Y-66675000D02*
X112317750Y-66675000D01*
X112317750Y-66675000D02*
X116100000Y-66675000D01*
X116100000Y-66675000D02*
X117475000Y-65300000D01*
%TO.N,Net-(Q1-C)*%
X73260625Y-43799375D02*
X74900000Y-42160000D01*
%TO.N,Net-(Q2-C)*%
X80457291Y-45177291D02*
X77440000Y-42160000D01*
%TO.N,Net-(Q4-C)*%
X94850625Y-44330625D02*
X92680000Y-42160000D01*
%TO.N,MISO*%
X136779000Y-63500000D02*
X132439000Y-67840000D01*
X132439000Y-67840000D02*
X125095000Y-67840000D01*
%TO.N,Net-(U3-R)*%
X87936000Y-81306000D02*
X87936000Y-77004000D01*
X87936000Y-77004000D02*
X87386000Y-76454000D01*
%TO.N,Net-(U1-PC4)*%
X133818000Y-38648000D02*
X127486000Y-44980000D01*
X125095000Y-44980000D02*
X127486000Y-44980000D01*
X142748000Y-38648000D02*
X133818000Y-38648000D01*
%TO.N,Net-(SW2-NO1)*%
X69948000Y-68580000D02*
X72488000Y-68580000D01*
X64868000Y-68580000D02*
X67408000Y-68580000D01*
X69948000Y-68580000D02*
X67408000Y-68580000D01*
%TD*%
M02*
