M48
; DRILL file {KiCad 7.0.0-da2b9df05c~171~ubuntu22.04.1} date Sun 05 Mar 2023 04:37:31 PM AWST
; FORMAT={-:-/ absolute / inch / decimal}
; #@! TF.CreationDate,2023-03-05T16:37:31+08:00
; #@! TF.GenerationSoftware,Kicad,Pcbnew,7.0.0-da2b9df05c~171~ubuntu22.04.1
; #@! TF.FileFunction,Plated,1,4,PTH
FMAT,2
INCH
; #@! TA.AperFunction,Plated,PTH,ViaDrill
T1C0.0079
; #@! TA.AperFunction,Plated,PTH,ComponentDrill
T2C0.0236
; #@! TA.AperFunction,Plated,PTH,ComponentDrill
T3C0.0276
; #@! TA.AperFunction,Plated,PTH,ComponentDrill
T4C0.0295
; #@! TA.AperFunction,Plated,PTH,ComponentDrill
T5C0.0315
; #@! TA.AperFunction,Plated,PTH,ComponentDrill
T6C0.0354
; #@! TA.AperFunction,Plated,PTH,ComponentDrill
T7C0.0394
; #@! TA.AperFunction,Plated,PTH,ComponentDrill
T8C0.0433
; #@! TA.AperFunction,Plated,PTH,ComponentDrill
T9C0.0472
; #@! TA.AperFunction,Plated,PTH,ComponentDrill
T10C0.0866
; #@! TA.AperFunction,Plated,PTH,ComponentDrill
T11C0.1171
%
G90
G05
T1
X4.02Y-2.04
X4.02Y-2.08
X4.02Y-2.12
X4.02Y-2.16
X5.345Y-2.24
T2
X5.4813Y-2.14
X5.56Y-2.14
T3
X2.7701Y-2.1591
X2.9701Y-2.1591
X3.0534Y-2.1591
X3.0703Y-2.8
X3.0703Y-2.9
X3.0703Y-3.0
X3.0703Y-3.14
X3.0703Y-3.24
X3.0703Y-3.34
X3.0703Y-3.44
X3.2534Y-2.1591
X3.2703Y-2.8
X3.2703Y-2.9
X3.2703Y-3.0
X3.2703Y-3.14
X3.2703Y-3.24
X3.2703Y-3.34
X3.2703Y-3.44
X3.3368Y-2.1591
X3.5368Y-2.1591
X3.6201Y-2.1591
X3.8201Y-2.1591
X3.8303Y-2.75
X3.8303Y-2.95
X4.2246Y-2.8765
X4.2246Y-2.975
X4.2246Y-3.075
X4.2346Y-1.58
X4.2346Y-1.78
X4.2346Y-1.88
X4.2346Y-1.98
X4.2346Y-2.08
X4.235Y-1.35
X4.235Y-1.68
X4.4246Y-2.8765
X4.4246Y-2.975
X4.4246Y-3.075
X4.4346Y-1.58
X4.4346Y-1.78
X4.4346Y-1.88
X4.4346Y-1.98
X4.4346Y-2.08
X4.435Y-1.35
X4.435Y-1.68
X4.62Y-3.19
X4.62Y-3.2895
X4.82Y-3.19
X4.82Y-3.2895
X5.1Y-1.88
X5.1Y-2.0
X5.3Y-1.88
X5.3Y-2.0
T4
X2.8843Y-1.9091
X2.8843Y-1.9591
X2.8843Y-2.0091
X3.1676Y-1.9091
X3.1676Y-1.9591
X3.1676Y-2.0091
X3.4509Y-1.9091
X3.4509Y-1.9591
X3.4509Y-2.0091
X3.7343Y-1.9091
X3.7343Y-1.9591
X3.7343Y-2.0091
T5
X2.9488Y-1.2598
X2.9488Y-1.6598
X3.0488Y-1.2598
X3.0488Y-1.6598
X3.1488Y-1.2598
X3.1488Y-1.6598
X3.2488Y-1.2598
X3.2488Y-1.6598
X3.3488Y-1.2598
X3.3488Y-1.6598
X3.4007Y-2.7004
X3.4007Y-2.8004
X3.4007Y-2.9004
X3.4007Y-3.0004
X3.4488Y-1.2598
X3.4488Y-1.6598
X3.5488Y-1.2598
X3.5488Y-1.6598
X3.6488Y-1.2598
X3.6488Y-1.6598
X3.7007Y-2.7004
X3.7007Y-2.8004
X3.7007Y-2.9004
X3.7007Y-3.0004
X3.8303Y-3.1
X3.8303Y-3.1984
X3.8316Y-2.64
X3.93Y-2.64
X4.2346Y-2.3344
X4.2346Y-2.4329
X4.2346Y-2.625
X4.2346Y-2.7234
X4.3366Y-1.465
X4.3816Y-2.22
X4.422Y-2.4329
X4.422Y-2.625
X4.435Y-1.465
X4.48Y-2.22
X4.625Y-1.6709
X4.625Y-1.7709
X4.625Y-1.8709
X4.625Y-1.9709
X4.625Y-2.0709
X4.625Y-2.1709
X4.625Y-2.2709
X4.625Y-2.3709
X4.625Y-2.4709
X4.625Y-2.5709
X4.625Y-2.6709
X4.625Y-2.7709
X4.625Y-2.8709
X4.625Y-2.9709
X4.925Y-1.6709
X4.925Y-1.7709
X4.925Y-1.8709
X4.925Y-1.9709
X4.925Y-2.0709
X4.925Y-2.1709
X4.925Y-2.2709
X4.925Y-2.3709
X4.925Y-2.4709
X4.925Y-2.5709
X4.925Y-2.6709
X4.925Y-2.7709
X4.925Y-2.8709
X4.925Y-2.9709
X5.0746Y-2.2
X5.0746Y-2.2984
T6
X5.06Y-3.25
X5.16Y-3.25
X5.3898Y-3.25
X5.4898Y-3.25
T7
X2.5603Y-2.7077
X2.5603Y-3.0077
X2.6603Y-2.7077
X2.6603Y-3.0077
X2.7603Y-2.7077
X2.7603Y-3.0077
X2.8603Y-2.7077
X2.8603Y-3.0077
X4.08Y-3.4006
X4.32Y-3.4
X5.385Y-2.5
X5.385Y-2.6
X5.385Y-2.7
X5.485Y-2.5
X5.485Y-2.6
X5.485Y-2.7
T8
X3.4224Y-3.1914
X3.4224Y-3.3686
X3.6783Y-3.1914
X3.6783Y-3.3686
X4.6467Y-1.2835
X4.6467Y-1.4606
X4.9026Y-1.2835
X4.9026Y-1.4606
T9
X5.62Y-1.4231
X5.62Y-1.5216
X5.62Y-1.62
T10
X2.4Y-1.1
X2.4Y-3.5409
X5.6283Y-1.1
X5.6283Y-3.5409
T11
X5.3444Y-1.3483
X5.3444Y-1.6948
T0
M30
