%TF.GenerationSoftware,KiCad,Pcbnew,7.0.1-3b83917a11~172~ubuntu22.04.1*%
%TF.CreationDate,2023-04-16T20:42:15+08:00*%
%TF.ProjectId,circuit,63697263-7569-4742-9e6b-696361645f70,1.0*%
%TF.SameCoordinates,Original*%
%TF.FileFunction,Legend,Top*%
%TF.FilePolarity,Positive*%
%FSLAX46Y46*%
G04 Gerber Fmt 4.6, Leading zero omitted, Abs format (unit mm)*
G04 Created by KiCad (PCBNEW 7.0.1-3b83917a11~172~ubuntu22.04.1) date 2023-04-16 20:42:15*
%MOMM*%
%LPD*%
G01*
G04 APERTURE LIST*
%ADD10C,0.100000*%
%ADD11C,0.000000*%
%ADD12C,0.300000*%
G04 APERTURE END LIST*
D10*
X104648000Y-54356000D02*
X102108000Y-54356000D01*
X104902000Y-71628000D02*
X102362000Y-71628000D01*
X74676000Y-79946500D02*
X74676000Y-82740500D01*
X72136000Y-79946500D02*
X74676000Y-79946500D01*
X104648000Y-54356000D02*
X104648000Y-51816000D01*
X104902000Y-71628000D02*
X104902000Y-74168000D01*
D11*
G36*
X131534641Y-89032925D02*
G01*
X130076840Y-89032925D01*
X130073890Y-89032839D01*
X130070968Y-89032585D01*
X130068080Y-89032164D01*
X130065232Y-89031581D01*
X130062430Y-89030839D01*
X130059682Y-89029940D01*
X130056994Y-89028888D01*
X130054371Y-89027686D01*
X130051821Y-89026337D01*
X130049350Y-89024845D01*
X130046964Y-89023212D01*
X130044670Y-89021441D01*
X130042473Y-89019537D01*
X130040382Y-89017502D01*
X130038401Y-89015338D01*
X130036537Y-89013050D01*
X130034810Y-89010658D01*
X130033233Y-89008185D01*
X130031808Y-89005638D01*
X130030536Y-89003023D01*
X130029420Y-89000349D01*
X130028460Y-88997622D01*
X130027658Y-88994848D01*
X130027015Y-88992036D01*
X130026533Y-88989192D01*
X130026213Y-88986323D01*
X130026056Y-88983436D01*
X130026063Y-88980538D01*
X130026237Y-88977636D01*
X130026579Y-88974737D01*
X130027089Y-88971849D01*
X130027770Y-88968978D01*
X130175000Y-88419541D01*
X131064000Y-88419541D01*
X131392692Y-87192827D01*
X132027692Y-87192827D01*
X131534641Y-89032925D01*
G37*
G36*
X132255770Y-86427161D02*
G01*
X132258692Y-86427415D01*
X132261580Y-86427836D01*
X132264428Y-86428419D01*
X132267230Y-86429161D01*
X132269978Y-86430060D01*
X132272666Y-86431112D01*
X132275289Y-86432314D01*
X132277839Y-86433663D01*
X132280310Y-86435155D01*
X132282696Y-86436788D01*
X132284990Y-86438559D01*
X132287187Y-86440463D01*
X132289278Y-86442499D01*
X132291259Y-86444662D01*
X132293123Y-86446950D01*
X132294851Y-86449342D01*
X132296428Y-86451815D01*
X132297852Y-86454362D01*
X132299124Y-86456977D01*
X132300240Y-86459651D01*
X132301200Y-86462378D01*
X132302002Y-86465152D01*
X132302645Y-86467964D01*
X132303127Y-86470808D01*
X132303447Y-86473677D01*
X132303604Y-86476564D01*
X132303597Y-86479462D01*
X132303423Y-86482364D01*
X132303081Y-86485263D01*
X132302571Y-86488151D01*
X132301890Y-86491022D01*
X132154660Y-87040459D01*
X131265660Y-87040459D01*
X130936968Y-88267173D01*
X130301968Y-88267173D01*
X130795019Y-86427075D01*
X132252820Y-86427075D01*
X132255770Y-86427161D01*
G37*
D12*
X66208572Y-61152357D02*
X66922858Y-61152357D01*
X66065715Y-61580928D02*
X66565715Y-60080928D01*
X66565715Y-60080928D02*
X67065715Y-61580928D01*
X67351429Y-60080928D02*
X68208572Y-60080928D01*
X67780000Y-61580928D02*
X67780000Y-60080928D01*
X68708571Y-61580928D02*
X68708571Y-60080928D01*
X68708571Y-60080928D02*
X69208571Y-61152357D01*
X69208571Y-61152357D02*
X69708571Y-60080928D01*
X69708571Y-60080928D02*
X69708571Y-61580928D01*
X70422857Y-60795214D02*
X70922857Y-60795214D01*
X71137143Y-61580928D02*
X70422857Y-61580928D01*
X70422857Y-61580928D02*
X70422857Y-60080928D01*
X70422857Y-60080928D02*
X71137143Y-60080928D01*
X72565715Y-60152357D02*
X72422858Y-60080928D01*
X72422858Y-60080928D02*
X72208572Y-60080928D01*
X72208572Y-60080928D02*
X71994286Y-60152357D01*
X71994286Y-60152357D02*
X71851429Y-60295214D01*
X71851429Y-60295214D02*
X71780000Y-60438071D01*
X71780000Y-60438071D02*
X71708572Y-60723785D01*
X71708572Y-60723785D02*
X71708572Y-60938071D01*
X71708572Y-60938071D02*
X71780000Y-61223785D01*
X71780000Y-61223785D02*
X71851429Y-61366642D01*
X71851429Y-61366642D02*
X71994286Y-61509500D01*
X71994286Y-61509500D02*
X72208572Y-61580928D01*
X72208572Y-61580928D02*
X72351429Y-61580928D01*
X72351429Y-61580928D02*
X72565715Y-61509500D01*
X72565715Y-61509500D02*
X72637143Y-61438071D01*
X72637143Y-61438071D02*
X72637143Y-60938071D01*
X72637143Y-60938071D02*
X72351429Y-60938071D01*
X73208572Y-61152357D02*
X73922858Y-61152357D01*
X73065715Y-61580928D02*
X73565715Y-60080928D01*
X73565715Y-60080928D02*
X74065715Y-61580928D01*
X74780000Y-60723785D02*
X74637143Y-60652357D01*
X74637143Y-60652357D02*
X74565714Y-60580928D01*
X74565714Y-60580928D02*
X74494286Y-60438071D01*
X74494286Y-60438071D02*
X74494286Y-60366642D01*
X74494286Y-60366642D02*
X74565714Y-60223785D01*
X74565714Y-60223785D02*
X74637143Y-60152357D01*
X74637143Y-60152357D02*
X74780000Y-60080928D01*
X74780000Y-60080928D02*
X75065714Y-60080928D01*
X75065714Y-60080928D02*
X75208572Y-60152357D01*
X75208572Y-60152357D02*
X75280000Y-60223785D01*
X75280000Y-60223785D02*
X75351429Y-60366642D01*
X75351429Y-60366642D02*
X75351429Y-60438071D01*
X75351429Y-60438071D02*
X75280000Y-60580928D01*
X75280000Y-60580928D02*
X75208572Y-60652357D01*
X75208572Y-60652357D02*
X75065714Y-60723785D01*
X75065714Y-60723785D02*
X74780000Y-60723785D01*
X74780000Y-60723785D02*
X74637143Y-60795214D01*
X74637143Y-60795214D02*
X74565714Y-60866642D01*
X74565714Y-60866642D02*
X74494286Y-61009500D01*
X74494286Y-61009500D02*
X74494286Y-61295214D01*
X74494286Y-61295214D02*
X74565714Y-61438071D01*
X74565714Y-61438071D02*
X74637143Y-61509500D01*
X74637143Y-61509500D02*
X74780000Y-61580928D01*
X74780000Y-61580928D02*
X75065714Y-61580928D01*
X75065714Y-61580928D02*
X75208572Y-61509500D01*
X75208572Y-61509500D02*
X75280000Y-61438071D01*
X75280000Y-61438071D02*
X75351429Y-61295214D01*
X75351429Y-61295214D02*
X75351429Y-61009500D01*
X75351429Y-61009500D02*
X75280000Y-60866642D01*
X75280000Y-60866642D02*
X75208572Y-60795214D01*
X75208572Y-60795214D02*
X75065714Y-60723785D01*
X75922857Y-61152357D02*
X76637143Y-61152357D01*
X75780000Y-61580928D02*
X76280000Y-60080928D01*
X76280000Y-60080928D02*
X76780000Y-61580928D01*
X78208571Y-60080928D02*
X79065714Y-60080928D01*
X78637142Y-61580928D02*
X78637142Y-60080928D01*
X80208571Y-60580928D02*
X80208571Y-61580928D01*
X79565713Y-60580928D02*
X79565713Y-61366642D01*
X79565713Y-61366642D02*
X79637142Y-61509500D01*
X79637142Y-61509500D02*
X79779999Y-61580928D01*
X79779999Y-61580928D02*
X79994285Y-61580928D01*
X79994285Y-61580928D02*
X80137142Y-61509500D01*
X80137142Y-61509500D02*
X80208571Y-61438071D01*
X80708571Y-60580928D02*
X81279999Y-60580928D01*
X80922856Y-60080928D02*
X80922856Y-61366642D01*
X80922856Y-61366642D02*
X80994285Y-61509500D01*
X80994285Y-61509500D02*
X81137142Y-61580928D01*
X81137142Y-61580928D02*
X81279999Y-61580928D01*
X81994285Y-61580928D02*
X81851428Y-61509500D01*
X81851428Y-61509500D02*
X81779999Y-61438071D01*
X81779999Y-61438071D02*
X81708571Y-61295214D01*
X81708571Y-61295214D02*
X81708571Y-60866642D01*
X81708571Y-60866642D02*
X81779999Y-60723785D01*
X81779999Y-60723785D02*
X81851428Y-60652357D01*
X81851428Y-60652357D02*
X81994285Y-60580928D01*
X81994285Y-60580928D02*
X82208571Y-60580928D01*
X82208571Y-60580928D02*
X82351428Y-60652357D01*
X82351428Y-60652357D02*
X82422857Y-60723785D01*
X82422857Y-60723785D02*
X82494285Y-60866642D01*
X82494285Y-60866642D02*
X82494285Y-61295214D01*
X82494285Y-61295214D02*
X82422857Y-61438071D01*
X82422857Y-61438071D02*
X82351428Y-61509500D01*
X82351428Y-61509500D02*
X82208571Y-61580928D01*
X82208571Y-61580928D02*
X81994285Y-61580928D01*
X83137142Y-61580928D02*
X83137142Y-60580928D01*
X83137142Y-60866642D02*
X83208571Y-60723785D01*
X83208571Y-60723785D02*
X83280000Y-60652357D01*
X83280000Y-60652357D02*
X83422857Y-60580928D01*
X83422857Y-60580928D02*
X83565714Y-60580928D01*
X84065713Y-61580928D02*
X84065713Y-60580928D01*
X84065713Y-60080928D02*
X83994285Y-60152357D01*
X83994285Y-60152357D02*
X84065713Y-60223785D01*
X84065713Y-60223785D02*
X84137142Y-60152357D01*
X84137142Y-60152357D02*
X84065713Y-60080928D01*
X84065713Y-60080928D02*
X84065713Y-60223785D01*
X85422857Y-61580928D02*
X85422857Y-60795214D01*
X85422857Y-60795214D02*
X85351428Y-60652357D01*
X85351428Y-60652357D02*
X85208571Y-60580928D01*
X85208571Y-60580928D02*
X84922857Y-60580928D01*
X84922857Y-60580928D02*
X84779999Y-60652357D01*
X85422857Y-61509500D02*
X85279999Y-61580928D01*
X85279999Y-61580928D02*
X84922857Y-61580928D01*
X84922857Y-61580928D02*
X84779999Y-61509500D01*
X84779999Y-61509500D02*
X84708571Y-61366642D01*
X84708571Y-61366642D02*
X84708571Y-61223785D01*
X84708571Y-61223785D02*
X84779999Y-61080928D01*
X84779999Y-61080928D02*
X84922857Y-61009500D01*
X84922857Y-61009500D02*
X85279999Y-61009500D01*
X85279999Y-61009500D02*
X85422857Y-60938071D01*
X86351428Y-61580928D02*
X86208571Y-61509500D01*
X86208571Y-61509500D02*
X86137142Y-61366642D01*
X86137142Y-61366642D02*
X86137142Y-60080928D01*
X88565713Y-60795214D02*
X88779999Y-60866642D01*
X88779999Y-60866642D02*
X88851428Y-60938071D01*
X88851428Y-60938071D02*
X88922856Y-61080928D01*
X88922856Y-61080928D02*
X88922856Y-61295214D01*
X88922856Y-61295214D02*
X88851428Y-61438071D01*
X88851428Y-61438071D02*
X88779999Y-61509500D01*
X88779999Y-61509500D02*
X88637142Y-61580928D01*
X88637142Y-61580928D02*
X88065713Y-61580928D01*
X88065713Y-61580928D02*
X88065713Y-60080928D01*
X88065713Y-60080928D02*
X88565713Y-60080928D01*
X88565713Y-60080928D02*
X88708571Y-60152357D01*
X88708571Y-60152357D02*
X88779999Y-60223785D01*
X88779999Y-60223785D02*
X88851428Y-60366642D01*
X88851428Y-60366642D02*
X88851428Y-60509500D01*
X88851428Y-60509500D02*
X88779999Y-60652357D01*
X88779999Y-60652357D02*
X88708571Y-60723785D01*
X88708571Y-60723785D02*
X88565713Y-60795214D01*
X88565713Y-60795214D02*
X88065713Y-60795214D01*
X89779999Y-61580928D02*
X89637142Y-61509500D01*
X89637142Y-61509500D02*
X89565713Y-61438071D01*
X89565713Y-61438071D02*
X89494285Y-61295214D01*
X89494285Y-61295214D02*
X89494285Y-60866642D01*
X89494285Y-60866642D02*
X89565713Y-60723785D01*
X89565713Y-60723785D02*
X89637142Y-60652357D01*
X89637142Y-60652357D02*
X89779999Y-60580928D01*
X89779999Y-60580928D02*
X89994285Y-60580928D01*
X89994285Y-60580928D02*
X90137142Y-60652357D01*
X90137142Y-60652357D02*
X90208571Y-60723785D01*
X90208571Y-60723785D02*
X90279999Y-60866642D01*
X90279999Y-60866642D02*
X90279999Y-61295214D01*
X90279999Y-61295214D02*
X90208571Y-61438071D01*
X90208571Y-61438071D02*
X90137142Y-61509500D01*
X90137142Y-61509500D02*
X89994285Y-61580928D01*
X89994285Y-61580928D02*
X89779999Y-61580928D01*
X91565714Y-61580928D02*
X91565714Y-60795214D01*
X91565714Y-60795214D02*
X91494285Y-60652357D01*
X91494285Y-60652357D02*
X91351428Y-60580928D01*
X91351428Y-60580928D02*
X91065714Y-60580928D01*
X91065714Y-60580928D02*
X90922856Y-60652357D01*
X91565714Y-61509500D02*
X91422856Y-61580928D01*
X91422856Y-61580928D02*
X91065714Y-61580928D01*
X91065714Y-61580928D02*
X90922856Y-61509500D01*
X90922856Y-61509500D02*
X90851428Y-61366642D01*
X90851428Y-61366642D02*
X90851428Y-61223785D01*
X90851428Y-61223785D02*
X90922856Y-61080928D01*
X90922856Y-61080928D02*
X91065714Y-61009500D01*
X91065714Y-61009500D02*
X91422856Y-61009500D01*
X91422856Y-61009500D02*
X91565714Y-60938071D01*
X92279999Y-61580928D02*
X92279999Y-60580928D01*
X92279999Y-60866642D02*
X92351428Y-60723785D01*
X92351428Y-60723785D02*
X92422857Y-60652357D01*
X92422857Y-60652357D02*
X92565714Y-60580928D01*
X92565714Y-60580928D02*
X92708571Y-60580928D01*
X93851428Y-61580928D02*
X93851428Y-60080928D01*
X93851428Y-61509500D02*
X93708570Y-61580928D01*
X93708570Y-61580928D02*
X93422856Y-61580928D01*
X93422856Y-61580928D02*
X93279999Y-61509500D01*
X93279999Y-61509500D02*
X93208570Y-61438071D01*
X93208570Y-61438071D02*
X93137142Y-61295214D01*
X93137142Y-61295214D02*
X93137142Y-60866642D01*
X93137142Y-60866642D02*
X93208570Y-60723785D01*
X93208570Y-60723785D02*
X93279999Y-60652357D01*
X93279999Y-60652357D02*
X93422856Y-60580928D01*
X93422856Y-60580928D02*
X93708570Y-60580928D01*
X93708570Y-60580928D02*
X93851428Y-60652357D01*
X95637142Y-61152357D02*
X96351428Y-61152357D01*
X95494285Y-61580928D02*
X95994285Y-60080928D01*
X95994285Y-60080928D02*
X96494285Y-61580928D01*
D10*
X132040571Y-66420500D02*
X132147714Y-66456214D01*
X132147714Y-66456214D02*
X132326285Y-66456214D01*
X132326285Y-66456214D02*
X132397714Y-66420500D01*
X132397714Y-66420500D02*
X132433428Y-66384785D01*
X132433428Y-66384785D02*
X132469142Y-66313357D01*
X132469142Y-66313357D02*
X132469142Y-66241928D01*
X132469142Y-66241928D02*
X132433428Y-66170500D01*
X132433428Y-66170500D02*
X132397714Y-66134785D01*
X132397714Y-66134785D02*
X132326285Y-66099071D01*
X132326285Y-66099071D02*
X132183428Y-66063357D01*
X132183428Y-66063357D02*
X132111999Y-66027642D01*
X132111999Y-66027642D02*
X132076285Y-65991928D01*
X132076285Y-65991928D02*
X132040571Y-65920500D01*
X132040571Y-65920500D02*
X132040571Y-65849071D01*
X132040571Y-65849071D02*
X132076285Y-65777642D01*
X132076285Y-65777642D02*
X132111999Y-65741928D01*
X132111999Y-65741928D02*
X132183428Y-65706214D01*
X132183428Y-65706214D02*
X132361999Y-65706214D01*
X132361999Y-65706214D02*
X132469142Y-65741928D01*
X133219142Y-66384785D02*
X133183428Y-66420500D01*
X133183428Y-66420500D02*
X133076285Y-66456214D01*
X133076285Y-66456214D02*
X133004857Y-66456214D01*
X133004857Y-66456214D02*
X132897714Y-66420500D01*
X132897714Y-66420500D02*
X132826285Y-66349071D01*
X132826285Y-66349071D02*
X132790571Y-66277642D01*
X132790571Y-66277642D02*
X132754857Y-66134785D01*
X132754857Y-66134785D02*
X132754857Y-66027642D01*
X132754857Y-66027642D02*
X132790571Y-65884785D01*
X132790571Y-65884785D02*
X132826285Y-65813357D01*
X132826285Y-65813357D02*
X132897714Y-65741928D01*
X132897714Y-65741928D02*
X133004857Y-65706214D01*
X133004857Y-65706214D02*
X133076285Y-65706214D01*
X133076285Y-65706214D02*
X133183428Y-65741928D01*
X133183428Y-65741928D02*
X133219142Y-65777642D01*
X133540571Y-66456214D02*
X133540571Y-65706214D01*
X133969142Y-66456214D02*
X133647714Y-66027642D01*
X133969142Y-65706214D02*
X133540571Y-66134785D01*
X142303428Y-68281928D02*
X142232000Y-68246214D01*
X142232000Y-68246214D02*
X142124857Y-68246214D01*
X142124857Y-68246214D02*
X142017714Y-68281928D01*
X142017714Y-68281928D02*
X141946285Y-68353357D01*
X141946285Y-68353357D02*
X141910571Y-68424785D01*
X141910571Y-68424785D02*
X141874857Y-68567642D01*
X141874857Y-68567642D02*
X141874857Y-68674785D01*
X141874857Y-68674785D02*
X141910571Y-68817642D01*
X141910571Y-68817642D02*
X141946285Y-68889071D01*
X141946285Y-68889071D02*
X142017714Y-68960500D01*
X142017714Y-68960500D02*
X142124857Y-68996214D01*
X142124857Y-68996214D02*
X142196285Y-68996214D01*
X142196285Y-68996214D02*
X142303428Y-68960500D01*
X142303428Y-68960500D02*
X142339142Y-68924785D01*
X142339142Y-68924785D02*
X142339142Y-68674785D01*
X142339142Y-68674785D02*
X142196285Y-68674785D01*
X142660571Y-68996214D02*
X142660571Y-68246214D01*
X142660571Y-68246214D02*
X143089142Y-68996214D01*
X143089142Y-68996214D02*
X143089142Y-68246214D01*
X143446285Y-68996214D02*
X143446285Y-68246214D01*
X143446285Y-68246214D02*
X143624856Y-68246214D01*
X143624856Y-68246214D02*
X143731999Y-68281928D01*
X143731999Y-68281928D02*
X143803428Y-68353357D01*
X143803428Y-68353357D02*
X143839142Y-68424785D01*
X143839142Y-68424785D02*
X143874856Y-68567642D01*
X143874856Y-68567642D02*
X143874856Y-68674785D01*
X143874856Y-68674785D02*
X143839142Y-68817642D01*
X143839142Y-68817642D02*
X143803428Y-68889071D01*
X143803428Y-68889071D02*
X143731999Y-68960500D01*
X143731999Y-68960500D02*
X143624856Y-68996214D01*
X143624856Y-68996214D02*
X143446285Y-68996214D01*
X132683427Y-68996214D02*
X132433427Y-68639071D01*
X132254856Y-68996214D02*
X132254856Y-68246214D01*
X132254856Y-68246214D02*
X132540570Y-68246214D01*
X132540570Y-68246214D02*
X132611999Y-68281928D01*
X132611999Y-68281928D02*
X132647713Y-68317642D01*
X132647713Y-68317642D02*
X132683427Y-68389071D01*
X132683427Y-68389071D02*
X132683427Y-68496214D01*
X132683427Y-68496214D02*
X132647713Y-68567642D01*
X132647713Y-68567642D02*
X132611999Y-68603357D01*
X132611999Y-68603357D02*
X132540570Y-68639071D01*
X132540570Y-68639071D02*
X132254856Y-68639071D01*
X132969142Y-68960500D02*
X133076285Y-68996214D01*
X133076285Y-68996214D02*
X133254856Y-68996214D01*
X133254856Y-68996214D02*
X133326285Y-68960500D01*
X133326285Y-68960500D02*
X133361999Y-68924785D01*
X133361999Y-68924785D02*
X133397713Y-68853357D01*
X133397713Y-68853357D02*
X133397713Y-68781928D01*
X133397713Y-68781928D02*
X133361999Y-68710500D01*
X133361999Y-68710500D02*
X133326285Y-68674785D01*
X133326285Y-68674785D02*
X133254856Y-68639071D01*
X133254856Y-68639071D02*
X133111999Y-68603357D01*
X133111999Y-68603357D02*
X133040570Y-68567642D01*
X133040570Y-68567642D02*
X133004856Y-68531928D01*
X133004856Y-68531928D02*
X132969142Y-68460500D01*
X132969142Y-68460500D02*
X132969142Y-68389071D01*
X132969142Y-68389071D02*
X133004856Y-68317642D01*
X133004856Y-68317642D02*
X133040570Y-68281928D01*
X133040570Y-68281928D02*
X133111999Y-68246214D01*
X133111999Y-68246214D02*
X133290570Y-68246214D01*
X133290570Y-68246214D02*
X133397713Y-68281928D01*
X133611999Y-68246214D02*
X134040571Y-68246214D01*
X133826285Y-68996214D02*
X133826285Y-68246214D01*
X132151285Y-67910500D02*
X134037000Y-67910500D01*
X131576285Y-63916214D02*
X131576285Y-63166214D01*
X131576285Y-63166214D02*
X131826285Y-63701928D01*
X131826285Y-63701928D02*
X132076285Y-63166214D01*
X132076285Y-63166214D02*
X132076285Y-63916214D01*
X132433428Y-63916214D02*
X132433428Y-63166214D01*
X132754857Y-63880500D02*
X132862000Y-63916214D01*
X132862000Y-63916214D02*
X133040571Y-63916214D01*
X133040571Y-63916214D02*
X133112000Y-63880500D01*
X133112000Y-63880500D02*
X133147714Y-63844785D01*
X133147714Y-63844785D02*
X133183428Y-63773357D01*
X133183428Y-63773357D02*
X133183428Y-63701928D01*
X133183428Y-63701928D02*
X133147714Y-63630500D01*
X133147714Y-63630500D02*
X133112000Y-63594785D01*
X133112000Y-63594785D02*
X133040571Y-63559071D01*
X133040571Y-63559071D02*
X132897714Y-63523357D01*
X132897714Y-63523357D02*
X132826285Y-63487642D01*
X132826285Y-63487642D02*
X132790571Y-63451928D01*
X132790571Y-63451928D02*
X132754857Y-63380500D01*
X132754857Y-63380500D02*
X132754857Y-63309071D01*
X132754857Y-63309071D02*
X132790571Y-63237642D01*
X132790571Y-63237642D02*
X132826285Y-63201928D01*
X132826285Y-63201928D02*
X132897714Y-63166214D01*
X132897714Y-63166214D02*
X133076285Y-63166214D01*
X133076285Y-63166214D02*
X133183428Y-63201928D01*
X133647714Y-63166214D02*
X133790571Y-63166214D01*
X133790571Y-63166214D02*
X133862000Y-63201928D01*
X133862000Y-63201928D02*
X133933428Y-63273357D01*
X133933428Y-63273357D02*
X133969143Y-63416214D01*
X133969143Y-63416214D02*
X133969143Y-63666214D01*
X133969143Y-63666214D02*
X133933428Y-63809071D01*
X133933428Y-63809071D02*
X133862000Y-63880500D01*
X133862000Y-63880500D02*
X133790571Y-63916214D01*
X133790571Y-63916214D02*
X133647714Y-63916214D01*
X133647714Y-63916214D02*
X133576286Y-63880500D01*
X133576286Y-63880500D02*
X133504857Y-63809071D01*
X133504857Y-63809071D02*
X133469143Y-63666214D01*
X133469143Y-63666214D02*
X133469143Y-63416214D01*
X133469143Y-63416214D02*
X133504857Y-63273357D01*
X133504857Y-63273357D02*
X133576286Y-63201928D01*
X133576286Y-63201928D02*
X133647714Y-63166214D01*
X133421428Y-86843214D02*
X133671428Y-87593214D01*
X133671428Y-87593214D02*
X133921428Y-86843214D01*
X134171428Y-87593214D02*
X134171428Y-87093214D01*
X134171428Y-86843214D02*
X134135714Y-86878928D01*
X134135714Y-86878928D02*
X134171428Y-86914642D01*
X134171428Y-86914642D02*
X134207142Y-86878928D01*
X134207142Y-86878928D02*
X134171428Y-86843214D01*
X134171428Y-86843214D02*
X134171428Y-86914642D01*
X134635714Y-87593214D02*
X134564285Y-87557500D01*
X134564285Y-87557500D02*
X134528571Y-87486071D01*
X134528571Y-87486071D02*
X134528571Y-86843214D01*
X135028571Y-87593214D02*
X134957142Y-87557500D01*
X134957142Y-87557500D02*
X134921428Y-87486071D01*
X134921428Y-87486071D02*
X134921428Y-86843214D01*
X135278571Y-87557500D02*
X135349999Y-87593214D01*
X135349999Y-87593214D02*
X135492856Y-87593214D01*
X135492856Y-87593214D02*
X135564285Y-87557500D01*
X135564285Y-87557500D02*
X135599999Y-87486071D01*
X135599999Y-87486071D02*
X135599999Y-87450357D01*
X135599999Y-87450357D02*
X135564285Y-87378928D01*
X135564285Y-87378928D02*
X135492856Y-87343214D01*
X135492856Y-87343214D02*
X135385714Y-87343214D01*
X135385714Y-87343214D02*
X135314285Y-87307500D01*
X135314285Y-87307500D02*
X135278571Y-87236071D01*
X135278571Y-87236071D02*
X135278571Y-87200357D01*
X135278571Y-87200357D02*
X135314285Y-87128928D01*
X135314285Y-87128928D02*
X135385714Y-87093214D01*
X135385714Y-87093214D02*
X135492856Y-87093214D01*
X135492856Y-87093214D02*
X135564285Y-87128928D01*
X136207142Y-87557500D02*
X136135714Y-87593214D01*
X136135714Y-87593214D02*
X135992857Y-87593214D01*
X135992857Y-87593214D02*
X135921428Y-87557500D01*
X135921428Y-87557500D02*
X135885714Y-87486071D01*
X135885714Y-87486071D02*
X135885714Y-87200357D01*
X135885714Y-87200357D02*
X135921428Y-87128928D01*
X135921428Y-87128928D02*
X135992857Y-87093214D01*
X135992857Y-87093214D02*
X136135714Y-87093214D01*
X136135714Y-87093214D02*
X136207142Y-87128928D01*
X136207142Y-87128928D02*
X136242857Y-87200357D01*
X136242857Y-87200357D02*
X136242857Y-87271785D01*
X136242857Y-87271785D02*
X135885714Y-87343214D01*
X136564285Y-87593214D02*
X136564285Y-87093214D01*
X136564285Y-87236071D02*
X136599999Y-87164642D01*
X136599999Y-87164642D02*
X136635714Y-87128928D01*
X136635714Y-87128928D02*
X136707142Y-87093214D01*
X136707142Y-87093214D02*
X136778571Y-87093214D01*
X137028571Y-87593214D02*
X137028571Y-87093214D01*
X137028571Y-86843214D02*
X136992857Y-86878928D01*
X136992857Y-86878928D02*
X137028571Y-86914642D01*
X137028571Y-86914642D02*
X137064285Y-86878928D01*
X137064285Y-86878928D02*
X137028571Y-86843214D01*
X137028571Y-86843214D02*
X137028571Y-86914642D01*
X137492857Y-87593214D02*
X137421428Y-87557500D01*
X137421428Y-87557500D02*
X137385714Y-87521785D01*
X137385714Y-87521785D02*
X137350000Y-87450357D01*
X137350000Y-87450357D02*
X137350000Y-87236071D01*
X137350000Y-87236071D02*
X137385714Y-87164642D01*
X137385714Y-87164642D02*
X137421428Y-87128928D01*
X137421428Y-87128928D02*
X137492857Y-87093214D01*
X137492857Y-87093214D02*
X137600000Y-87093214D01*
X137600000Y-87093214D02*
X137671428Y-87128928D01*
X137671428Y-87128928D02*
X137707143Y-87164642D01*
X137707143Y-87164642D02*
X137742857Y-87236071D01*
X137742857Y-87236071D02*
X137742857Y-87450357D01*
X137742857Y-87450357D02*
X137707143Y-87521785D01*
X137707143Y-87521785D02*
X137671428Y-87557500D01*
X137671428Y-87557500D02*
X137600000Y-87593214D01*
X137600000Y-87593214D02*
X137492857Y-87593214D01*
X138171428Y-87593214D02*
X138099999Y-87557500D01*
X138099999Y-87557500D02*
X138064285Y-87486071D01*
X138064285Y-87486071D02*
X138064285Y-86843214D01*
X133957142Y-88808214D02*
X133707142Y-88451071D01*
X133528571Y-88808214D02*
X133528571Y-88058214D01*
X133528571Y-88058214D02*
X133814285Y-88058214D01*
X133814285Y-88058214D02*
X133885714Y-88093928D01*
X133885714Y-88093928D02*
X133921428Y-88129642D01*
X133921428Y-88129642D02*
X133957142Y-88201071D01*
X133957142Y-88201071D02*
X133957142Y-88308214D01*
X133957142Y-88308214D02*
X133921428Y-88379642D01*
X133921428Y-88379642D02*
X133885714Y-88415357D01*
X133885714Y-88415357D02*
X133814285Y-88451071D01*
X133814285Y-88451071D02*
X133528571Y-88451071D01*
X134564285Y-88772500D02*
X134492857Y-88808214D01*
X134492857Y-88808214D02*
X134350000Y-88808214D01*
X134350000Y-88808214D02*
X134278571Y-88772500D01*
X134278571Y-88772500D02*
X134242857Y-88701071D01*
X134242857Y-88701071D02*
X134242857Y-88415357D01*
X134242857Y-88415357D02*
X134278571Y-88343928D01*
X134278571Y-88343928D02*
X134350000Y-88308214D01*
X134350000Y-88308214D02*
X134492857Y-88308214D01*
X134492857Y-88308214D02*
X134564285Y-88343928D01*
X134564285Y-88343928D02*
X134600000Y-88415357D01*
X134600000Y-88415357D02*
X134600000Y-88486785D01*
X134600000Y-88486785D02*
X134242857Y-88558214D01*
X134849999Y-88308214D02*
X135028571Y-88808214D01*
X135028571Y-88808214D02*
X135207142Y-88308214D01*
X135492857Y-88736785D02*
X135528571Y-88772500D01*
X135528571Y-88772500D02*
X135492857Y-88808214D01*
X135492857Y-88808214D02*
X135457143Y-88772500D01*
X135457143Y-88772500D02*
X135492857Y-88736785D01*
X135492857Y-88736785D02*
X135492857Y-88808214D01*
X136814286Y-88808214D02*
X136385715Y-88808214D01*
X136600000Y-88808214D02*
X136600000Y-88058214D01*
X136600000Y-88058214D02*
X136528572Y-88165357D01*
X136528572Y-88165357D02*
X136457143Y-88236785D01*
X136457143Y-88236785D02*
X136385715Y-88272500D01*
X137135715Y-88736785D02*
X137171429Y-88772500D01*
X137171429Y-88772500D02*
X137135715Y-88808214D01*
X137135715Y-88808214D02*
X137100001Y-88772500D01*
X137100001Y-88772500D02*
X137135715Y-88736785D01*
X137135715Y-88736785D02*
X137135715Y-88808214D01*
X137457144Y-88129642D02*
X137492858Y-88093928D01*
X137492858Y-88093928D02*
X137564287Y-88058214D01*
X137564287Y-88058214D02*
X137742858Y-88058214D01*
X137742858Y-88058214D02*
X137814287Y-88093928D01*
X137814287Y-88093928D02*
X137850001Y-88129642D01*
X137850001Y-88129642D02*
X137885715Y-88201071D01*
X137885715Y-88201071D02*
X137885715Y-88272500D01*
X137885715Y-88272500D02*
X137850001Y-88379642D01*
X137850001Y-88379642D02*
X137421429Y-88808214D01*
X137421429Y-88808214D02*
X137885715Y-88808214D01*
X141803428Y-63166214D02*
X142053428Y-63916214D01*
X142053428Y-63916214D02*
X142303428Y-63166214D01*
X142981999Y-63844785D02*
X142946285Y-63880500D01*
X142946285Y-63880500D02*
X142839142Y-63916214D01*
X142839142Y-63916214D02*
X142767714Y-63916214D01*
X142767714Y-63916214D02*
X142660571Y-63880500D01*
X142660571Y-63880500D02*
X142589142Y-63809071D01*
X142589142Y-63809071D02*
X142553428Y-63737642D01*
X142553428Y-63737642D02*
X142517714Y-63594785D01*
X142517714Y-63594785D02*
X142517714Y-63487642D01*
X142517714Y-63487642D02*
X142553428Y-63344785D01*
X142553428Y-63344785D02*
X142589142Y-63273357D01*
X142589142Y-63273357D02*
X142660571Y-63201928D01*
X142660571Y-63201928D02*
X142767714Y-63166214D01*
X142767714Y-63166214D02*
X142839142Y-63166214D01*
X142839142Y-63166214D02*
X142946285Y-63201928D01*
X142946285Y-63201928D02*
X142981999Y-63237642D01*
X143731999Y-63844785D02*
X143696285Y-63880500D01*
X143696285Y-63880500D02*
X143589142Y-63916214D01*
X143589142Y-63916214D02*
X143517714Y-63916214D01*
X143517714Y-63916214D02*
X143410571Y-63880500D01*
X143410571Y-63880500D02*
X143339142Y-63809071D01*
X143339142Y-63809071D02*
X143303428Y-63737642D01*
X143303428Y-63737642D02*
X143267714Y-63594785D01*
X143267714Y-63594785D02*
X143267714Y-63487642D01*
X143267714Y-63487642D02*
X143303428Y-63344785D01*
X143303428Y-63344785D02*
X143339142Y-63273357D01*
X143339142Y-63273357D02*
X143410571Y-63201928D01*
X143410571Y-63201928D02*
X143517714Y-63166214D01*
X143517714Y-63166214D02*
X143589142Y-63166214D01*
X143589142Y-63166214D02*
X143696285Y-63201928D01*
X143696285Y-63201928D02*
X143731999Y-63237642D01*
X141910571Y-66456214D02*
X141910571Y-65706214D01*
X141910571Y-65706214D02*
X142160571Y-66241928D01*
X142160571Y-66241928D02*
X142410571Y-65706214D01*
X142410571Y-65706214D02*
X142410571Y-66456214D01*
X142910571Y-65706214D02*
X143053428Y-65706214D01*
X143053428Y-65706214D02*
X143124857Y-65741928D01*
X143124857Y-65741928D02*
X143196285Y-65813357D01*
X143196285Y-65813357D02*
X143232000Y-65956214D01*
X143232000Y-65956214D02*
X143232000Y-66206214D01*
X143232000Y-66206214D02*
X143196285Y-66349071D01*
X143196285Y-66349071D02*
X143124857Y-66420500D01*
X143124857Y-66420500D02*
X143053428Y-66456214D01*
X143053428Y-66456214D02*
X142910571Y-66456214D01*
X142910571Y-66456214D02*
X142839143Y-66420500D01*
X142839143Y-66420500D02*
X142767714Y-66349071D01*
X142767714Y-66349071D02*
X142732000Y-66206214D01*
X142732000Y-66206214D02*
X142732000Y-65956214D01*
X142732000Y-65956214D02*
X142767714Y-65813357D01*
X142767714Y-65813357D02*
X142839143Y-65741928D01*
X142839143Y-65741928D02*
X142910571Y-65706214D01*
X143517714Y-66420500D02*
X143624857Y-66456214D01*
X143624857Y-66456214D02*
X143803428Y-66456214D01*
X143803428Y-66456214D02*
X143874857Y-66420500D01*
X143874857Y-66420500D02*
X143910571Y-66384785D01*
X143910571Y-66384785D02*
X143946285Y-66313357D01*
X143946285Y-66313357D02*
X143946285Y-66241928D01*
X143946285Y-66241928D02*
X143910571Y-66170500D01*
X143910571Y-66170500D02*
X143874857Y-66134785D01*
X143874857Y-66134785D02*
X143803428Y-66099071D01*
X143803428Y-66099071D02*
X143660571Y-66063357D01*
X143660571Y-66063357D02*
X143589142Y-66027642D01*
X143589142Y-66027642D02*
X143553428Y-65991928D01*
X143553428Y-65991928D02*
X143517714Y-65920500D01*
X143517714Y-65920500D02*
X143517714Y-65849071D01*
X143517714Y-65849071D02*
X143553428Y-65777642D01*
X143553428Y-65777642D02*
X143589142Y-65741928D01*
X143589142Y-65741928D02*
X143660571Y-65706214D01*
X143660571Y-65706214D02*
X143839142Y-65706214D01*
X143839142Y-65706214D02*
X143946285Y-65741928D01*
X144267714Y-66456214D02*
X144267714Y-65706214D01*
%TO.C,U3*%
X90624571Y-66100964D02*
X90624571Y-66708107D01*
X90624571Y-66708107D02*
X90660285Y-66779535D01*
X90660285Y-66779535D02*
X90696000Y-66815250D01*
X90696000Y-66815250D02*
X90767428Y-66850964D01*
X90767428Y-66850964D02*
X90910285Y-66850964D01*
X90910285Y-66850964D02*
X90981714Y-66815250D01*
X90981714Y-66815250D02*
X91017428Y-66779535D01*
X91017428Y-66779535D02*
X91053142Y-66708107D01*
X91053142Y-66708107D02*
X91053142Y-66100964D01*
X91338856Y-66100964D02*
X91803142Y-66100964D01*
X91803142Y-66100964D02*
X91553142Y-66386678D01*
X91553142Y-66386678D02*
X91660285Y-66386678D01*
X91660285Y-66386678D02*
X91731714Y-66422392D01*
X91731714Y-66422392D02*
X91767428Y-66458107D01*
X91767428Y-66458107D02*
X91803142Y-66529535D01*
X91803142Y-66529535D02*
X91803142Y-66708107D01*
X91803142Y-66708107D02*
X91767428Y-66779535D01*
X91767428Y-66779535D02*
X91731714Y-66815250D01*
X91731714Y-66815250D02*
X91660285Y-66850964D01*
X91660285Y-66850964D02*
X91445999Y-66850964D01*
X91445999Y-66850964D02*
X91374571Y-66815250D01*
X91374571Y-66815250D02*
X91338856Y-66779535D01*
%TO.C,U1*%
X120713571Y-39706964D02*
X120713571Y-40314107D01*
X120713571Y-40314107D02*
X120749285Y-40385535D01*
X120749285Y-40385535D02*
X120785000Y-40421250D01*
X120785000Y-40421250D02*
X120856428Y-40456964D01*
X120856428Y-40456964D02*
X120999285Y-40456964D01*
X120999285Y-40456964D02*
X121070714Y-40421250D01*
X121070714Y-40421250D02*
X121106428Y-40385535D01*
X121106428Y-40385535D02*
X121142142Y-40314107D01*
X121142142Y-40314107D02*
X121142142Y-39706964D01*
X121892142Y-40456964D02*
X121463571Y-40456964D01*
X121677856Y-40456964D02*
X121677856Y-39706964D01*
X121677856Y-39706964D02*
X121606428Y-39814107D01*
X121606428Y-39814107D02*
X121534999Y-39885535D01*
X121534999Y-39885535D02*
X121463571Y-39921250D01*
%TO.C,SW3*%
X90186000Y-79617250D02*
X90293143Y-79652964D01*
X90293143Y-79652964D02*
X90471714Y-79652964D01*
X90471714Y-79652964D02*
X90543143Y-79617250D01*
X90543143Y-79617250D02*
X90578857Y-79581535D01*
X90578857Y-79581535D02*
X90614571Y-79510107D01*
X90614571Y-79510107D02*
X90614571Y-79438678D01*
X90614571Y-79438678D02*
X90578857Y-79367250D01*
X90578857Y-79367250D02*
X90543143Y-79331535D01*
X90543143Y-79331535D02*
X90471714Y-79295821D01*
X90471714Y-79295821D02*
X90328857Y-79260107D01*
X90328857Y-79260107D02*
X90257428Y-79224392D01*
X90257428Y-79224392D02*
X90221714Y-79188678D01*
X90221714Y-79188678D02*
X90186000Y-79117250D01*
X90186000Y-79117250D02*
X90186000Y-79045821D01*
X90186000Y-79045821D02*
X90221714Y-78974392D01*
X90221714Y-78974392D02*
X90257428Y-78938678D01*
X90257428Y-78938678D02*
X90328857Y-78902964D01*
X90328857Y-78902964D02*
X90507428Y-78902964D01*
X90507428Y-78902964D02*
X90614571Y-78938678D01*
X90864571Y-78902964D02*
X91043143Y-79652964D01*
X91043143Y-79652964D02*
X91186000Y-79117250D01*
X91186000Y-79117250D02*
X91328857Y-79652964D01*
X91328857Y-79652964D02*
X91507429Y-78902964D01*
X91721714Y-78902964D02*
X92186000Y-78902964D01*
X92186000Y-78902964D02*
X91936000Y-79188678D01*
X91936000Y-79188678D02*
X92043143Y-79188678D01*
X92043143Y-79188678D02*
X92114572Y-79224392D01*
X92114572Y-79224392D02*
X92150286Y-79260107D01*
X92150286Y-79260107D02*
X92186000Y-79331535D01*
X92186000Y-79331535D02*
X92186000Y-79510107D01*
X92186000Y-79510107D02*
X92150286Y-79581535D01*
X92150286Y-79581535D02*
X92114572Y-79617250D01*
X92114572Y-79617250D02*
X92043143Y-79652964D01*
X92043143Y-79652964D02*
X91828857Y-79652964D01*
X91828857Y-79652964D02*
X91757429Y-79617250D01*
X91757429Y-79617250D02*
X91721714Y-79581535D01*
%TO.C,SW1*%
X120275000Y-30911250D02*
X120382143Y-30946964D01*
X120382143Y-30946964D02*
X120560714Y-30946964D01*
X120560714Y-30946964D02*
X120632143Y-30911250D01*
X120632143Y-30911250D02*
X120667857Y-30875535D01*
X120667857Y-30875535D02*
X120703571Y-30804107D01*
X120703571Y-30804107D02*
X120703571Y-30732678D01*
X120703571Y-30732678D02*
X120667857Y-30661250D01*
X120667857Y-30661250D02*
X120632143Y-30625535D01*
X120632143Y-30625535D02*
X120560714Y-30589821D01*
X120560714Y-30589821D02*
X120417857Y-30554107D01*
X120417857Y-30554107D02*
X120346428Y-30518392D01*
X120346428Y-30518392D02*
X120310714Y-30482678D01*
X120310714Y-30482678D02*
X120275000Y-30411250D01*
X120275000Y-30411250D02*
X120275000Y-30339821D01*
X120275000Y-30339821D02*
X120310714Y-30268392D01*
X120310714Y-30268392D02*
X120346428Y-30232678D01*
X120346428Y-30232678D02*
X120417857Y-30196964D01*
X120417857Y-30196964D02*
X120596428Y-30196964D01*
X120596428Y-30196964D02*
X120703571Y-30232678D01*
X120953571Y-30196964D02*
X121132143Y-30946964D01*
X121132143Y-30946964D02*
X121275000Y-30411250D01*
X121275000Y-30411250D02*
X121417857Y-30946964D01*
X121417857Y-30946964D02*
X121596429Y-30196964D01*
X122275000Y-30946964D02*
X121846429Y-30946964D01*
X122060714Y-30946964D02*
X122060714Y-30196964D01*
X122060714Y-30196964D02*
X121989286Y-30304107D01*
X121989286Y-30304107D02*
X121917857Y-30375535D01*
X121917857Y-30375535D02*
X121846429Y-30411250D01*
%TO.C,R24*%
X72596570Y-82642964D02*
X72346570Y-82285821D01*
X72167999Y-82642964D02*
X72167999Y-81892964D01*
X72167999Y-81892964D02*
X72453713Y-81892964D01*
X72453713Y-81892964D02*
X72525142Y-81928678D01*
X72525142Y-81928678D02*
X72560856Y-81964392D01*
X72560856Y-81964392D02*
X72596570Y-82035821D01*
X72596570Y-82035821D02*
X72596570Y-82142964D01*
X72596570Y-82142964D02*
X72560856Y-82214392D01*
X72560856Y-82214392D02*
X72525142Y-82250107D01*
X72525142Y-82250107D02*
X72453713Y-82285821D01*
X72453713Y-82285821D02*
X72167999Y-82285821D01*
X72882285Y-81964392D02*
X72917999Y-81928678D01*
X72917999Y-81928678D02*
X72989428Y-81892964D01*
X72989428Y-81892964D02*
X73167999Y-81892964D01*
X73167999Y-81892964D02*
X73239428Y-81928678D01*
X73239428Y-81928678D02*
X73275142Y-81964392D01*
X73275142Y-81964392D02*
X73310856Y-82035821D01*
X73310856Y-82035821D02*
X73310856Y-82107250D01*
X73310856Y-82107250D02*
X73275142Y-82214392D01*
X73275142Y-82214392D02*
X72846570Y-82642964D01*
X72846570Y-82642964D02*
X73310856Y-82642964D01*
X73953714Y-82142964D02*
X73953714Y-82642964D01*
X73775142Y-81857250D02*
X73596571Y-82392964D01*
X73596571Y-82392964D02*
X74060856Y-82392964D01*
%TO.C,R15*%
X72596570Y-83976464D02*
X72346570Y-83619321D01*
X72167999Y-83976464D02*
X72167999Y-83226464D01*
X72167999Y-83226464D02*
X72453713Y-83226464D01*
X72453713Y-83226464D02*
X72525142Y-83262178D01*
X72525142Y-83262178D02*
X72560856Y-83297892D01*
X72560856Y-83297892D02*
X72596570Y-83369321D01*
X72596570Y-83369321D02*
X72596570Y-83476464D01*
X72596570Y-83476464D02*
X72560856Y-83547892D01*
X72560856Y-83547892D02*
X72525142Y-83583607D01*
X72525142Y-83583607D02*
X72453713Y-83619321D01*
X72453713Y-83619321D02*
X72167999Y-83619321D01*
X73310856Y-83976464D02*
X72882285Y-83976464D01*
X73096570Y-83976464D02*
X73096570Y-83226464D01*
X73096570Y-83226464D02*
X73025142Y-83333607D01*
X73025142Y-83333607D02*
X72953713Y-83405035D01*
X72953713Y-83405035D02*
X72882285Y-83440750D01*
X73989428Y-83226464D02*
X73632285Y-83226464D01*
X73632285Y-83226464D02*
X73596571Y-83583607D01*
X73596571Y-83583607D02*
X73632285Y-83547892D01*
X73632285Y-83547892D02*
X73703714Y-83512178D01*
X73703714Y-83512178D02*
X73882285Y-83512178D01*
X73882285Y-83512178D02*
X73953714Y-83547892D01*
X73953714Y-83547892D02*
X73989428Y-83583607D01*
X73989428Y-83583607D02*
X74025142Y-83655035D01*
X74025142Y-83655035D02*
X74025142Y-83833607D01*
X74025142Y-83833607D02*
X73989428Y-83905035D01*
X73989428Y-83905035D02*
X73953714Y-83940750D01*
X73953714Y-83940750D02*
X73882285Y-83976464D01*
X73882285Y-83976464D02*
X73703714Y-83976464D01*
X73703714Y-83976464D02*
X73632285Y-83940750D01*
X73632285Y-83940750D02*
X73596571Y-83905035D01*
%TO.C,R5*%
X103028856Y-50935296D02*
X102778856Y-50578153D01*
X102600285Y-50935296D02*
X102600285Y-50185296D01*
X102600285Y-50185296D02*
X102885999Y-50185296D01*
X102885999Y-50185296D02*
X102957428Y-50221010D01*
X102957428Y-50221010D02*
X102993142Y-50256724D01*
X102993142Y-50256724D02*
X103028856Y-50328153D01*
X103028856Y-50328153D02*
X103028856Y-50435296D01*
X103028856Y-50435296D02*
X102993142Y-50506724D01*
X102993142Y-50506724D02*
X102957428Y-50542439D01*
X102957428Y-50542439D02*
X102885999Y-50578153D01*
X102885999Y-50578153D02*
X102600285Y-50578153D01*
X103707428Y-50185296D02*
X103350285Y-50185296D01*
X103350285Y-50185296D02*
X103314571Y-50542439D01*
X103314571Y-50542439D02*
X103350285Y-50506724D01*
X103350285Y-50506724D02*
X103421714Y-50471010D01*
X103421714Y-50471010D02*
X103600285Y-50471010D01*
X103600285Y-50471010D02*
X103671714Y-50506724D01*
X103671714Y-50506724D02*
X103707428Y-50542439D01*
X103707428Y-50542439D02*
X103743142Y-50613867D01*
X103743142Y-50613867D02*
X103743142Y-50792439D01*
X103743142Y-50792439D02*
X103707428Y-50863867D01*
X103707428Y-50863867D02*
X103671714Y-50899582D01*
X103671714Y-50899582D02*
X103600285Y-50935296D01*
X103600285Y-50935296D02*
X103421714Y-50935296D01*
X103421714Y-50935296D02*
X103350285Y-50899582D01*
X103350285Y-50899582D02*
X103314571Y-50863867D01*
%TO.C,R4*%
X103028856Y-52311129D02*
X102778856Y-51953986D01*
X102600285Y-52311129D02*
X102600285Y-51561129D01*
X102600285Y-51561129D02*
X102885999Y-51561129D01*
X102885999Y-51561129D02*
X102957428Y-51596843D01*
X102957428Y-51596843D02*
X102993142Y-51632557D01*
X102993142Y-51632557D02*
X103028856Y-51703986D01*
X103028856Y-51703986D02*
X103028856Y-51811129D01*
X103028856Y-51811129D02*
X102993142Y-51882557D01*
X102993142Y-51882557D02*
X102957428Y-51918272D01*
X102957428Y-51918272D02*
X102885999Y-51953986D01*
X102885999Y-51953986D02*
X102600285Y-51953986D01*
X103671714Y-51811129D02*
X103671714Y-52311129D01*
X103493142Y-51525415D02*
X103314571Y-52061129D01*
X103314571Y-52061129D02*
X103778856Y-52061129D01*
%TO.C,R23*%
X75971856Y-56310964D02*
X75721856Y-55953821D01*
X75543285Y-56310964D02*
X75543285Y-55560964D01*
X75543285Y-55560964D02*
X75828999Y-55560964D01*
X75828999Y-55560964D02*
X75900428Y-55596678D01*
X75900428Y-55596678D02*
X75936142Y-55632392D01*
X75936142Y-55632392D02*
X75971856Y-55703821D01*
X75971856Y-55703821D02*
X75971856Y-55810964D01*
X75971856Y-55810964D02*
X75936142Y-55882392D01*
X75936142Y-55882392D02*
X75900428Y-55918107D01*
X75900428Y-55918107D02*
X75828999Y-55953821D01*
X75828999Y-55953821D02*
X75543285Y-55953821D01*
X76257571Y-55632392D02*
X76293285Y-55596678D01*
X76293285Y-55596678D02*
X76364714Y-55560964D01*
X76364714Y-55560964D02*
X76543285Y-55560964D01*
X76543285Y-55560964D02*
X76614714Y-55596678D01*
X76614714Y-55596678D02*
X76650428Y-55632392D01*
X76650428Y-55632392D02*
X76686142Y-55703821D01*
X76686142Y-55703821D02*
X76686142Y-55775250D01*
X76686142Y-55775250D02*
X76650428Y-55882392D01*
X76650428Y-55882392D02*
X76221856Y-56310964D01*
X76221856Y-56310964D02*
X76686142Y-56310964D01*
X76936142Y-55560964D02*
X77400428Y-55560964D01*
X77400428Y-55560964D02*
X77150428Y-55846678D01*
X77150428Y-55846678D02*
X77257571Y-55846678D01*
X77257571Y-55846678D02*
X77329000Y-55882392D01*
X77329000Y-55882392D02*
X77364714Y-55918107D01*
X77364714Y-55918107D02*
X77400428Y-55989535D01*
X77400428Y-55989535D02*
X77400428Y-56168107D01*
X77400428Y-56168107D02*
X77364714Y-56239535D01*
X77364714Y-56239535D02*
X77329000Y-56275250D01*
X77329000Y-56275250D02*
X77257571Y-56310964D01*
X77257571Y-56310964D02*
X77043285Y-56310964D01*
X77043285Y-56310964D02*
X76971857Y-56275250D01*
X76971857Y-56275250D02*
X76936142Y-56239535D01*
%TO.C,R25*%
X86131856Y-56310964D02*
X85881856Y-55953821D01*
X85703285Y-56310964D02*
X85703285Y-55560964D01*
X85703285Y-55560964D02*
X85988999Y-55560964D01*
X85988999Y-55560964D02*
X86060428Y-55596678D01*
X86060428Y-55596678D02*
X86096142Y-55632392D01*
X86096142Y-55632392D02*
X86131856Y-55703821D01*
X86131856Y-55703821D02*
X86131856Y-55810964D01*
X86131856Y-55810964D02*
X86096142Y-55882392D01*
X86096142Y-55882392D02*
X86060428Y-55918107D01*
X86060428Y-55918107D02*
X85988999Y-55953821D01*
X85988999Y-55953821D02*
X85703285Y-55953821D01*
X86417571Y-55632392D02*
X86453285Y-55596678D01*
X86453285Y-55596678D02*
X86524714Y-55560964D01*
X86524714Y-55560964D02*
X86703285Y-55560964D01*
X86703285Y-55560964D02*
X86774714Y-55596678D01*
X86774714Y-55596678D02*
X86810428Y-55632392D01*
X86810428Y-55632392D02*
X86846142Y-55703821D01*
X86846142Y-55703821D02*
X86846142Y-55775250D01*
X86846142Y-55775250D02*
X86810428Y-55882392D01*
X86810428Y-55882392D02*
X86381856Y-56310964D01*
X86381856Y-56310964D02*
X86846142Y-56310964D01*
X87524714Y-55560964D02*
X87167571Y-55560964D01*
X87167571Y-55560964D02*
X87131857Y-55918107D01*
X87131857Y-55918107D02*
X87167571Y-55882392D01*
X87167571Y-55882392D02*
X87239000Y-55846678D01*
X87239000Y-55846678D02*
X87417571Y-55846678D01*
X87417571Y-55846678D02*
X87489000Y-55882392D01*
X87489000Y-55882392D02*
X87524714Y-55918107D01*
X87524714Y-55918107D02*
X87560428Y-55989535D01*
X87560428Y-55989535D02*
X87560428Y-56168107D01*
X87560428Y-56168107D02*
X87524714Y-56239535D01*
X87524714Y-56239535D02*
X87489000Y-56275250D01*
X87489000Y-56275250D02*
X87417571Y-56310964D01*
X87417571Y-56310964D02*
X87239000Y-56310964D01*
X87239000Y-56310964D02*
X87167571Y-56275250D01*
X87167571Y-56275250D02*
X87131857Y-56239535D01*
%TO.C,R20*%
X102715142Y-76292964D02*
X102465142Y-75935821D01*
X102286571Y-76292964D02*
X102286571Y-75542964D01*
X102286571Y-75542964D02*
X102572285Y-75542964D01*
X102572285Y-75542964D02*
X102643714Y-75578678D01*
X102643714Y-75578678D02*
X102679428Y-75614392D01*
X102679428Y-75614392D02*
X102715142Y-75685821D01*
X102715142Y-75685821D02*
X102715142Y-75792964D01*
X102715142Y-75792964D02*
X102679428Y-75864392D01*
X102679428Y-75864392D02*
X102643714Y-75900107D01*
X102643714Y-75900107D02*
X102572285Y-75935821D01*
X102572285Y-75935821D02*
X102286571Y-75935821D01*
X103000857Y-75614392D02*
X103036571Y-75578678D01*
X103036571Y-75578678D02*
X103108000Y-75542964D01*
X103108000Y-75542964D02*
X103286571Y-75542964D01*
X103286571Y-75542964D02*
X103358000Y-75578678D01*
X103358000Y-75578678D02*
X103393714Y-75614392D01*
X103393714Y-75614392D02*
X103429428Y-75685821D01*
X103429428Y-75685821D02*
X103429428Y-75757250D01*
X103429428Y-75757250D02*
X103393714Y-75864392D01*
X103393714Y-75864392D02*
X102965142Y-76292964D01*
X102965142Y-76292964D02*
X103429428Y-76292964D01*
X103893714Y-75542964D02*
X103965143Y-75542964D01*
X103965143Y-75542964D02*
X104036571Y-75578678D01*
X104036571Y-75578678D02*
X104072286Y-75614392D01*
X104072286Y-75614392D02*
X104108000Y-75685821D01*
X104108000Y-75685821D02*
X104143714Y-75828678D01*
X104143714Y-75828678D02*
X104143714Y-76007250D01*
X104143714Y-76007250D02*
X104108000Y-76150107D01*
X104108000Y-76150107D02*
X104072286Y-76221535D01*
X104072286Y-76221535D02*
X104036571Y-76257250D01*
X104036571Y-76257250D02*
X103965143Y-76292964D01*
X103965143Y-76292964D02*
X103893714Y-76292964D01*
X103893714Y-76292964D02*
X103822286Y-76257250D01*
X103822286Y-76257250D02*
X103786571Y-76221535D01*
X103786571Y-76221535D02*
X103750857Y-76150107D01*
X103750857Y-76150107D02*
X103715143Y-76007250D01*
X103715143Y-76007250D02*
X103715143Y-75828678D01*
X103715143Y-75828678D02*
X103750857Y-75685821D01*
X103750857Y-75685821D02*
X103786571Y-75614392D01*
X103786571Y-75614392D02*
X103822286Y-75578678D01*
X103822286Y-75578678D02*
X103893714Y-75542964D01*
%TO.C,R10*%
X131851856Y-47760964D02*
X131601856Y-47403821D01*
X131423285Y-47760964D02*
X131423285Y-47010964D01*
X131423285Y-47010964D02*
X131708999Y-47010964D01*
X131708999Y-47010964D02*
X131780428Y-47046678D01*
X131780428Y-47046678D02*
X131816142Y-47082392D01*
X131816142Y-47082392D02*
X131851856Y-47153821D01*
X131851856Y-47153821D02*
X131851856Y-47260964D01*
X131851856Y-47260964D02*
X131816142Y-47332392D01*
X131816142Y-47332392D02*
X131780428Y-47368107D01*
X131780428Y-47368107D02*
X131708999Y-47403821D01*
X131708999Y-47403821D02*
X131423285Y-47403821D01*
X132566142Y-47760964D02*
X132137571Y-47760964D01*
X132351856Y-47760964D02*
X132351856Y-47010964D01*
X132351856Y-47010964D02*
X132280428Y-47118107D01*
X132280428Y-47118107D02*
X132208999Y-47189535D01*
X132208999Y-47189535D02*
X132137571Y-47225250D01*
X133030428Y-47010964D02*
X133101857Y-47010964D01*
X133101857Y-47010964D02*
X133173285Y-47046678D01*
X133173285Y-47046678D02*
X133209000Y-47082392D01*
X133209000Y-47082392D02*
X133244714Y-47153821D01*
X133244714Y-47153821D02*
X133280428Y-47296678D01*
X133280428Y-47296678D02*
X133280428Y-47475250D01*
X133280428Y-47475250D02*
X133244714Y-47618107D01*
X133244714Y-47618107D02*
X133209000Y-47689535D01*
X133209000Y-47689535D02*
X133173285Y-47725250D01*
X133173285Y-47725250D02*
X133101857Y-47760964D01*
X133101857Y-47760964D02*
X133030428Y-47760964D01*
X133030428Y-47760964D02*
X132959000Y-47725250D01*
X132959000Y-47725250D02*
X132923285Y-47689535D01*
X132923285Y-47689535D02*
X132887571Y-47618107D01*
X132887571Y-47618107D02*
X132851857Y-47475250D01*
X132851857Y-47475250D02*
X132851857Y-47296678D01*
X132851857Y-47296678D02*
X132887571Y-47153821D01*
X132887571Y-47153821D02*
X132923285Y-47082392D01*
X132923285Y-47082392D02*
X132959000Y-47046678D01*
X132959000Y-47046678D02*
X133030428Y-47010964D01*
%TO.C,C6*%
X101331535Y-83437000D02*
X101367250Y-83472714D01*
X101367250Y-83472714D02*
X101402964Y-83579857D01*
X101402964Y-83579857D02*
X101402964Y-83651285D01*
X101402964Y-83651285D02*
X101367250Y-83758428D01*
X101367250Y-83758428D02*
X101295821Y-83829857D01*
X101295821Y-83829857D02*
X101224392Y-83865571D01*
X101224392Y-83865571D02*
X101081535Y-83901285D01*
X101081535Y-83901285D02*
X100974392Y-83901285D01*
X100974392Y-83901285D02*
X100831535Y-83865571D01*
X100831535Y-83865571D02*
X100760107Y-83829857D01*
X100760107Y-83829857D02*
X100688678Y-83758428D01*
X100688678Y-83758428D02*
X100652964Y-83651285D01*
X100652964Y-83651285D02*
X100652964Y-83579857D01*
X100652964Y-83579857D02*
X100688678Y-83472714D01*
X100688678Y-83472714D02*
X100724392Y-83437000D01*
X100652964Y-82794143D02*
X100652964Y-82937000D01*
X100652964Y-82937000D02*
X100688678Y-83008428D01*
X100688678Y-83008428D02*
X100724392Y-83044143D01*
X100724392Y-83044143D02*
X100831535Y-83115571D01*
X100831535Y-83115571D02*
X100974392Y-83151285D01*
X100974392Y-83151285D02*
X101260107Y-83151285D01*
X101260107Y-83151285D02*
X101331535Y-83115571D01*
X101331535Y-83115571D02*
X101367250Y-83079857D01*
X101367250Y-83079857D02*
X101402964Y-83008428D01*
X101402964Y-83008428D02*
X101402964Y-82865571D01*
X101402964Y-82865571D02*
X101367250Y-82794143D01*
X101367250Y-82794143D02*
X101331535Y-82758428D01*
X101331535Y-82758428D02*
X101260107Y-82722714D01*
X101260107Y-82722714D02*
X101081535Y-82722714D01*
X101081535Y-82722714D02*
X101010107Y-82758428D01*
X101010107Y-82758428D02*
X100974392Y-82794143D01*
X100974392Y-82794143D02*
X100938678Y-82865571D01*
X100938678Y-82865571D02*
X100938678Y-83008428D01*
X100938678Y-83008428D02*
X100974392Y-83079857D01*
X100974392Y-83079857D02*
X101010107Y-83115571D01*
X101010107Y-83115571D02*
X101081535Y-83151285D01*
%TO.C,Y1*%
X108782571Y-64592142D02*
X109139714Y-64592142D01*
X108389714Y-64842142D02*
X108782571Y-64592142D01*
X108782571Y-64592142D02*
X108389714Y-64342142D01*
X109139714Y-63699285D02*
X109139714Y-64127856D01*
X109139714Y-63913571D02*
X108389714Y-63913571D01*
X108389714Y-63913571D02*
X108496857Y-63984999D01*
X108496857Y-63984999D02*
X108568285Y-64056428D01*
X108568285Y-64056428D02*
X108604000Y-64127856D01*
%TO.C,R3*%
X103028856Y-53686964D02*
X102778856Y-53329821D01*
X102600285Y-53686964D02*
X102600285Y-52936964D01*
X102600285Y-52936964D02*
X102885999Y-52936964D01*
X102885999Y-52936964D02*
X102957428Y-52972678D01*
X102957428Y-52972678D02*
X102993142Y-53008392D01*
X102993142Y-53008392D02*
X103028856Y-53079821D01*
X103028856Y-53079821D02*
X103028856Y-53186964D01*
X103028856Y-53186964D02*
X102993142Y-53258392D01*
X102993142Y-53258392D02*
X102957428Y-53294107D01*
X102957428Y-53294107D02*
X102885999Y-53329821D01*
X102885999Y-53329821D02*
X102600285Y-53329821D01*
X103278856Y-52936964D02*
X103743142Y-52936964D01*
X103743142Y-52936964D02*
X103493142Y-53222678D01*
X103493142Y-53222678D02*
X103600285Y-53222678D01*
X103600285Y-53222678D02*
X103671714Y-53258392D01*
X103671714Y-53258392D02*
X103707428Y-53294107D01*
X103707428Y-53294107D02*
X103743142Y-53365535D01*
X103743142Y-53365535D02*
X103743142Y-53544107D01*
X103743142Y-53544107D02*
X103707428Y-53615535D01*
X103707428Y-53615535D02*
X103671714Y-53651250D01*
X103671714Y-53651250D02*
X103600285Y-53686964D01*
X103600285Y-53686964D02*
X103385999Y-53686964D01*
X103385999Y-53686964D02*
X103314571Y-53651250D01*
X103314571Y-53651250D02*
X103278856Y-53615535D01*
%TO.C,C3*%
X105584535Y-68050000D02*
X105620250Y-68085714D01*
X105620250Y-68085714D02*
X105655964Y-68192857D01*
X105655964Y-68192857D02*
X105655964Y-68264285D01*
X105655964Y-68264285D02*
X105620250Y-68371428D01*
X105620250Y-68371428D02*
X105548821Y-68442857D01*
X105548821Y-68442857D02*
X105477392Y-68478571D01*
X105477392Y-68478571D02*
X105334535Y-68514285D01*
X105334535Y-68514285D02*
X105227392Y-68514285D01*
X105227392Y-68514285D02*
X105084535Y-68478571D01*
X105084535Y-68478571D02*
X105013107Y-68442857D01*
X105013107Y-68442857D02*
X104941678Y-68371428D01*
X104941678Y-68371428D02*
X104905964Y-68264285D01*
X104905964Y-68264285D02*
X104905964Y-68192857D01*
X104905964Y-68192857D02*
X104941678Y-68085714D01*
X104941678Y-68085714D02*
X104977392Y-68050000D01*
X104905964Y-67800000D02*
X104905964Y-67335714D01*
X104905964Y-67335714D02*
X105191678Y-67585714D01*
X105191678Y-67585714D02*
X105191678Y-67478571D01*
X105191678Y-67478571D02*
X105227392Y-67407143D01*
X105227392Y-67407143D02*
X105263107Y-67371428D01*
X105263107Y-67371428D02*
X105334535Y-67335714D01*
X105334535Y-67335714D02*
X105513107Y-67335714D01*
X105513107Y-67335714D02*
X105584535Y-67371428D01*
X105584535Y-67371428D02*
X105620250Y-67407143D01*
X105620250Y-67407143D02*
X105655964Y-67478571D01*
X105655964Y-67478571D02*
X105655964Y-67692857D01*
X105655964Y-67692857D02*
X105620250Y-67764285D01*
X105620250Y-67764285D02*
X105584535Y-67800000D01*
%TO.C,R6*%
X103028856Y-49559463D02*
X102778856Y-49202320D01*
X102600285Y-49559463D02*
X102600285Y-48809463D01*
X102600285Y-48809463D02*
X102885999Y-48809463D01*
X102885999Y-48809463D02*
X102957428Y-48845177D01*
X102957428Y-48845177D02*
X102993142Y-48880891D01*
X102993142Y-48880891D02*
X103028856Y-48952320D01*
X103028856Y-48952320D02*
X103028856Y-49059463D01*
X103028856Y-49059463D02*
X102993142Y-49130891D01*
X102993142Y-49130891D02*
X102957428Y-49166606D01*
X102957428Y-49166606D02*
X102885999Y-49202320D01*
X102885999Y-49202320D02*
X102600285Y-49202320D01*
X103671714Y-48809463D02*
X103528856Y-48809463D01*
X103528856Y-48809463D02*
X103457428Y-48845177D01*
X103457428Y-48845177D02*
X103421714Y-48880891D01*
X103421714Y-48880891D02*
X103350285Y-48988034D01*
X103350285Y-48988034D02*
X103314571Y-49130891D01*
X103314571Y-49130891D02*
X103314571Y-49416606D01*
X103314571Y-49416606D02*
X103350285Y-49488034D01*
X103350285Y-49488034D02*
X103385999Y-49523749D01*
X103385999Y-49523749D02*
X103457428Y-49559463D01*
X103457428Y-49559463D02*
X103600285Y-49559463D01*
X103600285Y-49559463D02*
X103671714Y-49523749D01*
X103671714Y-49523749D02*
X103707428Y-49488034D01*
X103707428Y-49488034D02*
X103743142Y-49416606D01*
X103743142Y-49416606D02*
X103743142Y-49238034D01*
X103743142Y-49238034D02*
X103707428Y-49166606D01*
X103707428Y-49166606D02*
X103671714Y-49130891D01*
X103671714Y-49130891D02*
X103600285Y-49095177D01*
X103600285Y-49095177D02*
X103457428Y-49095177D01*
X103457428Y-49095177D02*
X103385999Y-49130891D01*
X103385999Y-49130891D02*
X103350285Y-49166606D01*
X103350285Y-49166606D02*
X103314571Y-49238034D01*
%TO.C,R27*%
X102715142Y-79340964D02*
X102465142Y-78983821D01*
X102286571Y-79340964D02*
X102286571Y-78590964D01*
X102286571Y-78590964D02*
X102572285Y-78590964D01*
X102572285Y-78590964D02*
X102643714Y-78626678D01*
X102643714Y-78626678D02*
X102679428Y-78662392D01*
X102679428Y-78662392D02*
X102715142Y-78733821D01*
X102715142Y-78733821D02*
X102715142Y-78840964D01*
X102715142Y-78840964D02*
X102679428Y-78912392D01*
X102679428Y-78912392D02*
X102643714Y-78948107D01*
X102643714Y-78948107D02*
X102572285Y-78983821D01*
X102572285Y-78983821D02*
X102286571Y-78983821D01*
X103000857Y-78662392D02*
X103036571Y-78626678D01*
X103036571Y-78626678D02*
X103108000Y-78590964D01*
X103108000Y-78590964D02*
X103286571Y-78590964D01*
X103286571Y-78590964D02*
X103358000Y-78626678D01*
X103358000Y-78626678D02*
X103393714Y-78662392D01*
X103393714Y-78662392D02*
X103429428Y-78733821D01*
X103429428Y-78733821D02*
X103429428Y-78805250D01*
X103429428Y-78805250D02*
X103393714Y-78912392D01*
X103393714Y-78912392D02*
X102965142Y-79340964D01*
X102965142Y-79340964D02*
X103429428Y-79340964D01*
X103679428Y-78590964D02*
X104179428Y-78590964D01*
X104179428Y-78590964D02*
X103858000Y-79340964D01*
%TO.C,Q4*%
X91709017Y-48077428D02*
X91673303Y-48148857D01*
X91673303Y-48148857D02*
X91601875Y-48220285D01*
X91601875Y-48220285D02*
X91494732Y-48327428D01*
X91494732Y-48327428D02*
X91459017Y-48398857D01*
X91459017Y-48398857D02*
X91459017Y-48470285D01*
X91637589Y-48434571D02*
X91601875Y-48506000D01*
X91601875Y-48506000D02*
X91530446Y-48577428D01*
X91530446Y-48577428D02*
X91387589Y-48613142D01*
X91387589Y-48613142D02*
X91137589Y-48613142D01*
X91137589Y-48613142D02*
X90994732Y-48577428D01*
X90994732Y-48577428D02*
X90923303Y-48506000D01*
X90923303Y-48506000D02*
X90887589Y-48434571D01*
X90887589Y-48434571D02*
X90887589Y-48291714D01*
X90887589Y-48291714D02*
X90923303Y-48220285D01*
X90923303Y-48220285D02*
X90994732Y-48148857D01*
X90994732Y-48148857D02*
X91137589Y-48113142D01*
X91137589Y-48113142D02*
X91387589Y-48113142D01*
X91387589Y-48113142D02*
X91530446Y-48148857D01*
X91530446Y-48148857D02*
X91601875Y-48220285D01*
X91601875Y-48220285D02*
X91637589Y-48291714D01*
X91637589Y-48291714D02*
X91637589Y-48434571D01*
X91137589Y-47470286D02*
X91637589Y-47470286D01*
X90851875Y-47648857D02*
X91387589Y-47827428D01*
X91387589Y-47827428D02*
X91387589Y-47363143D01*
%TO.C,R8*%
X121032999Y-78324964D02*
X120782999Y-77967821D01*
X120604428Y-78324964D02*
X120604428Y-77574964D01*
X120604428Y-77574964D02*
X120890142Y-77574964D01*
X120890142Y-77574964D02*
X120961571Y-77610678D01*
X120961571Y-77610678D02*
X120997285Y-77646392D01*
X120997285Y-77646392D02*
X121032999Y-77717821D01*
X121032999Y-77717821D02*
X121032999Y-77824964D01*
X121032999Y-77824964D02*
X120997285Y-77896392D01*
X120997285Y-77896392D02*
X120961571Y-77932107D01*
X120961571Y-77932107D02*
X120890142Y-77967821D01*
X120890142Y-77967821D02*
X120604428Y-77967821D01*
X121461571Y-77896392D02*
X121390142Y-77860678D01*
X121390142Y-77860678D02*
X121354428Y-77824964D01*
X121354428Y-77824964D02*
X121318714Y-77753535D01*
X121318714Y-77753535D02*
X121318714Y-77717821D01*
X121318714Y-77717821D02*
X121354428Y-77646392D01*
X121354428Y-77646392D02*
X121390142Y-77610678D01*
X121390142Y-77610678D02*
X121461571Y-77574964D01*
X121461571Y-77574964D02*
X121604428Y-77574964D01*
X121604428Y-77574964D02*
X121675857Y-77610678D01*
X121675857Y-77610678D02*
X121711571Y-77646392D01*
X121711571Y-77646392D02*
X121747285Y-77717821D01*
X121747285Y-77717821D02*
X121747285Y-77753535D01*
X121747285Y-77753535D02*
X121711571Y-77824964D01*
X121711571Y-77824964D02*
X121675857Y-77860678D01*
X121675857Y-77860678D02*
X121604428Y-77896392D01*
X121604428Y-77896392D02*
X121461571Y-77896392D01*
X121461571Y-77896392D02*
X121390142Y-77932107D01*
X121390142Y-77932107D02*
X121354428Y-77967821D01*
X121354428Y-77967821D02*
X121318714Y-78039250D01*
X121318714Y-78039250D02*
X121318714Y-78182107D01*
X121318714Y-78182107D02*
X121354428Y-78253535D01*
X121354428Y-78253535D02*
X121390142Y-78289250D01*
X121390142Y-78289250D02*
X121461571Y-78324964D01*
X121461571Y-78324964D02*
X121604428Y-78324964D01*
X121604428Y-78324964D02*
X121675857Y-78289250D01*
X121675857Y-78289250D02*
X121711571Y-78253535D01*
X121711571Y-78253535D02*
X121747285Y-78182107D01*
X121747285Y-78182107D02*
X121747285Y-78039250D01*
X121747285Y-78039250D02*
X121711571Y-77967821D01*
X121711571Y-77967821D02*
X121675857Y-77932107D01*
X121675857Y-77932107D02*
X121604428Y-77896392D01*
%TO.C,C4*%
X131339535Y-59307000D02*
X131375250Y-59342714D01*
X131375250Y-59342714D02*
X131410964Y-59449857D01*
X131410964Y-59449857D02*
X131410964Y-59521285D01*
X131410964Y-59521285D02*
X131375250Y-59628428D01*
X131375250Y-59628428D02*
X131303821Y-59699857D01*
X131303821Y-59699857D02*
X131232392Y-59735571D01*
X131232392Y-59735571D02*
X131089535Y-59771285D01*
X131089535Y-59771285D02*
X130982392Y-59771285D01*
X130982392Y-59771285D02*
X130839535Y-59735571D01*
X130839535Y-59735571D02*
X130768107Y-59699857D01*
X130768107Y-59699857D02*
X130696678Y-59628428D01*
X130696678Y-59628428D02*
X130660964Y-59521285D01*
X130660964Y-59521285D02*
X130660964Y-59449857D01*
X130660964Y-59449857D02*
X130696678Y-59342714D01*
X130696678Y-59342714D02*
X130732392Y-59307000D01*
X130910964Y-58664143D02*
X131410964Y-58664143D01*
X130625250Y-58842714D02*
X131160964Y-59021285D01*
X131160964Y-59021285D02*
X131160964Y-58557000D01*
%TO.C,R22*%
X102715142Y-77816964D02*
X102465142Y-77459821D01*
X102286571Y-77816964D02*
X102286571Y-77066964D01*
X102286571Y-77066964D02*
X102572285Y-77066964D01*
X102572285Y-77066964D02*
X102643714Y-77102678D01*
X102643714Y-77102678D02*
X102679428Y-77138392D01*
X102679428Y-77138392D02*
X102715142Y-77209821D01*
X102715142Y-77209821D02*
X102715142Y-77316964D01*
X102715142Y-77316964D02*
X102679428Y-77388392D01*
X102679428Y-77388392D02*
X102643714Y-77424107D01*
X102643714Y-77424107D02*
X102572285Y-77459821D01*
X102572285Y-77459821D02*
X102286571Y-77459821D01*
X103000857Y-77138392D02*
X103036571Y-77102678D01*
X103036571Y-77102678D02*
X103108000Y-77066964D01*
X103108000Y-77066964D02*
X103286571Y-77066964D01*
X103286571Y-77066964D02*
X103358000Y-77102678D01*
X103358000Y-77102678D02*
X103393714Y-77138392D01*
X103393714Y-77138392D02*
X103429428Y-77209821D01*
X103429428Y-77209821D02*
X103429428Y-77281250D01*
X103429428Y-77281250D02*
X103393714Y-77388392D01*
X103393714Y-77388392D02*
X102965142Y-77816964D01*
X102965142Y-77816964D02*
X103429428Y-77816964D01*
X103715143Y-77138392D02*
X103750857Y-77102678D01*
X103750857Y-77102678D02*
X103822286Y-77066964D01*
X103822286Y-77066964D02*
X104000857Y-77066964D01*
X104000857Y-77066964D02*
X104072286Y-77102678D01*
X104072286Y-77102678D02*
X104108000Y-77138392D01*
X104108000Y-77138392D02*
X104143714Y-77209821D01*
X104143714Y-77209821D02*
X104143714Y-77281250D01*
X104143714Y-77281250D02*
X104108000Y-77388392D01*
X104108000Y-77388392D02*
X103679428Y-77816964D01*
X103679428Y-77816964D02*
X104143714Y-77816964D01*
%TO.C,R18*%
X102715142Y-73244964D02*
X102465142Y-72887821D01*
X102286571Y-73244964D02*
X102286571Y-72494964D01*
X102286571Y-72494964D02*
X102572285Y-72494964D01*
X102572285Y-72494964D02*
X102643714Y-72530678D01*
X102643714Y-72530678D02*
X102679428Y-72566392D01*
X102679428Y-72566392D02*
X102715142Y-72637821D01*
X102715142Y-72637821D02*
X102715142Y-72744964D01*
X102715142Y-72744964D02*
X102679428Y-72816392D01*
X102679428Y-72816392D02*
X102643714Y-72852107D01*
X102643714Y-72852107D02*
X102572285Y-72887821D01*
X102572285Y-72887821D02*
X102286571Y-72887821D01*
X103429428Y-73244964D02*
X103000857Y-73244964D01*
X103215142Y-73244964D02*
X103215142Y-72494964D01*
X103215142Y-72494964D02*
X103143714Y-72602107D01*
X103143714Y-72602107D02*
X103072285Y-72673535D01*
X103072285Y-72673535D02*
X103000857Y-72709250D01*
X103858000Y-72816392D02*
X103786571Y-72780678D01*
X103786571Y-72780678D02*
X103750857Y-72744964D01*
X103750857Y-72744964D02*
X103715143Y-72673535D01*
X103715143Y-72673535D02*
X103715143Y-72637821D01*
X103715143Y-72637821D02*
X103750857Y-72566392D01*
X103750857Y-72566392D02*
X103786571Y-72530678D01*
X103786571Y-72530678D02*
X103858000Y-72494964D01*
X103858000Y-72494964D02*
X104000857Y-72494964D01*
X104000857Y-72494964D02*
X104072286Y-72530678D01*
X104072286Y-72530678D02*
X104108000Y-72566392D01*
X104108000Y-72566392D02*
X104143714Y-72637821D01*
X104143714Y-72637821D02*
X104143714Y-72673535D01*
X104143714Y-72673535D02*
X104108000Y-72744964D01*
X104108000Y-72744964D02*
X104072286Y-72780678D01*
X104072286Y-72780678D02*
X104000857Y-72816392D01*
X104000857Y-72816392D02*
X103858000Y-72816392D01*
X103858000Y-72816392D02*
X103786571Y-72852107D01*
X103786571Y-72852107D02*
X103750857Y-72887821D01*
X103750857Y-72887821D02*
X103715143Y-72959250D01*
X103715143Y-72959250D02*
X103715143Y-73102107D01*
X103715143Y-73102107D02*
X103750857Y-73173535D01*
X103750857Y-73173535D02*
X103786571Y-73209250D01*
X103786571Y-73209250D02*
X103858000Y-73244964D01*
X103858000Y-73244964D02*
X104000857Y-73244964D01*
X104000857Y-73244964D02*
X104072286Y-73209250D01*
X104072286Y-73209250D02*
X104108000Y-73173535D01*
X104108000Y-73173535D02*
X104143714Y-73102107D01*
X104143714Y-73102107D02*
X104143714Y-72959250D01*
X104143714Y-72959250D02*
X104108000Y-72887821D01*
X104108000Y-72887821D02*
X104072286Y-72852107D01*
X104072286Y-72852107D02*
X104000857Y-72816392D01*
%TO.C,C7*%
X99422999Y-66351535D02*
X99387285Y-66387250D01*
X99387285Y-66387250D02*
X99280142Y-66422964D01*
X99280142Y-66422964D02*
X99208714Y-66422964D01*
X99208714Y-66422964D02*
X99101571Y-66387250D01*
X99101571Y-66387250D02*
X99030142Y-66315821D01*
X99030142Y-66315821D02*
X98994428Y-66244392D01*
X98994428Y-66244392D02*
X98958714Y-66101535D01*
X98958714Y-66101535D02*
X98958714Y-65994392D01*
X98958714Y-65994392D02*
X98994428Y-65851535D01*
X98994428Y-65851535D02*
X99030142Y-65780107D01*
X99030142Y-65780107D02*
X99101571Y-65708678D01*
X99101571Y-65708678D02*
X99208714Y-65672964D01*
X99208714Y-65672964D02*
X99280142Y-65672964D01*
X99280142Y-65672964D02*
X99387285Y-65708678D01*
X99387285Y-65708678D02*
X99422999Y-65744392D01*
X99672999Y-65672964D02*
X100172999Y-65672964D01*
X100172999Y-65672964D02*
X99851571Y-66422964D01*
%TO.C,R19*%
X102715142Y-74768964D02*
X102465142Y-74411821D01*
X102286571Y-74768964D02*
X102286571Y-74018964D01*
X102286571Y-74018964D02*
X102572285Y-74018964D01*
X102572285Y-74018964D02*
X102643714Y-74054678D01*
X102643714Y-74054678D02*
X102679428Y-74090392D01*
X102679428Y-74090392D02*
X102715142Y-74161821D01*
X102715142Y-74161821D02*
X102715142Y-74268964D01*
X102715142Y-74268964D02*
X102679428Y-74340392D01*
X102679428Y-74340392D02*
X102643714Y-74376107D01*
X102643714Y-74376107D02*
X102572285Y-74411821D01*
X102572285Y-74411821D02*
X102286571Y-74411821D01*
X103429428Y-74768964D02*
X103000857Y-74768964D01*
X103215142Y-74768964D02*
X103215142Y-74018964D01*
X103215142Y-74018964D02*
X103143714Y-74126107D01*
X103143714Y-74126107D02*
X103072285Y-74197535D01*
X103072285Y-74197535D02*
X103000857Y-74233250D01*
X103786571Y-74768964D02*
X103929428Y-74768964D01*
X103929428Y-74768964D02*
X104000857Y-74733250D01*
X104000857Y-74733250D02*
X104036571Y-74697535D01*
X104036571Y-74697535D02*
X104108000Y-74590392D01*
X104108000Y-74590392D02*
X104143714Y-74447535D01*
X104143714Y-74447535D02*
X104143714Y-74161821D01*
X104143714Y-74161821D02*
X104108000Y-74090392D01*
X104108000Y-74090392D02*
X104072286Y-74054678D01*
X104072286Y-74054678D02*
X104000857Y-74018964D01*
X104000857Y-74018964D02*
X103858000Y-74018964D01*
X103858000Y-74018964D02*
X103786571Y-74054678D01*
X103786571Y-74054678D02*
X103750857Y-74090392D01*
X103750857Y-74090392D02*
X103715143Y-74161821D01*
X103715143Y-74161821D02*
X103715143Y-74340392D01*
X103715143Y-74340392D02*
X103750857Y-74411821D01*
X103750857Y-74411821D02*
X103786571Y-74447535D01*
X103786571Y-74447535D02*
X103858000Y-74483250D01*
X103858000Y-74483250D02*
X104000857Y-74483250D01*
X104000857Y-74483250D02*
X104072286Y-74447535D01*
X104072286Y-74447535D02*
X104108000Y-74411821D01*
X104108000Y-74411821D02*
X104143714Y-74340392D01*
%TO.C,R1*%
X103028856Y-45431964D02*
X102778856Y-45074821D01*
X102600285Y-45431964D02*
X102600285Y-44681964D01*
X102600285Y-44681964D02*
X102885999Y-44681964D01*
X102885999Y-44681964D02*
X102957428Y-44717678D01*
X102957428Y-44717678D02*
X102993142Y-44753392D01*
X102993142Y-44753392D02*
X103028856Y-44824821D01*
X103028856Y-44824821D02*
X103028856Y-44931964D01*
X103028856Y-44931964D02*
X102993142Y-45003392D01*
X102993142Y-45003392D02*
X102957428Y-45039107D01*
X102957428Y-45039107D02*
X102885999Y-45074821D01*
X102885999Y-45074821D02*
X102600285Y-45074821D01*
X103743142Y-45431964D02*
X103314571Y-45431964D01*
X103528856Y-45431964D02*
X103528856Y-44681964D01*
X103528856Y-44681964D02*
X103457428Y-44789107D01*
X103457428Y-44789107D02*
X103385999Y-44860535D01*
X103385999Y-44860535D02*
X103314571Y-44896250D01*
%TO.C,R14*%
X72596570Y-85309964D02*
X72346570Y-84952821D01*
X72167999Y-85309964D02*
X72167999Y-84559964D01*
X72167999Y-84559964D02*
X72453713Y-84559964D01*
X72453713Y-84559964D02*
X72525142Y-84595678D01*
X72525142Y-84595678D02*
X72560856Y-84631392D01*
X72560856Y-84631392D02*
X72596570Y-84702821D01*
X72596570Y-84702821D02*
X72596570Y-84809964D01*
X72596570Y-84809964D02*
X72560856Y-84881392D01*
X72560856Y-84881392D02*
X72525142Y-84917107D01*
X72525142Y-84917107D02*
X72453713Y-84952821D01*
X72453713Y-84952821D02*
X72167999Y-84952821D01*
X73310856Y-85309964D02*
X72882285Y-85309964D01*
X73096570Y-85309964D02*
X73096570Y-84559964D01*
X73096570Y-84559964D02*
X73025142Y-84667107D01*
X73025142Y-84667107D02*
X72953713Y-84738535D01*
X72953713Y-84738535D02*
X72882285Y-84774250D01*
X73953714Y-84809964D02*
X73953714Y-85309964D01*
X73775142Y-84524250D02*
X73596571Y-85059964D01*
X73596571Y-85059964D02*
X74060856Y-85059964D01*
%TO.C,C1*%
X128037535Y-31855000D02*
X128073250Y-31890714D01*
X128073250Y-31890714D02*
X128108964Y-31997857D01*
X128108964Y-31997857D02*
X128108964Y-32069285D01*
X128108964Y-32069285D02*
X128073250Y-32176428D01*
X128073250Y-32176428D02*
X128001821Y-32247857D01*
X128001821Y-32247857D02*
X127930392Y-32283571D01*
X127930392Y-32283571D02*
X127787535Y-32319285D01*
X127787535Y-32319285D02*
X127680392Y-32319285D01*
X127680392Y-32319285D02*
X127537535Y-32283571D01*
X127537535Y-32283571D02*
X127466107Y-32247857D01*
X127466107Y-32247857D02*
X127394678Y-32176428D01*
X127394678Y-32176428D02*
X127358964Y-32069285D01*
X127358964Y-32069285D02*
X127358964Y-31997857D01*
X127358964Y-31997857D02*
X127394678Y-31890714D01*
X127394678Y-31890714D02*
X127430392Y-31855000D01*
X128108964Y-31140714D02*
X128108964Y-31569285D01*
X128108964Y-31355000D02*
X127358964Y-31355000D01*
X127358964Y-31355000D02*
X127466107Y-31426428D01*
X127466107Y-31426428D02*
X127537535Y-31497857D01*
X127537535Y-31497857D02*
X127573250Y-31569285D01*
%TO.C,R21*%
X65811856Y-56310964D02*
X65561856Y-55953821D01*
X65383285Y-56310964D02*
X65383285Y-55560964D01*
X65383285Y-55560964D02*
X65668999Y-55560964D01*
X65668999Y-55560964D02*
X65740428Y-55596678D01*
X65740428Y-55596678D02*
X65776142Y-55632392D01*
X65776142Y-55632392D02*
X65811856Y-55703821D01*
X65811856Y-55703821D02*
X65811856Y-55810964D01*
X65811856Y-55810964D02*
X65776142Y-55882392D01*
X65776142Y-55882392D02*
X65740428Y-55918107D01*
X65740428Y-55918107D02*
X65668999Y-55953821D01*
X65668999Y-55953821D02*
X65383285Y-55953821D01*
X66097571Y-55632392D02*
X66133285Y-55596678D01*
X66133285Y-55596678D02*
X66204714Y-55560964D01*
X66204714Y-55560964D02*
X66383285Y-55560964D01*
X66383285Y-55560964D02*
X66454714Y-55596678D01*
X66454714Y-55596678D02*
X66490428Y-55632392D01*
X66490428Y-55632392D02*
X66526142Y-55703821D01*
X66526142Y-55703821D02*
X66526142Y-55775250D01*
X66526142Y-55775250D02*
X66490428Y-55882392D01*
X66490428Y-55882392D02*
X66061856Y-56310964D01*
X66061856Y-56310964D02*
X66526142Y-56310964D01*
X67240428Y-56310964D02*
X66811857Y-56310964D01*
X67026142Y-56310964D02*
X67026142Y-55560964D01*
X67026142Y-55560964D02*
X66954714Y-55668107D01*
X66954714Y-55668107D02*
X66883285Y-55739535D01*
X66883285Y-55739535D02*
X66811857Y-55775250D01*
%TO.C,R17*%
X101522964Y-75666143D02*
X101165821Y-75916143D01*
X101522964Y-76094714D02*
X100772964Y-76094714D01*
X100772964Y-76094714D02*
X100772964Y-75809000D01*
X100772964Y-75809000D02*
X100808678Y-75737571D01*
X100808678Y-75737571D02*
X100844392Y-75701857D01*
X100844392Y-75701857D02*
X100915821Y-75666143D01*
X100915821Y-75666143D02*
X101022964Y-75666143D01*
X101022964Y-75666143D02*
X101094392Y-75701857D01*
X101094392Y-75701857D02*
X101130107Y-75737571D01*
X101130107Y-75737571D02*
X101165821Y-75809000D01*
X101165821Y-75809000D02*
X101165821Y-76094714D01*
X101522964Y-74951857D02*
X101522964Y-75380428D01*
X101522964Y-75166143D02*
X100772964Y-75166143D01*
X100772964Y-75166143D02*
X100880107Y-75237571D01*
X100880107Y-75237571D02*
X100951535Y-75309000D01*
X100951535Y-75309000D02*
X100987250Y-75380428D01*
X100772964Y-74701857D02*
X100772964Y-74201857D01*
X100772964Y-74201857D02*
X101522964Y-74523285D01*
%TO.C,R7*%
X103028856Y-48183630D02*
X102778856Y-47826487D01*
X102600285Y-48183630D02*
X102600285Y-47433630D01*
X102600285Y-47433630D02*
X102885999Y-47433630D01*
X102885999Y-47433630D02*
X102957428Y-47469344D01*
X102957428Y-47469344D02*
X102993142Y-47505058D01*
X102993142Y-47505058D02*
X103028856Y-47576487D01*
X103028856Y-47576487D02*
X103028856Y-47683630D01*
X103028856Y-47683630D02*
X102993142Y-47755058D01*
X102993142Y-47755058D02*
X102957428Y-47790773D01*
X102957428Y-47790773D02*
X102885999Y-47826487D01*
X102885999Y-47826487D02*
X102600285Y-47826487D01*
X103278856Y-47433630D02*
X103778856Y-47433630D01*
X103778856Y-47433630D02*
X103457428Y-48183630D01*
%TO.C,C5*%
X108586999Y-56663535D02*
X108551285Y-56699250D01*
X108551285Y-56699250D02*
X108444142Y-56734964D01*
X108444142Y-56734964D02*
X108372714Y-56734964D01*
X108372714Y-56734964D02*
X108265571Y-56699250D01*
X108265571Y-56699250D02*
X108194142Y-56627821D01*
X108194142Y-56627821D02*
X108158428Y-56556392D01*
X108158428Y-56556392D02*
X108122714Y-56413535D01*
X108122714Y-56413535D02*
X108122714Y-56306392D01*
X108122714Y-56306392D02*
X108158428Y-56163535D01*
X108158428Y-56163535D02*
X108194142Y-56092107D01*
X108194142Y-56092107D02*
X108265571Y-56020678D01*
X108265571Y-56020678D02*
X108372714Y-55984964D01*
X108372714Y-55984964D02*
X108444142Y-55984964D01*
X108444142Y-55984964D02*
X108551285Y-56020678D01*
X108551285Y-56020678D02*
X108586999Y-56056392D01*
X109265571Y-55984964D02*
X108908428Y-55984964D01*
X108908428Y-55984964D02*
X108872714Y-56342107D01*
X108872714Y-56342107D02*
X108908428Y-56306392D01*
X108908428Y-56306392D02*
X108979857Y-56270678D01*
X108979857Y-56270678D02*
X109158428Y-56270678D01*
X109158428Y-56270678D02*
X109229857Y-56306392D01*
X109229857Y-56306392D02*
X109265571Y-56342107D01*
X109265571Y-56342107D02*
X109301285Y-56413535D01*
X109301285Y-56413535D02*
X109301285Y-56592107D01*
X109301285Y-56592107D02*
X109265571Y-56663535D01*
X109265571Y-56663535D02*
X109229857Y-56699250D01*
X109229857Y-56699250D02*
X109158428Y-56734964D01*
X109158428Y-56734964D02*
X108979857Y-56734964D01*
X108979857Y-56734964D02*
X108908428Y-56699250D01*
X108908428Y-56699250D02*
X108872714Y-56663535D01*
%TO.C,R2*%
X103028856Y-46807797D02*
X102778856Y-46450654D01*
X102600285Y-46807797D02*
X102600285Y-46057797D01*
X102600285Y-46057797D02*
X102885999Y-46057797D01*
X102885999Y-46057797D02*
X102957428Y-46093511D01*
X102957428Y-46093511D02*
X102993142Y-46129225D01*
X102993142Y-46129225D02*
X103028856Y-46200654D01*
X103028856Y-46200654D02*
X103028856Y-46307797D01*
X103028856Y-46307797D02*
X102993142Y-46379225D01*
X102993142Y-46379225D02*
X102957428Y-46414940D01*
X102957428Y-46414940D02*
X102885999Y-46450654D01*
X102885999Y-46450654D02*
X102600285Y-46450654D01*
X103314571Y-46129225D02*
X103350285Y-46093511D01*
X103350285Y-46093511D02*
X103421714Y-46057797D01*
X103421714Y-46057797D02*
X103600285Y-46057797D01*
X103600285Y-46057797D02*
X103671714Y-46093511D01*
X103671714Y-46093511D02*
X103707428Y-46129225D01*
X103707428Y-46129225D02*
X103743142Y-46200654D01*
X103743142Y-46200654D02*
X103743142Y-46272083D01*
X103743142Y-46272083D02*
X103707428Y-46379225D01*
X103707428Y-46379225D02*
X103278856Y-46807797D01*
X103278856Y-46807797D02*
X103743142Y-46807797D01*
%TO.C,Q1*%
X70119017Y-48077428D02*
X70083303Y-48148857D01*
X70083303Y-48148857D02*
X70011875Y-48220285D01*
X70011875Y-48220285D02*
X69904732Y-48327428D01*
X69904732Y-48327428D02*
X69869017Y-48398857D01*
X69869017Y-48398857D02*
X69869017Y-48470285D01*
X70047589Y-48434571D02*
X70011875Y-48506000D01*
X70011875Y-48506000D02*
X69940446Y-48577428D01*
X69940446Y-48577428D02*
X69797589Y-48613142D01*
X69797589Y-48613142D02*
X69547589Y-48613142D01*
X69547589Y-48613142D02*
X69404732Y-48577428D01*
X69404732Y-48577428D02*
X69333303Y-48506000D01*
X69333303Y-48506000D02*
X69297589Y-48434571D01*
X69297589Y-48434571D02*
X69297589Y-48291714D01*
X69297589Y-48291714D02*
X69333303Y-48220285D01*
X69333303Y-48220285D02*
X69404732Y-48148857D01*
X69404732Y-48148857D02*
X69547589Y-48113142D01*
X69547589Y-48113142D02*
X69797589Y-48113142D01*
X69797589Y-48113142D02*
X69940446Y-48148857D01*
X69940446Y-48148857D02*
X70011875Y-48220285D01*
X70011875Y-48220285D02*
X70047589Y-48291714D01*
X70047589Y-48291714D02*
X70047589Y-48434571D01*
X70047589Y-47398857D02*
X70047589Y-47827428D01*
X70047589Y-47613143D02*
X69297589Y-47613143D01*
X69297589Y-47613143D02*
X69404732Y-47684571D01*
X69404732Y-47684571D02*
X69476160Y-47756000D01*
X69476160Y-47756000D02*
X69511875Y-47827428D01*
%TO.C,R11*%
X120675856Y-86536964D02*
X120425856Y-86179821D01*
X120247285Y-86536964D02*
X120247285Y-85786964D01*
X120247285Y-85786964D02*
X120532999Y-85786964D01*
X120532999Y-85786964D02*
X120604428Y-85822678D01*
X120604428Y-85822678D02*
X120640142Y-85858392D01*
X120640142Y-85858392D02*
X120675856Y-85929821D01*
X120675856Y-85929821D02*
X120675856Y-86036964D01*
X120675856Y-86036964D02*
X120640142Y-86108392D01*
X120640142Y-86108392D02*
X120604428Y-86144107D01*
X120604428Y-86144107D02*
X120532999Y-86179821D01*
X120532999Y-86179821D02*
X120247285Y-86179821D01*
X121390142Y-86536964D02*
X120961571Y-86536964D01*
X121175856Y-86536964D02*
X121175856Y-85786964D01*
X121175856Y-85786964D02*
X121104428Y-85894107D01*
X121104428Y-85894107D02*
X121032999Y-85965535D01*
X121032999Y-85965535D02*
X120961571Y-86001250D01*
X122104428Y-86536964D02*
X121675857Y-86536964D01*
X121890142Y-86536964D02*
X121890142Y-85786964D01*
X121890142Y-85786964D02*
X121818714Y-85894107D01*
X121818714Y-85894107D02*
X121747285Y-85965535D01*
X121747285Y-85965535D02*
X121675857Y-86001250D01*
%TO.C,R26*%
X96291856Y-56310964D02*
X96041856Y-55953821D01*
X95863285Y-56310964D02*
X95863285Y-55560964D01*
X95863285Y-55560964D02*
X96148999Y-55560964D01*
X96148999Y-55560964D02*
X96220428Y-55596678D01*
X96220428Y-55596678D02*
X96256142Y-55632392D01*
X96256142Y-55632392D02*
X96291856Y-55703821D01*
X96291856Y-55703821D02*
X96291856Y-55810964D01*
X96291856Y-55810964D02*
X96256142Y-55882392D01*
X96256142Y-55882392D02*
X96220428Y-55918107D01*
X96220428Y-55918107D02*
X96148999Y-55953821D01*
X96148999Y-55953821D02*
X95863285Y-55953821D01*
X96577571Y-55632392D02*
X96613285Y-55596678D01*
X96613285Y-55596678D02*
X96684714Y-55560964D01*
X96684714Y-55560964D02*
X96863285Y-55560964D01*
X96863285Y-55560964D02*
X96934714Y-55596678D01*
X96934714Y-55596678D02*
X96970428Y-55632392D01*
X96970428Y-55632392D02*
X97006142Y-55703821D01*
X97006142Y-55703821D02*
X97006142Y-55775250D01*
X97006142Y-55775250D02*
X96970428Y-55882392D01*
X96970428Y-55882392D02*
X96541856Y-56310964D01*
X96541856Y-56310964D02*
X97006142Y-56310964D01*
X97649000Y-55560964D02*
X97506142Y-55560964D01*
X97506142Y-55560964D02*
X97434714Y-55596678D01*
X97434714Y-55596678D02*
X97399000Y-55632392D01*
X97399000Y-55632392D02*
X97327571Y-55739535D01*
X97327571Y-55739535D02*
X97291857Y-55882392D01*
X97291857Y-55882392D02*
X97291857Y-56168107D01*
X97291857Y-56168107D02*
X97327571Y-56239535D01*
X97327571Y-56239535D02*
X97363285Y-56275250D01*
X97363285Y-56275250D02*
X97434714Y-56310964D01*
X97434714Y-56310964D02*
X97577571Y-56310964D01*
X97577571Y-56310964D02*
X97649000Y-56275250D01*
X97649000Y-56275250D02*
X97684714Y-56239535D01*
X97684714Y-56239535D02*
X97720428Y-56168107D01*
X97720428Y-56168107D02*
X97720428Y-55989535D01*
X97720428Y-55989535D02*
X97684714Y-55918107D01*
X97684714Y-55918107D02*
X97649000Y-55882392D01*
X97649000Y-55882392D02*
X97577571Y-55846678D01*
X97577571Y-55846678D02*
X97434714Y-55846678D01*
X97434714Y-55846678D02*
X97363285Y-55882392D01*
X97363285Y-55882392D02*
X97327571Y-55918107D01*
X97327571Y-55918107D02*
X97291857Y-55989535D01*
%TO.C,Q3*%
X84512349Y-48077428D02*
X84476635Y-48148857D01*
X84476635Y-48148857D02*
X84405207Y-48220285D01*
X84405207Y-48220285D02*
X84298064Y-48327428D01*
X84298064Y-48327428D02*
X84262349Y-48398857D01*
X84262349Y-48398857D02*
X84262349Y-48470285D01*
X84440921Y-48434571D02*
X84405207Y-48506000D01*
X84405207Y-48506000D02*
X84333778Y-48577428D01*
X84333778Y-48577428D02*
X84190921Y-48613142D01*
X84190921Y-48613142D02*
X83940921Y-48613142D01*
X83940921Y-48613142D02*
X83798064Y-48577428D01*
X83798064Y-48577428D02*
X83726635Y-48506000D01*
X83726635Y-48506000D02*
X83690921Y-48434571D01*
X83690921Y-48434571D02*
X83690921Y-48291714D01*
X83690921Y-48291714D02*
X83726635Y-48220285D01*
X83726635Y-48220285D02*
X83798064Y-48148857D01*
X83798064Y-48148857D02*
X83940921Y-48113142D01*
X83940921Y-48113142D02*
X84190921Y-48113142D01*
X84190921Y-48113142D02*
X84333778Y-48148857D01*
X84333778Y-48148857D02*
X84405207Y-48220285D01*
X84405207Y-48220285D02*
X84440921Y-48291714D01*
X84440921Y-48291714D02*
X84440921Y-48434571D01*
X83690921Y-47863143D02*
X83690921Y-47398857D01*
X83690921Y-47398857D02*
X83976635Y-47648857D01*
X83976635Y-47648857D02*
X83976635Y-47541714D01*
X83976635Y-47541714D02*
X84012349Y-47470286D01*
X84012349Y-47470286D02*
X84048064Y-47434571D01*
X84048064Y-47434571D02*
X84119492Y-47398857D01*
X84119492Y-47398857D02*
X84298064Y-47398857D01*
X84298064Y-47398857D02*
X84369492Y-47434571D01*
X84369492Y-47434571D02*
X84405207Y-47470286D01*
X84405207Y-47470286D02*
X84440921Y-47541714D01*
X84440921Y-47541714D02*
X84440921Y-47756000D01*
X84440921Y-47756000D02*
X84405207Y-47827428D01*
X84405207Y-47827428D02*
X84369492Y-47863143D01*
%TO.C,R12*%
X72596570Y-81309464D02*
X72346570Y-80952321D01*
X72167999Y-81309464D02*
X72167999Y-80559464D01*
X72167999Y-80559464D02*
X72453713Y-80559464D01*
X72453713Y-80559464D02*
X72525142Y-80595178D01*
X72525142Y-80595178D02*
X72560856Y-80630892D01*
X72560856Y-80630892D02*
X72596570Y-80702321D01*
X72596570Y-80702321D02*
X72596570Y-80809464D01*
X72596570Y-80809464D02*
X72560856Y-80880892D01*
X72560856Y-80880892D02*
X72525142Y-80916607D01*
X72525142Y-80916607D02*
X72453713Y-80952321D01*
X72453713Y-80952321D02*
X72167999Y-80952321D01*
X73310856Y-81309464D02*
X72882285Y-81309464D01*
X73096570Y-81309464D02*
X73096570Y-80559464D01*
X73096570Y-80559464D02*
X73025142Y-80666607D01*
X73025142Y-80666607D02*
X72953713Y-80738035D01*
X72953713Y-80738035D02*
X72882285Y-80773750D01*
X73596571Y-80630892D02*
X73632285Y-80595178D01*
X73632285Y-80595178D02*
X73703714Y-80559464D01*
X73703714Y-80559464D02*
X73882285Y-80559464D01*
X73882285Y-80559464D02*
X73953714Y-80595178D01*
X73953714Y-80595178D02*
X73989428Y-80630892D01*
X73989428Y-80630892D02*
X74025142Y-80702321D01*
X74025142Y-80702321D02*
X74025142Y-80773750D01*
X74025142Y-80773750D02*
X73989428Y-80880892D01*
X73989428Y-80880892D02*
X73560856Y-81309464D01*
X73560856Y-81309464D02*
X74025142Y-81309464D01*
%TO.C,Q2*%
X77315683Y-48077428D02*
X77279969Y-48148857D01*
X77279969Y-48148857D02*
X77208541Y-48220285D01*
X77208541Y-48220285D02*
X77101398Y-48327428D01*
X77101398Y-48327428D02*
X77065683Y-48398857D01*
X77065683Y-48398857D02*
X77065683Y-48470285D01*
X77244255Y-48434571D02*
X77208541Y-48506000D01*
X77208541Y-48506000D02*
X77137112Y-48577428D01*
X77137112Y-48577428D02*
X76994255Y-48613142D01*
X76994255Y-48613142D02*
X76744255Y-48613142D01*
X76744255Y-48613142D02*
X76601398Y-48577428D01*
X76601398Y-48577428D02*
X76529969Y-48506000D01*
X76529969Y-48506000D02*
X76494255Y-48434571D01*
X76494255Y-48434571D02*
X76494255Y-48291714D01*
X76494255Y-48291714D02*
X76529969Y-48220285D01*
X76529969Y-48220285D02*
X76601398Y-48148857D01*
X76601398Y-48148857D02*
X76744255Y-48113142D01*
X76744255Y-48113142D02*
X76994255Y-48113142D01*
X76994255Y-48113142D02*
X77137112Y-48148857D01*
X77137112Y-48148857D02*
X77208541Y-48220285D01*
X77208541Y-48220285D02*
X77244255Y-48291714D01*
X77244255Y-48291714D02*
X77244255Y-48434571D01*
X76565683Y-47827428D02*
X76529969Y-47791714D01*
X76529969Y-47791714D02*
X76494255Y-47720286D01*
X76494255Y-47720286D02*
X76494255Y-47541714D01*
X76494255Y-47541714D02*
X76529969Y-47470286D01*
X76529969Y-47470286D02*
X76565683Y-47434571D01*
X76565683Y-47434571D02*
X76637112Y-47398857D01*
X76637112Y-47398857D02*
X76708541Y-47398857D01*
X76708541Y-47398857D02*
X76815683Y-47434571D01*
X76815683Y-47434571D02*
X77244255Y-47863143D01*
X77244255Y-47863143D02*
X77244255Y-47398857D01*
%TO.C,D2*%
X137885928Y-77562964D02*
X137885928Y-76812964D01*
X137885928Y-76812964D02*
X138064499Y-76812964D01*
X138064499Y-76812964D02*
X138171642Y-76848678D01*
X138171642Y-76848678D02*
X138243071Y-76920107D01*
X138243071Y-76920107D02*
X138278785Y-76991535D01*
X138278785Y-76991535D02*
X138314499Y-77134392D01*
X138314499Y-77134392D02*
X138314499Y-77241535D01*
X138314499Y-77241535D02*
X138278785Y-77384392D01*
X138278785Y-77384392D02*
X138243071Y-77455821D01*
X138243071Y-77455821D02*
X138171642Y-77527250D01*
X138171642Y-77527250D02*
X138064499Y-77562964D01*
X138064499Y-77562964D02*
X137885928Y-77562964D01*
X138600214Y-76884392D02*
X138635928Y-76848678D01*
X138635928Y-76848678D02*
X138707357Y-76812964D01*
X138707357Y-76812964D02*
X138885928Y-76812964D01*
X138885928Y-76812964D02*
X138957357Y-76848678D01*
X138957357Y-76848678D02*
X138993071Y-76884392D01*
X138993071Y-76884392D02*
X139028785Y-76955821D01*
X139028785Y-76955821D02*
X139028785Y-77027250D01*
X139028785Y-77027250D02*
X138993071Y-77134392D01*
X138993071Y-77134392D02*
X138564499Y-77562964D01*
X138564499Y-77562964D02*
X139028785Y-77562964D01*
%TO.C,U2*%
X64620964Y-42731428D02*
X65228107Y-42731428D01*
X65228107Y-42731428D02*
X65299535Y-42695714D01*
X65299535Y-42695714D02*
X65335250Y-42660000D01*
X65335250Y-42660000D02*
X65370964Y-42588571D01*
X65370964Y-42588571D02*
X65370964Y-42445714D01*
X65370964Y-42445714D02*
X65335250Y-42374285D01*
X65335250Y-42374285D02*
X65299535Y-42338571D01*
X65299535Y-42338571D02*
X65228107Y-42302857D01*
X65228107Y-42302857D02*
X64620964Y-42302857D01*
X64692392Y-41981428D02*
X64656678Y-41945714D01*
X64656678Y-41945714D02*
X64620964Y-41874286D01*
X64620964Y-41874286D02*
X64620964Y-41695714D01*
X64620964Y-41695714D02*
X64656678Y-41624286D01*
X64656678Y-41624286D02*
X64692392Y-41588571D01*
X64692392Y-41588571D02*
X64763821Y-41552857D01*
X64763821Y-41552857D02*
X64835250Y-41552857D01*
X64835250Y-41552857D02*
X64942392Y-41588571D01*
X64942392Y-41588571D02*
X65370964Y-42017143D01*
X65370964Y-42017143D02*
X65370964Y-41552857D01*
%TO.C,C2*%
X105584535Y-60670000D02*
X105620250Y-60705714D01*
X105620250Y-60705714D02*
X105655964Y-60812857D01*
X105655964Y-60812857D02*
X105655964Y-60884285D01*
X105655964Y-60884285D02*
X105620250Y-60991428D01*
X105620250Y-60991428D02*
X105548821Y-61062857D01*
X105548821Y-61062857D02*
X105477392Y-61098571D01*
X105477392Y-61098571D02*
X105334535Y-61134285D01*
X105334535Y-61134285D02*
X105227392Y-61134285D01*
X105227392Y-61134285D02*
X105084535Y-61098571D01*
X105084535Y-61098571D02*
X105013107Y-61062857D01*
X105013107Y-61062857D02*
X104941678Y-60991428D01*
X104941678Y-60991428D02*
X104905964Y-60884285D01*
X104905964Y-60884285D02*
X104905964Y-60812857D01*
X104905964Y-60812857D02*
X104941678Y-60705714D01*
X104941678Y-60705714D02*
X104977392Y-60670000D01*
X104977392Y-60384285D02*
X104941678Y-60348571D01*
X104941678Y-60348571D02*
X104905964Y-60277143D01*
X104905964Y-60277143D02*
X104905964Y-60098571D01*
X104905964Y-60098571D02*
X104941678Y-60027143D01*
X104941678Y-60027143D02*
X104977392Y-59991428D01*
X104977392Y-59991428D02*
X105048821Y-59955714D01*
X105048821Y-59955714D02*
X105120250Y-59955714D01*
X105120250Y-59955714D02*
X105227392Y-59991428D01*
X105227392Y-59991428D02*
X105655964Y-60420000D01*
X105655964Y-60420000D02*
X105655964Y-59955714D01*
%TO.C,J1*%
X137799000Y-60766964D02*
X137799000Y-61302678D01*
X137799000Y-61302678D02*
X137763285Y-61409821D01*
X137763285Y-61409821D02*
X137691857Y-61481250D01*
X137691857Y-61481250D02*
X137584714Y-61516964D01*
X137584714Y-61516964D02*
X137513285Y-61516964D01*
X138549000Y-61516964D02*
X138120429Y-61516964D01*
X138334714Y-61516964D02*
X138334714Y-60766964D01*
X138334714Y-60766964D02*
X138263286Y-60874107D01*
X138263286Y-60874107D02*
X138191857Y-60945535D01*
X138191857Y-60945535D02*
X138120429Y-60981250D01*
%TO.C,R9*%
X132208999Y-56226964D02*
X131958999Y-55869821D01*
X131780428Y-56226964D02*
X131780428Y-55476964D01*
X131780428Y-55476964D02*
X132066142Y-55476964D01*
X132066142Y-55476964D02*
X132137571Y-55512678D01*
X132137571Y-55512678D02*
X132173285Y-55548392D01*
X132173285Y-55548392D02*
X132208999Y-55619821D01*
X132208999Y-55619821D02*
X132208999Y-55726964D01*
X132208999Y-55726964D02*
X132173285Y-55798392D01*
X132173285Y-55798392D02*
X132137571Y-55834107D01*
X132137571Y-55834107D02*
X132066142Y-55869821D01*
X132066142Y-55869821D02*
X131780428Y-55869821D01*
X132566142Y-56226964D02*
X132708999Y-56226964D01*
X132708999Y-56226964D02*
X132780428Y-56191250D01*
X132780428Y-56191250D02*
X132816142Y-56155535D01*
X132816142Y-56155535D02*
X132887571Y-56048392D01*
X132887571Y-56048392D02*
X132923285Y-55905535D01*
X132923285Y-55905535D02*
X132923285Y-55619821D01*
X132923285Y-55619821D02*
X132887571Y-55548392D01*
X132887571Y-55548392D02*
X132851857Y-55512678D01*
X132851857Y-55512678D02*
X132780428Y-55476964D01*
X132780428Y-55476964D02*
X132637571Y-55476964D01*
X132637571Y-55476964D02*
X132566142Y-55512678D01*
X132566142Y-55512678D02*
X132530428Y-55548392D01*
X132530428Y-55548392D02*
X132494714Y-55619821D01*
X132494714Y-55619821D02*
X132494714Y-55798392D01*
X132494714Y-55798392D02*
X132530428Y-55869821D01*
X132530428Y-55869821D02*
X132566142Y-55905535D01*
X132566142Y-55905535D02*
X132637571Y-55941250D01*
X132637571Y-55941250D02*
X132780428Y-55941250D01*
X132780428Y-55941250D02*
X132851857Y-55905535D01*
X132851857Y-55905535D02*
X132887571Y-55869821D01*
X132887571Y-55869821D02*
X132923285Y-55798392D01*
%TO.C,R13*%
X72596570Y-86643464D02*
X72346570Y-86286321D01*
X72167999Y-86643464D02*
X72167999Y-85893464D01*
X72167999Y-85893464D02*
X72453713Y-85893464D01*
X72453713Y-85893464D02*
X72525142Y-85929178D01*
X72525142Y-85929178D02*
X72560856Y-85964892D01*
X72560856Y-85964892D02*
X72596570Y-86036321D01*
X72596570Y-86036321D02*
X72596570Y-86143464D01*
X72596570Y-86143464D02*
X72560856Y-86214892D01*
X72560856Y-86214892D02*
X72525142Y-86250607D01*
X72525142Y-86250607D02*
X72453713Y-86286321D01*
X72453713Y-86286321D02*
X72167999Y-86286321D01*
X73310856Y-86643464D02*
X72882285Y-86643464D01*
X73096570Y-86643464D02*
X73096570Y-85893464D01*
X73096570Y-85893464D02*
X73025142Y-86000607D01*
X73025142Y-86000607D02*
X72953713Y-86072035D01*
X72953713Y-86072035D02*
X72882285Y-86107750D01*
X73560856Y-85893464D02*
X74025142Y-85893464D01*
X74025142Y-85893464D02*
X73775142Y-86179178D01*
X73775142Y-86179178D02*
X73882285Y-86179178D01*
X73882285Y-86179178D02*
X73953714Y-86214892D01*
X73953714Y-86214892D02*
X73989428Y-86250607D01*
X73989428Y-86250607D02*
X74025142Y-86322035D01*
X74025142Y-86322035D02*
X74025142Y-86500607D01*
X74025142Y-86500607D02*
X73989428Y-86572035D01*
X73989428Y-86572035D02*
X73953714Y-86607750D01*
X73953714Y-86607750D02*
X73882285Y-86643464D01*
X73882285Y-86643464D02*
X73667999Y-86643464D01*
X73667999Y-86643464D02*
X73596571Y-86607750D01*
X73596571Y-86607750D02*
X73560856Y-86572035D01*
%TO.C,SW2*%
X67072000Y-66859250D02*
X67179143Y-66894964D01*
X67179143Y-66894964D02*
X67357714Y-66894964D01*
X67357714Y-66894964D02*
X67429143Y-66859250D01*
X67429143Y-66859250D02*
X67464857Y-66823535D01*
X67464857Y-66823535D02*
X67500571Y-66752107D01*
X67500571Y-66752107D02*
X67500571Y-66680678D01*
X67500571Y-66680678D02*
X67464857Y-66609250D01*
X67464857Y-66609250D02*
X67429143Y-66573535D01*
X67429143Y-66573535D02*
X67357714Y-66537821D01*
X67357714Y-66537821D02*
X67214857Y-66502107D01*
X67214857Y-66502107D02*
X67143428Y-66466392D01*
X67143428Y-66466392D02*
X67107714Y-66430678D01*
X67107714Y-66430678D02*
X67072000Y-66359250D01*
X67072000Y-66359250D02*
X67072000Y-66287821D01*
X67072000Y-66287821D02*
X67107714Y-66216392D01*
X67107714Y-66216392D02*
X67143428Y-66180678D01*
X67143428Y-66180678D02*
X67214857Y-66144964D01*
X67214857Y-66144964D02*
X67393428Y-66144964D01*
X67393428Y-66144964D02*
X67500571Y-66180678D01*
X67750571Y-66144964D02*
X67929143Y-66894964D01*
X67929143Y-66894964D02*
X68072000Y-66359250D01*
X68072000Y-66359250D02*
X68214857Y-66894964D01*
X68214857Y-66894964D02*
X68393429Y-66144964D01*
X68643429Y-66216392D02*
X68679143Y-66180678D01*
X68679143Y-66180678D02*
X68750572Y-66144964D01*
X68750572Y-66144964D02*
X68929143Y-66144964D01*
X68929143Y-66144964D02*
X69000572Y-66180678D01*
X69000572Y-66180678D02*
X69036286Y-66216392D01*
X69036286Y-66216392D02*
X69072000Y-66287821D01*
X69072000Y-66287821D02*
X69072000Y-66359250D01*
X69072000Y-66359250D02*
X69036286Y-66466392D01*
X69036286Y-66466392D02*
X68607714Y-66894964D01*
X68607714Y-66894964D02*
X69072000Y-66894964D01*
%TO.C,VR1*%
X136744964Y-39630142D02*
X137494964Y-39380142D01*
X137494964Y-39380142D02*
X136744964Y-39130142D01*
X137494964Y-38451571D02*
X137137821Y-38701571D01*
X137494964Y-38880142D02*
X136744964Y-38880142D01*
X136744964Y-38880142D02*
X136744964Y-38594428D01*
X136744964Y-38594428D02*
X136780678Y-38522999D01*
X136780678Y-38522999D02*
X136816392Y-38487285D01*
X136816392Y-38487285D02*
X136887821Y-38451571D01*
X136887821Y-38451571D02*
X136994964Y-38451571D01*
X136994964Y-38451571D02*
X137066392Y-38487285D01*
X137066392Y-38487285D02*
X137102107Y-38522999D01*
X137102107Y-38522999D02*
X137137821Y-38594428D01*
X137137821Y-38594428D02*
X137137821Y-38880142D01*
X137494964Y-37737285D02*
X137494964Y-38165856D01*
X137494964Y-37951571D02*
X136744964Y-37951571D01*
X136744964Y-37951571D02*
X136852107Y-38022999D01*
X136852107Y-38022999D02*
X136923535Y-38094428D01*
X136923535Y-38094428D02*
X136959250Y-38165856D01*
%TO.C,D1*%
X130764428Y-77562964D02*
X130764428Y-76812964D01*
X130764428Y-76812964D02*
X130942999Y-76812964D01*
X130942999Y-76812964D02*
X131050142Y-76848678D01*
X131050142Y-76848678D02*
X131121571Y-76920107D01*
X131121571Y-76920107D02*
X131157285Y-76991535D01*
X131157285Y-76991535D02*
X131192999Y-77134392D01*
X131192999Y-77134392D02*
X131192999Y-77241535D01*
X131192999Y-77241535D02*
X131157285Y-77384392D01*
X131157285Y-77384392D02*
X131121571Y-77455821D01*
X131121571Y-77455821D02*
X131050142Y-77527250D01*
X131050142Y-77527250D02*
X130942999Y-77562964D01*
X130942999Y-77562964D02*
X130764428Y-77562964D01*
X131907285Y-77562964D02*
X131478714Y-77562964D01*
X131692999Y-77562964D02*
X131692999Y-76812964D01*
X131692999Y-76812964D02*
X131621571Y-76920107D01*
X131621571Y-76920107D02*
X131550142Y-76991535D01*
X131550142Y-76991535D02*
X131478714Y-77027250D01*
%TO.C,R16*%
X79781856Y-65878964D02*
X79531856Y-65521821D01*
X79353285Y-65878964D02*
X79353285Y-65128964D01*
X79353285Y-65128964D02*
X79638999Y-65128964D01*
X79638999Y-65128964D02*
X79710428Y-65164678D01*
X79710428Y-65164678D02*
X79746142Y-65200392D01*
X79746142Y-65200392D02*
X79781856Y-65271821D01*
X79781856Y-65271821D02*
X79781856Y-65378964D01*
X79781856Y-65378964D02*
X79746142Y-65450392D01*
X79746142Y-65450392D02*
X79710428Y-65486107D01*
X79710428Y-65486107D02*
X79638999Y-65521821D01*
X79638999Y-65521821D02*
X79353285Y-65521821D01*
X80496142Y-65878964D02*
X80067571Y-65878964D01*
X80281856Y-65878964D02*
X80281856Y-65128964D01*
X80281856Y-65128964D02*
X80210428Y-65236107D01*
X80210428Y-65236107D02*
X80138999Y-65307535D01*
X80138999Y-65307535D02*
X80067571Y-65343250D01*
X81139000Y-65128964D02*
X80996142Y-65128964D01*
X80996142Y-65128964D02*
X80924714Y-65164678D01*
X80924714Y-65164678D02*
X80889000Y-65200392D01*
X80889000Y-65200392D02*
X80817571Y-65307535D01*
X80817571Y-65307535D02*
X80781857Y-65450392D01*
X80781857Y-65450392D02*
X80781857Y-65736107D01*
X80781857Y-65736107D02*
X80817571Y-65807535D01*
X80817571Y-65807535D02*
X80853285Y-65843250D01*
X80853285Y-65843250D02*
X80924714Y-65878964D01*
X80924714Y-65878964D02*
X81067571Y-65878964D01*
X81067571Y-65878964D02*
X81139000Y-65843250D01*
X81139000Y-65843250D02*
X81174714Y-65807535D01*
X81174714Y-65807535D02*
X81210428Y-65736107D01*
X81210428Y-65736107D02*
X81210428Y-65557535D01*
X81210428Y-65557535D02*
X81174714Y-65486107D01*
X81174714Y-65486107D02*
X81139000Y-65450392D01*
X81139000Y-65450392D02*
X81067571Y-65414678D01*
X81067571Y-65414678D02*
X80924714Y-65414678D01*
X80924714Y-65414678D02*
X80853285Y-65450392D01*
X80853285Y-65450392D02*
X80817571Y-65486107D01*
X80817571Y-65486107D02*
X80781857Y-65557535D01*
%TO.C,U3*%
X96336000Y-67444000D02*
X86056000Y-67444000D01*
X93846000Y-77784000D02*
X93846000Y-67504000D01*
X93846000Y-67504000D02*
X92196000Y-67504000D01*
X90196000Y-67504000D02*
X88546000Y-67504000D01*
X86056000Y-67444000D02*
X86056000Y-77844000D01*
X88546000Y-67504000D02*
X88546000Y-77784000D01*
X86056000Y-77844000D02*
X96336000Y-77844000D01*
X88546000Y-77784000D02*
X93846000Y-77784000D01*
X96336000Y-77844000D02*
X96336000Y-67444000D01*
X90196000Y-67504000D02*
G75*
G03*
X92196000Y-67504000I1000000J0D01*
G01*
%TO.C,U1*%
X118635000Y-76790000D02*
X123935000Y-76790000D01*
X126425000Y-41050000D02*
X116145000Y-41050000D01*
X126425000Y-76850000D02*
X126425000Y-41050000D01*
X123935000Y-41110000D02*
X122285000Y-41110000D01*
X116145000Y-76850000D02*
X126425000Y-76850000D01*
X123935000Y-76790000D02*
X123935000Y-41110000D01*
X118635000Y-41110000D02*
X118635000Y-76790000D01*
X120285000Y-41110000D02*
X118635000Y-41110000D01*
X116145000Y-41050000D02*
X116145000Y-76850000D01*
X120285000Y-41110000D02*
G75*
G03*
X122285000Y-41110000I1000000J0D01*
G01*
%TO.C,SW3*%
X87686000Y-82806000D02*
X87686000Y-84306000D01*
X88936000Y-86806000D02*
X93436000Y-86806000D01*
X93436000Y-80306000D02*
X88936000Y-80306000D01*
X94686000Y-84306000D02*
X94686000Y-82806000D01*
%TO.C,SW1*%
X117775000Y-34100000D02*
X117775000Y-35600000D01*
X119025000Y-38100000D02*
X123525000Y-38100000D01*
X123525000Y-31600000D02*
X119025000Y-31600000D01*
X124775000Y-35600000D02*
X124775000Y-34100000D01*
%TO.C,R24*%
X76994000Y-73560000D02*
X83534000Y-73560000D01*
X76994000Y-73890000D02*
X76994000Y-73560000D01*
X76994000Y-75970000D02*
X76994000Y-76300000D01*
X76994000Y-76300000D02*
X83534000Y-76300000D01*
X83534000Y-73560000D02*
X83534000Y-73890000D01*
X83534000Y-76300000D02*
X83534000Y-75970000D01*
%TO.C,R15*%
X83534000Y-79856000D02*
X76994000Y-79856000D01*
X83534000Y-79526000D02*
X83534000Y-79856000D01*
X83534000Y-77446000D02*
X83534000Y-77116000D01*
X83534000Y-77116000D02*
X76994000Y-77116000D01*
X76994000Y-79856000D02*
X76994000Y-79526000D01*
X76994000Y-77116000D02*
X76994000Y-77446000D01*
%TO.C,R5*%
X106966000Y-44350000D02*
X113506000Y-44350000D01*
X106966000Y-44680000D02*
X106966000Y-44350000D01*
X106966000Y-46760000D02*
X106966000Y-47090000D01*
X106966000Y-47090000D02*
X113506000Y-47090000D01*
X113506000Y-44350000D02*
X113506000Y-44680000D01*
X113506000Y-47090000D02*
X113506000Y-46760000D01*
%TO.C,R4*%
X106966000Y-47906000D02*
X113506000Y-47906000D01*
X106966000Y-48236000D02*
X106966000Y-47906000D01*
X106966000Y-50316000D02*
X106966000Y-50646000D01*
X106966000Y-50646000D02*
X113506000Y-50646000D01*
X113506000Y-47906000D02*
X113506000Y-48236000D01*
X113506000Y-50646000D02*
X113506000Y-50316000D01*
%TO.C,R23*%
X79724000Y-54964000D02*
X73184000Y-54964000D01*
X79724000Y-54634000D02*
X79724000Y-54964000D01*
X79724000Y-52554000D02*
X79724000Y-52224000D01*
X79724000Y-52224000D02*
X73184000Y-52224000D01*
X73184000Y-54964000D02*
X73184000Y-54634000D01*
X73184000Y-52224000D02*
X73184000Y-52554000D01*
%TO.C,R25*%
X89884000Y-54964000D02*
X83344000Y-54964000D01*
X89884000Y-54634000D02*
X89884000Y-54964000D01*
X89884000Y-52554000D02*
X89884000Y-52224000D01*
X89884000Y-52224000D02*
X83344000Y-52224000D01*
X83344000Y-54964000D02*
X83344000Y-54634000D01*
X83344000Y-52224000D02*
X83344000Y-52554000D01*
%TO.C,R20*%
X106966000Y-78894000D02*
X106966000Y-79224000D01*
X106966000Y-81634000D02*
X106966000Y-81304000D01*
X113506000Y-78894000D02*
X106966000Y-78894000D01*
X113506000Y-79224000D02*
X113506000Y-78894000D01*
X113506000Y-81304000D02*
X113506000Y-81634000D01*
X113506000Y-81634000D02*
X106966000Y-81634000D01*
%TO.C,R10*%
X129064000Y-48414000D02*
X135604000Y-48414000D01*
X129064000Y-48744000D02*
X129064000Y-48414000D01*
X129064000Y-50824000D02*
X129064000Y-51154000D01*
X129064000Y-51154000D02*
X135604000Y-51154000D01*
X135604000Y-48414000D02*
X135604000Y-48744000D01*
X135604000Y-51154000D02*
X135604000Y-50824000D01*
%TO.C,C6*%
X99926000Y-81692000D02*
X99861000Y-81692000D01*
X99926000Y-81692000D02*
X99926000Y-84932000D01*
X97751000Y-81692000D02*
X97686000Y-81692000D01*
X97686000Y-81692000D02*
X97686000Y-84932000D01*
X99926000Y-84932000D02*
X99861000Y-84932000D01*
X97751000Y-84932000D02*
X97686000Y-84932000D01*
%TO.C,Y1*%
X109792750Y-67435000D02*
X109792750Y-61035000D01*
X114842750Y-67435000D02*
X114842750Y-61035000D01*
X109792750Y-67435000D02*
G75*
G03*
X114842750Y-67435000I2525000J0D01*
G01*
X114842750Y-61035000D02*
G75*
G03*
X109792750Y-61035000I-2525000J0D01*
G01*
%TO.C,R3*%
X106966000Y-51462000D02*
X113506000Y-51462000D01*
X106966000Y-51792000D02*
X106966000Y-51462000D01*
X106966000Y-53872000D02*
X106966000Y-54202000D01*
X106966000Y-54202000D02*
X113506000Y-54202000D01*
X113506000Y-51462000D02*
X113506000Y-51792000D01*
X113506000Y-54202000D02*
X113506000Y-53872000D01*
%TO.C,C3*%
X106439000Y-69545000D02*
X106504000Y-69545000D01*
X106439000Y-69545000D02*
X106439000Y-66305000D01*
X108614000Y-69545000D02*
X108679000Y-69545000D01*
X108679000Y-69545000D02*
X108679000Y-66305000D01*
X106439000Y-66305000D02*
X106504000Y-66305000D01*
X108614000Y-66305000D02*
X108679000Y-66305000D01*
%TO.C,R6*%
X106966000Y-40794000D02*
X113506000Y-40794000D01*
X106966000Y-41124000D02*
X106966000Y-40794000D01*
X106966000Y-43204000D02*
X106966000Y-43534000D01*
X106966000Y-43534000D02*
X113506000Y-43534000D01*
X113506000Y-40794000D02*
X113506000Y-41124000D01*
X113506000Y-43534000D02*
X113506000Y-43204000D01*
%TO.C,R27*%
X106966000Y-86006000D02*
X106966000Y-86336000D01*
X106966000Y-88746000D02*
X106966000Y-88416000D01*
X113506000Y-86006000D02*
X106966000Y-86006000D01*
X113506000Y-86336000D02*
X113506000Y-86006000D01*
X113506000Y-88416000D02*
X113506000Y-88746000D01*
X113506000Y-88746000D02*
X106966000Y-88746000D01*
%TO.C,Q4*%
X96700625Y-49806000D02*
X96700625Y-46206000D01*
X92250625Y-48006000D02*
G75*
G03*
X96689103Y-49844478I2600000J0D01*
G01*
X96689103Y-46167522D02*
G75*
G03*
X92250625Y-48006000I-1838478J-1838478D01*
G01*
%TO.C,R8*%
X124428000Y-81634000D02*
X117888000Y-81634000D01*
X124428000Y-81304000D02*
X124428000Y-81634000D01*
X124428000Y-79224000D02*
X124428000Y-78894000D01*
X124428000Y-78894000D02*
X117888000Y-78894000D01*
X117888000Y-81634000D02*
X117888000Y-81304000D01*
X117888000Y-78894000D02*
X117888000Y-79224000D01*
%TO.C,C4*%
X129898000Y-57562000D02*
X129833000Y-57562000D01*
X129898000Y-57562000D02*
X129898000Y-60802000D01*
X127723000Y-57562000D02*
X127658000Y-57562000D01*
X127658000Y-57562000D02*
X127658000Y-60802000D01*
X129898000Y-60802000D02*
X129833000Y-60802000D01*
X127723000Y-60802000D02*
X127658000Y-60802000D01*
%TO.C,R22*%
X106966000Y-82450000D02*
X106966000Y-82780000D01*
X106966000Y-85190000D02*
X106966000Y-84860000D01*
X113506000Y-82450000D02*
X106966000Y-82450000D01*
X113506000Y-82780000D02*
X113506000Y-82450000D01*
X113506000Y-84860000D02*
X113506000Y-85190000D01*
X113506000Y-85190000D02*
X106966000Y-85190000D01*
%TO.C,R18*%
X106966000Y-71693000D02*
X106966000Y-72023000D01*
X106966000Y-74433000D02*
X106966000Y-74103000D01*
X113506000Y-71693000D02*
X106966000Y-71693000D01*
X113506000Y-72023000D02*
X113506000Y-71693000D01*
X113506000Y-74103000D02*
X113506000Y-74433000D01*
X113506000Y-74433000D02*
X106966000Y-74433000D01*
%TO.C,C7*%
X97928000Y-67206000D02*
X97928000Y-67271000D01*
X97928000Y-67206000D02*
X101168000Y-67206000D01*
X97928000Y-69381000D02*
X97928000Y-69446000D01*
X97928000Y-69446000D02*
X101168000Y-69446000D01*
X101168000Y-67206000D02*
X101168000Y-67271000D01*
X101168000Y-69381000D02*
X101168000Y-69446000D01*
%TO.C,R19*%
X106966000Y-75338000D02*
X106966000Y-75668000D01*
X106966000Y-78078000D02*
X106966000Y-77748000D01*
X113506000Y-75338000D02*
X106966000Y-75338000D01*
X113506000Y-75668000D02*
X113506000Y-75338000D01*
X113506000Y-77748000D02*
X113506000Y-78078000D01*
X113506000Y-78078000D02*
X106966000Y-78078000D01*
%TO.C,R1*%
X106966000Y-30126000D02*
X113506000Y-30126000D01*
X106966000Y-30456000D02*
X106966000Y-30126000D01*
X106966000Y-32536000D02*
X106966000Y-32866000D01*
X106966000Y-32866000D02*
X113506000Y-32866000D01*
X113506000Y-30126000D02*
X113506000Y-30456000D01*
X113506000Y-32866000D02*
X113506000Y-32536000D01*
%TO.C,R14*%
X83534000Y-83412000D02*
X76994000Y-83412000D01*
X83534000Y-83082000D02*
X83534000Y-83412000D01*
X83534000Y-81002000D02*
X83534000Y-80672000D01*
X83534000Y-80672000D02*
X76994000Y-80672000D01*
X76994000Y-83412000D02*
X76994000Y-83082000D01*
X76994000Y-80672000D02*
X76994000Y-81002000D01*
%TO.C,C1*%
X128882000Y-33686000D02*
X128817000Y-33686000D01*
X128882000Y-33686000D02*
X128882000Y-36926000D01*
X126707000Y-33686000D02*
X126642000Y-33686000D01*
X126642000Y-33686000D02*
X126642000Y-36926000D01*
X128882000Y-36926000D02*
X128817000Y-36926000D01*
X126707000Y-36926000D02*
X126642000Y-36926000D01*
%TO.C,R21*%
X69564000Y-54964000D02*
X63024000Y-54964000D01*
X69564000Y-54634000D02*
X69564000Y-54964000D01*
X69564000Y-52554000D02*
X69564000Y-52224000D01*
X69564000Y-52224000D02*
X63024000Y-52224000D01*
X63024000Y-54964000D02*
X63024000Y-54634000D01*
X63024000Y-52224000D02*
X63024000Y-52554000D01*
%TO.C,R17*%
X100176000Y-71914000D02*
X100176000Y-78454000D01*
X99846000Y-71914000D02*
X100176000Y-71914000D01*
X97766000Y-71914000D02*
X97436000Y-71914000D01*
X97436000Y-71914000D02*
X97436000Y-78454000D01*
X100176000Y-78454000D02*
X99846000Y-78454000D01*
X97436000Y-78454000D02*
X97766000Y-78454000D01*
%TO.C,R7*%
X106966000Y-37238000D02*
X113506000Y-37238000D01*
X106966000Y-37568000D02*
X106966000Y-37238000D01*
X106966000Y-39648000D02*
X106966000Y-39978000D01*
X106966000Y-39978000D02*
X113506000Y-39978000D01*
X113506000Y-37238000D02*
X113506000Y-37568000D01*
X113506000Y-39978000D02*
X113506000Y-39648000D01*
%TO.C,C5*%
X114162000Y-57508000D02*
X114162000Y-57443000D01*
X114162000Y-57508000D02*
X110922000Y-57508000D01*
X114162000Y-55333000D02*
X114162000Y-55268000D01*
X114162000Y-55268000D02*
X110922000Y-55268000D01*
X110922000Y-57508000D02*
X110922000Y-57443000D01*
X110922000Y-55333000D02*
X110922000Y-55268000D01*
%TO.C,R2*%
X106966000Y-33682000D02*
X113506000Y-33682000D01*
X106966000Y-34012000D02*
X106966000Y-33682000D01*
X106966000Y-36092000D02*
X106966000Y-36422000D01*
X106966000Y-36422000D02*
X113506000Y-36422000D01*
X113506000Y-33682000D02*
X113506000Y-34012000D01*
X113506000Y-36422000D02*
X113506000Y-36092000D01*
%TO.C,Q1*%
X75110625Y-49806000D02*
X75110625Y-46206000D01*
X70660625Y-48006000D02*
G75*
G03*
X75099103Y-49844478I2600000J0D01*
G01*
X75099103Y-46167522D02*
G75*
G03*
X70660625Y-48006000I-1838478J-1838478D01*
G01*
%TO.C,R11*%
X124428000Y-85190000D02*
X117888000Y-85190000D01*
X124428000Y-84860000D02*
X124428000Y-85190000D01*
X124428000Y-82780000D02*
X124428000Y-82450000D01*
X124428000Y-82450000D02*
X117888000Y-82450000D01*
X117888000Y-85190000D02*
X117888000Y-84860000D01*
X117888000Y-82450000D02*
X117888000Y-82780000D01*
%TO.C,R26*%
X100044000Y-54964000D02*
X93504000Y-54964000D01*
X100044000Y-54634000D02*
X100044000Y-54964000D01*
X100044000Y-52554000D02*
X100044000Y-52224000D01*
X100044000Y-52224000D02*
X93504000Y-52224000D01*
X93504000Y-54964000D02*
X93504000Y-54634000D01*
X93504000Y-52224000D02*
X93504000Y-52554000D01*
%TO.C,Q3*%
X89503957Y-49806000D02*
X89503957Y-46206000D01*
X85053957Y-48006000D02*
G75*
G03*
X89492435Y-49844478I2600000J0D01*
G01*
X89492435Y-46167522D02*
G75*
G03*
X85053957Y-48006000I-1838478J-1838478D01*
G01*
%TO.C,R12*%
X83534000Y-72744000D02*
X76994000Y-72744000D01*
X83534000Y-72414000D02*
X83534000Y-72744000D01*
X83534000Y-70334000D02*
X83534000Y-70004000D01*
X83534000Y-70004000D02*
X76994000Y-70004000D01*
X76994000Y-72744000D02*
X76994000Y-72414000D01*
X76994000Y-70004000D02*
X76994000Y-70334000D01*
%TO.C,Q2*%
X82307291Y-49806000D02*
X82307291Y-46206000D01*
X77857291Y-48006000D02*
G75*
G03*
X82295769Y-49844478I2600000J0D01*
G01*
X82295769Y-46167522D02*
G75*
G03*
X77857291Y-48006000I-1838478J-1838478D01*
G01*
%TO.C,D2*%
X136870000Y-79028000D02*
X136870000Y-79184000D01*
X136870000Y-81344000D02*
X136870000Y-81500000D01*
X140102334Y-79185392D02*
G75*
G03*
X136870001Y-79028485I-1672334J-1078608D01*
G01*
X139471129Y-79184164D02*
G75*
G03*
X137389040Y-79184001I-1041129J-1079836D01*
G01*
X137389040Y-81343999D02*
G75*
G03*
X139471129Y-81343836I1040960J1079999D01*
G01*
X136870001Y-81499515D02*
G75*
G03*
X140102334Y-81342608I1559999J1235515D01*
G01*
%TO.C,U2*%
X63575000Y-43605000D02*
X74900000Y-43605000D01*
X104005000Y-43605000D02*
X104005000Y-30555000D01*
X63575000Y-30555000D02*
X63575000Y-43605000D01*
%TO.C,C2*%
X106439000Y-62165000D02*
X106504000Y-62165000D01*
X106439000Y-62165000D02*
X106439000Y-58925000D01*
X108614000Y-62165000D02*
X108679000Y-62165000D01*
X108679000Y-62165000D02*
X108679000Y-58925000D01*
X106439000Y-58925000D02*
X106504000Y-58925000D01*
X108614000Y-58925000D02*
X108679000Y-58925000D01*
%TO.C,J1*%
X135449000Y-62170000D02*
X136779000Y-62170000D01*
X135449000Y-63500000D02*
X135449000Y-62170000D01*
X135449000Y-64770000D02*
X135449000Y-69910000D01*
X135449000Y-64770000D02*
X138049000Y-64770000D01*
X135449000Y-69910000D02*
X140649000Y-69910000D01*
X138049000Y-62170000D02*
X140649000Y-62170000D01*
X138049000Y-64770000D02*
X138049000Y-62170000D01*
X140649000Y-62170000D02*
X140649000Y-69910000D01*
%TO.C,R9*%
X129064000Y-51970000D02*
X135604000Y-51970000D01*
X129064000Y-52300000D02*
X129064000Y-51970000D01*
X129064000Y-54380000D02*
X129064000Y-54710000D01*
X129064000Y-54710000D02*
X135604000Y-54710000D01*
X135604000Y-51970000D02*
X135604000Y-52300000D01*
X135604000Y-54710000D02*
X135604000Y-54380000D01*
%TO.C,R13*%
X83534000Y-86968000D02*
X76994000Y-86968000D01*
X83534000Y-86638000D02*
X83534000Y-86968000D01*
X83534000Y-84558000D02*
X83534000Y-84228000D01*
X83534000Y-84228000D02*
X76994000Y-84228000D01*
X76994000Y-86968000D02*
X76994000Y-86638000D01*
X76994000Y-84228000D02*
X76994000Y-84558000D01*
%TO.C,SW2*%
X61602000Y-77775000D02*
X62985000Y-77775000D01*
X61602000Y-77775000D02*
X61602000Y-76391000D01*
X61842000Y-77535000D02*
X74302000Y-77535000D01*
X61842000Y-77535000D02*
X61842000Y-67635000D01*
X74302000Y-77535000D02*
X74302000Y-67635000D01*
X63627000Y-74615000D02*
X64897000Y-74615000D01*
X63747000Y-74615000D02*
X63747000Y-73261667D01*
X63867000Y-74615000D02*
X63867000Y-73261667D01*
X63987000Y-74615000D02*
X63987000Y-73261667D01*
X64107000Y-74615000D02*
X64107000Y-73261667D01*
X64227000Y-74615000D02*
X64227000Y-73261667D01*
X64347000Y-74615000D02*
X64347000Y-73261667D01*
X64467000Y-74615000D02*
X64467000Y-73261667D01*
X64587000Y-74615000D02*
X64587000Y-73261667D01*
X64707000Y-74615000D02*
X64707000Y-73261667D01*
X64827000Y-74615000D02*
X64827000Y-73261667D01*
X64897000Y-74615000D02*
X64897000Y-70555000D01*
X66167000Y-74615000D02*
X67437000Y-74615000D01*
X66287000Y-74615000D02*
X66287000Y-73261667D01*
X66407000Y-74615000D02*
X66407000Y-73261667D01*
X66527000Y-74615000D02*
X66527000Y-73261667D01*
X66647000Y-74615000D02*
X66647000Y-73261667D01*
X66767000Y-74615000D02*
X66767000Y-73261667D01*
X66887000Y-74615000D02*
X66887000Y-73261667D01*
X67007000Y-74615000D02*
X67007000Y-73261667D01*
X67127000Y-74615000D02*
X67127000Y-73261667D01*
X67247000Y-74615000D02*
X67247000Y-73261667D01*
X67367000Y-74615000D02*
X67367000Y-73261667D01*
X67437000Y-74615000D02*
X67437000Y-70555000D01*
X68707000Y-74615000D02*
X69977000Y-74615000D01*
X68827000Y-74615000D02*
X68827000Y-73261667D01*
X68947000Y-74615000D02*
X68947000Y-73261667D01*
X69067000Y-74615000D02*
X69067000Y-73261667D01*
X69187000Y-74615000D02*
X69187000Y-73261667D01*
X69307000Y-74615000D02*
X69307000Y-73261667D01*
X69427000Y-74615000D02*
X69427000Y-73261667D01*
X69547000Y-74615000D02*
X69547000Y-73261667D01*
X69667000Y-74615000D02*
X69667000Y-73261667D01*
X69787000Y-74615000D02*
X69787000Y-73261667D01*
X69907000Y-74615000D02*
X69907000Y-73261667D01*
X69977000Y-74615000D02*
X69977000Y-70555000D01*
X71247000Y-74615000D02*
X72517000Y-74615000D01*
X71367000Y-74615000D02*
X71367000Y-73261667D01*
X71487000Y-74615000D02*
X71487000Y-73261667D01*
X71607000Y-74615000D02*
X71607000Y-73261667D01*
X71727000Y-74615000D02*
X71727000Y-73261667D01*
X71847000Y-74615000D02*
X71847000Y-73261667D01*
X71967000Y-74615000D02*
X71967000Y-73261667D01*
X72087000Y-74615000D02*
X72087000Y-73261667D01*
X72207000Y-74615000D02*
X72207000Y-73261667D01*
X72327000Y-74615000D02*
X72327000Y-73261667D01*
X72447000Y-74615000D02*
X72447000Y-73261667D01*
X72517000Y-74615000D02*
X72517000Y-70555000D01*
X63627000Y-73261667D02*
X64897000Y-73261667D01*
X66167000Y-73261667D02*
X67437000Y-73261667D01*
X68707000Y-73261667D02*
X69977000Y-73261667D01*
X71247000Y-73261667D02*
X72517000Y-73261667D01*
X63627000Y-70555000D02*
X63627000Y-74615000D01*
X64897000Y-70555000D02*
X63627000Y-70555000D01*
X66167000Y-70555000D02*
X66167000Y-74615000D01*
X67437000Y-70555000D02*
X66167000Y-70555000D01*
X68707000Y-70555000D02*
X68707000Y-74615000D01*
X69977000Y-70555000D02*
X68707000Y-70555000D01*
X71247000Y-70555000D02*
X71247000Y-74615000D01*
X72517000Y-70555000D02*
X71247000Y-70555000D01*
X61842000Y-67635000D02*
X74302000Y-67635000D01*
%TO.C,VR1*%
X130248000Y-43498000D02*
X130248000Y-33798000D01*
X133248000Y-43498000D02*
X130248000Y-43498000D01*
X138248000Y-43498000D02*
X142748000Y-43498000D01*
X142748000Y-43498000D02*
X142748000Y-42648000D01*
X143948000Y-41248000D02*
X143948000Y-41248000D01*
X143948000Y-41048000D02*
X143948000Y-41048000D01*
X142748000Y-34648000D02*
X142748000Y-33798000D01*
X130248000Y-33798000D02*
X133248000Y-33798000D01*
X142748000Y-33798000D02*
X138248000Y-33798000D01*
X143948000Y-41048000D02*
G75*
G03*
X143948000Y-41248000I0J-100000D01*
G01*
X143948000Y-41248000D02*
G75*
G03*
X143948000Y-41048000I0J100000D01*
G01*
%TO.C,D1*%
X129758000Y-79028000D02*
X129758000Y-79184000D01*
X129758000Y-81344000D02*
X129758000Y-81500000D01*
X132990334Y-79185392D02*
G75*
G03*
X129758001Y-79028485I-1672334J-1078608D01*
G01*
X132359129Y-79184164D02*
G75*
G03*
X130277040Y-79184001I-1041129J-1079836D01*
G01*
X130277040Y-81343999D02*
G75*
G03*
X132359129Y-81343836I1040960J1079999D01*
G01*
X129758001Y-81499515D02*
G75*
G03*
X132990334Y-81342608I1559999J1235515D01*
G01*
%TO.C,R16*%
X76994000Y-66448000D02*
X83534000Y-66448000D01*
X76994000Y-66778000D02*
X76994000Y-66448000D01*
X76994000Y-68858000D02*
X76994000Y-69188000D01*
X76994000Y-69188000D02*
X83534000Y-69188000D01*
X83534000Y-66448000D02*
X83534000Y-66778000D01*
X83534000Y-69188000D02*
X83534000Y-68858000D01*
%TD*%
M02*
