%TF.GenerationSoftware,KiCad,Pcbnew,7.0.0-da2b9df05c~163~ubuntu22.04.1*%
%TF.CreationDate,2023-02-24T20:05:53+08:00*%
%TF.ProjectId,circuit,63697263-7569-4742-9e6b-696361645f70,1.0*%
%TF.SameCoordinates,Original*%
%TF.FileFunction,Legend,Top*%
%TF.FilePolarity,Positive*%
%FSLAX46Y46*%
G04 Gerber Fmt 4.6, Leading zero omitted, Abs format (unit mm)*
G04 Created by KiCad (PCBNEW 7.0.0-da2b9df05c~163~ubuntu22.04.1) date 2023-02-24 20:05:53*
%MOMM*%
%LPD*%
G01*
G04 APERTURE LIST*
%ADD10C,0.150000*%
%ADD11C,0.300000*%
%ADD12C,0.100000*%
%ADD13C,0.120000*%
G04 APERTURE END LIST*
D10*
X133639523Y-89952380D02*
X133306190Y-89476190D01*
X133068095Y-89952380D02*
X133068095Y-88952380D01*
X133068095Y-88952380D02*
X133449047Y-88952380D01*
X133449047Y-88952380D02*
X133544285Y-89000000D01*
X133544285Y-89000000D02*
X133591904Y-89047619D01*
X133591904Y-89047619D02*
X133639523Y-89142857D01*
X133639523Y-89142857D02*
X133639523Y-89285714D01*
X133639523Y-89285714D02*
X133591904Y-89380952D01*
X133591904Y-89380952D02*
X133544285Y-89428571D01*
X133544285Y-89428571D02*
X133449047Y-89476190D01*
X133449047Y-89476190D02*
X133068095Y-89476190D01*
X134449047Y-89904761D02*
X134353809Y-89952380D01*
X134353809Y-89952380D02*
X134163333Y-89952380D01*
X134163333Y-89952380D02*
X134068095Y-89904761D01*
X134068095Y-89904761D02*
X134020476Y-89809523D01*
X134020476Y-89809523D02*
X134020476Y-89428571D01*
X134020476Y-89428571D02*
X134068095Y-89333333D01*
X134068095Y-89333333D02*
X134163333Y-89285714D01*
X134163333Y-89285714D02*
X134353809Y-89285714D01*
X134353809Y-89285714D02*
X134449047Y-89333333D01*
X134449047Y-89333333D02*
X134496666Y-89428571D01*
X134496666Y-89428571D02*
X134496666Y-89523809D01*
X134496666Y-89523809D02*
X134020476Y-89619047D01*
X134830000Y-89285714D02*
X135068095Y-89952380D01*
X135068095Y-89952380D02*
X135306190Y-89285714D01*
X136810952Y-89952380D02*
X136239524Y-89952380D01*
X136525238Y-89952380D02*
X136525238Y-88952380D01*
X136525238Y-88952380D02*
X136430000Y-89095238D01*
X136430000Y-89095238D02*
X136334762Y-89190476D01*
X136334762Y-89190476D02*
X136239524Y-89238095D01*
X137239524Y-89857142D02*
X137287143Y-89904761D01*
X137287143Y-89904761D02*
X137239524Y-89952380D01*
X137239524Y-89952380D02*
X137191905Y-89904761D01*
X137191905Y-89904761D02*
X137239524Y-89857142D01*
X137239524Y-89857142D02*
X137239524Y-89952380D01*
X137906190Y-88952380D02*
X138001428Y-88952380D01*
X138001428Y-88952380D02*
X138096666Y-89000000D01*
X138096666Y-89000000D02*
X138144285Y-89047619D01*
X138144285Y-89047619D02*
X138191904Y-89142857D01*
X138191904Y-89142857D02*
X138239523Y-89333333D01*
X138239523Y-89333333D02*
X138239523Y-89571428D01*
X138239523Y-89571428D02*
X138191904Y-89761904D01*
X138191904Y-89761904D02*
X138144285Y-89857142D01*
X138144285Y-89857142D02*
X138096666Y-89904761D01*
X138096666Y-89904761D02*
X138001428Y-89952380D01*
X138001428Y-89952380D02*
X137906190Y-89952380D01*
X137906190Y-89952380D02*
X137810952Y-89904761D01*
X137810952Y-89904761D02*
X137763333Y-89857142D01*
X137763333Y-89857142D02*
X137715714Y-89761904D01*
X137715714Y-89761904D02*
X137668095Y-89571428D01*
X137668095Y-89571428D02*
X137668095Y-89333333D01*
X137668095Y-89333333D02*
X137715714Y-89142857D01*
X137715714Y-89142857D02*
X137763333Y-89047619D01*
X137763333Y-89047619D02*
X137810952Y-89000000D01*
X137810952Y-89000000D02*
X137906190Y-88952380D01*
D11*
X65869286Y-61330000D02*
X66583572Y-61330000D01*
X65726429Y-61758571D02*
X66226429Y-60258571D01*
X66226429Y-60258571D02*
X66726429Y-61758571D01*
X67012143Y-60258571D02*
X67869286Y-60258571D01*
X67440714Y-61758571D02*
X67440714Y-60258571D01*
X68369285Y-61758571D02*
X68369285Y-60258571D01*
X68369285Y-60258571D02*
X68869285Y-61330000D01*
X68869285Y-61330000D02*
X69369285Y-60258571D01*
X69369285Y-60258571D02*
X69369285Y-61758571D01*
X70083571Y-60972857D02*
X70583571Y-60972857D01*
X70797857Y-61758571D02*
X70083571Y-61758571D01*
X70083571Y-61758571D02*
X70083571Y-60258571D01*
X70083571Y-60258571D02*
X70797857Y-60258571D01*
X72226429Y-60330000D02*
X72083572Y-60258571D01*
X72083572Y-60258571D02*
X71869286Y-60258571D01*
X71869286Y-60258571D02*
X71655000Y-60330000D01*
X71655000Y-60330000D02*
X71512143Y-60472857D01*
X71512143Y-60472857D02*
X71440714Y-60615714D01*
X71440714Y-60615714D02*
X71369286Y-60901428D01*
X71369286Y-60901428D02*
X71369286Y-61115714D01*
X71369286Y-61115714D02*
X71440714Y-61401428D01*
X71440714Y-61401428D02*
X71512143Y-61544285D01*
X71512143Y-61544285D02*
X71655000Y-61687142D01*
X71655000Y-61687142D02*
X71869286Y-61758571D01*
X71869286Y-61758571D02*
X72012143Y-61758571D01*
X72012143Y-61758571D02*
X72226429Y-61687142D01*
X72226429Y-61687142D02*
X72297857Y-61615714D01*
X72297857Y-61615714D02*
X72297857Y-61115714D01*
X72297857Y-61115714D02*
X72012143Y-61115714D01*
X72869286Y-61330000D02*
X73583572Y-61330000D01*
X72726429Y-61758571D02*
X73226429Y-60258571D01*
X73226429Y-60258571D02*
X73726429Y-61758571D01*
X74440714Y-60901428D02*
X74297857Y-60830000D01*
X74297857Y-60830000D02*
X74226428Y-60758571D01*
X74226428Y-60758571D02*
X74155000Y-60615714D01*
X74155000Y-60615714D02*
X74155000Y-60544285D01*
X74155000Y-60544285D02*
X74226428Y-60401428D01*
X74226428Y-60401428D02*
X74297857Y-60330000D01*
X74297857Y-60330000D02*
X74440714Y-60258571D01*
X74440714Y-60258571D02*
X74726428Y-60258571D01*
X74726428Y-60258571D02*
X74869286Y-60330000D01*
X74869286Y-60330000D02*
X74940714Y-60401428D01*
X74940714Y-60401428D02*
X75012143Y-60544285D01*
X75012143Y-60544285D02*
X75012143Y-60615714D01*
X75012143Y-60615714D02*
X74940714Y-60758571D01*
X74940714Y-60758571D02*
X74869286Y-60830000D01*
X74869286Y-60830000D02*
X74726428Y-60901428D01*
X74726428Y-60901428D02*
X74440714Y-60901428D01*
X74440714Y-60901428D02*
X74297857Y-60972857D01*
X74297857Y-60972857D02*
X74226428Y-61044285D01*
X74226428Y-61044285D02*
X74155000Y-61187142D01*
X74155000Y-61187142D02*
X74155000Y-61472857D01*
X74155000Y-61472857D02*
X74226428Y-61615714D01*
X74226428Y-61615714D02*
X74297857Y-61687142D01*
X74297857Y-61687142D02*
X74440714Y-61758571D01*
X74440714Y-61758571D02*
X74726428Y-61758571D01*
X74726428Y-61758571D02*
X74869286Y-61687142D01*
X74869286Y-61687142D02*
X74940714Y-61615714D01*
X74940714Y-61615714D02*
X75012143Y-61472857D01*
X75012143Y-61472857D02*
X75012143Y-61187142D01*
X75012143Y-61187142D02*
X74940714Y-61044285D01*
X74940714Y-61044285D02*
X74869286Y-60972857D01*
X74869286Y-60972857D02*
X74726428Y-60901428D01*
X75583571Y-61330000D02*
X76297857Y-61330000D01*
X75440714Y-61758571D02*
X75940714Y-60258571D01*
X75940714Y-60258571D02*
X76440714Y-61758571D01*
X77840713Y-60972857D02*
X78340713Y-60972857D01*
X78554999Y-61758571D02*
X77840713Y-61758571D01*
X77840713Y-61758571D02*
X77840713Y-60258571D01*
X77840713Y-60258571D02*
X78554999Y-60258571D01*
X79054999Y-60758571D02*
X79412142Y-61758571D01*
X79412142Y-61758571D02*
X79769285Y-60758571D01*
X80983571Y-61758571D02*
X80983571Y-60972857D01*
X80983571Y-60972857D02*
X80912142Y-60830000D01*
X80912142Y-60830000D02*
X80769285Y-60758571D01*
X80769285Y-60758571D02*
X80483571Y-60758571D01*
X80483571Y-60758571D02*
X80340713Y-60830000D01*
X80983571Y-61687142D02*
X80840713Y-61758571D01*
X80840713Y-61758571D02*
X80483571Y-61758571D01*
X80483571Y-61758571D02*
X80340713Y-61687142D01*
X80340713Y-61687142D02*
X80269285Y-61544285D01*
X80269285Y-61544285D02*
X80269285Y-61401428D01*
X80269285Y-61401428D02*
X80340713Y-61258571D01*
X80340713Y-61258571D02*
X80483571Y-61187142D01*
X80483571Y-61187142D02*
X80840713Y-61187142D01*
X80840713Y-61187142D02*
X80983571Y-61115714D01*
X81912142Y-61758571D02*
X81769285Y-61687142D01*
X81769285Y-61687142D02*
X81697856Y-61544285D01*
X81697856Y-61544285D02*
X81697856Y-60258571D01*
X83126428Y-60758571D02*
X83126428Y-61758571D01*
X82483570Y-60758571D02*
X82483570Y-61544285D01*
X82483570Y-61544285D02*
X82554999Y-61687142D01*
X82554999Y-61687142D02*
X82697856Y-61758571D01*
X82697856Y-61758571D02*
X82912142Y-61758571D01*
X82912142Y-61758571D02*
X83054999Y-61687142D01*
X83054999Y-61687142D02*
X83126428Y-61615714D01*
X84483571Y-61758571D02*
X84483571Y-60972857D01*
X84483571Y-60972857D02*
X84412142Y-60830000D01*
X84412142Y-60830000D02*
X84269285Y-60758571D01*
X84269285Y-60758571D02*
X83983571Y-60758571D01*
X83983571Y-60758571D02*
X83840713Y-60830000D01*
X84483571Y-61687142D02*
X84340713Y-61758571D01*
X84340713Y-61758571D02*
X83983571Y-61758571D01*
X83983571Y-61758571D02*
X83840713Y-61687142D01*
X83840713Y-61687142D02*
X83769285Y-61544285D01*
X83769285Y-61544285D02*
X83769285Y-61401428D01*
X83769285Y-61401428D02*
X83840713Y-61258571D01*
X83840713Y-61258571D02*
X83983571Y-61187142D01*
X83983571Y-61187142D02*
X84340713Y-61187142D01*
X84340713Y-61187142D02*
X84483571Y-61115714D01*
X84983571Y-60758571D02*
X85554999Y-60758571D01*
X85197856Y-60258571D02*
X85197856Y-61544285D01*
X85197856Y-61544285D02*
X85269285Y-61687142D01*
X85269285Y-61687142D02*
X85412142Y-61758571D01*
X85412142Y-61758571D02*
X85554999Y-61758571D01*
X86054999Y-61758571D02*
X86054999Y-60758571D01*
X86054999Y-60258571D02*
X85983571Y-60330000D01*
X85983571Y-60330000D02*
X86054999Y-60401428D01*
X86054999Y-60401428D02*
X86126428Y-60330000D01*
X86126428Y-60330000D02*
X86054999Y-60258571D01*
X86054999Y-60258571D02*
X86054999Y-60401428D01*
X86983571Y-61758571D02*
X86840714Y-61687142D01*
X86840714Y-61687142D02*
X86769285Y-61615714D01*
X86769285Y-61615714D02*
X86697857Y-61472857D01*
X86697857Y-61472857D02*
X86697857Y-61044285D01*
X86697857Y-61044285D02*
X86769285Y-60901428D01*
X86769285Y-60901428D02*
X86840714Y-60830000D01*
X86840714Y-60830000D02*
X86983571Y-60758571D01*
X86983571Y-60758571D02*
X87197857Y-60758571D01*
X87197857Y-60758571D02*
X87340714Y-60830000D01*
X87340714Y-60830000D02*
X87412143Y-60901428D01*
X87412143Y-60901428D02*
X87483571Y-61044285D01*
X87483571Y-61044285D02*
X87483571Y-61472857D01*
X87483571Y-61472857D02*
X87412143Y-61615714D01*
X87412143Y-61615714D02*
X87340714Y-61687142D01*
X87340714Y-61687142D02*
X87197857Y-61758571D01*
X87197857Y-61758571D02*
X86983571Y-61758571D01*
X88126428Y-60758571D02*
X88126428Y-61758571D01*
X88126428Y-60901428D02*
X88197857Y-60830000D01*
X88197857Y-60830000D02*
X88340714Y-60758571D01*
X88340714Y-60758571D02*
X88555000Y-60758571D01*
X88555000Y-60758571D02*
X88697857Y-60830000D01*
X88697857Y-60830000D02*
X88769286Y-60972857D01*
X88769286Y-60972857D02*
X88769286Y-61758571D01*
X90883571Y-60972857D02*
X91097857Y-61044285D01*
X91097857Y-61044285D02*
X91169286Y-61115714D01*
X91169286Y-61115714D02*
X91240714Y-61258571D01*
X91240714Y-61258571D02*
X91240714Y-61472857D01*
X91240714Y-61472857D02*
X91169286Y-61615714D01*
X91169286Y-61615714D02*
X91097857Y-61687142D01*
X91097857Y-61687142D02*
X90955000Y-61758571D01*
X90955000Y-61758571D02*
X90383571Y-61758571D01*
X90383571Y-61758571D02*
X90383571Y-60258571D01*
X90383571Y-60258571D02*
X90883571Y-60258571D01*
X90883571Y-60258571D02*
X91026429Y-60330000D01*
X91026429Y-60330000D02*
X91097857Y-60401428D01*
X91097857Y-60401428D02*
X91169286Y-60544285D01*
X91169286Y-60544285D02*
X91169286Y-60687142D01*
X91169286Y-60687142D02*
X91097857Y-60830000D01*
X91097857Y-60830000D02*
X91026429Y-60901428D01*
X91026429Y-60901428D02*
X90883571Y-60972857D01*
X90883571Y-60972857D02*
X90383571Y-60972857D01*
X92097857Y-61758571D02*
X91955000Y-61687142D01*
X91955000Y-61687142D02*
X91883571Y-61615714D01*
X91883571Y-61615714D02*
X91812143Y-61472857D01*
X91812143Y-61472857D02*
X91812143Y-61044285D01*
X91812143Y-61044285D02*
X91883571Y-60901428D01*
X91883571Y-60901428D02*
X91955000Y-60830000D01*
X91955000Y-60830000D02*
X92097857Y-60758571D01*
X92097857Y-60758571D02*
X92312143Y-60758571D01*
X92312143Y-60758571D02*
X92455000Y-60830000D01*
X92455000Y-60830000D02*
X92526429Y-60901428D01*
X92526429Y-60901428D02*
X92597857Y-61044285D01*
X92597857Y-61044285D02*
X92597857Y-61472857D01*
X92597857Y-61472857D02*
X92526429Y-61615714D01*
X92526429Y-61615714D02*
X92455000Y-61687142D01*
X92455000Y-61687142D02*
X92312143Y-61758571D01*
X92312143Y-61758571D02*
X92097857Y-61758571D01*
X93883572Y-61758571D02*
X93883572Y-60972857D01*
X93883572Y-60972857D02*
X93812143Y-60830000D01*
X93812143Y-60830000D02*
X93669286Y-60758571D01*
X93669286Y-60758571D02*
X93383572Y-60758571D01*
X93383572Y-60758571D02*
X93240714Y-60830000D01*
X93883572Y-61687142D02*
X93740714Y-61758571D01*
X93740714Y-61758571D02*
X93383572Y-61758571D01*
X93383572Y-61758571D02*
X93240714Y-61687142D01*
X93240714Y-61687142D02*
X93169286Y-61544285D01*
X93169286Y-61544285D02*
X93169286Y-61401428D01*
X93169286Y-61401428D02*
X93240714Y-61258571D01*
X93240714Y-61258571D02*
X93383572Y-61187142D01*
X93383572Y-61187142D02*
X93740714Y-61187142D01*
X93740714Y-61187142D02*
X93883572Y-61115714D01*
X94597857Y-61758571D02*
X94597857Y-60758571D01*
X94597857Y-61044285D02*
X94669286Y-60901428D01*
X94669286Y-60901428D02*
X94740715Y-60830000D01*
X94740715Y-60830000D02*
X94883572Y-60758571D01*
X94883572Y-60758571D02*
X95026429Y-60758571D01*
X96169286Y-61758571D02*
X96169286Y-60258571D01*
X96169286Y-61687142D02*
X96026428Y-61758571D01*
X96026428Y-61758571D02*
X95740714Y-61758571D01*
X95740714Y-61758571D02*
X95597857Y-61687142D01*
X95597857Y-61687142D02*
X95526428Y-61615714D01*
X95526428Y-61615714D02*
X95455000Y-61472857D01*
X95455000Y-61472857D02*
X95455000Y-61044285D01*
X95455000Y-61044285D02*
X95526428Y-60901428D01*
X95526428Y-60901428D02*
X95597857Y-60830000D01*
X95597857Y-60830000D02*
X95740714Y-60758571D01*
X95740714Y-60758571D02*
X96026428Y-60758571D01*
X96026428Y-60758571D02*
X96169286Y-60830000D01*
D12*
X84455000Y-69342000D02*
X82169000Y-69342000D01*
X113401000Y-38100000D02*
X113401000Y-35052000D01*
X109845000Y-38100000D02*
X113401000Y-38100000D01*
X105156000Y-72390000D02*
X102616000Y-72390000D01*
X75956000Y-85323500D02*
X75956000Y-83037500D01*
X82169000Y-67056000D02*
X82169000Y-69342000D01*
X78242000Y-85323500D02*
X75956000Y-85323500D01*
X105156000Y-72390000D02*
X105156000Y-74930000D01*
%TO.C,C7*%
X129656999Y-67260107D02*
X129621285Y-67295821D01*
X129621285Y-67295821D02*
X129514142Y-67331535D01*
X129514142Y-67331535D02*
X129442714Y-67331535D01*
X129442714Y-67331535D02*
X129335571Y-67295821D01*
X129335571Y-67295821D02*
X129264142Y-67224392D01*
X129264142Y-67224392D02*
X129228428Y-67152964D01*
X129228428Y-67152964D02*
X129192714Y-67010107D01*
X129192714Y-67010107D02*
X129192714Y-66902964D01*
X129192714Y-66902964D02*
X129228428Y-66760107D01*
X129228428Y-66760107D02*
X129264142Y-66688678D01*
X129264142Y-66688678D02*
X129335571Y-66617250D01*
X129335571Y-66617250D02*
X129442714Y-66581535D01*
X129442714Y-66581535D02*
X129514142Y-66581535D01*
X129514142Y-66581535D02*
X129621285Y-66617250D01*
X129621285Y-66617250D02*
X129656999Y-66652964D01*
X129906999Y-66581535D02*
X130406999Y-66581535D01*
X130406999Y-66581535D02*
X130085571Y-67331535D01*
%TO.C,J2*%
X135085535Y-38857999D02*
X135621250Y-38857999D01*
X135621250Y-38857999D02*
X135728392Y-38893714D01*
X135728392Y-38893714D02*
X135799821Y-38965142D01*
X135799821Y-38965142D02*
X135835535Y-39072285D01*
X135835535Y-39072285D02*
X135835535Y-39143714D01*
X135156964Y-38536570D02*
X135121250Y-38500856D01*
X135121250Y-38500856D02*
X135085535Y-38429428D01*
X135085535Y-38429428D02*
X135085535Y-38250856D01*
X135085535Y-38250856D02*
X135121250Y-38179428D01*
X135121250Y-38179428D02*
X135156964Y-38143713D01*
X135156964Y-38143713D02*
X135228392Y-38107999D01*
X135228392Y-38107999D02*
X135299821Y-38107999D01*
X135299821Y-38107999D02*
X135406964Y-38143713D01*
X135406964Y-38143713D02*
X135835535Y-38572285D01*
X135835535Y-38572285D02*
X135835535Y-38107999D01*
%TO.C,SW3*%
X90440000Y-79301821D02*
X90547143Y-79337535D01*
X90547143Y-79337535D02*
X90725714Y-79337535D01*
X90725714Y-79337535D02*
X90797143Y-79301821D01*
X90797143Y-79301821D02*
X90832857Y-79266107D01*
X90832857Y-79266107D02*
X90868571Y-79194678D01*
X90868571Y-79194678D02*
X90868571Y-79123250D01*
X90868571Y-79123250D02*
X90832857Y-79051821D01*
X90832857Y-79051821D02*
X90797143Y-79016107D01*
X90797143Y-79016107D02*
X90725714Y-78980392D01*
X90725714Y-78980392D02*
X90582857Y-78944678D01*
X90582857Y-78944678D02*
X90511428Y-78908964D01*
X90511428Y-78908964D02*
X90475714Y-78873250D01*
X90475714Y-78873250D02*
X90440000Y-78801821D01*
X90440000Y-78801821D02*
X90440000Y-78730392D01*
X90440000Y-78730392D02*
X90475714Y-78658964D01*
X90475714Y-78658964D02*
X90511428Y-78623250D01*
X90511428Y-78623250D02*
X90582857Y-78587535D01*
X90582857Y-78587535D02*
X90761428Y-78587535D01*
X90761428Y-78587535D02*
X90868571Y-78623250D01*
X91118571Y-78587535D02*
X91297143Y-79337535D01*
X91297143Y-79337535D02*
X91440000Y-78801821D01*
X91440000Y-78801821D02*
X91582857Y-79337535D01*
X91582857Y-79337535D02*
X91761429Y-78587535D01*
X91975714Y-78587535D02*
X92440000Y-78587535D01*
X92440000Y-78587535D02*
X92190000Y-78873250D01*
X92190000Y-78873250D02*
X92297143Y-78873250D01*
X92297143Y-78873250D02*
X92368572Y-78908964D01*
X92368572Y-78908964D02*
X92404286Y-78944678D01*
X92404286Y-78944678D02*
X92440000Y-79016107D01*
X92440000Y-79016107D02*
X92440000Y-79194678D01*
X92440000Y-79194678D02*
X92404286Y-79266107D01*
X92404286Y-79266107D02*
X92368572Y-79301821D01*
X92368572Y-79301821D02*
X92297143Y-79337535D01*
X92297143Y-79337535D02*
X92082857Y-79337535D01*
X92082857Y-79337535D02*
X92011429Y-79301821D01*
X92011429Y-79301821D02*
X91975714Y-79266107D01*
%TO.C,SW1*%
X120275000Y-30839821D02*
X120382143Y-30875535D01*
X120382143Y-30875535D02*
X120560714Y-30875535D01*
X120560714Y-30875535D02*
X120632143Y-30839821D01*
X120632143Y-30839821D02*
X120667857Y-30804107D01*
X120667857Y-30804107D02*
X120703571Y-30732678D01*
X120703571Y-30732678D02*
X120703571Y-30661250D01*
X120703571Y-30661250D02*
X120667857Y-30589821D01*
X120667857Y-30589821D02*
X120632143Y-30554107D01*
X120632143Y-30554107D02*
X120560714Y-30518392D01*
X120560714Y-30518392D02*
X120417857Y-30482678D01*
X120417857Y-30482678D02*
X120346428Y-30446964D01*
X120346428Y-30446964D02*
X120310714Y-30411250D01*
X120310714Y-30411250D02*
X120275000Y-30339821D01*
X120275000Y-30339821D02*
X120275000Y-30268392D01*
X120275000Y-30268392D02*
X120310714Y-30196964D01*
X120310714Y-30196964D02*
X120346428Y-30161250D01*
X120346428Y-30161250D02*
X120417857Y-30125535D01*
X120417857Y-30125535D02*
X120596428Y-30125535D01*
X120596428Y-30125535D02*
X120703571Y-30161250D01*
X120953571Y-30125535D02*
X121132143Y-30875535D01*
X121132143Y-30875535D02*
X121275000Y-30339821D01*
X121275000Y-30339821D02*
X121417857Y-30875535D01*
X121417857Y-30875535D02*
X121596429Y-30125535D01*
X122275000Y-30875535D02*
X121846429Y-30875535D01*
X122060714Y-30875535D02*
X122060714Y-30125535D01*
X122060714Y-30125535D02*
X121989286Y-30232678D01*
X121989286Y-30232678D02*
X121917857Y-30304107D01*
X121917857Y-30304107D02*
X121846429Y-30339821D01*
%TO.C,R21*%
X83411142Y-68474535D02*
X83161142Y-68117392D01*
X82982571Y-68474535D02*
X82982571Y-67724535D01*
X82982571Y-67724535D02*
X83268285Y-67724535D01*
X83268285Y-67724535D02*
X83339714Y-67760250D01*
X83339714Y-67760250D02*
X83375428Y-67795964D01*
X83375428Y-67795964D02*
X83411142Y-67867392D01*
X83411142Y-67867392D02*
X83411142Y-67974535D01*
X83411142Y-67974535D02*
X83375428Y-68045964D01*
X83375428Y-68045964D02*
X83339714Y-68081678D01*
X83339714Y-68081678D02*
X83268285Y-68117392D01*
X83268285Y-68117392D02*
X82982571Y-68117392D01*
X83696857Y-67795964D02*
X83732571Y-67760250D01*
X83732571Y-67760250D02*
X83804000Y-67724535D01*
X83804000Y-67724535D02*
X83982571Y-67724535D01*
X83982571Y-67724535D02*
X84054000Y-67760250D01*
X84054000Y-67760250D02*
X84089714Y-67795964D01*
X84089714Y-67795964D02*
X84125428Y-67867392D01*
X84125428Y-67867392D02*
X84125428Y-67938821D01*
X84125428Y-67938821D02*
X84089714Y-68045964D01*
X84089714Y-68045964D02*
X83661142Y-68474535D01*
X83661142Y-68474535D02*
X84125428Y-68474535D01*
X84839714Y-68474535D02*
X84411143Y-68474535D01*
X84625428Y-68474535D02*
X84625428Y-67724535D01*
X84625428Y-67724535D02*
X84554000Y-67831678D01*
X84554000Y-67831678D02*
X84482571Y-67903107D01*
X84482571Y-67903107D02*
X84411143Y-67938821D01*
%TO.C,R12*%
X82190535Y-83974857D02*
X81833392Y-84224857D01*
X82190535Y-84403428D02*
X81440535Y-84403428D01*
X81440535Y-84403428D02*
X81440535Y-84117714D01*
X81440535Y-84117714D02*
X81476250Y-84046285D01*
X81476250Y-84046285D02*
X81511964Y-84010571D01*
X81511964Y-84010571D02*
X81583392Y-83974857D01*
X81583392Y-83974857D02*
X81690535Y-83974857D01*
X81690535Y-83974857D02*
X81761964Y-84010571D01*
X81761964Y-84010571D02*
X81797678Y-84046285D01*
X81797678Y-84046285D02*
X81833392Y-84117714D01*
X81833392Y-84117714D02*
X81833392Y-84403428D01*
X82190535Y-83260571D02*
X82190535Y-83689142D01*
X82190535Y-83474857D02*
X81440535Y-83474857D01*
X81440535Y-83474857D02*
X81547678Y-83546285D01*
X81547678Y-83546285D02*
X81619107Y-83617714D01*
X81619107Y-83617714D02*
X81654821Y-83689142D01*
X81511964Y-82974856D02*
X81476250Y-82939142D01*
X81476250Y-82939142D02*
X81440535Y-82867714D01*
X81440535Y-82867714D02*
X81440535Y-82689142D01*
X81440535Y-82689142D02*
X81476250Y-82617714D01*
X81476250Y-82617714D02*
X81511964Y-82581999D01*
X81511964Y-82581999D02*
X81583392Y-82546285D01*
X81583392Y-82546285D02*
X81654821Y-82546285D01*
X81654821Y-82546285D02*
X81761964Y-82581999D01*
X81761964Y-82581999D02*
X82190535Y-83010571D01*
X82190535Y-83010571D02*
X82190535Y-82546285D01*
%TO.C,R4*%
X111791856Y-34743535D02*
X111541856Y-34386392D01*
X111363285Y-34743535D02*
X111363285Y-33993535D01*
X111363285Y-33993535D02*
X111648999Y-33993535D01*
X111648999Y-33993535D02*
X111720428Y-34029250D01*
X111720428Y-34029250D02*
X111756142Y-34064964D01*
X111756142Y-34064964D02*
X111791856Y-34136392D01*
X111791856Y-34136392D02*
X111791856Y-34243535D01*
X111791856Y-34243535D02*
X111756142Y-34314964D01*
X111756142Y-34314964D02*
X111720428Y-34350678D01*
X111720428Y-34350678D02*
X111648999Y-34386392D01*
X111648999Y-34386392D02*
X111363285Y-34386392D01*
X112434714Y-34243535D02*
X112434714Y-34743535D01*
X112256142Y-33957821D02*
X112077571Y-34493535D01*
X112077571Y-34493535D02*
X112541856Y-34493535D01*
%TO.C,R10*%
X111077570Y-36013535D02*
X110827570Y-35656392D01*
X110648999Y-36013535D02*
X110648999Y-35263535D01*
X110648999Y-35263535D02*
X110934713Y-35263535D01*
X110934713Y-35263535D02*
X111006142Y-35299250D01*
X111006142Y-35299250D02*
X111041856Y-35334964D01*
X111041856Y-35334964D02*
X111077570Y-35406392D01*
X111077570Y-35406392D02*
X111077570Y-35513535D01*
X111077570Y-35513535D02*
X111041856Y-35584964D01*
X111041856Y-35584964D02*
X111006142Y-35620678D01*
X111006142Y-35620678D02*
X110934713Y-35656392D01*
X110934713Y-35656392D02*
X110648999Y-35656392D01*
X111791856Y-36013535D02*
X111363285Y-36013535D01*
X111577570Y-36013535D02*
X111577570Y-35263535D01*
X111577570Y-35263535D02*
X111506142Y-35370678D01*
X111506142Y-35370678D02*
X111434713Y-35442107D01*
X111434713Y-35442107D02*
X111363285Y-35477821D01*
X112256142Y-35263535D02*
X112327571Y-35263535D01*
X112327571Y-35263535D02*
X112398999Y-35299250D01*
X112398999Y-35299250D02*
X112434714Y-35334964D01*
X112434714Y-35334964D02*
X112470428Y-35406392D01*
X112470428Y-35406392D02*
X112506142Y-35549250D01*
X112506142Y-35549250D02*
X112506142Y-35727821D01*
X112506142Y-35727821D02*
X112470428Y-35870678D01*
X112470428Y-35870678D02*
X112434714Y-35942107D01*
X112434714Y-35942107D02*
X112398999Y-35977821D01*
X112398999Y-35977821D02*
X112327571Y-36013535D01*
X112327571Y-36013535D02*
X112256142Y-36013535D01*
X112256142Y-36013535D02*
X112184714Y-35977821D01*
X112184714Y-35977821D02*
X112148999Y-35942107D01*
X112148999Y-35942107D02*
X112113285Y-35870678D01*
X112113285Y-35870678D02*
X112077571Y-35727821D01*
X112077571Y-35727821D02*
X112077571Y-35549250D01*
X112077571Y-35549250D02*
X112113285Y-35406392D01*
X112113285Y-35406392D02*
X112148999Y-35334964D01*
X112148999Y-35334964D02*
X112184714Y-35299250D01*
X112184714Y-35299250D02*
X112256142Y-35263535D01*
%TO.C,R20*%
X79615147Y-57035535D02*
X79365147Y-56678392D01*
X79186576Y-57035535D02*
X79186576Y-56285535D01*
X79186576Y-56285535D02*
X79472290Y-56285535D01*
X79472290Y-56285535D02*
X79543719Y-56321250D01*
X79543719Y-56321250D02*
X79579433Y-56356964D01*
X79579433Y-56356964D02*
X79615147Y-56428392D01*
X79615147Y-56428392D02*
X79615147Y-56535535D01*
X79615147Y-56535535D02*
X79579433Y-56606964D01*
X79579433Y-56606964D02*
X79543719Y-56642678D01*
X79543719Y-56642678D02*
X79472290Y-56678392D01*
X79472290Y-56678392D02*
X79186576Y-56678392D01*
X79900862Y-56356964D02*
X79936576Y-56321250D01*
X79936576Y-56321250D02*
X80008005Y-56285535D01*
X80008005Y-56285535D02*
X80186576Y-56285535D01*
X80186576Y-56285535D02*
X80258005Y-56321250D01*
X80258005Y-56321250D02*
X80293719Y-56356964D01*
X80293719Y-56356964D02*
X80329433Y-56428392D01*
X80329433Y-56428392D02*
X80329433Y-56499821D01*
X80329433Y-56499821D02*
X80293719Y-56606964D01*
X80293719Y-56606964D02*
X79865147Y-57035535D01*
X79865147Y-57035535D02*
X80329433Y-57035535D01*
X80793719Y-56285535D02*
X80865148Y-56285535D01*
X80865148Y-56285535D02*
X80936576Y-56321250D01*
X80936576Y-56321250D02*
X80972291Y-56356964D01*
X80972291Y-56356964D02*
X81008005Y-56428392D01*
X81008005Y-56428392D02*
X81043719Y-56571250D01*
X81043719Y-56571250D02*
X81043719Y-56749821D01*
X81043719Y-56749821D02*
X81008005Y-56892678D01*
X81008005Y-56892678D02*
X80972291Y-56964107D01*
X80972291Y-56964107D02*
X80936576Y-56999821D01*
X80936576Y-56999821D02*
X80865148Y-57035535D01*
X80865148Y-57035535D02*
X80793719Y-57035535D01*
X80793719Y-57035535D02*
X80722291Y-56999821D01*
X80722291Y-56999821D02*
X80686576Y-56964107D01*
X80686576Y-56964107D02*
X80650862Y-56892678D01*
X80650862Y-56892678D02*
X80615148Y-56749821D01*
X80615148Y-56749821D02*
X80615148Y-56571250D01*
X80615148Y-56571250D02*
X80650862Y-56428392D01*
X80650862Y-56428392D02*
X80686576Y-56356964D01*
X80686576Y-56356964D02*
X80722291Y-56321250D01*
X80722291Y-56321250D02*
X80793719Y-56285535D01*
%TO.C,R22*%
X86811813Y-57035535D02*
X86561813Y-56678392D01*
X86383242Y-57035535D02*
X86383242Y-56285535D01*
X86383242Y-56285535D02*
X86668956Y-56285535D01*
X86668956Y-56285535D02*
X86740385Y-56321250D01*
X86740385Y-56321250D02*
X86776099Y-56356964D01*
X86776099Y-56356964D02*
X86811813Y-56428392D01*
X86811813Y-56428392D02*
X86811813Y-56535535D01*
X86811813Y-56535535D02*
X86776099Y-56606964D01*
X86776099Y-56606964D02*
X86740385Y-56642678D01*
X86740385Y-56642678D02*
X86668956Y-56678392D01*
X86668956Y-56678392D02*
X86383242Y-56678392D01*
X87097528Y-56356964D02*
X87133242Y-56321250D01*
X87133242Y-56321250D02*
X87204671Y-56285535D01*
X87204671Y-56285535D02*
X87383242Y-56285535D01*
X87383242Y-56285535D02*
X87454671Y-56321250D01*
X87454671Y-56321250D02*
X87490385Y-56356964D01*
X87490385Y-56356964D02*
X87526099Y-56428392D01*
X87526099Y-56428392D02*
X87526099Y-56499821D01*
X87526099Y-56499821D02*
X87490385Y-56606964D01*
X87490385Y-56606964D02*
X87061813Y-57035535D01*
X87061813Y-57035535D02*
X87526099Y-57035535D01*
X87811814Y-56356964D02*
X87847528Y-56321250D01*
X87847528Y-56321250D02*
X87918957Y-56285535D01*
X87918957Y-56285535D02*
X88097528Y-56285535D01*
X88097528Y-56285535D02*
X88168957Y-56321250D01*
X88168957Y-56321250D02*
X88204671Y-56356964D01*
X88204671Y-56356964D02*
X88240385Y-56428392D01*
X88240385Y-56428392D02*
X88240385Y-56499821D01*
X88240385Y-56499821D02*
X88204671Y-56606964D01*
X88204671Y-56606964D02*
X87776099Y-57035535D01*
X87776099Y-57035535D02*
X88240385Y-57035535D01*
%TO.C,R11*%
X103076570Y-76729535D02*
X102826570Y-76372392D01*
X102647999Y-76729535D02*
X102647999Y-75979535D01*
X102647999Y-75979535D02*
X102933713Y-75979535D01*
X102933713Y-75979535D02*
X103005142Y-76015250D01*
X103005142Y-76015250D02*
X103040856Y-76050964D01*
X103040856Y-76050964D02*
X103076570Y-76122392D01*
X103076570Y-76122392D02*
X103076570Y-76229535D01*
X103076570Y-76229535D02*
X103040856Y-76300964D01*
X103040856Y-76300964D02*
X103005142Y-76336678D01*
X103005142Y-76336678D02*
X102933713Y-76372392D01*
X102933713Y-76372392D02*
X102647999Y-76372392D01*
X103790856Y-76729535D02*
X103362285Y-76729535D01*
X103576570Y-76729535D02*
X103576570Y-75979535D01*
X103576570Y-75979535D02*
X103505142Y-76086678D01*
X103505142Y-76086678D02*
X103433713Y-76158107D01*
X103433713Y-76158107D02*
X103362285Y-76193821D01*
X104505142Y-76729535D02*
X104076571Y-76729535D01*
X104290856Y-76729535D02*
X104290856Y-75979535D01*
X104290856Y-75979535D02*
X104219428Y-76086678D01*
X104219428Y-76086678D02*
X104147999Y-76158107D01*
X104147999Y-76158107D02*
X104076571Y-76193821D01*
%TO.C,C4*%
X101006107Y-80115000D02*
X101041821Y-80150714D01*
X101041821Y-80150714D02*
X101077535Y-80257857D01*
X101077535Y-80257857D02*
X101077535Y-80329285D01*
X101077535Y-80329285D02*
X101041821Y-80436428D01*
X101041821Y-80436428D02*
X100970392Y-80507857D01*
X100970392Y-80507857D02*
X100898964Y-80543571D01*
X100898964Y-80543571D02*
X100756107Y-80579285D01*
X100756107Y-80579285D02*
X100648964Y-80579285D01*
X100648964Y-80579285D02*
X100506107Y-80543571D01*
X100506107Y-80543571D02*
X100434678Y-80507857D01*
X100434678Y-80507857D02*
X100363250Y-80436428D01*
X100363250Y-80436428D02*
X100327535Y-80329285D01*
X100327535Y-80329285D02*
X100327535Y-80257857D01*
X100327535Y-80257857D02*
X100363250Y-80150714D01*
X100363250Y-80150714D02*
X100398964Y-80115000D01*
X100577535Y-79472143D02*
X101077535Y-79472143D01*
X100291821Y-79650714D02*
X100827535Y-79829285D01*
X100827535Y-79829285D02*
X100827535Y-79365000D01*
%TO.C,Y1*%
X108711142Y-64592142D02*
X109068285Y-64592142D01*
X108318285Y-64842142D02*
X108711142Y-64592142D01*
X108711142Y-64592142D02*
X108318285Y-64342142D01*
X109068285Y-63699285D02*
X109068285Y-64127856D01*
X109068285Y-63913571D02*
X108318285Y-63913571D01*
X108318285Y-63913571D02*
X108425428Y-63984999D01*
X108425428Y-63984999D02*
X108496857Y-64056428D01*
X108496857Y-64056428D02*
X108532571Y-64127856D01*
%TO.C,R5*%
X111791856Y-37283535D02*
X111541856Y-36926392D01*
X111363285Y-37283535D02*
X111363285Y-36533535D01*
X111363285Y-36533535D02*
X111648999Y-36533535D01*
X111648999Y-36533535D02*
X111720428Y-36569250D01*
X111720428Y-36569250D02*
X111756142Y-36604964D01*
X111756142Y-36604964D02*
X111791856Y-36676392D01*
X111791856Y-36676392D02*
X111791856Y-36783535D01*
X111791856Y-36783535D02*
X111756142Y-36854964D01*
X111756142Y-36854964D02*
X111720428Y-36890678D01*
X111720428Y-36890678D02*
X111648999Y-36926392D01*
X111648999Y-36926392D02*
X111363285Y-36926392D01*
X112470428Y-36533535D02*
X112113285Y-36533535D01*
X112113285Y-36533535D02*
X112077571Y-36890678D01*
X112077571Y-36890678D02*
X112113285Y-36854964D01*
X112113285Y-36854964D02*
X112184714Y-36819250D01*
X112184714Y-36819250D02*
X112363285Y-36819250D01*
X112363285Y-36819250D02*
X112434714Y-36854964D01*
X112434714Y-36854964D02*
X112470428Y-36890678D01*
X112470428Y-36890678D02*
X112506142Y-36962107D01*
X112506142Y-36962107D02*
X112506142Y-37140678D01*
X112506142Y-37140678D02*
X112470428Y-37212107D01*
X112470428Y-37212107D02*
X112434714Y-37247821D01*
X112434714Y-37247821D02*
X112363285Y-37283535D01*
X112363285Y-37283535D02*
X112184714Y-37283535D01*
X112184714Y-37283535D02*
X112113285Y-37247821D01*
X112113285Y-37247821D02*
X112077571Y-37212107D01*
%TO.C,C2*%
X105513107Y-68050000D02*
X105548821Y-68085714D01*
X105548821Y-68085714D02*
X105584535Y-68192857D01*
X105584535Y-68192857D02*
X105584535Y-68264285D01*
X105584535Y-68264285D02*
X105548821Y-68371428D01*
X105548821Y-68371428D02*
X105477392Y-68442857D01*
X105477392Y-68442857D02*
X105405964Y-68478571D01*
X105405964Y-68478571D02*
X105263107Y-68514285D01*
X105263107Y-68514285D02*
X105155964Y-68514285D01*
X105155964Y-68514285D02*
X105013107Y-68478571D01*
X105013107Y-68478571D02*
X104941678Y-68442857D01*
X104941678Y-68442857D02*
X104870250Y-68371428D01*
X104870250Y-68371428D02*
X104834535Y-68264285D01*
X104834535Y-68264285D02*
X104834535Y-68192857D01*
X104834535Y-68192857D02*
X104870250Y-68085714D01*
X104870250Y-68085714D02*
X104905964Y-68050000D01*
X104905964Y-67764285D02*
X104870250Y-67728571D01*
X104870250Y-67728571D02*
X104834535Y-67657143D01*
X104834535Y-67657143D02*
X104834535Y-67478571D01*
X104834535Y-67478571D02*
X104870250Y-67407143D01*
X104870250Y-67407143D02*
X104905964Y-67371428D01*
X104905964Y-67371428D02*
X104977392Y-67335714D01*
X104977392Y-67335714D02*
X105048821Y-67335714D01*
X105048821Y-67335714D02*
X105155964Y-67371428D01*
X105155964Y-67371428D02*
X105584535Y-67800000D01*
X105584535Y-67800000D02*
X105584535Y-67335714D01*
%TO.C,R6*%
X111791856Y-33473535D02*
X111541856Y-33116392D01*
X111363285Y-33473535D02*
X111363285Y-32723535D01*
X111363285Y-32723535D02*
X111648999Y-32723535D01*
X111648999Y-32723535D02*
X111720428Y-32759250D01*
X111720428Y-32759250D02*
X111756142Y-32794964D01*
X111756142Y-32794964D02*
X111791856Y-32866392D01*
X111791856Y-32866392D02*
X111791856Y-32973535D01*
X111791856Y-32973535D02*
X111756142Y-33044964D01*
X111756142Y-33044964D02*
X111720428Y-33080678D01*
X111720428Y-33080678D02*
X111648999Y-33116392D01*
X111648999Y-33116392D02*
X111363285Y-33116392D01*
X112434714Y-32723535D02*
X112291856Y-32723535D01*
X112291856Y-32723535D02*
X112220428Y-32759250D01*
X112220428Y-32759250D02*
X112184714Y-32794964D01*
X112184714Y-32794964D02*
X112113285Y-32902107D01*
X112113285Y-32902107D02*
X112077571Y-33044964D01*
X112077571Y-33044964D02*
X112077571Y-33330678D01*
X112077571Y-33330678D02*
X112113285Y-33402107D01*
X112113285Y-33402107D02*
X112148999Y-33437821D01*
X112148999Y-33437821D02*
X112220428Y-33473535D01*
X112220428Y-33473535D02*
X112363285Y-33473535D01*
X112363285Y-33473535D02*
X112434714Y-33437821D01*
X112434714Y-33437821D02*
X112470428Y-33402107D01*
X112470428Y-33402107D02*
X112506142Y-33330678D01*
X112506142Y-33330678D02*
X112506142Y-33152107D01*
X112506142Y-33152107D02*
X112470428Y-33080678D01*
X112470428Y-33080678D02*
X112434714Y-33044964D01*
X112434714Y-33044964D02*
X112363285Y-33009250D01*
X112363285Y-33009250D02*
X112220428Y-33009250D01*
X112220428Y-33009250D02*
X112148999Y-33044964D01*
X112148999Y-33044964D02*
X112113285Y-33080678D01*
X112113285Y-33080678D02*
X112077571Y-33152107D01*
%TO.C,Q4*%
X91637589Y-49831428D02*
X91601875Y-49902857D01*
X91601875Y-49902857D02*
X91530446Y-49974285D01*
X91530446Y-49974285D02*
X91423303Y-50081428D01*
X91423303Y-50081428D02*
X91387589Y-50152857D01*
X91387589Y-50152857D02*
X91387589Y-50224285D01*
X91566160Y-50188571D02*
X91530446Y-50260000D01*
X91530446Y-50260000D02*
X91459017Y-50331428D01*
X91459017Y-50331428D02*
X91316160Y-50367142D01*
X91316160Y-50367142D02*
X91066160Y-50367142D01*
X91066160Y-50367142D02*
X90923303Y-50331428D01*
X90923303Y-50331428D02*
X90851875Y-50260000D01*
X90851875Y-50260000D02*
X90816160Y-50188571D01*
X90816160Y-50188571D02*
X90816160Y-50045714D01*
X90816160Y-50045714D02*
X90851875Y-49974285D01*
X90851875Y-49974285D02*
X90923303Y-49902857D01*
X90923303Y-49902857D02*
X91066160Y-49867142D01*
X91066160Y-49867142D02*
X91316160Y-49867142D01*
X91316160Y-49867142D02*
X91459017Y-49902857D01*
X91459017Y-49902857D02*
X91530446Y-49974285D01*
X91530446Y-49974285D02*
X91566160Y-50045714D01*
X91566160Y-50045714D02*
X91566160Y-50188571D01*
X91066160Y-49224286D02*
X91566160Y-49224286D01*
X90780446Y-49402857D02*
X91316160Y-49581428D01*
X91316160Y-49581428D02*
X91316160Y-49117143D01*
%TO.C,U3*%
X90878571Y-65785535D02*
X90878571Y-66392678D01*
X90878571Y-66392678D02*
X90914285Y-66464107D01*
X90914285Y-66464107D02*
X90950000Y-66499821D01*
X90950000Y-66499821D02*
X91021428Y-66535535D01*
X91021428Y-66535535D02*
X91164285Y-66535535D01*
X91164285Y-66535535D02*
X91235714Y-66499821D01*
X91235714Y-66499821D02*
X91271428Y-66464107D01*
X91271428Y-66464107D02*
X91307142Y-66392678D01*
X91307142Y-66392678D02*
X91307142Y-65785535D01*
X91592856Y-65785535D02*
X92057142Y-65785535D01*
X92057142Y-65785535D02*
X91807142Y-66071250D01*
X91807142Y-66071250D02*
X91914285Y-66071250D01*
X91914285Y-66071250D02*
X91985714Y-66106964D01*
X91985714Y-66106964D02*
X92021428Y-66142678D01*
X92021428Y-66142678D02*
X92057142Y-66214107D01*
X92057142Y-66214107D02*
X92057142Y-66392678D01*
X92057142Y-66392678D02*
X92021428Y-66464107D01*
X92021428Y-66464107D02*
X91985714Y-66499821D01*
X91985714Y-66499821D02*
X91914285Y-66535535D01*
X91914285Y-66535535D02*
X91699999Y-66535535D01*
X91699999Y-66535535D02*
X91628571Y-66499821D01*
X91628571Y-66499821D02*
X91592856Y-66464107D01*
%TO.C,U1*%
X120713571Y-39635535D02*
X120713571Y-40242678D01*
X120713571Y-40242678D02*
X120749285Y-40314107D01*
X120749285Y-40314107D02*
X120785000Y-40349821D01*
X120785000Y-40349821D02*
X120856428Y-40385535D01*
X120856428Y-40385535D02*
X120999285Y-40385535D01*
X120999285Y-40385535D02*
X121070714Y-40349821D01*
X121070714Y-40349821D02*
X121106428Y-40314107D01*
X121106428Y-40314107D02*
X121142142Y-40242678D01*
X121142142Y-40242678D02*
X121142142Y-39635535D01*
X121892142Y-40385535D02*
X121463571Y-40385535D01*
X121677856Y-40385535D02*
X121677856Y-39635535D01*
X121677856Y-39635535D02*
X121606428Y-39742678D01*
X121606428Y-39742678D02*
X121534999Y-39814107D01*
X121534999Y-39814107D02*
X121463571Y-39849821D01*
%TO.C,R2*%
X114682999Y-83841535D02*
X114432999Y-83484392D01*
X114254428Y-83841535D02*
X114254428Y-83091535D01*
X114254428Y-83091535D02*
X114540142Y-83091535D01*
X114540142Y-83091535D02*
X114611571Y-83127250D01*
X114611571Y-83127250D02*
X114647285Y-83162964D01*
X114647285Y-83162964D02*
X114682999Y-83234392D01*
X114682999Y-83234392D02*
X114682999Y-83341535D01*
X114682999Y-83341535D02*
X114647285Y-83412964D01*
X114647285Y-83412964D02*
X114611571Y-83448678D01*
X114611571Y-83448678D02*
X114540142Y-83484392D01*
X114540142Y-83484392D02*
X114254428Y-83484392D01*
X114968714Y-83162964D02*
X115004428Y-83127250D01*
X115004428Y-83127250D02*
X115075857Y-83091535D01*
X115075857Y-83091535D02*
X115254428Y-83091535D01*
X115254428Y-83091535D02*
X115325857Y-83127250D01*
X115325857Y-83127250D02*
X115361571Y-83162964D01*
X115361571Y-83162964D02*
X115397285Y-83234392D01*
X115397285Y-83234392D02*
X115397285Y-83305821D01*
X115397285Y-83305821D02*
X115361571Y-83412964D01*
X115361571Y-83412964D02*
X114932999Y-83841535D01*
X114932999Y-83841535D02*
X115397285Y-83841535D01*
%TO.C,C3*%
X131349107Y-57255000D02*
X131384821Y-57290714D01*
X131384821Y-57290714D02*
X131420535Y-57397857D01*
X131420535Y-57397857D02*
X131420535Y-57469285D01*
X131420535Y-57469285D02*
X131384821Y-57576428D01*
X131384821Y-57576428D02*
X131313392Y-57647857D01*
X131313392Y-57647857D02*
X131241964Y-57683571D01*
X131241964Y-57683571D02*
X131099107Y-57719285D01*
X131099107Y-57719285D02*
X130991964Y-57719285D01*
X130991964Y-57719285D02*
X130849107Y-57683571D01*
X130849107Y-57683571D02*
X130777678Y-57647857D01*
X130777678Y-57647857D02*
X130706250Y-57576428D01*
X130706250Y-57576428D02*
X130670535Y-57469285D01*
X130670535Y-57469285D02*
X130670535Y-57397857D01*
X130670535Y-57397857D02*
X130706250Y-57290714D01*
X130706250Y-57290714D02*
X130741964Y-57255000D01*
X130670535Y-57005000D02*
X130670535Y-56540714D01*
X130670535Y-56540714D02*
X130956250Y-56790714D01*
X130956250Y-56790714D02*
X130956250Y-56683571D01*
X130956250Y-56683571D02*
X130991964Y-56612143D01*
X130991964Y-56612143D02*
X131027678Y-56576428D01*
X131027678Y-56576428D02*
X131099107Y-56540714D01*
X131099107Y-56540714D02*
X131277678Y-56540714D01*
X131277678Y-56540714D02*
X131349107Y-56576428D01*
X131349107Y-56576428D02*
X131384821Y-56612143D01*
X131384821Y-56612143D02*
X131420535Y-56683571D01*
X131420535Y-56683571D02*
X131420535Y-56897857D01*
X131420535Y-56897857D02*
X131384821Y-56969285D01*
X131384821Y-56969285D02*
X131349107Y-57005000D01*
%TO.C,R18*%
X83411142Y-67204535D02*
X83161142Y-66847392D01*
X82982571Y-67204535D02*
X82982571Y-66454535D01*
X82982571Y-66454535D02*
X83268285Y-66454535D01*
X83268285Y-66454535D02*
X83339714Y-66490250D01*
X83339714Y-66490250D02*
X83375428Y-66525964D01*
X83375428Y-66525964D02*
X83411142Y-66597392D01*
X83411142Y-66597392D02*
X83411142Y-66704535D01*
X83411142Y-66704535D02*
X83375428Y-66775964D01*
X83375428Y-66775964D02*
X83339714Y-66811678D01*
X83339714Y-66811678D02*
X83268285Y-66847392D01*
X83268285Y-66847392D02*
X82982571Y-66847392D01*
X84125428Y-67204535D02*
X83696857Y-67204535D01*
X83911142Y-67204535D02*
X83911142Y-66454535D01*
X83911142Y-66454535D02*
X83839714Y-66561678D01*
X83839714Y-66561678D02*
X83768285Y-66633107D01*
X83768285Y-66633107D02*
X83696857Y-66668821D01*
X84554000Y-66775964D02*
X84482571Y-66740250D01*
X84482571Y-66740250D02*
X84446857Y-66704535D01*
X84446857Y-66704535D02*
X84411143Y-66633107D01*
X84411143Y-66633107D02*
X84411143Y-66597392D01*
X84411143Y-66597392D02*
X84446857Y-66525964D01*
X84446857Y-66525964D02*
X84482571Y-66490250D01*
X84482571Y-66490250D02*
X84554000Y-66454535D01*
X84554000Y-66454535D02*
X84696857Y-66454535D01*
X84696857Y-66454535D02*
X84768286Y-66490250D01*
X84768286Y-66490250D02*
X84804000Y-66525964D01*
X84804000Y-66525964D02*
X84839714Y-66597392D01*
X84839714Y-66597392D02*
X84839714Y-66633107D01*
X84839714Y-66633107D02*
X84804000Y-66704535D01*
X84804000Y-66704535D02*
X84768286Y-66740250D01*
X84768286Y-66740250D02*
X84696857Y-66775964D01*
X84696857Y-66775964D02*
X84554000Y-66775964D01*
X84554000Y-66775964D02*
X84482571Y-66811678D01*
X84482571Y-66811678D02*
X84446857Y-66847392D01*
X84446857Y-66847392D02*
X84411143Y-66918821D01*
X84411143Y-66918821D02*
X84411143Y-67061678D01*
X84411143Y-67061678D02*
X84446857Y-67133107D01*
X84446857Y-67133107D02*
X84482571Y-67168821D01*
X84482571Y-67168821D02*
X84554000Y-67204535D01*
X84554000Y-67204535D02*
X84696857Y-67204535D01*
X84696857Y-67204535D02*
X84768286Y-67168821D01*
X84768286Y-67168821D02*
X84804000Y-67133107D01*
X84804000Y-67133107D02*
X84839714Y-67061678D01*
X84839714Y-67061678D02*
X84839714Y-66918821D01*
X84839714Y-66918821D02*
X84804000Y-66847392D01*
X84804000Y-66847392D02*
X84768286Y-66811678D01*
X84768286Y-66811678D02*
X84696857Y-66775964D01*
%TO.C,R7*%
X103790856Y-73935535D02*
X103540856Y-73578392D01*
X103362285Y-73935535D02*
X103362285Y-73185535D01*
X103362285Y-73185535D02*
X103647999Y-73185535D01*
X103647999Y-73185535D02*
X103719428Y-73221250D01*
X103719428Y-73221250D02*
X103755142Y-73256964D01*
X103755142Y-73256964D02*
X103790856Y-73328392D01*
X103790856Y-73328392D02*
X103790856Y-73435535D01*
X103790856Y-73435535D02*
X103755142Y-73506964D01*
X103755142Y-73506964D02*
X103719428Y-73542678D01*
X103719428Y-73542678D02*
X103647999Y-73578392D01*
X103647999Y-73578392D02*
X103362285Y-73578392D01*
X104040856Y-73185535D02*
X104540856Y-73185535D01*
X104540856Y-73185535D02*
X104219428Y-73935535D01*
%TO.C,C5*%
X99708999Y-65010107D02*
X99673285Y-65045821D01*
X99673285Y-65045821D02*
X99566142Y-65081535D01*
X99566142Y-65081535D02*
X99494714Y-65081535D01*
X99494714Y-65081535D02*
X99387571Y-65045821D01*
X99387571Y-65045821D02*
X99316142Y-64974392D01*
X99316142Y-64974392D02*
X99280428Y-64902964D01*
X99280428Y-64902964D02*
X99244714Y-64760107D01*
X99244714Y-64760107D02*
X99244714Y-64652964D01*
X99244714Y-64652964D02*
X99280428Y-64510107D01*
X99280428Y-64510107D02*
X99316142Y-64438678D01*
X99316142Y-64438678D02*
X99387571Y-64367250D01*
X99387571Y-64367250D02*
X99494714Y-64331535D01*
X99494714Y-64331535D02*
X99566142Y-64331535D01*
X99566142Y-64331535D02*
X99673285Y-64367250D01*
X99673285Y-64367250D02*
X99708999Y-64402964D01*
X100387571Y-64331535D02*
X100030428Y-64331535D01*
X100030428Y-64331535D02*
X99994714Y-64688678D01*
X99994714Y-64688678D02*
X100030428Y-64652964D01*
X100030428Y-64652964D02*
X100101857Y-64617250D01*
X100101857Y-64617250D02*
X100280428Y-64617250D01*
X100280428Y-64617250D02*
X100351857Y-64652964D01*
X100351857Y-64652964D02*
X100387571Y-64688678D01*
X100387571Y-64688678D02*
X100423285Y-64760107D01*
X100423285Y-64760107D02*
X100423285Y-64938678D01*
X100423285Y-64938678D02*
X100387571Y-65010107D01*
X100387571Y-65010107D02*
X100351857Y-65045821D01*
X100351857Y-65045821D02*
X100280428Y-65081535D01*
X100280428Y-65081535D02*
X100101857Y-65081535D01*
X100101857Y-65081535D02*
X100030428Y-65045821D01*
X100030428Y-65045821D02*
X99994714Y-65010107D01*
%TO.C,R8*%
X103790856Y-75332535D02*
X103540856Y-74975392D01*
X103362285Y-75332535D02*
X103362285Y-74582535D01*
X103362285Y-74582535D02*
X103647999Y-74582535D01*
X103647999Y-74582535D02*
X103719428Y-74618250D01*
X103719428Y-74618250D02*
X103755142Y-74653964D01*
X103755142Y-74653964D02*
X103790856Y-74725392D01*
X103790856Y-74725392D02*
X103790856Y-74832535D01*
X103790856Y-74832535D02*
X103755142Y-74903964D01*
X103755142Y-74903964D02*
X103719428Y-74939678D01*
X103719428Y-74939678D02*
X103647999Y-74975392D01*
X103647999Y-74975392D02*
X103362285Y-74975392D01*
X104219428Y-74903964D02*
X104147999Y-74868250D01*
X104147999Y-74868250D02*
X104112285Y-74832535D01*
X104112285Y-74832535D02*
X104076571Y-74761107D01*
X104076571Y-74761107D02*
X104076571Y-74725392D01*
X104076571Y-74725392D02*
X104112285Y-74653964D01*
X104112285Y-74653964D02*
X104147999Y-74618250D01*
X104147999Y-74618250D02*
X104219428Y-74582535D01*
X104219428Y-74582535D02*
X104362285Y-74582535D01*
X104362285Y-74582535D02*
X104433714Y-74618250D01*
X104433714Y-74618250D02*
X104469428Y-74653964D01*
X104469428Y-74653964D02*
X104505142Y-74725392D01*
X104505142Y-74725392D02*
X104505142Y-74761107D01*
X104505142Y-74761107D02*
X104469428Y-74832535D01*
X104469428Y-74832535D02*
X104433714Y-74868250D01*
X104433714Y-74868250D02*
X104362285Y-74903964D01*
X104362285Y-74903964D02*
X104219428Y-74903964D01*
X104219428Y-74903964D02*
X104147999Y-74939678D01*
X104147999Y-74939678D02*
X104112285Y-74975392D01*
X104112285Y-74975392D02*
X104076571Y-75046821D01*
X104076571Y-75046821D02*
X104076571Y-75189678D01*
X104076571Y-75189678D02*
X104112285Y-75261107D01*
X104112285Y-75261107D02*
X104147999Y-75296821D01*
X104147999Y-75296821D02*
X104219428Y-75332535D01*
X104219428Y-75332535D02*
X104362285Y-75332535D01*
X104362285Y-75332535D02*
X104433714Y-75296821D01*
X104433714Y-75296821D02*
X104469428Y-75261107D01*
X104469428Y-75261107D02*
X104505142Y-75189678D01*
X104505142Y-75189678D02*
X104505142Y-75046821D01*
X104505142Y-75046821D02*
X104469428Y-74975392D01*
X104469428Y-74975392D02*
X104433714Y-74939678D01*
X104433714Y-74939678D02*
X104362285Y-74903964D01*
%TO.C,R13*%
X80666535Y-83974857D02*
X80309392Y-84224857D01*
X80666535Y-84403428D02*
X79916535Y-84403428D01*
X79916535Y-84403428D02*
X79916535Y-84117714D01*
X79916535Y-84117714D02*
X79952250Y-84046285D01*
X79952250Y-84046285D02*
X79987964Y-84010571D01*
X79987964Y-84010571D02*
X80059392Y-83974857D01*
X80059392Y-83974857D02*
X80166535Y-83974857D01*
X80166535Y-83974857D02*
X80237964Y-84010571D01*
X80237964Y-84010571D02*
X80273678Y-84046285D01*
X80273678Y-84046285D02*
X80309392Y-84117714D01*
X80309392Y-84117714D02*
X80309392Y-84403428D01*
X80666535Y-83260571D02*
X80666535Y-83689142D01*
X80666535Y-83474857D02*
X79916535Y-83474857D01*
X79916535Y-83474857D02*
X80023678Y-83546285D01*
X80023678Y-83546285D02*
X80095107Y-83617714D01*
X80095107Y-83617714D02*
X80130821Y-83689142D01*
X79916535Y-83010571D02*
X79916535Y-82546285D01*
X79916535Y-82546285D02*
X80202250Y-82796285D01*
X80202250Y-82796285D02*
X80202250Y-82689142D01*
X80202250Y-82689142D02*
X80237964Y-82617714D01*
X80237964Y-82617714D02*
X80273678Y-82581999D01*
X80273678Y-82581999D02*
X80345107Y-82546285D01*
X80345107Y-82546285D02*
X80523678Y-82546285D01*
X80523678Y-82546285D02*
X80595107Y-82581999D01*
X80595107Y-82581999D02*
X80630821Y-82617714D01*
X80630821Y-82617714D02*
X80666535Y-82689142D01*
X80666535Y-82689142D02*
X80666535Y-82903428D01*
X80666535Y-82903428D02*
X80630821Y-82974856D01*
X80630821Y-82974856D02*
X80595107Y-83010571D01*
%TO.C,R19*%
X72418481Y-57035535D02*
X72168481Y-56678392D01*
X71989910Y-57035535D02*
X71989910Y-56285535D01*
X71989910Y-56285535D02*
X72275624Y-56285535D01*
X72275624Y-56285535D02*
X72347053Y-56321250D01*
X72347053Y-56321250D02*
X72382767Y-56356964D01*
X72382767Y-56356964D02*
X72418481Y-56428392D01*
X72418481Y-56428392D02*
X72418481Y-56535535D01*
X72418481Y-56535535D02*
X72382767Y-56606964D01*
X72382767Y-56606964D02*
X72347053Y-56642678D01*
X72347053Y-56642678D02*
X72275624Y-56678392D01*
X72275624Y-56678392D02*
X71989910Y-56678392D01*
X73132767Y-57035535D02*
X72704196Y-57035535D01*
X72918481Y-57035535D02*
X72918481Y-56285535D01*
X72918481Y-56285535D02*
X72847053Y-56392678D01*
X72847053Y-56392678D02*
X72775624Y-56464107D01*
X72775624Y-56464107D02*
X72704196Y-56499821D01*
X73489910Y-57035535D02*
X73632767Y-57035535D01*
X73632767Y-57035535D02*
X73704196Y-56999821D01*
X73704196Y-56999821D02*
X73739910Y-56964107D01*
X73739910Y-56964107D02*
X73811339Y-56856964D01*
X73811339Y-56856964D02*
X73847053Y-56714107D01*
X73847053Y-56714107D02*
X73847053Y-56428392D01*
X73847053Y-56428392D02*
X73811339Y-56356964D01*
X73811339Y-56356964D02*
X73775625Y-56321250D01*
X73775625Y-56321250D02*
X73704196Y-56285535D01*
X73704196Y-56285535D02*
X73561339Y-56285535D01*
X73561339Y-56285535D02*
X73489910Y-56321250D01*
X73489910Y-56321250D02*
X73454196Y-56356964D01*
X73454196Y-56356964D02*
X73418482Y-56428392D01*
X73418482Y-56428392D02*
X73418482Y-56606964D01*
X73418482Y-56606964D02*
X73454196Y-56678392D01*
X73454196Y-56678392D02*
X73489910Y-56714107D01*
X73489910Y-56714107D02*
X73561339Y-56749821D01*
X73561339Y-56749821D02*
X73704196Y-56749821D01*
X73704196Y-56749821D02*
X73775625Y-56714107D01*
X73775625Y-56714107D02*
X73811339Y-56678392D01*
X73811339Y-56678392D02*
X73847053Y-56606964D01*
%TO.C,R17*%
X100747535Y-72872143D02*
X100390392Y-73122143D01*
X100747535Y-73300714D02*
X99997535Y-73300714D01*
X99997535Y-73300714D02*
X99997535Y-73015000D01*
X99997535Y-73015000D02*
X100033250Y-72943571D01*
X100033250Y-72943571D02*
X100068964Y-72907857D01*
X100068964Y-72907857D02*
X100140392Y-72872143D01*
X100140392Y-72872143D02*
X100247535Y-72872143D01*
X100247535Y-72872143D02*
X100318964Y-72907857D01*
X100318964Y-72907857D02*
X100354678Y-72943571D01*
X100354678Y-72943571D02*
X100390392Y-73015000D01*
X100390392Y-73015000D02*
X100390392Y-73300714D01*
X100747535Y-72157857D02*
X100747535Y-72586428D01*
X100747535Y-72372143D02*
X99997535Y-72372143D01*
X99997535Y-72372143D02*
X100104678Y-72443571D01*
X100104678Y-72443571D02*
X100176107Y-72515000D01*
X100176107Y-72515000D02*
X100211821Y-72586428D01*
X99997535Y-71907857D02*
X99997535Y-71407857D01*
X99997535Y-71407857D02*
X100747535Y-71729285D01*
%TO.C,R9*%
X111791856Y-32203535D02*
X111541856Y-31846392D01*
X111363285Y-32203535D02*
X111363285Y-31453535D01*
X111363285Y-31453535D02*
X111648999Y-31453535D01*
X111648999Y-31453535D02*
X111720428Y-31489250D01*
X111720428Y-31489250D02*
X111756142Y-31524964D01*
X111756142Y-31524964D02*
X111791856Y-31596392D01*
X111791856Y-31596392D02*
X111791856Y-31703535D01*
X111791856Y-31703535D02*
X111756142Y-31774964D01*
X111756142Y-31774964D02*
X111720428Y-31810678D01*
X111720428Y-31810678D02*
X111648999Y-31846392D01*
X111648999Y-31846392D02*
X111363285Y-31846392D01*
X112148999Y-32203535D02*
X112291856Y-32203535D01*
X112291856Y-32203535D02*
X112363285Y-32167821D01*
X112363285Y-32167821D02*
X112398999Y-32132107D01*
X112398999Y-32132107D02*
X112470428Y-32024964D01*
X112470428Y-32024964D02*
X112506142Y-31882107D01*
X112506142Y-31882107D02*
X112506142Y-31596392D01*
X112506142Y-31596392D02*
X112470428Y-31524964D01*
X112470428Y-31524964D02*
X112434714Y-31489250D01*
X112434714Y-31489250D02*
X112363285Y-31453535D01*
X112363285Y-31453535D02*
X112220428Y-31453535D01*
X112220428Y-31453535D02*
X112148999Y-31489250D01*
X112148999Y-31489250D02*
X112113285Y-31524964D01*
X112113285Y-31524964D02*
X112077571Y-31596392D01*
X112077571Y-31596392D02*
X112077571Y-31774964D01*
X112077571Y-31774964D02*
X112113285Y-31846392D01*
X112113285Y-31846392D02*
X112148999Y-31882107D01*
X112148999Y-31882107D02*
X112220428Y-31917821D01*
X112220428Y-31917821D02*
X112363285Y-31917821D01*
X112363285Y-31917821D02*
X112434714Y-31882107D01*
X112434714Y-31882107D02*
X112470428Y-31846392D01*
X112470428Y-31846392D02*
X112506142Y-31774964D01*
%TO.C,C6*%
X108586999Y-56592107D02*
X108551285Y-56627821D01*
X108551285Y-56627821D02*
X108444142Y-56663535D01*
X108444142Y-56663535D02*
X108372714Y-56663535D01*
X108372714Y-56663535D02*
X108265571Y-56627821D01*
X108265571Y-56627821D02*
X108194142Y-56556392D01*
X108194142Y-56556392D02*
X108158428Y-56484964D01*
X108158428Y-56484964D02*
X108122714Y-56342107D01*
X108122714Y-56342107D02*
X108122714Y-56234964D01*
X108122714Y-56234964D02*
X108158428Y-56092107D01*
X108158428Y-56092107D02*
X108194142Y-56020678D01*
X108194142Y-56020678D02*
X108265571Y-55949250D01*
X108265571Y-55949250D02*
X108372714Y-55913535D01*
X108372714Y-55913535D02*
X108444142Y-55913535D01*
X108444142Y-55913535D02*
X108551285Y-55949250D01*
X108551285Y-55949250D02*
X108586999Y-55984964D01*
X109229857Y-55913535D02*
X109086999Y-55913535D01*
X109086999Y-55913535D02*
X109015571Y-55949250D01*
X109015571Y-55949250D02*
X108979857Y-55984964D01*
X108979857Y-55984964D02*
X108908428Y-56092107D01*
X108908428Y-56092107D02*
X108872714Y-56234964D01*
X108872714Y-56234964D02*
X108872714Y-56520678D01*
X108872714Y-56520678D02*
X108908428Y-56592107D01*
X108908428Y-56592107D02*
X108944142Y-56627821D01*
X108944142Y-56627821D02*
X109015571Y-56663535D01*
X109015571Y-56663535D02*
X109158428Y-56663535D01*
X109158428Y-56663535D02*
X109229857Y-56627821D01*
X109229857Y-56627821D02*
X109265571Y-56592107D01*
X109265571Y-56592107D02*
X109301285Y-56520678D01*
X109301285Y-56520678D02*
X109301285Y-56342107D01*
X109301285Y-56342107D02*
X109265571Y-56270678D01*
X109265571Y-56270678D02*
X109229857Y-56234964D01*
X109229857Y-56234964D02*
X109158428Y-56199250D01*
X109158428Y-56199250D02*
X109015571Y-56199250D01*
X109015571Y-56199250D02*
X108944142Y-56234964D01*
X108944142Y-56234964D02*
X108908428Y-56270678D01*
X108908428Y-56270678D02*
X108872714Y-56342107D01*
%TO.C,R1*%
X111791856Y-30933535D02*
X111541856Y-30576392D01*
X111363285Y-30933535D02*
X111363285Y-30183535D01*
X111363285Y-30183535D02*
X111648999Y-30183535D01*
X111648999Y-30183535D02*
X111720428Y-30219250D01*
X111720428Y-30219250D02*
X111756142Y-30254964D01*
X111756142Y-30254964D02*
X111791856Y-30326392D01*
X111791856Y-30326392D02*
X111791856Y-30433535D01*
X111791856Y-30433535D02*
X111756142Y-30504964D01*
X111756142Y-30504964D02*
X111720428Y-30540678D01*
X111720428Y-30540678D02*
X111648999Y-30576392D01*
X111648999Y-30576392D02*
X111363285Y-30576392D01*
X112506142Y-30933535D02*
X112077571Y-30933535D01*
X112291856Y-30933535D02*
X112291856Y-30183535D01*
X112291856Y-30183535D02*
X112220428Y-30290678D01*
X112220428Y-30290678D02*
X112148999Y-30362107D01*
X112148999Y-30362107D02*
X112077571Y-30397821D01*
%TO.C,Q1*%
X70047589Y-49831428D02*
X70011875Y-49902857D01*
X70011875Y-49902857D02*
X69940446Y-49974285D01*
X69940446Y-49974285D02*
X69833303Y-50081428D01*
X69833303Y-50081428D02*
X69797589Y-50152857D01*
X69797589Y-50152857D02*
X69797589Y-50224285D01*
X69976160Y-50188571D02*
X69940446Y-50260000D01*
X69940446Y-50260000D02*
X69869017Y-50331428D01*
X69869017Y-50331428D02*
X69726160Y-50367142D01*
X69726160Y-50367142D02*
X69476160Y-50367142D01*
X69476160Y-50367142D02*
X69333303Y-50331428D01*
X69333303Y-50331428D02*
X69261875Y-50260000D01*
X69261875Y-50260000D02*
X69226160Y-50188571D01*
X69226160Y-50188571D02*
X69226160Y-50045714D01*
X69226160Y-50045714D02*
X69261875Y-49974285D01*
X69261875Y-49974285D02*
X69333303Y-49902857D01*
X69333303Y-49902857D02*
X69476160Y-49867142D01*
X69476160Y-49867142D02*
X69726160Y-49867142D01*
X69726160Y-49867142D02*
X69869017Y-49902857D01*
X69869017Y-49902857D02*
X69940446Y-49974285D01*
X69940446Y-49974285D02*
X69976160Y-50045714D01*
X69976160Y-50045714D02*
X69976160Y-50188571D01*
X69976160Y-49152857D02*
X69976160Y-49581428D01*
X69976160Y-49367143D02*
X69226160Y-49367143D01*
X69226160Y-49367143D02*
X69333303Y-49438571D01*
X69333303Y-49438571D02*
X69404732Y-49510000D01*
X69404732Y-49510000D02*
X69440446Y-49581428D01*
%TO.C,R3*%
X114682999Y-81301535D02*
X114432999Y-80944392D01*
X114254428Y-81301535D02*
X114254428Y-80551535D01*
X114254428Y-80551535D02*
X114540142Y-80551535D01*
X114540142Y-80551535D02*
X114611571Y-80587250D01*
X114611571Y-80587250D02*
X114647285Y-80622964D01*
X114647285Y-80622964D02*
X114682999Y-80694392D01*
X114682999Y-80694392D02*
X114682999Y-80801535D01*
X114682999Y-80801535D02*
X114647285Y-80872964D01*
X114647285Y-80872964D02*
X114611571Y-80908678D01*
X114611571Y-80908678D02*
X114540142Y-80944392D01*
X114540142Y-80944392D02*
X114254428Y-80944392D01*
X114932999Y-80551535D02*
X115397285Y-80551535D01*
X115397285Y-80551535D02*
X115147285Y-80837250D01*
X115147285Y-80837250D02*
X115254428Y-80837250D01*
X115254428Y-80837250D02*
X115325857Y-80872964D01*
X115325857Y-80872964D02*
X115361571Y-80908678D01*
X115361571Y-80908678D02*
X115397285Y-80980107D01*
X115397285Y-80980107D02*
X115397285Y-81158678D01*
X115397285Y-81158678D02*
X115361571Y-81230107D01*
X115361571Y-81230107D02*
X115325857Y-81265821D01*
X115325857Y-81265821D02*
X115254428Y-81301535D01*
X115254428Y-81301535D02*
X115040142Y-81301535D01*
X115040142Y-81301535D02*
X114968714Y-81265821D01*
X114968714Y-81265821D02*
X114932999Y-81230107D01*
%TO.C,R23*%
X94008481Y-57035535D02*
X93758481Y-56678392D01*
X93579910Y-57035535D02*
X93579910Y-56285535D01*
X93579910Y-56285535D02*
X93865624Y-56285535D01*
X93865624Y-56285535D02*
X93937053Y-56321250D01*
X93937053Y-56321250D02*
X93972767Y-56356964D01*
X93972767Y-56356964D02*
X94008481Y-56428392D01*
X94008481Y-56428392D02*
X94008481Y-56535535D01*
X94008481Y-56535535D02*
X93972767Y-56606964D01*
X93972767Y-56606964D02*
X93937053Y-56642678D01*
X93937053Y-56642678D02*
X93865624Y-56678392D01*
X93865624Y-56678392D02*
X93579910Y-56678392D01*
X94294196Y-56356964D02*
X94329910Y-56321250D01*
X94329910Y-56321250D02*
X94401339Y-56285535D01*
X94401339Y-56285535D02*
X94579910Y-56285535D01*
X94579910Y-56285535D02*
X94651339Y-56321250D01*
X94651339Y-56321250D02*
X94687053Y-56356964D01*
X94687053Y-56356964D02*
X94722767Y-56428392D01*
X94722767Y-56428392D02*
X94722767Y-56499821D01*
X94722767Y-56499821D02*
X94687053Y-56606964D01*
X94687053Y-56606964D02*
X94258481Y-57035535D01*
X94258481Y-57035535D02*
X94722767Y-57035535D01*
X94972767Y-56285535D02*
X95437053Y-56285535D01*
X95437053Y-56285535D02*
X95187053Y-56571250D01*
X95187053Y-56571250D02*
X95294196Y-56571250D01*
X95294196Y-56571250D02*
X95365625Y-56606964D01*
X95365625Y-56606964D02*
X95401339Y-56642678D01*
X95401339Y-56642678D02*
X95437053Y-56714107D01*
X95437053Y-56714107D02*
X95437053Y-56892678D01*
X95437053Y-56892678D02*
X95401339Y-56964107D01*
X95401339Y-56964107D02*
X95365625Y-56999821D01*
X95365625Y-56999821D02*
X95294196Y-57035535D01*
X95294196Y-57035535D02*
X95079910Y-57035535D01*
X95079910Y-57035535D02*
X95008482Y-56999821D01*
X95008482Y-56999821D02*
X94972767Y-56964107D01*
%TO.C,Q3*%
X84440921Y-49831428D02*
X84405207Y-49902857D01*
X84405207Y-49902857D02*
X84333778Y-49974285D01*
X84333778Y-49974285D02*
X84226635Y-50081428D01*
X84226635Y-50081428D02*
X84190921Y-50152857D01*
X84190921Y-50152857D02*
X84190921Y-50224285D01*
X84369492Y-50188571D02*
X84333778Y-50260000D01*
X84333778Y-50260000D02*
X84262349Y-50331428D01*
X84262349Y-50331428D02*
X84119492Y-50367142D01*
X84119492Y-50367142D02*
X83869492Y-50367142D01*
X83869492Y-50367142D02*
X83726635Y-50331428D01*
X83726635Y-50331428D02*
X83655207Y-50260000D01*
X83655207Y-50260000D02*
X83619492Y-50188571D01*
X83619492Y-50188571D02*
X83619492Y-50045714D01*
X83619492Y-50045714D02*
X83655207Y-49974285D01*
X83655207Y-49974285D02*
X83726635Y-49902857D01*
X83726635Y-49902857D02*
X83869492Y-49867142D01*
X83869492Y-49867142D02*
X84119492Y-49867142D01*
X84119492Y-49867142D02*
X84262349Y-49902857D01*
X84262349Y-49902857D02*
X84333778Y-49974285D01*
X84333778Y-49974285D02*
X84369492Y-50045714D01*
X84369492Y-50045714D02*
X84369492Y-50188571D01*
X83619492Y-49617143D02*
X83619492Y-49152857D01*
X83619492Y-49152857D02*
X83905207Y-49402857D01*
X83905207Y-49402857D02*
X83905207Y-49295714D01*
X83905207Y-49295714D02*
X83940921Y-49224286D01*
X83940921Y-49224286D02*
X83976635Y-49188571D01*
X83976635Y-49188571D02*
X84048064Y-49152857D01*
X84048064Y-49152857D02*
X84226635Y-49152857D01*
X84226635Y-49152857D02*
X84298064Y-49188571D01*
X84298064Y-49188571D02*
X84333778Y-49224286D01*
X84333778Y-49224286D02*
X84369492Y-49295714D01*
X84369492Y-49295714D02*
X84369492Y-49510000D01*
X84369492Y-49510000D02*
X84333778Y-49581428D01*
X84333778Y-49581428D02*
X84298064Y-49617143D01*
%TO.C,R15*%
X79152535Y-83974857D02*
X78795392Y-84224857D01*
X79152535Y-84403428D02*
X78402535Y-84403428D01*
X78402535Y-84403428D02*
X78402535Y-84117714D01*
X78402535Y-84117714D02*
X78438250Y-84046285D01*
X78438250Y-84046285D02*
X78473964Y-84010571D01*
X78473964Y-84010571D02*
X78545392Y-83974857D01*
X78545392Y-83974857D02*
X78652535Y-83974857D01*
X78652535Y-83974857D02*
X78723964Y-84010571D01*
X78723964Y-84010571D02*
X78759678Y-84046285D01*
X78759678Y-84046285D02*
X78795392Y-84117714D01*
X78795392Y-84117714D02*
X78795392Y-84403428D01*
X79152535Y-83260571D02*
X79152535Y-83689142D01*
X79152535Y-83474857D02*
X78402535Y-83474857D01*
X78402535Y-83474857D02*
X78509678Y-83546285D01*
X78509678Y-83546285D02*
X78581107Y-83617714D01*
X78581107Y-83617714D02*
X78616821Y-83689142D01*
X78402535Y-82581999D02*
X78402535Y-82939142D01*
X78402535Y-82939142D02*
X78759678Y-82974856D01*
X78759678Y-82974856D02*
X78723964Y-82939142D01*
X78723964Y-82939142D02*
X78688250Y-82867714D01*
X78688250Y-82867714D02*
X78688250Y-82689142D01*
X78688250Y-82689142D02*
X78723964Y-82617714D01*
X78723964Y-82617714D02*
X78759678Y-82581999D01*
X78759678Y-82581999D02*
X78831107Y-82546285D01*
X78831107Y-82546285D02*
X79009678Y-82546285D01*
X79009678Y-82546285D02*
X79081107Y-82581999D01*
X79081107Y-82581999D02*
X79116821Y-82617714D01*
X79116821Y-82617714D02*
X79152535Y-82689142D01*
X79152535Y-82689142D02*
X79152535Y-82867714D01*
X79152535Y-82867714D02*
X79116821Y-82939142D01*
X79116821Y-82939142D02*
X79081107Y-82974856D01*
%TO.C,Q2*%
X77244255Y-49831428D02*
X77208541Y-49902857D01*
X77208541Y-49902857D02*
X77137112Y-49974285D01*
X77137112Y-49974285D02*
X77029969Y-50081428D01*
X77029969Y-50081428D02*
X76994255Y-50152857D01*
X76994255Y-50152857D02*
X76994255Y-50224285D01*
X77172826Y-50188571D02*
X77137112Y-50260000D01*
X77137112Y-50260000D02*
X77065683Y-50331428D01*
X77065683Y-50331428D02*
X76922826Y-50367142D01*
X76922826Y-50367142D02*
X76672826Y-50367142D01*
X76672826Y-50367142D02*
X76529969Y-50331428D01*
X76529969Y-50331428D02*
X76458541Y-50260000D01*
X76458541Y-50260000D02*
X76422826Y-50188571D01*
X76422826Y-50188571D02*
X76422826Y-50045714D01*
X76422826Y-50045714D02*
X76458541Y-49974285D01*
X76458541Y-49974285D02*
X76529969Y-49902857D01*
X76529969Y-49902857D02*
X76672826Y-49867142D01*
X76672826Y-49867142D02*
X76922826Y-49867142D01*
X76922826Y-49867142D02*
X77065683Y-49902857D01*
X77065683Y-49902857D02*
X77137112Y-49974285D01*
X77137112Y-49974285D02*
X77172826Y-50045714D01*
X77172826Y-50045714D02*
X77172826Y-50188571D01*
X76494255Y-49581428D02*
X76458541Y-49545714D01*
X76458541Y-49545714D02*
X76422826Y-49474286D01*
X76422826Y-49474286D02*
X76422826Y-49295714D01*
X76422826Y-49295714D02*
X76458541Y-49224286D01*
X76458541Y-49224286D02*
X76494255Y-49188571D01*
X76494255Y-49188571D02*
X76565683Y-49152857D01*
X76565683Y-49152857D02*
X76637112Y-49152857D01*
X76637112Y-49152857D02*
X76744255Y-49188571D01*
X76744255Y-49188571D02*
X77172826Y-49617143D01*
X77172826Y-49617143D02*
X77172826Y-49152857D01*
%TO.C,D2*%
X129249928Y-79777535D02*
X129249928Y-79027535D01*
X129249928Y-79027535D02*
X129428499Y-79027535D01*
X129428499Y-79027535D02*
X129535642Y-79063250D01*
X129535642Y-79063250D02*
X129607071Y-79134678D01*
X129607071Y-79134678D02*
X129642785Y-79206107D01*
X129642785Y-79206107D02*
X129678499Y-79348964D01*
X129678499Y-79348964D02*
X129678499Y-79456107D01*
X129678499Y-79456107D02*
X129642785Y-79598964D01*
X129642785Y-79598964D02*
X129607071Y-79670392D01*
X129607071Y-79670392D02*
X129535642Y-79741821D01*
X129535642Y-79741821D02*
X129428499Y-79777535D01*
X129428499Y-79777535D02*
X129249928Y-79777535D01*
X129964214Y-79098964D02*
X129999928Y-79063250D01*
X129999928Y-79063250D02*
X130071357Y-79027535D01*
X130071357Y-79027535D02*
X130249928Y-79027535D01*
X130249928Y-79027535D02*
X130321357Y-79063250D01*
X130321357Y-79063250D02*
X130357071Y-79098964D01*
X130357071Y-79098964D02*
X130392785Y-79170392D01*
X130392785Y-79170392D02*
X130392785Y-79241821D01*
X130392785Y-79241821D02*
X130357071Y-79348964D01*
X130357071Y-79348964D02*
X129928499Y-79777535D01*
X129928499Y-79777535D02*
X130392785Y-79777535D01*
%TO.C,U2*%
X62175535Y-37651428D02*
X62782678Y-37651428D01*
X62782678Y-37651428D02*
X62854107Y-37615714D01*
X62854107Y-37615714D02*
X62889821Y-37580000D01*
X62889821Y-37580000D02*
X62925535Y-37508571D01*
X62925535Y-37508571D02*
X62925535Y-37365714D01*
X62925535Y-37365714D02*
X62889821Y-37294285D01*
X62889821Y-37294285D02*
X62854107Y-37258571D01*
X62854107Y-37258571D02*
X62782678Y-37222857D01*
X62782678Y-37222857D02*
X62175535Y-37222857D01*
X62246964Y-36901428D02*
X62211250Y-36865714D01*
X62211250Y-36865714D02*
X62175535Y-36794286D01*
X62175535Y-36794286D02*
X62175535Y-36615714D01*
X62175535Y-36615714D02*
X62211250Y-36544286D01*
X62211250Y-36544286D02*
X62246964Y-36508571D01*
X62246964Y-36508571D02*
X62318392Y-36472857D01*
X62318392Y-36472857D02*
X62389821Y-36472857D01*
X62389821Y-36472857D02*
X62496964Y-36508571D01*
X62496964Y-36508571D02*
X62925535Y-36937143D01*
X62925535Y-36937143D02*
X62925535Y-36472857D01*
%TO.C,C1*%
X105513107Y-60670000D02*
X105548821Y-60705714D01*
X105548821Y-60705714D02*
X105584535Y-60812857D01*
X105584535Y-60812857D02*
X105584535Y-60884285D01*
X105584535Y-60884285D02*
X105548821Y-60991428D01*
X105548821Y-60991428D02*
X105477392Y-61062857D01*
X105477392Y-61062857D02*
X105405964Y-61098571D01*
X105405964Y-61098571D02*
X105263107Y-61134285D01*
X105263107Y-61134285D02*
X105155964Y-61134285D01*
X105155964Y-61134285D02*
X105013107Y-61098571D01*
X105013107Y-61098571D02*
X104941678Y-61062857D01*
X104941678Y-61062857D02*
X104870250Y-60991428D01*
X104870250Y-60991428D02*
X104834535Y-60884285D01*
X104834535Y-60884285D02*
X104834535Y-60812857D01*
X104834535Y-60812857D02*
X104870250Y-60705714D01*
X104870250Y-60705714D02*
X104905964Y-60670000D01*
X105584535Y-59955714D02*
X105584535Y-60384285D01*
X105584535Y-60170000D02*
X104834535Y-60170000D01*
X104834535Y-60170000D02*
X104941678Y-60241428D01*
X104941678Y-60241428D02*
X105013107Y-60312857D01*
X105013107Y-60312857D02*
X105048821Y-60384285D01*
%TO.C,J1*%
X137810000Y-47285535D02*
X137810000Y-47821250D01*
X137810000Y-47821250D02*
X137774285Y-47928392D01*
X137774285Y-47928392D02*
X137702857Y-47999821D01*
X137702857Y-47999821D02*
X137595714Y-48035535D01*
X137595714Y-48035535D02*
X137524285Y-48035535D01*
X138560000Y-48035535D02*
X138131429Y-48035535D01*
X138345714Y-48035535D02*
X138345714Y-47285535D01*
X138345714Y-47285535D02*
X138274286Y-47392678D01*
X138274286Y-47392678D02*
X138202857Y-47464107D01*
X138202857Y-47464107D02*
X138131429Y-47499821D01*
%TO.C,R14*%
X77618535Y-83974857D02*
X77261392Y-84224857D01*
X77618535Y-84403428D02*
X76868535Y-84403428D01*
X76868535Y-84403428D02*
X76868535Y-84117714D01*
X76868535Y-84117714D02*
X76904250Y-84046285D01*
X76904250Y-84046285D02*
X76939964Y-84010571D01*
X76939964Y-84010571D02*
X77011392Y-83974857D01*
X77011392Y-83974857D02*
X77118535Y-83974857D01*
X77118535Y-83974857D02*
X77189964Y-84010571D01*
X77189964Y-84010571D02*
X77225678Y-84046285D01*
X77225678Y-84046285D02*
X77261392Y-84117714D01*
X77261392Y-84117714D02*
X77261392Y-84403428D01*
X77618535Y-83260571D02*
X77618535Y-83689142D01*
X77618535Y-83474857D02*
X76868535Y-83474857D01*
X76868535Y-83474857D02*
X76975678Y-83546285D01*
X76975678Y-83546285D02*
X77047107Y-83617714D01*
X77047107Y-83617714D02*
X77082821Y-83689142D01*
X77118535Y-82617714D02*
X77618535Y-82617714D01*
X76832821Y-82796285D02*
X77368535Y-82974856D01*
X77368535Y-82974856D02*
X77368535Y-82510571D01*
%TO.C,SW2*%
X77409821Y-73389999D02*
X77445535Y-73282857D01*
X77445535Y-73282857D02*
X77445535Y-73104285D01*
X77445535Y-73104285D02*
X77409821Y-73032857D01*
X77409821Y-73032857D02*
X77374107Y-72997142D01*
X77374107Y-72997142D02*
X77302678Y-72961428D01*
X77302678Y-72961428D02*
X77231250Y-72961428D01*
X77231250Y-72961428D02*
X77159821Y-72997142D01*
X77159821Y-72997142D02*
X77124107Y-73032857D01*
X77124107Y-73032857D02*
X77088392Y-73104285D01*
X77088392Y-73104285D02*
X77052678Y-73247142D01*
X77052678Y-73247142D02*
X77016964Y-73318571D01*
X77016964Y-73318571D02*
X76981250Y-73354285D01*
X76981250Y-73354285D02*
X76909821Y-73389999D01*
X76909821Y-73389999D02*
X76838392Y-73389999D01*
X76838392Y-73389999D02*
X76766964Y-73354285D01*
X76766964Y-73354285D02*
X76731250Y-73318571D01*
X76731250Y-73318571D02*
X76695535Y-73247142D01*
X76695535Y-73247142D02*
X76695535Y-73068571D01*
X76695535Y-73068571D02*
X76731250Y-72961428D01*
X76695535Y-72711428D02*
X77445535Y-72532856D01*
X77445535Y-72532856D02*
X76909821Y-72389999D01*
X76909821Y-72389999D02*
X77445535Y-72247142D01*
X77445535Y-72247142D02*
X76695535Y-72068571D01*
X76766964Y-71818570D02*
X76731250Y-71782856D01*
X76731250Y-71782856D02*
X76695535Y-71711428D01*
X76695535Y-71711428D02*
X76695535Y-71532856D01*
X76695535Y-71532856D02*
X76731250Y-71461428D01*
X76731250Y-71461428D02*
X76766964Y-71425713D01*
X76766964Y-71425713D02*
X76838392Y-71389999D01*
X76838392Y-71389999D02*
X76909821Y-71389999D01*
X76909821Y-71389999D02*
X77016964Y-71425713D01*
X77016964Y-71425713D02*
X77445535Y-71854285D01*
X77445535Y-71854285D02*
X77445535Y-71389999D01*
%TO.C,D1*%
X137617428Y-79777535D02*
X137617428Y-79027535D01*
X137617428Y-79027535D02*
X137795999Y-79027535D01*
X137795999Y-79027535D02*
X137903142Y-79063250D01*
X137903142Y-79063250D02*
X137974571Y-79134678D01*
X137974571Y-79134678D02*
X138010285Y-79206107D01*
X138010285Y-79206107D02*
X138045999Y-79348964D01*
X138045999Y-79348964D02*
X138045999Y-79456107D01*
X138045999Y-79456107D02*
X138010285Y-79598964D01*
X138010285Y-79598964D02*
X137974571Y-79670392D01*
X137974571Y-79670392D02*
X137903142Y-79741821D01*
X137903142Y-79741821D02*
X137795999Y-79777535D01*
X137795999Y-79777535D02*
X137617428Y-79777535D01*
X138760285Y-79777535D02*
X138331714Y-79777535D01*
X138545999Y-79777535D02*
X138545999Y-79027535D01*
X138545999Y-79027535D02*
X138474571Y-79134678D01*
X138474571Y-79134678D02*
X138403142Y-79206107D01*
X138403142Y-79206107D02*
X138331714Y-79241821D01*
%TO.C,R16*%
X83411142Y-65934535D02*
X83161142Y-65577392D01*
X82982571Y-65934535D02*
X82982571Y-65184535D01*
X82982571Y-65184535D02*
X83268285Y-65184535D01*
X83268285Y-65184535D02*
X83339714Y-65220250D01*
X83339714Y-65220250D02*
X83375428Y-65255964D01*
X83375428Y-65255964D02*
X83411142Y-65327392D01*
X83411142Y-65327392D02*
X83411142Y-65434535D01*
X83411142Y-65434535D02*
X83375428Y-65505964D01*
X83375428Y-65505964D02*
X83339714Y-65541678D01*
X83339714Y-65541678D02*
X83268285Y-65577392D01*
X83268285Y-65577392D02*
X82982571Y-65577392D01*
X84125428Y-65934535D02*
X83696857Y-65934535D01*
X83911142Y-65934535D02*
X83911142Y-65184535D01*
X83911142Y-65184535D02*
X83839714Y-65291678D01*
X83839714Y-65291678D02*
X83768285Y-65363107D01*
X83768285Y-65363107D02*
X83696857Y-65398821D01*
X84768286Y-65184535D02*
X84625428Y-65184535D01*
X84625428Y-65184535D02*
X84554000Y-65220250D01*
X84554000Y-65220250D02*
X84518286Y-65255964D01*
X84518286Y-65255964D02*
X84446857Y-65363107D01*
X84446857Y-65363107D02*
X84411143Y-65505964D01*
X84411143Y-65505964D02*
X84411143Y-65791678D01*
X84411143Y-65791678D02*
X84446857Y-65863107D01*
X84446857Y-65863107D02*
X84482571Y-65898821D01*
X84482571Y-65898821D02*
X84554000Y-65934535D01*
X84554000Y-65934535D02*
X84696857Y-65934535D01*
X84696857Y-65934535D02*
X84768286Y-65898821D01*
X84768286Y-65898821D02*
X84804000Y-65863107D01*
X84804000Y-65863107D02*
X84839714Y-65791678D01*
X84839714Y-65791678D02*
X84839714Y-65613107D01*
X84839714Y-65613107D02*
X84804000Y-65541678D01*
X84804000Y-65541678D02*
X84768286Y-65505964D01*
X84768286Y-65505964D02*
X84696857Y-65470250D01*
X84696857Y-65470250D02*
X84554000Y-65470250D01*
X84554000Y-65470250D02*
X84482571Y-65505964D01*
X84482571Y-65505964D02*
X84446857Y-65541678D01*
X84446857Y-65541678D02*
X84411143Y-65613107D01*
D13*
%TO.C,C7*%
X131063000Y-64340000D02*
X131063000Y-65150000D01*
X129822000Y-64340000D02*
X129822000Y-65580000D01*
X130382000Y-61506000D02*
X130382000Y-62660000D01*
X131183000Y-64340000D02*
X131183000Y-65052000D01*
X131223000Y-64340000D02*
X131223000Y-65016000D01*
X130583000Y-61576000D02*
X130583000Y-62660000D01*
X131463000Y-62246000D02*
X131463000Y-64754000D01*
X130302000Y-61484000D02*
X130302000Y-62660000D01*
X129782000Y-61420000D02*
X129782000Y-62660000D01*
X130903000Y-61740000D02*
X130903000Y-62660000D01*
X130943000Y-64340000D02*
X130943000Y-65235000D01*
X129822000Y-61420000D02*
X129822000Y-62660000D01*
X131343000Y-64340000D02*
X131343000Y-64896000D01*
X130142000Y-61450000D02*
X130142000Y-62660000D01*
X130783000Y-61670000D02*
X130783000Y-62660000D01*
X130503000Y-61546000D02*
X130503000Y-62660000D01*
X130503000Y-64340000D02*
X130503000Y-65454000D01*
X129942000Y-64340000D02*
X129942000Y-65574000D01*
X131823000Y-62963000D02*
X131823000Y-64037000D01*
X131623000Y-62487000D02*
X131623000Y-64513000D01*
X131863000Y-63130000D02*
X131863000Y-63870000D01*
X130342000Y-61495000D02*
X130342000Y-62660000D01*
X130543000Y-61560000D02*
X130543000Y-62660000D01*
X130022000Y-64340000D02*
X130022000Y-65567000D01*
X130543000Y-64340000D02*
X130543000Y-65440000D01*
X131063000Y-61850000D02*
X131063000Y-62660000D01*
X130462000Y-61532000D02*
X130462000Y-62660000D01*
X130102000Y-64340000D02*
X130102000Y-65556000D01*
X131023000Y-64340000D02*
X131023000Y-65180000D01*
X130222000Y-64340000D02*
X130222000Y-65534000D01*
X131543000Y-62358000D02*
X131543000Y-64642000D01*
X130583000Y-64340000D02*
X130583000Y-65424000D01*
X130422000Y-61518000D02*
X130422000Y-62660000D01*
X131183000Y-61948000D02*
X131183000Y-62660000D01*
X130262000Y-64340000D02*
X130262000Y-65525000D01*
X131583000Y-62420000D02*
X131583000Y-64580000D01*
X131263000Y-64340000D02*
X131263000Y-64978000D01*
X130663000Y-61611000D02*
X130663000Y-62660000D01*
X127512199Y-62305000D02*
X127912199Y-62305000D01*
X130783000Y-64340000D02*
X130783000Y-65330000D01*
X127712199Y-62105000D02*
X127712199Y-62505000D01*
X130142000Y-64340000D02*
X130142000Y-65550000D01*
X129862000Y-61421000D02*
X129862000Y-62660000D01*
X130302000Y-64340000D02*
X130302000Y-65516000D01*
X130062000Y-61438000D02*
X130062000Y-62660000D01*
X131703000Y-62641000D02*
X131703000Y-64359000D01*
X129982000Y-64340000D02*
X129982000Y-65571000D01*
X130222000Y-61466000D02*
X130222000Y-62660000D01*
X130903000Y-64340000D02*
X130903000Y-65260000D01*
X131263000Y-62022000D02*
X131263000Y-62660000D01*
X130382000Y-64340000D02*
X130382000Y-65494000D01*
X131303000Y-64340000D02*
X131303000Y-64938000D01*
X131023000Y-61820000D02*
X131023000Y-62660000D01*
X130623000Y-64340000D02*
X130623000Y-65407000D01*
X130022000Y-61433000D02*
X130022000Y-62660000D01*
X130943000Y-61765000D02*
X130943000Y-62660000D01*
X131383000Y-62149000D02*
X131383000Y-64851000D01*
X130823000Y-61692000D02*
X130823000Y-62660000D01*
X130262000Y-61475000D02*
X130262000Y-62660000D01*
X131343000Y-62104000D02*
X131343000Y-62660000D01*
X129862000Y-64340000D02*
X129862000Y-65579000D01*
X130743000Y-64340000D02*
X130743000Y-65351000D01*
X129782000Y-64340000D02*
X129782000Y-65580000D01*
X130062000Y-64340000D02*
X130062000Y-65562000D01*
X131663000Y-62560000D02*
X131663000Y-64440000D01*
X130863000Y-61715000D02*
X130863000Y-62660000D01*
X130182000Y-61458000D02*
X130182000Y-62660000D01*
X130422000Y-64340000D02*
X130422000Y-65482000D01*
X131103000Y-64340000D02*
X131103000Y-65119000D01*
X130823000Y-64340000D02*
X130823000Y-65308000D01*
X130743000Y-61649000D02*
X130743000Y-62660000D01*
X129902000Y-61423000D02*
X129902000Y-62660000D01*
X131503000Y-62300000D02*
X131503000Y-64700000D01*
X130863000Y-64340000D02*
X130863000Y-65285000D01*
X131103000Y-61881000D02*
X131103000Y-62660000D01*
X129902000Y-64340000D02*
X129902000Y-65577000D01*
X130623000Y-61593000D02*
X130623000Y-62660000D01*
X130703000Y-64340000D02*
X130703000Y-65370000D01*
X130182000Y-64340000D02*
X130182000Y-65542000D01*
X131783000Y-62836000D02*
X131783000Y-64164000D01*
X130983000Y-61792000D02*
X130983000Y-62660000D01*
X130703000Y-61630000D02*
X130703000Y-62660000D01*
X129982000Y-61429000D02*
X129982000Y-62660000D01*
X130663000Y-64340000D02*
X130663000Y-65389000D01*
X130342000Y-64340000D02*
X130342000Y-65505000D01*
X131143000Y-64340000D02*
X131143000Y-65087000D01*
X131223000Y-61984000D02*
X131223000Y-62660000D01*
X130102000Y-61444000D02*
X130102000Y-62660000D01*
X131743000Y-62732000D02*
X131743000Y-64268000D01*
X130983000Y-64340000D02*
X130983000Y-65208000D01*
X131143000Y-61913000D02*
X131143000Y-62660000D01*
X130462000Y-64340000D02*
X130462000Y-65468000D01*
X131303000Y-62062000D02*
X131303000Y-62660000D01*
X131423000Y-62196000D02*
X131423000Y-64804000D01*
X129942000Y-61426000D02*
X129942000Y-62660000D01*
X131902000Y-63500000D02*
G75*
G03*
X131902000Y-63500000I-2120000J0D01*
G01*
%TO.C,J2*%
X141860000Y-34308000D02*
X141860000Y-38608000D01*
X136660000Y-33558000D02*
X136660000Y-35358000D01*
X136660000Y-41858000D02*
X136660000Y-43658000D01*
X136660000Y-35358000D02*
X137410000Y-35358000D01*
X138910000Y-33558000D02*
X138910000Y-34308000D01*
X138910000Y-34308000D02*
X141860000Y-34308000D01*
X136660000Y-36858000D02*
X136660000Y-40358000D01*
X137410000Y-33558000D02*
X136660000Y-33558000D01*
X136360000Y-42708000D02*
X136360000Y-43958000D01*
X136650000Y-33548000D02*
X136650000Y-43668000D01*
X136660000Y-43658000D02*
X137410000Y-43658000D01*
X141860000Y-42908000D02*
X141860000Y-38608000D01*
X137410000Y-36858000D02*
X136660000Y-36858000D01*
X136650000Y-43668000D02*
X142620000Y-43668000D01*
X138910000Y-43658000D02*
X138910000Y-42908000D01*
X138910000Y-42908000D02*
X141860000Y-42908000D01*
X137410000Y-35358000D02*
X137410000Y-33558000D01*
X137410000Y-41858000D02*
X136660000Y-41858000D01*
X136660000Y-40358000D02*
X137410000Y-40358000D01*
X142620000Y-33548000D02*
X136650000Y-33548000D01*
X137410000Y-43658000D02*
X137410000Y-41858000D01*
X137410000Y-40358000D02*
X137410000Y-36858000D01*
X142620000Y-43668000D02*
X142620000Y-33548000D01*
X136360000Y-43958000D02*
X137610000Y-43958000D01*
%TO.C,SW3*%
X93690000Y-80062000D02*
X89190000Y-80062000D01*
X89190000Y-86562000D02*
X93690000Y-86562000D01*
X94940000Y-84062000D02*
X94940000Y-82562000D01*
X87940000Y-82562000D02*
X87940000Y-84062000D01*
%TO.C,SW1*%
X123525000Y-31600000D02*
X119025000Y-31600000D01*
X119025000Y-38100000D02*
X123525000Y-38100000D01*
X124775000Y-35600000D02*
X124775000Y-34100000D01*
X117775000Y-34100000D02*
X117775000Y-35600000D01*
%TO.C,R21*%
X79868000Y-77120000D02*
X83708000Y-77120000D01*
X79868000Y-75280000D02*
X83708000Y-75280000D01*
%TO.C,R12*%
X74670000Y-84915000D02*
X74670000Y-81075000D01*
X72830000Y-84915000D02*
X72830000Y-81075000D01*
%TO.C,R4*%
X112019000Y-46832000D02*
X108179000Y-46832000D01*
X112019000Y-48672000D02*
X108179000Y-48672000D01*
%TO.C,R10*%
X112019000Y-49372000D02*
X108179000Y-49372000D01*
X112019000Y-51212000D02*
X108179000Y-51212000D01*
%TO.C,R20*%
X82017291Y-53920000D02*
X78177291Y-53920000D01*
X82017291Y-55760000D02*
X78177291Y-55760000D01*
%TO.C,R22*%
X89213957Y-53920000D02*
X85373957Y-53920000D01*
X89213957Y-55760000D02*
X85373957Y-55760000D01*
%TO.C,R11*%
X111765000Y-77185000D02*
X107925000Y-77185000D01*
X111765000Y-79025000D02*
X107925000Y-79025000D01*
%TO.C,C4*%
X99672000Y-78370000D02*
X99672000Y-81610000D01*
X99672000Y-81610000D02*
X99607000Y-81610000D01*
X97497000Y-81610000D02*
X97432000Y-81610000D01*
X97497000Y-78370000D02*
X97432000Y-78370000D01*
X97432000Y-78370000D02*
X97432000Y-81610000D01*
X99672000Y-78370000D02*
X99607000Y-78370000D01*
%TO.C,Y1*%
X109792750Y-67435000D02*
X109792750Y-61035000D01*
X114842750Y-67435000D02*
X114842750Y-61035000D01*
X109792750Y-67435000D02*
G75*
G03*
X114842750Y-67435000I2525000J0D01*
G01*
X114842750Y-61035000D02*
G75*
G03*
X109792750Y-61035000I-2525000J0D01*
G01*
%TO.C,R5*%
X112019000Y-51912000D02*
X108179000Y-51912000D01*
X112019000Y-53752000D02*
X108179000Y-53752000D01*
%TO.C,C2*%
X106439000Y-69545000D02*
X106439000Y-66305000D01*
X106439000Y-66305000D02*
X106504000Y-66305000D01*
X108614000Y-66305000D02*
X108679000Y-66305000D01*
X108614000Y-69545000D02*
X108679000Y-69545000D01*
X108679000Y-69545000D02*
X108679000Y-66305000D01*
X106439000Y-69545000D02*
X106504000Y-69545000D01*
%TO.C,R6*%
X112019000Y-44292000D02*
X108179000Y-44292000D01*
X112019000Y-46132000D02*
X108179000Y-46132000D01*
%TO.C,Q4*%
X96700625Y-51560000D02*
X96700625Y-47960000D01*
X96689103Y-47921522D02*
G75*
G03*
X92250625Y-49760000I-1838478J-1838478D01*
G01*
X92250625Y-49760000D02*
G75*
G03*
X96689103Y-51598478I2600000J0D01*
G01*
%TO.C,U3*%
X94100000Y-67260000D02*
X92450000Y-67260000D01*
X88800000Y-67260000D02*
X88800000Y-77540000D01*
X94100000Y-77540000D02*
X94100000Y-67260000D01*
X90450000Y-67260000D02*
X88800000Y-67260000D01*
X88800000Y-77540000D02*
X94100000Y-77540000D01*
X90450000Y-67260000D02*
G75*
G03*
X92450000Y-67260000I1000000J0D01*
G01*
%TO.C,U1*%
X123935000Y-41110000D02*
X122285000Y-41110000D01*
X123935000Y-76790000D02*
X123935000Y-41110000D01*
X120285000Y-41110000D02*
X118635000Y-41110000D01*
X118635000Y-41110000D02*
X118635000Y-76790000D01*
X118635000Y-76790000D02*
X123935000Y-76790000D01*
X120285000Y-41110000D02*
G75*
G03*
X122285000Y-41110000I1000000J0D01*
G01*
%TO.C,R2*%
X121808000Y-82634000D02*
X117968000Y-82634000D01*
X121808000Y-84474000D02*
X117968000Y-84474000D01*
%TO.C,C3*%
X130015000Y-55510000D02*
X130015000Y-58750000D01*
X130015000Y-58750000D02*
X129950000Y-58750000D01*
X127840000Y-58750000D02*
X127775000Y-58750000D01*
X127840000Y-55510000D02*
X127775000Y-55510000D01*
X127775000Y-55510000D02*
X127775000Y-58750000D01*
X130015000Y-55510000D02*
X129950000Y-55510000D01*
%TO.C,R18*%
X79868000Y-74580000D02*
X83708000Y-74580000D01*
X79868000Y-72740000D02*
X83708000Y-72740000D01*
%TO.C,R7*%
X111765000Y-72143000D02*
X107925000Y-72143000D01*
X111765000Y-73983000D02*
X107925000Y-73983000D01*
%TO.C,C5*%
X98214000Y-65936000D02*
X101454000Y-65936000D01*
X101454000Y-65936000D02*
X101454000Y-66001000D01*
X101454000Y-68111000D02*
X101454000Y-68176000D01*
X98214000Y-68111000D02*
X98214000Y-68176000D01*
X98214000Y-68176000D02*
X101454000Y-68176000D01*
X98214000Y-65936000D02*
X98214000Y-66001000D01*
%TO.C,R8*%
X111765000Y-74645000D02*
X107925000Y-74645000D01*
X111765000Y-76485000D02*
X107925000Y-76485000D01*
%TO.C,R13*%
X72130000Y-84915000D02*
X72130000Y-81075000D01*
X70290000Y-84915000D02*
X70290000Y-81075000D01*
%TO.C,R19*%
X74820625Y-53920000D02*
X70980625Y-53920000D01*
X74820625Y-55760000D02*
X70980625Y-55760000D01*
%TO.C,R17*%
X97632000Y-70470000D02*
X97632000Y-74310000D01*
X99472000Y-70470000D02*
X99472000Y-74310000D01*
%TO.C,R9*%
X112029000Y-41752000D02*
X108189000Y-41752000D01*
X112029000Y-43592000D02*
X108189000Y-43592000D01*
%TO.C,C6*%
X114162000Y-57508000D02*
X110922000Y-57508000D01*
X110922000Y-57508000D02*
X110922000Y-57443000D01*
X110922000Y-55333000D02*
X110922000Y-55268000D01*
X114162000Y-55333000D02*
X114162000Y-55268000D01*
X114162000Y-55268000D02*
X110922000Y-55268000D01*
X114162000Y-57508000D02*
X114162000Y-57443000D01*
%TO.C,R1*%
X108179000Y-41052000D02*
X112019000Y-41052000D01*
X108179000Y-39212000D02*
X112019000Y-39212000D01*
%TO.C,Q1*%
X75110625Y-51560000D02*
X75110625Y-47960000D01*
X75099103Y-47921522D02*
G75*
G03*
X70660625Y-49760000I-1838478J-1838478D01*
G01*
X70660625Y-49760000D02*
G75*
G03*
X75099103Y-51598478I2600000J0D01*
G01*
%TO.C,R3*%
X121808000Y-80106000D02*
X117968000Y-80106000D01*
X121808000Y-81946000D02*
X117968000Y-81946000D01*
%TO.C,R23*%
X96410625Y-53920000D02*
X92570625Y-53920000D01*
X96410625Y-55760000D02*
X92570625Y-55760000D01*
%TO.C,Q3*%
X89503957Y-51560000D02*
X89503957Y-47960000D01*
X89492435Y-47921522D02*
G75*
G03*
X85053957Y-49760000I-1838478J-1838478D01*
G01*
X85053957Y-49760000D02*
G75*
G03*
X89492435Y-51598478I2600000J0D01*
G01*
%TO.C,R15*%
X67050000Y-84915000D02*
X67050000Y-81075000D01*
X65210000Y-84915000D02*
X65210000Y-81075000D01*
%TO.C,Q2*%
X82307291Y-51560000D02*
X82307291Y-47960000D01*
X82295769Y-47921522D02*
G75*
G03*
X77857291Y-49760000I-1838478J-1838478D01*
G01*
X77857291Y-49760000D02*
G75*
G03*
X82295769Y-51598478I2600000J0D01*
G01*
%TO.C,D2*%
X128234000Y-81314000D02*
X128234000Y-81470000D01*
X128234000Y-83630000D02*
X128234000Y-83786000D01*
X130835129Y-81470164D02*
G75*
G03*
X128753040Y-81470001I-1041129J-1079836D01*
G01*
X128234001Y-83785515D02*
G75*
G03*
X131466334Y-83628608I1559999J1235515D01*
G01*
X128753040Y-83629999D02*
G75*
G03*
X130835129Y-83629836I1040960J1079999D01*
G01*
X131466334Y-81471392D02*
G75*
G03*
X128234001Y-81314485I-1672334J-1078608D01*
G01*
%TO.C,U2*%
X63590000Y-30570000D02*
X103990000Y-30570000D01*
X73900000Y-43760000D02*
X75900000Y-43760000D01*
X63590000Y-43590000D02*
X103990000Y-43590000D01*
X103990000Y-43590000D02*
X103990000Y-30570000D01*
X63590000Y-43590000D02*
X63590000Y-30570000D01*
%TO.C,C1*%
X106439000Y-62165000D02*
X106439000Y-58925000D01*
X106439000Y-58925000D02*
X106504000Y-58925000D01*
X108614000Y-58925000D02*
X108679000Y-58925000D01*
X108614000Y-62165000D02*
X108679000Y-62165000D01*
X108679000Y-62165000D02*
X108679000Y-58925000D01*
X106439000Y-62165000D02*
X106504000Y-62165000D01*
%TO.C,J1*%
X133500000Y-69230000D02*
X133500000Y-48650000D01*
X133500000Y-56890000D02*
X134810000Y-56890000D01*
X141310000Y-49950000D02*
X141310000Y-67930000D01*
X132110000Y-53360000D02*
X132110000Y-54360000D01*
X141310000Y-67930000D02*
X134810000Y-67930000D01*
X134810000Y-60990000D02*
X134810000Y-60990000D01*
X134810000Y-49950000D02*
X141310000Y-49950000D01*
X134810000Y-60990000D02*
X133500000Y-60990000D01*
X133110000Y-53860000D02*
X132110000Y-53360000D01*
X142620000Y-69230000D02*
X133500000Y-69230000D01*
X134810000Y-56890000D02*
X134810000Y-49950000D01*
X134810000Y-67930000D02*
X134810000Y-60990000D01*
X132110000Y-54360000D02*
X133110000Y-53860000D01*
X142620000Y-48650000D02*
X142620000Y-69230000D01*
X133500000Y-48650000D02*
X142620000Y-48650000D01*
%TO.C,R14*%
X69590000Y-84915000D02*
X69590000Y-81075000D01*
X67750000Y-84915000D02*
X67750000Y-81075000D01*
%TO.C,SW2*%
X70575000Y-70360000D02*
X70575000Y-74420000D01*
X73115000Y-70360000D02*
X73115000Y-74420000D01*
X65565000Y-70360000D02*
X65565000Y-71713333D01*
X65495000Y-74420000D02*
X66765000Y-74420000D01*
X68345000Y-70360000D02*
X68345000Y-71713333D01*
X66165000Y-70360000D02*
X66165000Y-71713333D01*
X69305000Y-71713333D02*
X68035000Y-71713333D01*
X76410000Y-67200000D02*
X75027000Y-67200000D01*
X73545000Y-70360000D02*
X73545000Y-71713333D01*
X68035000Y-74420000D02*
X69305000Y-74420000D01*
X66045000Y-70360000D02*
X66045000Y-71713333D01*
X73785000Y-70360000D02*
X73785000Y-71713333D01*
X69065000Y-70360000D02*
X69065000Y-71713333D01*
X66525000Y-70360000D02*
X66525000Y-71713333D01*
X68035000Y-70360000D02*
X68035000Y-74420000D01*
X73905000Y-70360000D02*
X73905000Y-71713333D01*
X70575000Y-74420000D02*
X71845000Y-74420000D01*
X69185000Y-70360000D02*
X69185000Y-71713333D01*
X66285000Y-70360000D02*
X66285000Y-71713333D01*
X74385000Y-71713333D02*
X73115000Y-71713333D01*
X71245000Y-70360000D02*
X71245000Y-71713333D01*
X73305000Y-70360000D02*
X73305000Y-71713333D01*
X63710000Y-67440000D02*
X63710000Y-77340000D01*
X65925000Y-70360000D02*
X65925000Y-71713333D01*
X73185000Y-70360000D02*
X73185000Y-71713333D01*
X68825000Y-70360000D02*
X68825000Y-71713333D01*
X74385000Y-70360000D02*
X73115000Y-70360000D01*
X65495000Y-70360000D02*
X65495000Y-74420000D01*
X68225000Y-70360000D02*
X68225000Y-71713333D01*
X68945000Y-70360000D02*
X68945000Y-71713333D01*
X71605000Y-70360000D02*
X71605000Y-71713333D01*
X71125000Y-70360000D02*
X71125000Y-71713333D01*
X73665000Y-70360000D02*
X73665000Y-71713333D01*
X66765000Y-74420000D02*
X66765000Y-70360000D01*
X66765000Y-71713333D02*
X65495000Y-71713333D01*
X68105000Y-70360000D02*
X68105000Y-71713333D01*
X66765000Y-70360000D02*
X65495000Y-70360000D01*
X74025000Y-70360000D02*
X74025000Y-71713333D01*
X76170000Y-67440000D02*
X76170000Y-77340000D01*
X74385000Y-74420000D02*
X74385000Y-70360000D01*
X74145000Y-70360000D02*
X74145000Y-71713333D01*
X69305000Y-70360000D02*
X68035000Y-70360000D01*
X73115000Y-74420000D02*
X74385000Y-74420000D01*
X76170000Y-77340000D02*
X63710000Y-77340000D01*
X70765000Y-70360000D02*
X70765000Y-71713333D01*
X66405000Y-70360000D02*
X66405000Y-71713333D01*
X71485000Y-70360000D02*
X71485000Y-71713333D01*
X73425000Y-70360000D02*
X73425000Y-71713333D01*
X71845000Y-71713333D02*
X70575000Y-71713333D01*
X71365000Y-70360000D02*
X71365000Y-71713333D01*
X65685000Y-70360000D02*
X65685000Y-71713333D01*
X65805000Y-70360000D02*
X65805000Y-71713333D01*
X68465000Y-70360000D02*
X68465000Y-71713333D01*
X71005000Y-70360000D02*
X71005000Y-71713333D01*
X76410000Y-67200000D02*
X76410000Y-68584000D01*
X76170000Y-67440000D02*
X63710000Y-67440000D01*
X71845000Y-74420000D02*
X71845000Y-70360000D01*
X68705000Y-70360000D02*
X68705000Y-71713333D01*
X70645000Y-70360000D02*
X70645000Y-71713333D01*
X71725000Y-70360000D02*
X71725000Y-71713333D01*
X69305000Y-74420000D02*
X69305000Y-70360000D01*
X68585000Y-70360000D02*
X68585000Y-71713333D01*
X66645000Y-70360000D02*
X66645000Y-71713333D01*
X71845000Y-70360000D02*
X70575000Y-70360000D01*
X70885000Y-70360000D02*
X70885000Y-71713333D01*
X74265000Y-70360000D02*
X74265000Y-71713333D01*
%TO.C,D1*%
X136611000Y-81314000D02*
X136611000Y-81470000D01*
X136611000Y-83630000D02*
X136611000Y-83786000D01*
X139212129Y-81470164D02*
G75*
G03*
X137130040Y-81470001I-1041129J-1079836D01*
G01*
X136611001Y-83785515D02*
G75*
G03*
X139843334Y-83628608I1559999J1235515D01*
G01*
X137130040Y-83629999D02*
G75*
G03*
X139212129Y-83629836I1040960J1079999D01*
G01*
X139843334Y-81471392D02*
G75*
G03*
X136611001Y-81314485I-1672334J-1078608D01*
G01*
%TO.C,R16*%
X79868000Y-72040000D02*
X83708000Y-72040000D01*
X79868000Y-70200000D02*
X83708000Y-70200000D01*
%TD*%
M02*
