M48
; DRILL file {KiCad 7.0.1-3b83917a11~172~ubuntu22.04.1} date Sun 16 Apr 2023 08:42:17 PM AWST
; FORMAT={-:-/ absolute / inch / decimal}
; #@! TF.CreationDate,2023-04-16T20:42:17+08:00
; #@! TF.GenerationSoftware,Kicad,Pcbnew,7.0.1-3b83917a11~172~ubuntu22.04.1
; #@! TF.FileFunction,Plated,1,4,PTH
FMAT,2
INCH
; #@! TA.AperFunction,Plated,PTH,ViaDrill
T1C0.0059
; #@! TA.AperFunction,Plated,PTH,ComponentDrill
T2C0.0295
; #@! TA.AperFunction,Plated,PTH,ComponentDrill
T3C0.0315
; #@! TA.AperFunction,Plated,PTH,ComponentDrill
T4C0.0354
; #@! TA.AperFunction,Plated,PTH,ComponentDrill
T5C0.0394
; #@! TA.AperFunction,Plated,PTH,ComponentDrill
T6C0.0433
; #@! TA.AperFunction,Plated,PTH,ComponentDrill
T7C0.0472
; #@! TA.AperFunction,Plated,PTH,ComponentDrill
T8C0.0866
; #@! TA.AperFunction,Plated,PTH,ComponentDrill
T9C0.1171
%
G90
G05
T1
X3.99Y-2.19
X3.99Y-2.22
X3.99Y-2.25
X3.99Y-2.28
X5.435Y-2.34
T2
X2.8843Y-1.84
X2.8843Y-1.89
X2.8843Y-1.94
X3.1676Y-1.84
X3.1676Y-1.89
X3.1676Y-1.94
X3.4509Y-1.84
X3.4509Y-1.89
X3.4509Y-1.94
X3.7343Y-1.84
X3.7343Y-1.89
X3.7343Y-1.94
T3
X2.46Y-2.11
X2.53Y-2.7077
X2.53Y-3.0077
X2.63Y-2.7077
X2.63Y-3.0077
X2.73Y-2.7077
X2.73Y-3.0077
X2.76Y-2.11
X2.83Y-2.7077
X2.83Y-3.0077
X2.86Y-2.11
X2.9488Y-1.2598
X2.9488Y-1.6598
X3.01Y-2.67
X3.01Y-2.81
X3.01Y-2.95
X3.01Y-3.09
X3.01Y-3.23
X3.01Y-3.37
X3.0488Y-1.2598
X3.0488Y-1.6598
X3.1488Y-1.2598
X3.1488Y-1.6598
X3.16Y-2.11
X3.2488Y-1.2598
X3.2488Y-1.6598
X3.26Y-2.11
X3.31Y-2.67
X3.31Y-2.81
X3.31Y-2.95
X3.31Y-3.09
X3.31Y-3.23
X3.31Y-3.37
X3.3488Y-1.2598
X3.3488Y-1.6598
X3.4404Y-2.71
X3.4404Y-2.81
X3.4404Y-2.91
X3.4404Y-3.01
X3.4488Y-1.2598
X3.4488Y-1.6598
X3.5488Y-1.2598
X3.5488Y-1.6598
X3.56Y-2.11
X3.6488Y-1.2598
X3.6488Y-1.6598
X3.66Y-2.11
X3.7404Y-2.71
X3.7404Y-2.81
X3.7404Y-2.91
X3.7404Y-3.01
X3.87Y-2.69
X3.89Y-2.81
X3.89Y-3.11
X3.89Y-3.2308
X3.89Y-3.3292
X3.96Y-2.11
X3.9684Y-2.69
X4.19Y-1.24
X4.19Y-1.38
X4.19Y-1.52
X4.19Y-1.66
X4.19Y-1.8
X4.19Y-1.94
X4.19Y-2.08
X4.19Y-2.8765
X4.19Y-3.02
X4.19Y-3.16
X4.19Y-3.3
X4.19Y-3.44
X4.2346Y-2.3344
X4.2346Y-2.4329
X4.2346Y-2.625
X4.2346Y-2.7234
X4.3816Y-2.22
X4.422Y-2.4329
X4.422Y-2.625
X4.48Y-2.22
X4.49Y-1.24
X4.49Y-1.38
X4.49Y-1.52
X4.49Y-1.66
X4.49Y-1.8
X4.49Y-1.94
X4.49Y-2.08
X4.49Y-2.8765
X4.49Y-3.02
X4.49Y-3.16
X4.49Y-3.3
X4.49Y-3.44
X4.62Y-3.16
X4.62Y-3.3
X4.625Y-1.6709
X4.625Y-1.7709
X4.625Y-1.8709
X4.625Y-1.9709
X4.625Y-2.0709
X4.625Y-2.1709
X4.625Y-2.2709
X4.625Y-2.3709
X4.625Y-2.4709
X4.625Y-2.5709
X4.625Y-2.6709
X4.625Y-2.7709
X4.625Y-2.8709
X4.625Y-2.9709
X4.92Y-3.16
X4.92Y-3.3
X4.925Y-1.6709
X4.925Y-1.7709
X4.925Y-1.8709
X4.925Y-1.9709
X4.925Y-2.0709
X4.925Y-2.1709
X4.925Y-2.2709
X4.925Y-2.3709
X4.925Y-2.4709
X4.925Y-2.5709
X4.925Y-2.6709
X4.925Y-2.7709
X4.925Y-2.8709
X4.925Y-2.9709
X5.03Y-1.3408
X5.03Y-1.4392
X5.06Y-1.96
X5.06Y-2.1
X5.07Y-2.2808
X5.07Y-2.3792
X5.36Y-1.96
X5.36Y-2.1
T4
X5.12Y-3.16
X5.22Y-3.16
X5.4Y-3.16
X5.5Y-3.16
T5
X5.385Y-2.5
X5.385Y-2.6
X5.385Y-2.7
X5.485Y-2.5
X5.485Y-2.6
X5.485Y-2.7
T6
X3.462Y-3.201
X3.462Y-3.3782
X3.718Y-3.201
X3.718Y-3.3782
X4.6467Y-1.2835
X4.6467Y-1.4606
X4.9026Y-1.2835
X4.9026Y-1.4606
T7
X5.62Y-1.4231
X5.62Y-1.5216
X5.62Y-1.62
T8
X2.4Y-1.1
X2.4Y-3.5409
X5.6283Y-1.1
X5.6283Y-3.5409
T9
X5.3444Y-1.3483
X5.3444Y-1.6948
T0
M30
