M48
; DRILL file {KiCad 7.0.0-da2b9df05c~163~ubuntu22.04.1} date Sun 19 Feb 2023 08:51:07 PM AWST
; FORMAT={-:-/ absolute / inch / decimal}
; #@! TF.CreationDate,2023-02-19T20:51:07+08:00
; #@! TF.GenerationSoftware,Kicad,Pcbnew,7.0.0-da2b9df05c~163~ubuntu22.04.1
; #@! TF.FileFunction,Plated,1,4,PTH
FMAT,2
INCH
; #@! TA.AperFunction,Plated,PTH,ViaDrill
T1C0.0079
; #@! TA.AperFunction,Plated,PTH,ComponentDrill
T2C0.0276
; #@! TA.AperFunction,Plated,PTH,ComponentDrill
T3C0.0295
; #@! TA.AperFunction,Plated,PTH,ComponentDrill
T4C0.0315
; #@! TA.AperFunction,Plated,PTH,ComponentDrill
T5C0.0354
; #@! TA.AperFunction,Plated,PTH,ComponentDrill
T6C0.0374
; #@! TA.AperFunction,Plated,PTH,ComponentDrill
T7C0.0394
; #@! TA.AperFunction,Plated,PTH,ComponentDrill
T8C0.0433
; #@! TA.AperFunction,Plated,PTH,ComponentDrill
T9C0.0866
%
G90
G05
T1
X4.02Y-2.04
X4.02Y-2.08
X4.02Y-2.12
X4.02Y-2.16
T2
X2.6035Y-3.1675
X2.6035Y-3.3675
X2.7035Y-3.1675
X2.7035Y-3.3675
X2.7701Y-2.1591
X2.8035Y-3.1675
X2.8035Y-3.3675
X2.9035Y-3.1675
X2.9035Y-3.3675
X2.9488Y-1.2598
X2.9488Y-1.6598
X2.9701Y-2.1591
X3.0488Y-1.2598
X3.0488Y-1.6598
X3.0534Y-2.1591
X3.12Y-2.8
X3.12Y-2.9
X3.12Y-3.0
X3.1488Y-1.2598
X3.1488Y-1.6598
X3.2488Y-1.2598
X3.2488Y-1.6598
X3.2534Y-2.1591
X3.32Y-2.8
X3.32Y-2.9
X3.32Y-3.0
X3.3368Y-2.1591
X3.3488Y-1.6598
X3.4488Y-1.2598
X3.4488Y-1.6598
X3.5368Y-2.1591
X3.5488Y-1.6598
X3.6201Y-2.1591
X3.6488Y-1.2598
X3.6488Y-1.6598
X3.8201Y-2.1591
X3.88Y-2.75
X3.88Y-2.95
X4.2246Y-2.8765
X4.2246Y-2.975
X4.2246Y-3.075
X4.2346Y-1.58
X4.2346Y-1.78
X4.2346Y-1.88
X4.2346Y-1.98
X4.2346Y-2.08
X4.235Y-1.68
X4.4246Y-2.8765
X4.4246Y-2.975
X4.4246Y-3.075
X4.4346Y-1.58
X4.4346Y-1.78
X4.4346Y-1.88
X4.4346Y-1.98
X4.4346Y-2.08
X4.435Y-1.68
X4.8605Y-3.38
X5.0605Y-3.38
X5.1898Y-3.38
X5.3898Y-3.38
T3
X2.8843Y-1.9091
X2.8843Y-1.9591
X2.8843Y-2.0091
X3.1676Y-1.9091
X3.1676Y-1.9591
X3.1676Y-2.0091
X3.4509Y-1.9091
X3.4509Y-1.9591
X3.4509Y-2.0091
X3.7343Y-1.9091
X3.7343Y-1.9591
X3.7343Y-2.0091
T4
X2.6035Y-2.7
X2.6035Y-3.0
X2.7035Y-2.7
X2.7035Y-3.0
X2.8035Y-2.7
X2.8035Y-3.0
X2.9035Y-2.7
X2.9035Y-3.0
X3.4504Y-2.7004
X3.4504Y-2.8004
X3.4504Y-2.9004
X3.4504Y-3.0004
X3.7504Y-2.7004
X3.7504Y-2.8004
X3.7504Y-2.9004
X3.7504Y-3.0004
X3.88Y-3.1
X3.88Y-3.1984
X3.8813Y-2.64
X3.9797Y-2.64
X4.2346Y-2.3344
X4.2346Y-2.4329
X4.2346Y-2.625
X4.2346Y-2.7234
X4.3816Y-2.22
X4.422Y-2.4329
X4.422Y-2.625
X4.48Y-2.22
X4.625Y-1.6709
X4.625Y-1.7709
X4.625Y-1.8709
X4.625Y-1.9709
X4.625Y-2.0709
X4.625Y-2.1709
X4.625Y-2.2709
X4.625Y-2.3709
X4.625Y-2.4709
X4.625Y-2.5709
X4.625Y-2.6709
X4.625Y-2.7709
X4.625Y-2.8709
X4.625Y-2.9709
X4.925Y-1.6709
X4.925Y-1.7709
X4.925Y-1.8709
X4.925Y-1.9709
X4.925Y-2.0709
X4.925Y-2.1709
X4.925Y-2.2709
X4.925Y-2.3709
X4.925Y-2.4709
X4.925Y-2.5709
X4.925Y-2.6709
X4.925Y-2.7709
X4.925Y-2.8709
X4.925Y-2.9709
X5.0746Y-2.2
X5.0746Y-2.2984
T5
X5.06Y-3.2
X5.16Y-3.2
X5.3898Y-3.2
X5.4898Y-3.2
T6
X5.4768Y-1.4216
X5.4768Y-1.52
X5.4768Y-1.6184
T7
X5.3854Y-2.1205
X5.3854Y-2.2205
X5.3854Y-2.3205
X5.3854Y-2.4205
X5.3854Y-2.5205
X5.4854Y-2.1205
X5.4854Y-2.2205
X5.4854Y-2.3205
X5.4854Y-2.4205
X5.4854Y-2.5205
T8
X3.472Y-3.1914
X3.472Y-3.3686
X3.728Y-3.1914
X3.728Y-3.3686
X4.6467Y-1.2835
X4.6467Y-1.4606
X4.9026Y-1.2835
X4.9026Y-1.4606
T9
X2.4Y-1.1
X2.4Y-3.5409
X5.6283Y-1.1
X5.6283Y-3.5409
T0
M30
