%TF.GenerationSoftware,KiCad,Pcbnew,7.0.0-da2b9df05c~163~ubuntu22.04.1*%
%TF.CreationDate,2023-02-25T19:34:11+08:00*%
%TF.ProjectId,circuit,63697263-7569-4742-9e6b-696361645f70,1.0*%
%TF.SameCoordinates,Original*%
%TF.FileFunction,Legend,Top*%
%TF.FilePolarity,Positive*%
%FSLAX46Y46*%
G04 Gerber Fmt 4.6, Leading zero omitted, Abs format (unit mm)*
G04 Created by KiCad (PCBNEW 7.0.0-da2b9df05c~163~ubuntu22.04.1) date 2023-02-25 19:34:11*
%MOMM*%
%LPD*%
G01*
G04 APERTURE LIST*
%ADD10C,0.100000*%
%ADD11C,0.300000*%
%ADD12C,0.150000*%
G04 APERTURE END LIST*
D10*
X84455000Y-69342000D02*
X82169000Y-69342000D01*
X113401000Y-38100000D02*
X113401000Y-35052000D01*
X109845000Y-38100000D02*
X113401000Y-38100000D01*
X105156000Y-72390000D02*
X102616000Y-72390000D01*
X76708000Y-88392000D02*
X74422000Y-88392000D01*
X82169000Y-67056000D02*
X82169000Y-69342000D01*
X76708000Y-86106000D02*
X76708000Y-88392000D01*
X105156000Y-72390000D02*
X105156000Y-74930000D01*
D11*
X65869286Y-61330000D02*
X66583572Y-61330000D01*
X65726429Y-61758571D02*
X66226429Y-60258571D01*
X66226429Y-60258571D02*
X66726429Y-61758571D01*
X67012143Y-60258571D02*
X67869286Y-60258571D01*
X67440714Y-61758571D02*
X67440714Y-60258571D01*
X68369285Y-61758571D02*
X68369285Y-60258571D01*
X68369285Y-60258571D02*
X68869285Y-61330000D01*
X68869285Y-61330000D02*
X69369285Y-60258571D01*
X69369285Y-60258571D02*
X69369285Y-61758571D01*
X70083571Y-60972857D02*
X70583571Y-60972857D01*
X70797857Y-61758571D02*
X70083571Y-61758571D01*
X70083571Y-61758571D02*
X70083571Y-60258571D01*
X70083571Y-60258571D02*
X70797857Y-60258571D01*
X72226429Y-60330000D02*
X72083572Y-60258571D01*
X72083572Y-60258571D02*
X71869286Y-60258571D01*
X71869286Y-60258571D02*
X71655000Y-60330000D01*
X71655000Y-60330000D02*
X71512143Y-60472857D01*
X71512143Y-60472857D02*
X71440714Y-60615714D01*
X71440714Y-60615714D02*
X71369286Y-60901428D01*
X71369286Y-60901428D02*
X71369286Y-61115714D01*
X71369286Y-61115714D02*
X71440714Y-61401428D01*
X71440714Y-61401428D02*
X71512143Y-61544285D01*
X71512143Y-61544285D02*
X71655000Y-61687142D01*
X71655000Y-61687142D02*
X71869286Y-61758571D01*
X71869286Y-61758571D02*
X72012143Y-61758571D01*
X72012143Y-61758571D02*
X72226429Y-61687142D01*
X72226429Y-61687142D02*
X72297857Y-61615714D01*
X72297857Y-61615714D02*
X72297857Y-61115714D01*
X72297857Y-61115714D02*
X72012143Y-61115714D01*
X72869286Y-61330000D02*
X73583572Y-61330000D01*
X72726429Y-61758571D02*
X73226429Y-60258571D01*
X73226429Y-60258571D02*
X73726429Y-61758571D01*
X74440714Y-60901428D02*
X74297857Y-60830000D01*
X74297857Y-60830000D02*
X74226428Y-60758571D01*
X74226428Y-60758571D02*
X74155000Y-60615714D01*
X74155000Y-60615714D02*
X74155000Y-60544285D01*
X74155000Y-60544285D02*
X74226428Y-60401428D01*
X74226428Y-60401428D02*
X74297857Y-60330000D01*
X74297857Y-60330000D02*
X74440714Y-60258571D01*
X74440714Y-60258571D02*
X74726428Y-60258571D01*
X74726428Y-60258571D02*
X74869286Y-60330000D01*
X74869286Y-60330000D02*
X74940714Y-60401428D01*
X74940714Y-60401428D02*
X75012143Y-60544285D01*
X75012143Y-60544285D02*
X75012143Y-60615714D01*
X75012143Y-60615714D02*
X74940714Y-60758571D01*
X74940714Y-60758571D02*
X74869286Y-60830000D01*
X74869286Y-60830000D02*
X74726428Y-60901428D01*
X74726428Y-60901428D02*
X74440714Y-60901428D01*
X74440714Y-60901428D02*
X74297857Y-60972857D01*
X74297857Y-60972857D02*
X74226428Y-61044285D01*
X74226428Y-61044285D02*
X74155000Y-61187142D01*
X74155000Y-61187142D02*
X74155000Y-61472857D01*
X74155000Y-61472857D02*
X74226428Y-61615714D01*
X74226428Y-61615714D02*
X74297857Y-61687142D01*
X74297857Y-61687142D02*
X74440714Y-61758571D01*
X74440714Y-61758571D02*
X74726428Y-61758571D01*
X74726428Y-61758571D02*
X74869286Y-61687142D01*
X74869286Y-61687142D02*
X74940714Y-61615714D01*
X74940714Y-61615714D02*
X75012143Y-61472857D01*
X75012143Y-61472857D02*
X75012143Y-61187142D01*
X75012143Y-61187142D02*
X74940714Y-61044285D01*
X74940714Y-61044285D02*
X74869286Y-60972857D01*
X74869286Y-60972857D02*
X74726428Y-60901428D01*
X75583571Y-61330000D02*
X76297857Y-61330000D01*
X75440714Y-61758571D02*
X75940714Y-60258571D01*
X75940714Y-60258571D02*
X76440714Y-61758571D01*
X77840713Y-60972857D02*
X78340713Y-60972857D01*
X78554999Y-61758571D02*
X77840713Y-61758571D01*
X77840713Y-61758571D02*
X77840713Y-60258571D01*
X77840713Y-60258571D02*
X78554999Y-60258571D01*
X79054999Y-60758571D02*
X79412142Y-61758571D01*
X79412142Y-61758571D02*
X79769285Y-60758571D01*
X80983571Y-61758571D02*
X80983571Y-60972857D01*
X80983571Y-60972857D02*
X80912142Y-60830000D01*
X80912142Y-60830000D02*
X80769285Y-60758571D01*
X80769285Y-60758571D02*
X80483571Y-60758571D01*
X80483571Y-60758571D02*
X80340713Y-60830000D01*
X80983571Y-61687142D02*
X80840713Y-61758571D01*
X80840713Y-61758571D02*
X80483571Y-61758571D01*
X80483571Y-61758571D02*
X80340713Y-61687142D01*
X80340713Y-61687142D02*
X80269285Y-61544285D01*
X80269285Y-61544285D02*
X80269285Y-61401428D01*
X80269285Y-61401428D02*
X80340713Y-61258571D01*
X80340713Y-61258571D02*
X80483571Y-61187142D01*
X80483571Y-61187142D02*
X80840713Y-61187142D01*
X80840713Y-61187142D02*
X80983571Y-61115714D01*
X81912142Y-61758571D02*
X81769285Y-61687142D01*
X81769285Y-61687142D02*
X81697856Y-61544285D01*
X81697856Y-61544285D02*
X81697856Y-60258571D01*
X83126428Y-60758571D02*
X83126428Y-61758571D01*
X82483570Y-60758571D02*
X82483570Y-61544285D01*
X82483570Y-61544285D02*
X82554999Y-61687142D01*
X82554999Y-61687142D02*
X82697856Y-61758571D01*
X82697856Y-61758571D02*
X82912142Y-61758571D01*
X82912142Y-61758571D02*
X83054999Y-61687142D01*
X83054999Y-61687142D02*
X83126428Y-61615714D01*
X84483571Y-61758571D02*
X84483571Y-60972857D01*
X84483571Y-60972857D02*
X84412142Y-60830000D01*
X84412142Y-60830000D02*
X84269285Y-60758571D01*
X84269285Y-60758571D02*
X83983571Y-60758571D01*
X83983571Y-60758571D02*
X83840713Y-60830000D01*
X84483571Y-61687142D02*
X84340713Y-61758571D01*
X84340713Y-61758571D02*
X83983571Y-61758571D01*
X83983571Y-61758571D02*
X83840713Y-61687142D01*
X83840713Y-61687142D02*
X83769285Y-61544285D01*
X83769285Y-61544285D02*
X83769285Y-61401428D01*
X83769285Y-61401428D02*
X83840713Y-61258571D01*
X83840713Y-61258571D02*
X83983571Y-61187142D01*
X83983571Y-61187142D02*
X84340713Y-61187142D01*
X84340713Y-61187142D02*
X84483571Y-61115714D01*
X84983571Y-60758571D02*
X85554999Y-60758571D01*
X85197856Y-60258571D02*
X85197856Y-61544285D01*
X85197856Y-61544285D02*
X85269285Y-61687142D01*
X85269285Y-61687142D02*
X85412142Y-61758571D01*
X85412142Y-61758571D02*
X85554999Y-61758571D01*
X86054999Y-61758571D02*
X86054999Y-60758571D01*
X86054999Y-60258571D02*
X85983571Y-60330000D01*
X85983571Y-60330000D02*
X86054999Y-60401428D01*
X86054999Y-60401428D02*
X86126428Y-60330000D01*
X86126428Y-60330000D02*
X86054999Y-60258571D01*
X86054999Y-60258571D02*
X86054999Y-60401428D01*
X86983571Y-61758571D02*
X86840714Y-61687142D01*
X86840714Y-61687142D02*
X86769285Y-61615714D01*
X86769285Y-61615714D02*
X86697857Y-61472857D01*
X86697857Y-61472857D02*
X86697857Y-61044285D01*
X86697857Y-61044285D02*
X86769285Y-60901428D01*
X86769285Y-60901428D02*
X86840714Y-60830000D01*
X86840714Y-60830000D02*
X86983571Y-60758571D01*
X86983571Y-60758571D02*
X87197857Y-60758571D01*
X87197857Y-60758571D02*
X87340714Y-60830000D01*
X87340714Y-60830000D02*
X87412143Y-60901428D01*
X87412143Y-60901428D02*
X87483571Y-61044285D01*
X87483571Y-61044285D02*
X87483571Y-61472857D01*
X87483571Y-61472857D02*
X87412143Y-61615714D01*
X87412143Y-61615714D02*
X87340714Y-61687142D01*
X87340714Y-61687142D02*
X87197857Y-61758571D01*
X87197857Y-61758571D02*
X86983571Y-61758571D01*
X88126428Y-60758571D02*
X88126428Y-61758571D01*
X88126428Y-60901428D02*
X88197857Y-60830000D01*
X88197857Y-60830000D02*
X88340714Y-60758571D01*
X88340714Y-60758571D02*
X88555000Y-60758571D01*
X88555000Y-60758571D02*
X88697857Y-60830000D01*
X88697857Y-60830000D02*
X88769286Y-60972857D01*
X88769286Y-60972857D02*
X88769286Y-61758571D01*
X90883571Y-60972857D02*
X91097857Y-61044285D01*
X91097857Y-61044285D02*
X91169286Y-61115714D01*
X91169286Y-61115714D02*
X91240714Y-61258571D01*
X91240714Y-61258571D02*
X91240714Y-61472857D01*
X91240714Y-61472857D02*
X91169286Y-61615714D01*
X91169286Y-61615714D02*
X91097857Y-61687142D01*
X91097857Y-61687142D02*
X90955000Y-61758571D01*
X90955000Y-61758571D02*
X90383571Y-61758571D01*
X90383571Y-61758571D02*
X90383571Y-60258571D01*
X90383571Y-60258571D02*
X90883571Y-60258571D01*
X90883571Y-60258571D02*
X91026429Y-60330000D01*
X91026429Y-60330000D02*
X91097857Y-60401428D01*
X91097857Y-60401428D02*
X91169286Y-60544285D01*
X91169286Y-60544285D02*
X91169286Y-60687142D01*
X91169286Y-60687142D02*
X91097857Y-60830000D01*
X91097857Y-60830000D02*
X91026429Y-60901428D01*
X91026429Y-60901428D02*
X90883571Y-60972857D01*
X90883571Y-60972857D02*
X90383571Y-60972857D01*
X92097857Y-61758571D02*
X91955000Y-61687142D01*
X91955000Y-61687142D02*
X91883571Y-61615714D01*
X91883571Y-61615714D02*
X91812143Y-61472857D01*
X91812143Y-61472857D02*
X91812143Y-61044285D01*
X91812143Y-61044285D02*
X91883571Y-60901428D01*
X91883571Y-60901428D02*
X91955000Y-60830000D01*
X91955000Y-60830000D02*
X92097857Y-60758571D01*
X92097857Y-60758571D02*
X92312143Y-60758571D01*
X92312143Y-60758571D02*
X92455000Y-60830000D01*
X92455000Y-60830000D02*
X92526429Y-60901428D01*
X92526429Y-60901428D02*
X92597857Y-61044285D01*
X92597857Y-61044285D02*
X92597857Y-61472857D01*
X92597857Y-61472857D02*
X92526429Y-61615714D01*
X92526429Y-61615714D02*
X92455000Y-61687142D01*
X92455000Y-61687142D02*
X92312143Y-61758571D01*
X92312143Y-61758571D02*
X92097857Y-61758571D01*
X93883572Y-61758571D02*
X93883572Y-60972857D01*
X93883572Y-60972857D02*
X93812143Y-60830000D01*
X93812143Y-60830000D02*
X93669286Y-60758571D01*
X93669286Y-60758571D02*
X93383572Y-60758571D01*
X93383572Y-60758571D02*
X93240714Y-60830000D01*
X93883572Y-61687142D02*
X93740714Y-61758571D01*
X93740714Y-61758571D02*
X93383572Y-61758571D01*
X93383572Y-61758571D02*
X93240714Y-61687142D01*
X93240714Y-61687142D02*
X93169286Y-61544285D01*
X93169286Y-61544285D02*
X93169286Y-61401428D01*
X93169286Y-61401428D02*
X93240714Y-61258571D01*
X93240714Y-61258571D02*
X93383572Y-61187142D01*
X93383572Y-61187142D02*
X93740714Y-61187142D01*
X93740714Y-61187142D02*
X93883572Y-61115714D01*
X94597857Y-61758571D02*
X94597857Y-60758571D01*
X94597857Y-61044285D02*
X94669286Y-60901428D01*
X94669286Y-60901428D02*
X94740715Y-60830000D01*
X94740715Y-60830000D02*
X94883572Y-60758571D01*
X94883572Y-60758571D02*
X95026429Y-60758571D01*
X96169286Y-61758571D02*
X96169286Y-60258571D01*
X96169286Y-61687142D02*
X96026428Y-61758571D01*
X96026428Y-61758571D02*
X95740714Y-61758571D01*
X95740714Y-61758571D02*
X95597857Y-61687142D01*
X95597857Y-61687142D02*
X95526428Y-61615714D01*
X95526428Y-61615714D02*
X95455000Y-61472857D01*
X95455000Y-61472857D02*
X95455000Y-61044285D01*
X95455000Y-61044285D02*
X95526428Y-60901428D01*
X95526428Y-60901428D02*
X95597857Y-60830000D01*
X95597857Y-60830000D02*
X95740714Y-60758571D01*
X95740714Y-60758571D02*
X96026428Y-60758571D01*
X96026428Y-60758571D02*
X96169286Y-60830000D01*
D12*
X133639523Y-89952380D02*
X133306190Y-89476190D01*
X133068095Y-89952380D02*
X133068095Y-88952380D01*
X133068095Y-88952380D02*
X133449047Y-88952380D01*
X133449047Y-88952380D02*
X133544285Y-89000000D01*
X133544285Y-89000000D02*
X133591904Y-89047619D01*
X133591904Y-89047619D02*
X133639523Y-89142857D01*
X133639523Y-89142857D02*
X133639523Y-89285714D01*
X133639523Y-89285714D02*
X133591904Y-89380952D01*
X133591904Y-89380952D02*
X133544285Y-89428571D01*
X133544285Y-89428571D02*
X133449047Y-89476190D01*
X133449047Y-89476190D02*
X133068095Y-89476190D01*
X134449047Y-89904761D02*
X134353809Y-89952380D01*
X134353809Y-89952380D02*
X134163333Y-89952380D01*
X134163333Y-89952380D02*
X134068095Y-89904761D01*
X134068095Y-89904761D02*
X134020476Y-89809523D01*
X134020476Y-89809523D02*
X134020476Y-89428571D01*
X134020476Y-89428571D02*
X134068095Y-89333333D01*
X134068095Y-89333333D02*
X134163333Y-89285714D01*
X134163333Y-89285714D02*
X134353809Y-89285714D01*
X134353809Y-89285714D02*
X134449047Y-89333333D01*
X134449047Y-89333333D02*
X134496666Y-89428571D01*
X134496666Y-89428571D02*
X134496666Y-89523809D01*
X134496666Y-89523809D02*
X134020476Y-89619047D01*
X134830000Y-89285714D02*
X135068095Y-89952380D01*
X135068095Y-89952380D02*
X135306190Y-89285714D01*
X136810952Y-89952380D02*
X136239524Y-89952380D01*
X136525238Y-89952380D02*
X136525238Y-88952380D01*
X136525238Y-88952380D02*
X136430000Y-89095238D01*
X136430000Y-89095238D02*
X136334762Y-89190476D01*
X136334762Y-89190476D02*
X136239524Y-89238095D01*
X137239524Y-89857142D02*
X137287143Y-89904761D01*
X137287143Y-89904761D02*
X137239524Y-89952380D01*
X137239524Y-89952380D02*
X137191905Y-89904761D01*
X137191905Y-89904761D02*
X137239524Y-89857142D01*
X137239524Y-89857142D02*
X137239524Y-89952380D01*
X137906190Y-88952380D02*
X138001428Y-88952380D01*
X138001428Y-88952380D02*
X138096666Y-89000000D01*
X138096666Y-89000000D02*
X138144285Y-89047619D01*
X138144285Y-89047619D02*
X138191904Y-89142857D01*
X138191904Y-89142857D02*
X138239523Y-89333333D01*
X138239523Y-89333333D02*
X138239523Y-89571428D01*
X138239523Y-89571428D02*
X138191904Y-89761904D01*
X138191904Y-89761904D02*
X138144285Y-89857142D01*
X138144285Y-89857142D02*
X138096666Y-89904761D01*
X138096666Y-89904761D02*
X138001428Y-89952380D01*
X138001428Y-89952380D02*
X137906190Y-89952380D01*
X137906190Y-89952380D02*
X137810952Y-89904761D01*
X137810952Y-89904761D02*
X137763333Y-89857142D01*
X137763333Y-89857142D02*
X137715714Y-89761904D01*
X137715714Y-89761904D02*
X137668095Y-89571428D01*
X137668095Y-89571428D02*
X137668095Y-89333333D01*
X137668095Y-89333333D02*
X137715714Y-89142857D01*
X137715714Y-89142857D02*
X137763333Y-89047619D01*
X137763333Y-89047619D02*
X137810952Y-89000000D01*
X137810952Y-89000000D02*
X137906190Y-88952380D01*
D10*
%TO.C,VR1*%
X136673535Y-39630142D02*
X137423535Y-39380142D01*
X137423535Y-39380142D02*
X136673535Y-39130142D01*
X137423535Y-38451571D02*
X137066392Y-38701571D01*
X137423535Y-38880142D02*
X136673535Y-38880142D01*
X136673535Y-38880142D02*
X136673535Y-38594428D01*
X136673535Y-38594428D02*
X136709250Y-38522999D01*
X136709250Y-38522999D02*
X136744964Y-38487285D01*
X136744964Y-38487285D02*
X136816392Y-38451571D01*
X136816392Y-38451571D02*
X136923535Y-38451571D01*
X136923535Y-38451571D02*
X136994964Y-38487285D01*
X136994964Y-38487285D02*
X137030678Y-38522999D01*
X137030678Y-38522999D02*
X137066392Y-38594428D01*
X137066392Y-38594428D02*
X137066392Y-38880142D01*
X137423535Y-37737285D02*
X137423535Y-38165856D01*
X137423535Y-37951571D02*
X136673535Y-37951571D01*
X136673535Y-37951571D02*
X136780678Y-38022999D01*
X136780678Y-38022999D02*
X136852107Y-38094428D01*
X136852107Y-38094428D02*
X136887821Y-38165856D01*
%TO.C,SW2*%
X69104000Y-73899821D02*
X69211143Y-73935535D01*
X69211143Y-73935535D02*
X69389714Y-73935535D01*
X69389714Y-73935535D02*
X69461143Y-73899821D01*
X69461143Y-73899821D02*
X69496857Y-73864107D01*
X69496857Y-73864107D02*
X69532571Y-73792678D01*
X69532571Y-73792678D02*
X69532571Y-73721250D01*
X69532571Y-73721250D02*
X69496857Y-73649821D01*
X69496857Y-73649821D02*
X69461143Y-73614107D01*
X69461143Y-73614107D02*
X69389714Y-73578392D01*
X69389714Y-73578392D02*
X69246857Y-73542678D01*
X69246857Y-73542678D02*
X69175428Y-73506964D01*
X69175428Y-73506964D02*
X69139714Y-73471250D01*
X69139714Y-73471250D02*
X69104000Y-73399821D01*
X69104000Y-73399821D02*
X69104000Y-73328392D01*
X69104000Y-73328392D02*
X69139714Y-73256964D01*
X69139714Y-73256964D02*
X69175428Y-73221250D01*
X69175428Y-73221250D02*
X69246857Y-73185535D01*
X69246857Y-73185535D02*
X69425428Y-73185535D01*
X69425428Y-73185535D02*
X69532571Y-73221250D01*
X69782571Y-73185535D02*
X69961143Y-73935535D01*
X69961143Y-73935535D02*
X70104000Y-73399821D01*
X70104000Y-73399821D02*
X70246857Y-73935535D01*
X70246857Y-73935535D02*
X70425429Y-73185535D01*
X70675429Y-73256964D02*
X70711143Y-73221250D01*
X70711143Y-73221250D02*
X70782572Y-73185535D01*
X70782572Y-73185535D02*
X70961143Y-73185535D01*
X70961143Y-73185535D02*
X71032572Y-73221250D01*
X71032572Y-73221250D02*
X71068286Y-73256964D01*
X71068286Y-73256964D02*
X71104000Y-73328392D01*
X71104000Y-73328392D02*
X71104000Y-73399821D01*
X71104000Y-73399821D02*
X71068286Y-73506964D01*
X71068286Y-73506964D02*
X70639714Y-73935535D01*
X70639714Y-73935535D02*
X71104000Y-73935535D01*
%TO.C,C7*%
X129700999Y-67260107D02*
X129665285Y-67295821D01*
X129665285Y-67295821D02*
X129558142Y-67331535D01*
X129558142Y-67331535D02*
X129486714Y-67331535D01*
X129486714Y-67331535D02*
X129379571Y-67295821D01*
X129379571Y-67295821D02*
X129308142Y-67224392D01*
X129308142Y-67224392D02*
X129272428Y-67152964D01*
X129272428Y-67152964D02*
X129236714Y-67010107D01*
X129236714Y-67010107D02*
X129236714Y-66902964D01*
X129236714Y-66902964D02*
X129272428Y-66760107D01*
X129272428Y-66760107D02*
X129308142Y-66688678D01*
X129308142Y-66688678D02*
X129379571Y-66617250D01*
X129379571Y-66617250D02*
X129486714Y-66581535D01*
X129486714Y-66581535D02*
X129558142Y-66581535D01*
X129558142Y-66581535D02*
X129665285Y-66617250D01*
X129665285Y-66617250D02*
X129700999Y-66652964D01*
X129950999Y-66581535D02*
X130450999Y-66581535D01*
X130450999Y-66581535D02*
X130129571Y-67331535D01*
%TO.C,U2*%
X64549535Y-42731428D02*
X65156678Y-42731428D01*
X65156678Y-42731428D02*
X65228107Y-42695714D01*
X65228107Y-42695714D02*
X65263821Y-42660000D01*
X65263821Y-42660000D02*
X65299535Y-42588571D01*
X65299535Y-42588571D02*
X65299535Y-42445714D01*
X65299535Y-42445714D02*
X65263821Y-42374285D01*
X65263821Y-42374285D02*
X65228107Y-42338571D01*
X65228107Y-42338571D02*
X65156678Y-42302857D01*
X65156678Y-42302857D02*
X64549535Y-42302857D01*
X64620964Y-41981428D02*
X64585250Y-41945714D01*
X64585250Y-41945714D02*
X64549535Y-41874286D01*
X64549535Y-41874286D02*
X64549535Y-41695714D01*
X64549535Y-41695714D02*
X64585250Y-41624286D01*
X64585250Y-41624286D02*
X64620964Y-41588571D01*
X64620964Y-41588571D02*
X64692392Y-41552857D01*
X64692392Y-41552857D02*
X64763821Y-41552857D01*
X64763821Y-41552857D02*
X64870964Y-41588571D01*
X64870964Y-41588571D02*
X65299535Y-42017143D01*
X65299535Y-42017143D02*
X65299535Y-41552857D01*
%TO.C,SW3*%
X90440000Y-79301821D02*
X90547143Y-79337535D01*
X90547143Y-79337535D02*
X90725714Y-79337535D01*
X90725714Y-79337535D02*
X90797143Y-79301821D01*
X90797143Y-79301821D02*
X90832857Y-79266107D01*
X90832857Y-79266107D02*
X90868571Y-79194678D01*
X90868571Y-79194678D02*
X90868571Y-79123250D01*
X90868571Y-79123250D02*
X90832857Y-79051821D01*
X90832857Y-79051821D02*
X90797143Y-79016107D01*
X90797143Y-79016107D02*
X90725714Y-78980392D01*
X90725714Y-78980392D02*
X90582857Y-78944678D01*
X90582857Y-78944678D02*
X90511428Y-78908964D01*
X90511428Y-78908964D02*
X90475714Y-78873250D01*
X90475714Y-78873250D02*
X90440000Y-78801821D01*
X90440000Y-78801821D02*
X90440000Y-78730392D01*
X90440000Y-78730392D02*
X90475714Y-78658964D01*
X90475714Y-78658964D02*
X90511428Y-78623250D01*
X90511428Y-78623250D02*
X90582857Y-78587535D01*
X90582857Y-78587535D02*
X90761428Y-78587535D01*
X90761428Y-78587535D02*
X90868571Y-78623250D01*
X91118571Y-78587535D02*
X91297143Y-79337535D01*
X91297143Y-79337535D02*
X91440000Y-78801821D01*
X91440000Y-78801821D02*
X91582857Y-79337535D01*
X91582857Y-79337535D02*
X91761429Y-78587535D01*
X91975714Y-78587535D02*
X92440000Y-78587535D01*
X92440000Y-78587535D02*
X92190000Y-78873250D01*
X92190000Y-78873250D02*
X92297143Y-78873250D01*
X92297143Y-78873250D02*
X92368572Y-78908964D01*
X92368572Y-78908964D02*
X92404286Y-78944678D01*
X92404286Y-78944678D02*
X92440000Y-79016107D01*
X92440000Y-79016107D02*
X92440000Y-79194678D01*
X92440000Y-79194678D02*
X92404286Y-79266107D01*
X92404286Y-79266107D02*
X92368572Y-79301821D01*
X92368572Y-79301821D02*
X92297143Y-79337535D01*
X92297143Y-79337535D02*
X92082857Y-79337535D01*
X92082857Y-79337535D02*
X92011429Y-79301821D01*
X92011429Y-79301821D02*
X91975714Y-79266107D01*
%TO.C,SW1*%
X120275000Y-30839821D02*
X120382143Y-30875535D01*
X120382143Y-30875535D02*
X120560714Y-30875535D01*
X120560714Y-30875535D02*
X120632143Y-30839821D01*
X120632143Y-30839821D02*
X120667857Y-30804107D01*
X120667857Y-30804107D02*
X120703571Y-30732678D01*
X120703571Y-30732678D02*
X120703571Y-30661250D01*
X120703571Y-30661250D02*
X120667857Y-30589821D01*
X120667857Y-30589821D02*
X120632143Y-30554107D01*
X120632143Y-30554107D02*
X120560714Y-30518392D01*
X120560714Y-30518392D02*
X120417857Y-30482678D01*
X120417857Y-30482678D02*
X120346428Y-30446964D01*
X120346428Y-30446964D02*
X120310714Y-30411250D01*
X120310714Y-30411250D02*
X120275000Y-30339821D01*
X120275000Y-30339821D02*
X120275000Y-30268392D01*
X120275000Y-30268392D02*
X120310714Y-30196964D01*
X120310714Y-30196964D02*
X120346428Y-30161250D01*
X120346428Y-30161250D02*
X120417857Y-30125535D01*
X120417857Y-30125535D02*
X120596428Y-30125535D01*
X120596428Y-30125535D02*
X120703571Y-30161250D01*
X120953571Y-30125535D02*
X121132143Y-30875535D01*
X121132143Y-30875535D02*
X121275000Y-30339821D01*
X121275000Y-30339821D02*
X121417857Y-30875535D01*
X121417857Y-30875535D02*
X121596429Y-30125535D01*
X122275000Y-30875535D02*
X121846429Y-30875535D01*
X122060714Y-30875535D02*
X122060714Y-30125535D01*
X122060714Y-30125535D02*
X121989286Y-30232678D01*
X121989286Y-30232678D02*
X121917857Y-30304107D01*
X121917857Y-30304107D02*
X121846429Y-30339821D01*
%TO.C,R21*%
X83411142Y-68474535D02*
X83161142Y-68117392D01*
X82982571Y-68474535D02*
X82982571Y-67724535D01*
X82982571Y-67724535D02*
X83268285Y-67724535D01*
X83268285Y-67724535D02*
X83339714Y-67760250D01*
X83339714Y-67760250D02*
X83375428Y-67795964D01*
X83375428Y-67795964D02*
X83411142Y-67867392D01*
X83411142Y-67867392D02*
X83411142Y-67974535D01*
X83411142Y-67974535D02*
X83375428Y-68045964D01*
X83375428Y-68045964D02*
X83339714Y-68081678D01*
X83339714Y-68081678D02*
X83268285Y-68117392D01*
X83268285Y-68117392D02*
X82982571Y-68117392D01*
X83696857Y-67795964D02*
X83732571Y-67760250D01*
X83732571Y-67760250D02*
X83804000Y-67724535D01*
X83804000Y-67724535D02*
X83982571Y-67724535D01*
X83982571Y-67724535D02*
X84054000Y-67760250D01*
X84054000Y-67760250D02*
X84089714Y-67795964D01*
X84089714Y-67795964D02*
X84125428Y-67867392D01*
X84125428Y-67867392D02*
X84125428Y-67938821D01*
X84125428Y-67938821D02*
X84089714Y-68045964D01*
X84089714Y-68045964D02*
X83661142Y-68474535D01*
X83661142Y-68474535D02*
X84125428Y-68474535D01*
X84839714Y-68474535D02*
X84411143Y-68474535D01*
X84625428Y-68474535D02*
X84625428Y-67724535D01*
X84625428Y-67724535D02*
X84554000Y-67831678D01*
X84554000Y-67831678D02*
X84482571Y-67903107D01*
X84482571Y-67903107D02*
X84411143Y-67938821D01*
%TO.C,R12*%
X74628570Y-83079535D02*
X74378570Y-82722392D01*
X74199999Y-83079535D02*
X74199999Y-82329535D01*
X74199999Y-82329535D02*
X74485713Y-82329535D01*
X74485713Y-82329535D02*
X74557142Y-82365250D01*
X74557142Y-82365250D02*
X74592856Y-82400964D01*
X74592856Y-82400964D02*
X74628570Y-82472392D01*
X74628570Y-82472392D02*
X74628570Y-82579535D01*
X74628570Y-82579535D02*
X74592856Y-82650964D01*
X74592856Y-82650964D02*
X74557142Y-82686678D01*
X74557142Y-82686678D02*
X74485713Y-82722392D01*
X74485713Y-82722392D02*
X74199999Y-82722392D01*
X75342856Y-83079535D02*
X74914285Y-83079535D01*
X75128570Y-83079535D02*
X75128570Y-82329535D01*
X75128570Y-82329535D02*
X75057142Y-82436678D01*
X75057142Y-82436678D02*
X74985713Y-82508107D01*
X74985713Y-82508107D02*
X74914285Y-82543821D01*
X75628571Y-82400964D02*
X75664285Y-82365250D01*
X75664285Y-82365250D02*
X75735714Y-82329535D01*
X75735714Y-82329535D02*
X75914285Y-82329535D01*
X75914285Y-82329535D02*
X75985714Y-82365250D01*
X75985714Y-82365250D02*
X76021428Y-82400964D01*
X76021428Y-82400964D02*
X76057142Y-82472392D01*
X76057142Y-82472392D02*
X76057142Y-82543821D01*
X76057142Y-82543821D02*
X76021428Y-82650964D01*
X76021428Y-82650964D02*
X75592856Y-83079535D01*
X75592856Y-83079535D02*
X76057142Y-83079535D01*
%TO.C,R4*%
X111791856Y-34743535D02*
X111541856Y-34386392D01*
X111363285Y-34743535D02*
X111363285Y-33993535D01*
X111363285Y-33993535D02*
X111648999Y-33993535D01*
X111648999Y-33993535D02*
X111720428Y-34029250D01*
X111720428Y-34029250D02*
X111756142Y-34064964D01*
X111756142Y-34064964D02*
X111791856Y-34136392D01*
X111791856Y-34136392D02*
X111791856Y-34243535D01*
X111791856Y-34243535D02*
X111756142Y-34314964D01*
X111756142Y-34314964D02*
X111720428Y-34350678D01*
X111720428Y-34350678D02*
X111648999Y-34386392D01*
X111648999Y-34386392D02*
X111363285Y-34386392D01*
X112434714Y-34243535D02*
X112434714Y-34743535D01*
X112256142Y-33957821D02*
X112077571Y-34493535D01*
X112077571Y-34493535D02*
X112541856Y-34493535D01*
%TO.C,R10*%
X111077570Y-36013535D02*
X110827570Y-35656392D01*
X110648999Y-36013535D02*
X110648999Y-35263535D01*
X110648999Y-35263535D02*
X110934713Y-35263535D01*
X110934713Y-35263535D02*
X111006142Y-35299250D01*
X111006142Y-35299250D02*
X111041856Y-35334964D01*
X111041856Y-35334964D02*
X111077570Y-35406392D01*
X111077570Y-35406392D02*
X111077570Y-35513535D01*
X111077570Y-35513535D02*
X111041856Y-35584964D01*
X111041856Y-35584964D02*
X111006142Y-35620678D01*
X111006142Y-35620678D02*
X110934713Y-35656392D01*
X110934713Y-35656392D02*
X110648999Y-35656392D01*
X111791856Y-36013535D02*
X111363285Y-36013535D01*
X111577570Y-36013535D02*
X111577570Y-35263535D01*
X111577570Y-35263535D02*
X111506142Y-35370678D01*
X111506142Y-35370678D02*
X111434713Y-35442107D01*
X111434713Y-35442107D02*
X111363285Y-35477821D01*
X112256142Y-35263535D02*
X112327571Y-35263535D01*
X112327571Y-35263535D02*
X112398999Y-35299250D01*
X112398999Y-35299250D02*
X112434714Y-35334964D01*
X112434714Y-35334964D02*
X112470428Y-35406392D01*
X112470428Y-35406392D02*
X112506142Y-35549250D01*
X112506142Y-35549250D02*
X112506142Y-35727821D01*
X112506142Y-35727821D02*
X112470428Y-35870678D01*
X112470428Y-35870678D02*
X112434714Y-35942107D01*
X112434714Y-35942107D02*
X112398999Y-35977821D01*
X112398999Y-35977821D02*
X112327571Y-36013535D01*
X112327571Y-36013535D02*
X112256142Y-36013535D01*
X112256142Y-36013535D02*
X112184714Y-35977821D01*
X112184714Y-35977821D02*
X112148999Y-35942107D01*
X112148999Y-35942107D02*
X112113285Y-35870678D01*
X112113285Y-35870678D02*
X112077571Y-35727821D01*
X112077571Y-35727821D02*
X112077571Y-35549250D01*
X112077571Y-35549250D02*
X112113285Y-35406392D01*
X112113285Y-35406392D02*
X112148999Y-35334964D01*
X112148999Y-35334964D02*
X112184714Y-35299250D01*
X112184714Y-35299250D02*
X112256142Y-35263535D01*
%TO.C,R20*%
X79612522Y-57171535D02*
X79362522Y-56814392D01*
X79183951Y-57171535D02*
X79183951Y-56421535D01*
X79183951Y-56421535D02*
X79469665Y-56421535D01*
X79469665Y-56421535D02*
X79541094Y-56457250D01*
X79541094Y-56457250D02*
X79576808Y-56492964D01*
X79576808Y-56492964D02*
X79612522Y-56564392D01*
X79612522Y-56564392D02*
X79612522Y-56671535D01*
X79612522Y-56671535D02*
X79576808Y-56742964D01*
X79576808Y-56742964D02*
X79541094Y-56778678D01*
X79541094Y-56778678D02*
X79469665Y-56814392D01*
X79469665Y-56814392D02*
X79183951Y-56814392D01*
X79898237Y-56492964D02*
X79933951Y-56457250D01*
X79933951Y-56457250D02*
X80005380Y-56421535D01*
X80005380Y-56421535D02*
X80183951Y-56421535D01*
X80183951Y-56421535D02*
X80255380Y-56457250D01*
X80255380Y-56457250D02*
X80291094Y-56492964D01*
X80291094Y-56492964D02*
X80326808Y-56564392D01*
X80326808Y-56564392D02*
X80326808Y-56635821D01*
X80326808Y-56635821D02*
X80291094Y-56742964D01*
X80291094Y-56742964D02*
X79862522Y-57171535D01*
X79862522Y-57171535D02*
X80326808Y-57171535D01*
X80791094Y-56421535D02*
X80862523Y-56421535D01*
X80862523Y-56421535D02*
X80933951Y-56457250D01*
X80933951Y-56457250D02*
X80969666Y-56492964D01*
X80969666Y-56492964D02*
X81005380Y-56564392D01*
X81005380Y-56564392D02*
X81041094Y-56707250D01*
X81041094Y-56707250D02*
X81041094Y-56885821D01*
X81041094Y-56885821D02*
X81005380Y-57028678D01*
X81005380Y-57028678D02*
X80969666Y-57100107D01*
X80969666Y-57100107D02*
X80933951Y-57135821D01*
X80933951Y-57135821D02*
X80862523Y-57171535D01*
X80862523Y-57171535D02*
X80791094Y-57171535D01*
X80791094Y-57171535D02*
X80719666Y-57135821D01*
X80719666Y-57135821D02*
X80683951Y-57100107D01*
X80683951Y-57100107D02*
X80648237Y-57028678D01*
X80648237Y-57028678D02*
X80612523Y-56885821D01*
X80612523Y-56885821D02*
X80612523Y-56707250D01*
X80612523Y-56707250D02*
X80648237Y-56564392D01*
X80648237Y-56564392D02*
X80683951Y-56492964D01*
X80683951Y-56492964D02*
X80719666Y-56457250D01*
X80719666Y-56457250D02*
X80791094Y-56421535D01*
%TO.C,R22*%
X86809188Y-57171535D02*
X86559188Y-56814392D01*
X86380617Y-57171535D02*
X86380617Y-56421535D01*
X86380617Y-56421535D02*
X86666331Y-56421535D01*
X86666331Y-56421535D02*
X86737760Y-56457250D01*
X86737760Y-56457250D02*
X86773474Y-56492964D01*
X86773474Y-56492964D02*
X86809188Y-56564392D01*
X86809188Y-56564392D02*
X86809188Y-56671535D01*
X86809188Y-56671535D02*
X86773474Y-56742964D01*
X86773474Y-56742964D02*
X86737760Y-56778678D01*
X86737760Y-56778678D02*
X86666331Y-56814392D01*
X86666331Y-56814392D02*
X86380617Y-56814392D01*
X87094903Y-56492964D02*
X87130617Y-56457250D01*
X87130617Y-56457250D02*
X87202046Y-56421535D01*
X87202046Y-56421535D02*
X87380617Y-56421535D01*
X87380617Y-56421535D02*
X87452046Y-56457250D01*
X87452046Y-56457250D02*
X87487760Y-56492964D01*
X87487760Y-56492964D02*
X87523474Y-56564392D01*
X87523474Y-56564392D02*
X87523474Y-56635821D01*
X87523474Y-56635821D02*
X87487760Y-56742964D01*
X87487760Y-56742964D02*
X87059188Y-57171535D01*
X87059188Y-57171535D02*
X87523474Y-57171535D01*
X87809189Y-56492964D02*
X87844903Y-56457250D01*
X87844903Y-56457250D02*
X87916332Y-56421535D01*
X87916332Y-56421535D02*
X88094903Y-56421535D01*
X88094903Y-56421535D02*
X88166332Y-56457250D01*
X88166332Y-56457250D02*
X88202046Y-56492964D01*
X88202046Y-56492964D02*
X88237760Y-56564392D01*
X88237760Y-56564392D02*
X88237760Y-56635821D01*
X88237760Y-56635821D02*
X88202046Y-56742964D01*
X88202046Y-56742964D02*
X87773474Y-57171535D01*
X87773474Y-57171535D02*
X88237760Y-57171535D01*
%TO.C,R11*%
X103076570Y-76729535D02*
X102826570Y-76372392D01*
X102647999Y-76729535D02*
X102647999Y-75979535D01*
X102647999Y-75979535D02*
X102933713Y-75979535D01*
X102933713Y-75979535D02*
X103005142Y-76015250D01*
X103005142Y-76015250D02*
X103040856Y-76050964D01*
X103040856Y-76050964D02*
X103076570Y-76122392D01*
X103076570Y-76122392D02*
X103076570Y-76229535D01*
X103076570Y-76229535D02*
X103040856Y-76300964D01*
X103040856Y-76300964D02*
X103005142Y-76336678D01*
X103005142Y-76336678D02*
X102933713Y-76372392D01*
X102933713Y-76372392D02*
X102647999Y-76372392D01*
X103790856Y-76729535D02*
X103362285Y-76729535D01*
X103576570Y-76729535D02*
X103576570Y-75979535D01*
X103576570Y-75979535D02*
X103505142Y-76086678D01*
X103505142Y-76086678D02*
X103433713Y-76158107D01*
X103433713Y-76158107D02*
X103362285Y-76193821D01*
X104505142Y-76729535D02*
X104076571Y-76729535D01*
X104290856Y-76729535D02*
X104290856Y-75979535D01*
X104290856Y-75979535D02*
X104219428Y-76086678D01*
X104219428Y-76086678D02*
X104147999Y-76158107D01*
X104147999Y-76158107D02*
X104076571Y-76193821D01*
%TO.C,C4*%
X101006107Y-80115000D02*
X101041821Y-80150714D01*
X101041821Y-80150714D02*
X101077535Y-80257857D01*
X101077535Y-80257857D02*
X101077535Y-80329285D01*
X101077535Y-80329285D02*
X101041821Y-80436428D01*
X101041821Y-80436428D02*
X100970392Y-80507857D01*
X100970392Y-80507857D02*
X100898964Y-80543571D01*
X100898964Y-80543571D02*
X100756107Y-80579285D01*
X100756107Y-80579285D02*
X100648964Y-80579285D01*
X100648964Y-80579285D02*
X100506107Y-80543571D01*
X100506107Y-80543571D02*
X100434678Y-80507857D01*
X100434678Y-80507857D02*
X100363250Y-80436428D01*
X100363250Y-80436428D02*
X100327535Y-80329285D01*
X100327535Y-80329285D02*
X100327535Y-80257857D01*
X100327535Y-80257857D02*
X100363250Y-80150714D01*
X100363250Y-80150714D02*
X100398964Y-80115000D01*
X100577535Y-79472143D02*
X101077535Y-79472143D01*
X100291821Y-79650714D02*
X100827535Y-79829285D01*
X100827535Y-79829285D02*
X100827535Y-79365000D01*
%TO.C,Y1*%
X108711142Y-64592142D02*
X109068285Y-64592142D01*
X108318285Y-64842142D02*
X108711142Y-64592142D01*
X108711142Y-64592142D02*
X108318285Y-64342142D01*
X109068285Y-63699285D02*
X109068285Y-64127856D01*
X109068285Y-63913571D02*
X108318285Y-63913571D01*
X108318285Y-63913571D02*
X108425428Y-63984999D01*
X108425428Y-63984999D02*
X108496857Y-64056428D01*
X108496857Y-64056428D02*
X108532571Y-64127856D01*
%TO.C,R5*%
X111791856Y-37283535D02*
X111541856Y-36926392D01*
X111363285Y-37283535D02*
X111363285Y-36533535D01*
X111363285Y-36533535D02*
X111648999Y-36533535D01*
X111648999Y-36533535D02*
X111720428Y-36569250D01*
X111720428Y-36569250D02*
X111756142Y-36604964D01*
X111756142Y-36604964D02*
X111791856Y-36676392D01*
X111791856Y-36676392D02*
X111791856Y-36783535D01*
X111791856Y-36783535D02*
X111756142Y-36854964D01*
X111756142Y-36854964D02*
X111720428Y-36890678D01*
X111720428Y-36890678D02*
X111648999Y-36926392D01*
X111648999Y-36926392D02*
X111363285Y-36926392D01*
X112470428Y-36533535D02*
X112113285Y-36533535D01*
X112113285Y-36533535D02*
X112077571Y-36890678D01*
X112077571Y-36890678D02*
X112113285Y-36854964D01*
X112113285Y-36854964D02*
X112184714Y-36819250D01*
X112184714Y-36819250D02*
X112363285Y-36819250D01*
X112363285Y-36819250D02*
X112434714Y-36854964D01*
X112434714Y-36854964D02*
X112470428Y-36890678D01*
X112470428Y-36890678D02*
X112506142Y-36962107D01*
X112506142Y-36962107D02*
X112506142Y-37140678D01*
X112506142Y-37140678D02*
X112470428Y-37212107D01*
X112470428Y-37212107D02*
X112434714Y-37247821D01*
X112434714Y-37247821D02*
X112363285Y-37283535D01*
X112363285Y-37283535D02*
X112184714Y-37283535D01*
X112184714Y-37283535D02*
X112113285Y-37247821D01*
X112113285Y-37247821D02*
X112077571Y-37212107D01*
%TO.C,C2*%
X105513107Y-68050000D02*
X105548821Y-68085714D01*
X105548821Y-68085714D02*
X105584535Y-68192857D01*
X105584535Y-68192857D02*
X105584535Y-68264285D01*
X105584535Y-68264285D02*
X105548821Y-68371428D01*
X105548821Y-68371428D02*
X105477392Y-68442857D01*
X105477392Y-68442857D02*
X105405964Y-68478571D01*
X105405964Y-68478571D02*
X105263107Y-68514285D01*
X105263107Y-68514285D02*
X105155964Y-68514285D01*
X105155964Y-68514285D02*
X105013107Y-68478571D01*
X105013107Y-68478571D02*
X104941678Y-68442857D01*
X104941678Y-68442857D02*
X104870250Y-68371428D01*
X104870250Y-68371428D02*
X104834535Y-68264285D01*
X104834535Y-68264285D02*
X104834535Y-68192857D01*
X104834535Y-68192857D02*
X104870250Y-68085714D01*
X104870250Y-68085714D02*
X104905964Y-68050000D01*
X104905964Y-67764285D02*
X104870250Y-67728571D01*
X104870250Y-67728571D02*
X104834535Y-67657143D01*
X104834535Y-67657143D02*
X104834535Y-67478571D01*
X104834535Y-67478571D02*
X104870250Y-67407143D01*
X104870250Y-67407143D02*
X104905964Y-67371428D01*
X104905964Y-67371428D02*
X104977392Y-67335714D01*
X104977392Y-67335714D02*
X105048821Y-67335714D01*
X105048821Y-67335714D02*
X105155964Y-67371428D01*
X105155964Y-67371428D02*
X105584535Y-67800000D01*
X105584535Y-67800000D02*
X105584535Y-67335714D01*
%TO.C,R6*%
X111791856Y-33473535D02*
X111541856Y-33116392D01*
X111363285Y-33473535D02*
X111363285Y-32723535D01*
X111363285Y-32723535D02*
X111648999Y-32723535D01*
X111648999Y-32723535D02*
X111720428Y-32759250D01*
X111720428Y-32759250D02*
X111756142Y-32794964D01*
X111756142Y-32794964D02*
X111791856Y-32866392D01*
X111791856Y-32866392D02*
X111791856Y-32973535D01*
X111791856Y-32973535D02*
X111756142Y-33044964D01*
X111756142Y-33044964D02*
X111720428Y-33080678D01*
X111720428Y-33080678D02*
X111648999Y-33116392D01*
X111648999Y-33116392D02*
X111363285Y-33116392D01*
X112434714Y-32723535D02*
X112291856Y-32723535D01*
X112291856Y-32723535D02*
X112220428Y-32759250D01*
X112220428Y-32759250D02*
X112184714Y-32794964D01*
X112184714Y-32794964D02*
X112113285Y-32902107D01*
X112113285Y-32902107D02*
X112077571Y-33044964D01*
X112077571Y-33044964D02*
X112077571Y-33330678D01*
X112077571Y-33330678D02*
X112113285Y-33402107D01*
X112113285Y-33402107D02*
X112148999Y-33437821D01*
X112148999Y-33437821D02*
X112220428Y-33473535D01*
X112220428Y-33473535D02*
X112363285Y-33473535D01*
X112363285Y-33473535D02*
X112434714Y-33437821D01*
X112434714Y-33437821D02*
X112470428Y-33402107D01*
X112470428Y-33402107D02*
X112506142Y-33330678D01*
X112506142Y-33330678D02*
X112506142Y-33152107D01*
X112506142Y-33152107D02*
X112470428Y-33080678D01*
X112470428Y-33080678D02*
X112434714Y-33044964D01*
X112434714Y-33044964D02*
X112363285Y-33009250D01*
X112363285Y-33009250D02*
X112220428Y-33009250D01*
X112220428Y-33009250D02*
X112148999Y-33044964D01*
X112148999Y-33044964D02*
X112113285Y-33080678D01*
X112113285Y-33080678D02*
X112077571Y-33152107D01*
%TO.C,Q4*%
X91637589Y-49831428D02*
X91601875Y-49902857D01*
X91601875Y-49902857D02*
X91530446Y-49974285D01*
X91530446Y-49974285D02*
X91423303Y-50081428D01*
X91423303Y-50081428D02*
X91387589Y-50152857D01*
X91387589Y-50152857D02*
X91387589Y-50224285D01*
X91566160Y-50188571D02*
X91530446Y-50260000D01*
X91530446Y-50260000D02*
X91459017Y-50331428D01*
X91459017Y-50331428D02*
X91316160Y-50367142D01*
X91316160Y-50367142D02*
X91066160Y-50367142D01*
X91066160Y-50367142D02*
X90923303Y-50331428D01*
X90923303Y-50331428D02*
X90851875Y-50260000D01*
X90851875Y-50260000D02*
X90816160Y-50188571D01*
X90816160Y-50188571D02*
X90816160Y-50045714D01*
X90816160Y-50045714D02*
X90851875Y-49974285D01*
X90851875Y-49974285D02*
X90923303Y-49902857D01*
X90923303Y-49902857D02*
X91066160Y-49867142D01*
X91066160Y-49867142D02*
X91316160Y-49867142D01*
X91316160Y-49867142D02*
X91459017Y-49902857D01*
X91459017Y-49902857D02*
X91530446Y-49974285D01*
X91530446Y-49974285D02*
X91566160Y-50045714D01*
X91566160Y-50045714D02*
X91566160Y-50188571D01*
X91066160Y-49224286D02*
X91566160Y-49224286D01*
X90780446Y-49402857D02*
X91316160Y-49581428D01*
X91316160Y-49581428D02*
X91316160Y-49117143D01*
%TO.C,U3*%
X90878571Y-65785535D02*
X90878571Y-66392678D01*
X90878571Y-66392678D02*
X90914285Y-66464107D01*
X90914285Y-66464107D02*
X90950000Y-66499821D01*
X90950000Y-66499821D02*
X91021428Y-66535535D01*
X91021428Y-66535535D02*
X91164285Y-66535535D01*
X91164285Y-66535535D02*
X91235714Y-66499821D01*
X91235714Y-66499821D02*
X91271428Y-66464107D01*
X91271428Y-66464107D02*
X91307142Y-66392678D01*
X91307142Y-66392678D02*
X91307142Y-65785535D01*
X91592856Y-65785535D02*
X92057142Y-65785535D01*
X92057142Y-65785535D02*
X91807142Y-66071250D01*
X91807142Y-66071250D02*
X91914285Y-66071250D01*
X91914285Y-66071250D02*
X91985714Y-66106964D01*
X91985714Y-66106964D02*
X92021428Y-66142678D01*
X92021428Y-66142678D02*
X92057142Y-66214107D01*
X92057142Y-66214107D02*
X92057142Y-66392678D01*
X92057142Y-66392678D02*
X92021428Y-66464107D01*
X92021428Y-66464107D02*
X91985714Y-66499821D01*
X91985714Y-66499821D02*
X91914285Y-66535535D01*
X91914285Y-66535535D02*
X91699999Y-66535535D01*
X91699999Y-66535535D02*
X91628571Y-66499821D01*
X91628571Y-66499821D02*
X91592856Y-66464107D01*
%TO.C,U1*%
X120713571Y-39635535D02*
X120713571Y-40242678D01*
X120713571Y-40242678D02*
X120749285Y-40314107D01*
X120749285Y-40314107D02*
X120785000Y-40349821D01*
X120785000Y-40349821D02*
X120856428Y-40385535D01*
X120856428Y-40385535D02*
X120999285Y-40385535D01*
X120999285Y-40385535D02*
X121070714Y-40349821D01*
X121070714Y-40349821D02*
X121106428Y-40314107D01*
X121106428Y-40314107D02*
X121142142Y-40242678D01*
X121142142Y-40242678D02*
X121142142Y-39635535D01*
X121892142Y-40385535D02*
X121463571Y-40385535D01*
X121677856Y-40385535D02*
X121677856Y-39635535D01*
X121677856Y-39635535D02*
X121606428Y-39742678D01*
X121606428Y-39742678D02*
X121534999Y-39814107D01*
X121534999Y-39814107D02*
X121463571Y-39849821D01*
%TO.C,R2*%
X114682999Y-83841535D02*
X114432999Y-83484392D01*
X114254428Y-83841535D02*
X114254428Y-83091535D01*
X114254428Y-83091535D02*
X114540142Y-83091535D01*
X114540142Y-83091535D02*
X114611571Y-83127250D01*
X114611571Y-83127250D02*
X114647285Y-83162964D01*
X114647285Y-83162964D02*
X114682999Y-83234392D01*
X114682999Y-83234392D02*
X114682999Y-83341535D01*
X114682999Y-83341535D02*
X114647285Y-83412964D01*
X114647285Y-83412964D02*
X114611571Y-83448678D01*
X114611571Y-83448678D02*
X114540142Y-83484392D01*
X114540142Y-83484392D02*
X114254428Y-83484392D01*
X114968714Y-83162964D02*
X115004428Y-83127250D01*
X115004428Y-83127250D02*
X115075857Y-83091535D01*
X115075857Y-83091535D02*
X115254428Y-83091535D01*
X115254428Y-83091535D02*
X115325857Y-83127250D01*
X115325857Y-83127250D02*
X115361571Y-83162964D01*
X115361571Y-83162964D02*
X115397285Y-83234392D01*
X115397285Y-83234392D02*
X115397285Y-83305821D01*
X115397285Y-83305821D02*
X115361571Y-83412964D01*
X115361571Y-83412964D02*
X114932999Y-83841535D01*
X114932999Y-83841535D02*
X115397285Y-83841535D01*
%TO.C,C3*%
X129109107Y-53465000D02*
X129144821Y-53500714D01*
X129144821Y-53500714D02*
X129180535Y-53607857D01*
X129180535Y-53607857D02*
X129180535Y-53679285D01*
X129180535Y-53679285D02*
X129144821Y-53786428D01*
X129144821Y-53786428D02*
X129073392Y-53857857D01*
X129073392Y-53857857D02*
X129001964Y-53893571D01*
X129001964Y-53893571D02*
X128859107Y-53929285D01*
X128859107Y-53929285D02*
X128751964Y-53929285D01*
X128751964Y-53929285D02*
X128609107Y-53893571D01*
X128609107Y-53893571D02*
X128537678Y-53857857D01*
X128537678Y-53857857D02*
X128466250Y-53786428D01*
X128466250Y-53786428D02*
X128430535Y-53679285D01*
X128430535Y-53679285D02*
X128430535Y-53607857D01*
X128430535Y-53607857D02*
X128466250Y-53500714D01*
X128466250Y-53500714D02*
X128501964Y-53465000D01*
X128430535Y-53215000D02*
X128430535Y-52750714D01*
X128430535Y-52750714D02*
X128716250Y-53000714D01*
X128716250Y-53000714D02*
X128716250Y-52893571D01*
X128716250Y-52893571D02*
X128751964Y-52822143D01*
X128751964Y-52822143D02*
X128787678Y-52786428D01*
X128787678Y-52786428D02*
X128859107Y-52750714D01*
X128859107Y-52750714D02*
X129037678Y-52750714D01*
X129037678Y-52750714D02*
X129109107Y-52786428D01*
X129109107Y-52786428D02*
X129144821Y-52822143D01*
X129144821Y-52822143D02*
X129180535Y-52893571D01*
X129180535Y-52893571D02*
X129180535Y-53107857D01*
X129180535Y-53107857D02*
X129144821Y-53179285D01*
X129144821Y-53179285D02*
X129109107Y-53215000D01*
%TO.C,R18*%
X83411142Y-67204535D02*
X83161142Y-66847392D01*
X82982571Y-67204535D02*
X82982571Y-66454535D01*
X82982571Y-66454535D02*
X83268285Y-66454535D01*
X83268285Y-66454535D02*
X83339714Y-66490250D01*
X83339714Y-66490250D02*
X83375428Y-66525964D01*
X83375428Y-66525964D02*
X83411142Y-66597392D01*
X83411142Y-66597392D02*
X83411142Y-66704535D01*
X83411142Y-66704535D02*
X83375428Y-66775964D01*
X83375428Y-66775964D02*
X83339714Y-66811678D01*
X83339714Y-66811678D02*
X83268285Y-66847392D01*
X83268285Y-66847392D02*
X82982571Y-66847392D01*
X84125428Y-67204535D02*
X83696857Y-67204535D01*
X83911142Y-67204535D02*
X83911142Y-66454535D01*
X83911142Y-66454535D02*
X83839714Y-66561678D01*
X83839714Y-66561678D02*
X83768285Y-66633107D01*
X83768285Y-66633107D02*
X83696857Y-66668821D01*
X84554000Y-66775964D02*
X84482571Y-66740250D01*
X84482571Y-66740250D02*
X84446857Y-66704535D01*
X84446857Y-66704535D02*
X84411143Y-66633107D01*
X84411143Y-66633107D02*
X84411143Y-66597392D01*
X84411143Y-66597392D02*
X84446857Y-66525964D01*
X84446857Y-66525964D02*
X84482571Y-66490250D01*
X84482571Y-66490250D02*
X84554000Y-66454535D01*
X84554000Y-66454535D02*
X84696857Y-66454535D01*
X84696857Y-66454535D02*
X84768286Y-66490250D01*
X84768286Y-66490250D02*
X84804000Y-66525964D01*
X84804000Y-66525964D02*
X84839714Y-66597392D01*
X84839714Y-66597392D02*
X84839714Y-66633107D01*
X84839714Y-66633107D02*
X84804000Y-66704535D01*
X84804000Y-66704535D02*
X84768286Y-66740250D01*
X84768286Y-66740250D02*
X84696857Y-66775964D01*
X84696857Y-66775964D02*
X84554000Y-66775964D01*
X84554000Y-66775964D02*
X84482571Y-66811678D01*
X84482571Y-66811678D02*
X84446857Y-66847392D01*
X84446857Y-66847392D02*
X84411143Y-66918821D01*
X84411143Y-66918821D02*
X84411143Y-67061678D01*
X84411143Y-67061678D02*
X84446857Y-67133107D01*
X84446857Y-67133107D02*
X84482571Y-67168821D01*
X84482571Y-67168821D02*
X84554000Y-67204535D01*
X84554000Y-67204535D02*
X84696857Y-67204535D01*
X84696857Y-67204535D02*
X84768286Y-67168821D01*
X84768286Y-67168821D02*
X84804000Y-67133107D01*
X84804000Y-67133107D02*
X84839714Y-67061678D01*
X84839714Y-67061678D02*
X84839714Y-66918821D01*
X84839714Y-66918821D02*
X84804000Y-66847392D01*
X84804000Y-66847392D02*
X84768286Y-66811678D01*
X84768286Y-66811678D02*
X84696857Y-66775964D01*
%TO.C,R7*%
X103790856Y-73935535D02*
X103540856Y-73578392D01*
X103362285Y-73935535D02*
X103362285Y-73185535D01*
X103362285Y-73185535D02*
X103647999Y-73185535D01*
X103647999Y-73185535D02*
X103719428Y-73221250D01*
X103719428Y-73221250D02*
X103755142Y-73256964D01*
X103755142Y-73256964D02*
X103790856Y-73328392D01*
X103790856Y-73328392D02*
X103790856Y-73435535D01*
X103790856Y-73435535D02*
X103755142Y-73506964D01*
X103755142Y-73506964D02*
X103719428Y-73542678D01*
X103719428Y-73542678D02*
X103647999Y-73578392D01*
X103647999Y-73578392D02*
X103362285Y-73578392D01*
X104040856Y-73185535D02*
X104540856Y-73185535D01*
X104540856Y-73185535D02*
X104219428Y-73935535D01*
%TO.C,C5*%
X99708999Y-65010107D02*
X99673285Y-65045821D01*
X99673285Y-65045821D02*
X99566142Y-65081535D01*
X99566142Y-65081535D02*
X99494714Y-65081535D01*
X99494714Y-65081535D02*
X99387571Y-65045821D01*
X99387571Y-65045821D02*
X99316142Y-64974392D01*
X99316142Y-64974392D02*
X99280428Y-64902964D01*
X99280428Y-64902964D02*
X99244714Y-64760107D01*
X99244714Y-64760107D02*
X99244714Y-64652964D01*
X99244714Y-64652964D02*
X99280428Y-64510107D01*
X99280428Y-64510107D02*
X99316142Y-64438678D01*
X99316142Y-64438678D02*
X99387571Y-64367250D01*
X99387571Y-64367250D02*
X99494714Y-64331535D01*
X99494714Y-64331535D02*
X99566142Y-64331535D01*
X99566142Y-64331535D02*
X99673285Y-64367250D01*
X99673285Y-64367250D02*
X99708999Y-64402964D01*
X100387571Y-64331535D02*
X100030428Y-64331535D01*
X100030428Y-64331535D02*
X99994714Y-64688678D01*
X99994714Y-64688678D02*
X100030428Y-64652964D01*
X100030428Y-64652964D02*
X100101857Y-64617250D01*
X100101857Y-64617250D02*
X100280428Y-64617250D01*
X100280428Y-64617250D02*
X100351857Y-64652964D01*
X100351857Y-64652964D02*
X100387571Y-64688678D01*
X100387571Y-64688678D02*
X100423285Y-64760107D01*
X100423285Y-64760107D02*
X100423285Y-64938678D01*
X100423285Y-64938678D02*
X100387571Y-65010107D01*
X100387571Y-65010107D02*
X100351857Y-65045821D01*
X100351857Y-65045821D02*
X100280428Y-65081535D01*
X100280428Y-65081535D02*
X100101857Y-65081535D01*
X100101857Y-65081535D02*
X100030428Y-65045821D01*
X100030428Y-65045821D02*
X99994714Y-65010107D01*
%TO.C,TP2*%
X108781571Y-83887535D02*
X109210143Y-83887535D01*
X108995857Y-84637535D02*
X108995857Y-83887535D01*
X109460143Y-84637535D02*
X109460143Y-83887535D01*
X109460143Y-83887535D02*
X109745857Y-83887535D01*
X109745857Y-83887535D02*
X109817286Y-83923250D01*
X109817286Y-83923250D02*
X109853000Y-83958964D01*
X109853000Y-83958964D02*
X109888714Y-84030392D01*
X109888714Y-84030392D02*
X109888714Y-84137535D01*
X109888714Y-84137535D02*
X109853000Y-84208964D01*
X109853000Y-84208964D02*
X109817286Y-84244678D01*
X109817286Y-84244678D02*
X109745857Y-84280392D01*
X109745857Y-84280392D02*
X109460143Y-84280392D01*
X110174429Y-83958964D02*
X110210143Y-83923250D01*
X110210143Y-83923250D02*
X110281572Y-83887535D01*
X110281572Y-83887535D02*
X110460143Y-83887535D01*
X110460143Y-83887535D02*
X110531572Y-83923250D01*
X110531572Y-83923250D02*
X110567286Y-83958964D01*
X110567286Y-83958964D02*
X110603000Y-84030392D01*
X110603000Y-84030392D02*
X110603000Y-84101821D01*
X110603000Y-84101821D02*
X110567286Y-84208964D01*
X110567286Y-84208964D02*
X110138714Y-84637535D01*
X110138714Y-84637535D02*
X110603000Y-84637535D01*
%TO.C,R8*%
X103790856Y-75332535D02*
X103540856Y-74975392D01*
X103362285Y-75332535D02*
X103362285Y-74582535D01*
X103362285Y-74582535D02*
X103647999Y-74582535D01*
X103647999Y-74582535D02*
X103719428Y-74618250D01*
X103719428Y-74618250D02*
X103755142Y-74653964D01*
X103755142Y-74653964D02*
X103790856Y-74725392D01*
X103790856Y-74725392D02*
X103790856Y-74832535D01*
X103790856Y-74832535D02*
X103755142Y-74903964D01*
X103755142Y-74903964D02*
X103719428Y-74939678D01*
X103719428Y-74939678D02*
X103647999Y-74975392D01*
X103647999Y-74975392D02*
X103362285Y-74975392D01*
X104219428Y-74903964D02*
X104147999Y-74868250D01*
X104147999Y-74868250D02*
X104112285Y-74832535D01*
X104112285Y-74832535D02*
X104076571Y-74761107D01*
X104076571Y-74761107D02*
X104076571Y-74725392D01*
X104076571Y-74725392D02*
X104112285Y-74653964D01*
X104112285Y-74653964D02*
X104147999Y-74618250D01*
X104147999Y-74618250D02*
X104219428Y-74582535D01*
X104219428Y-74582535D02*
X104362285Y-74582535D01*
X104362285Y-74582535D02*
X104433714Y-74618250D01*
X104433714Y-74618250D02*
X104469428Y-74653964D01*
X104469428Y-74653964D02*
X104505142Y-74725392D01*
X104505142Y-74725392D02*
X104505142Y-74761107D01*
X104505142Y-74761107D02*
X104469428Y-74832535D01*
X104469428Y-74832535D02*
X104433714Y-74868250D01*
X104433714Y-74868250D02*
X104362285Y-74903964D01*
X104362285Y-74903964D02*
X104219428Y-74903964D01*
X104219428Y-74903964D02*
X104147999Y-74939678D01*
X104147999Y-74939678D02*
X104112285Y-74975392D01*
X104112285Y-74975392D02*
X104076571Y-75046821D01*
X104076571Y-75046821D02*
X104076571Y-75189678D01*
X104076571Y-75189678D02*
X104112285Y-75261107D01*
X104112285Y-75261107D02*
X104147999Y-75296821D01*
X104147999Y-75296821D02*
X104219428Y-75332535D01*
X104219428Y-75332535D02*
X104362285Y-75332535D01*
X104362285Y-75332535D02*
X104433714Y-75296821D01*
X104433714Y-75296821D02*
X104469428Y-75261107D01*
X104469428Y-75261107D02*
X104505142Y-75189678D01*
X104505142Y-75189678D02*
X104505142Y-75046821D01*
X104505142Y-75046821D02*
X104469428Y-74975392D01*
X104469428Y-74975392D02*
X104433714Y-74939678D01*
X104433714Y-74939678D02*
X104362285Y-74903964D01*
%TO.C,R13*%
X74628570Y-84603535D02*
X74378570Y-84246392D01*
X74199999Y-84603535D02*
X74199999Y-83853535D01*
X74199999Y-83853535D02*
X74485713Y-83853535D01*
X74485713Y-83853535D02*
X74557142Y-83889250D01*
X74557142Y-83889250D02*
X74592856Y-83924964D01*
X74592856Y-83924964D02*
X74628570Y-83996392D01*
X74628570Y-83996392D02*
X74628570Y-84103535D01*
X74628570Y-84103535D02*
X74592856Y-84174964D01*
X74592856Y-84174964D02*
X74557142Y-84210678D01*
X74557142Y-84210678D02*
X74485713Y-84246392D01*
X74485713Y-84246392D02*
X74199999Y-84246392D01*
X75342856Y-84603535D02*
X74914285Y-84603535D01*
X75128570Y-84603535D02*
X75128570Y-83853535D01*
X75128570Y-83853535D02*
X75057142Y-83960678D01*
X75057142Y-83960678D02*
X74985713Y-84032107D01*
X74985713Y-84032107D02*
X74914285Y-84067821D01*
X75592856Y-83853535D02*
X76057142Y-83853535D01*
X76057142Y-83853535D02*
X75807142Y-84139250D01*
X75807142Y-84139250D02*
X75914285Y-84139250D01*
X75914285Y-84139250D02*
X75985714Y-84174964D01*
X75985714Y-84174964D02*
X76021428Y-84210678D01*
X76021428Y-84210678D02*
X76057142Y-84282107D01*
X76057142Y-84282107D02*
X76057142Y-84460678D01*
X76057142Y-84460678D02*
X76021428Y-84532107D01*
X76021428Y-84532107D02*
X75985714Y-84567821D01*
X75985714Y-84567821D02*
X75914285Y-84603535D01*
X75914285Y-84603535D02*
X75699999Y-84603535D01*
X75699999Y-84603535D02*
X75628571Y-84567821D01*
X75628571Y-84567821D02*
X75592856Y-84532107D01*
%TO.C,R19*%
X72415856Y-57171535D02*
X72165856Y-56814392D01*
X71987285Y-57171535D02*
X71987285Y-56421535D01*
X71987285Y-56421535D02*
X72272999Y-56421535D01*
X72272999Y-56421535D02*
X72344428Y-56457250D01*
X72344428Y-56457250D02*
X72380142Y-56492964D01*
X72380142Y-56492964D02*
X72415856Y-56564392D01*
X72415856Y-56564392D02*
X72415856Y-56671535D01*
X72415856Y-56671535D02*
X72380142Y-56742964D01*
X72380142Y-56742964D02*
X72344428Y-56778678D01*
X72344428Y-56778678D02*
X72272999Y-56814392D01*
X72272999Y-56814392D02*
X71987285Y-56814392D01*
X73130142Y-57171535D02*
X72701571Y-57171535D01*
X72915856Y-57171535D02*
X72915856Y-56421535D01*
X72915856Y-56421535D02*
X72844428Y-56528678D01*
X72844428Y-56528678D02*
X72772999Y-56600107D01*
X72772999Y-56600107D02*
X72701571Y-56635821D01*
X73487285Y-57171535D02*
X73630142Y-57171535D01*
X73630142Y-57171535D02*
X73701571Y-57135821D01*
X73701571Y-57135821D02*
X73737285Y-57100107D01*
X73737285Y-57100107D02*
X73808714Y-56992964D01*
X73808714Y-56992964D02*
X73844428Y-56850107D01*
X73844428Y-56850107D02*
X73844428Y-56564392D01*
X73844428Y-56564392D02*
X73808714Y-56492964D01*
X73808714Y-56492964D02*
X73773000Y-56457250D01*
X73773000Y-56457250D02*
X73701571Y-56421535D01*
X73701571Y-56421535D02*
X73558714Y-56421535D01*
X73558714Y-56421535D02*
X73487285Y-56457250D01*
X73487285Y-56457250D02*
X73451571Y-56492964D01*
X73451571Y-56492964D02*
X73415857Y-56564392D01*
X73415857Y-56564392D02*
X73415857Y-56742964D01*
X73415857Y-56742964D02*
X73451571Y-56814392D01*
X73451571Y-56814392D02*
X73487285Y-56850107D01*
X73487285Y-56850107D02*
X73558714Y-56885821D01*
X73558714Y-56885821D02*
X73701571Y-56885821D01*
X73701571Y-56885821D02*
X73773000Y-56850107D01*
X73773000Y-56850107D02*
X73808714Y-56814392D01*
X73808714Y-56814392D02*
X73844428Y-56742964D01*
%TO.C,R17*%
X100986535Y-72872143D02*
X100629392Y-73122143D01*
X100986535Y-73300714D02*
X100236535Y-73300714D01*
X100236535Y-73300714D02*
X100236535Y-73015000D01*
X100236535Y-73015000D02*
X100272250Y-72943571D01*
X100272250Y-72943571D02*
X100307964Y-72907857D01*
X100307964Y-72907857D02*
X100379392Y-72872143D01*
X100379392Y-72872143D02*
X100486535Y-72872143D01*
X100486535Y-72872143D02*
X100557964Y-72907857D01*
X100557964Y-72907857D02*
X100593678Y-72943571D01*
X100593678Y-72943571D02*
X100629392Y-73015000D01*
X100629392Y-73015000D02*
X100629392Y-73300714D01*
X100986535Y-72157857D02*
X100986535Y-72586428D01*
X100986535Y-72372143D02*
X100236535Y-72372143D01*
X100236535Y-72372143D02*
X100343678Y-72443571D01*
X100343678Y-72443571D02*
X100415107Y-72515000D01*
X100415107Y-72515000D02*
X100450821Y-72586428D01*
X100236535Y-71907857D02*
X100236535Y-71407857D01*
X100236535Y-71407857D02*
X100986535Y-71729285D01*
%TO.C,R9*%
X111791856Y-32203535D02*
X111541856Y-31846392D01*
X111363285Y-32203535D02*
X111363285Y-31453535D01*
X111363285Y-31453535D02*
X111648999Y-31453535D01*
X111648999Y-31453535D02*
X111720428Y-31489250D01*
X111720428Y-31489250D02*
X111756142Y-31524964D01*
X111756142Y-31524964D02*
X111791856Y-31596392D01*
X111791856Y-31596392D02*
X111791856Y-31703535D01*
X111791856Y-31703535D02*
X111756142Y-31774964D01*
X111756142Y-31774964D02*
X111720428Y-31810678D01*
X111720428Y-31810678D02*
X111648999Y-31846392D01*
X111648999Y-31846392D02*
X111363285Y-31846392D01*
X112148999Y-32203535D02*
X112291856Y-32203535D01*
X112291856Y-32203535D02*
X112363285Y-32167821D01*
X112363285Y-32167821D02*
X112398999Y-32132107D01*
X112398999Y-32132107D02*
X112470428Y-32024964D01*
X112470428Y-32024964D02*
X112506142Y-31882107D01*
X112506142Y-31882107D02*
X112506142Y-31596392D01*
X112506142Y-31596392D02*
X112470428Y-31524964D01*
X112470428Y-31524964D02*
X112434714Y-31489250D01*
X112434714Y-31489250D02*
X112363285Y-31453535D01*
X112363285Y-31453535D02*
X112220428Y-31453535D01*
X112220428Y-31453535D02*
X112148999Y-31489250D01*
X112148999Y-31489250D02*
X112113285Y-31524964D01*
X112113285Y-31524964D02*
X112077571Y-31596392D01*
X112077571Y-31596392D02*
X112077571Y-31774964D01*
X112077571Y-31774964D02*
X112113285Y-31846392D01*
X112113285Y-31846392D02*
X112148999Y-31882107D01*
X112148999Y-31882107D02*
X112220428Y-31917821D01*
X112220428Y-31917821D02*
X112363285Y-31917821D01*
X112363285Y-31917821D02*
X112434714Y-31882107D01*
X112434714Y-31882107D02*
X112470428Y-31846392D01*
X112470428Y-31846392D02*
X112506142Y-31774964D01*
%TO.C,C6*%
X108586999Y-56592107D02*
X108551285Y-56627821D01*
X108551285Y-56627821D02*
X108444142Y-56663535D01*
X108444142Y-56663535D02*
X108372714Y-56663535D01*
X108372714Y-56663535D02*
X108265571Y-56627821D01*
X108265571Y-56627821D02*
X108194142Y-56556392D01*
X108194142Y-56556392D02*
X108158428Y-56484964D01*
X108158428Y-56484964D02*
X108122714Y-56342107D01*
X108122714Y-56342107D02*
X108122714Y-56234964D01*
X108122714Y-56234964D02*
X108158428Y-56092107D01*
X108158428Y-56092107D02*
X108194142Y-56020678D01*
X108194142Y-56020678D02*
X108265571Y-55949250D01*
X108265571Y-55949250D02*
X108372714Y-55913535D01*
X108372714Y-55913535D02*
X108444142Y-55913535D01*
X108444142Y-55913535D02*
X108551285Y-55949250D01*
X108551285Y-55949250D02*
X108586999Y-55984964D01*
X109229857Y-55913535D02*
X109086999Y-55913535D01*
X109086999Y-55913535D02*
X109015571Y-55949250D01*
X109015571Y-55949250D02*
X108979857Y-55984964D01*
X108979857Y-55984964D02*
X108908428Y-56092107D01*
X108908428Y-56092107D02*
X108872714Y-56234964D01*
X108872714Y-56234964D02*
X108872714Y-56520678D01*
X108872714Y-56520678D02*
X108908428Y-56592107D01*
X108908428Y-56592107D02*
X108944142Y-56627821D01*
X108944142Y-56627821D02*
X109015571Y-56663535D01*
X109015571Y-56663535D02*
X109158428Y-56663535D01*
X109158428Y-56663535D02*
X109229857Y-56627821D01*
X109229857Y-56627821D02*
X109265571Y-56592107D01*
X109265571Y-56592107D02*
X109301285Y-56520678D01*
X109301285Y-56520678D02*
X109301285Y-56342107D01*
X109301285Y-56342107D02*
X109265571Y-56270678D01*
X109265571Y-56270678D02*
X109229857Y-56234964D01*
X109229857Y-56234964D02*
X109158428Y-56199250D01*
X109158428Y-56199250D02*
X109015571Y-56199250D01*
X109015571Y-56199250D02*
X108944142Y-56234964D01*
X108944142Y-56234964D02*
X108908428Y-56270678D01*
X108908428Y-56270678D02*
X108872714Y-56342107D01*
%TO.C,R1*%
X111791856Y-30933535D02*
X111541856Y-30576392D01*
X111363285Y-30933535D02*
X111363285Y-30183535D01*
X111363285Y-30183535D02*
X111648999Y-30183535D01*
X111648999Y-30183535D02*
X111720428Y-30219250D01*
X111720428Y-30219250D02*
X111756142Y-30254964D01*
X111756142Y-30254964D02*
X111791856Y-30326392D01*
X111791856Y-30326392D02*
X111791856Y-30433535D01*
X111791856Y-30433535D02*
X111756142Y-30504964D01*
X111756142Y-30504964D02*
X111720428Y-30540678D01*
X111720428Y-30540678D02*
X111648999Y-30576392D01*
X111648999Y-30576392D02*
X111363285Y-30576392D01*
X112506142Y-30933535D02*
X112077571Y-30933535D01*
X112291856Y-30933535D02*
X112291856Y-30183535D01*
X112291856Y-30183535D02*
X112220428Y-30290678D01*
X112220428Y-30290678D02*
X112148999Y-30362107D01*
X112148999Y-30362107D02*
X112077571Y-30397821D01*
%TO.C,Q1*%
X70047589Y-49831428D02*
X70011875Y-49902857D01*
X70011875Y-49902857D02*
X69940446Y-49974285D01*
X69940446Y-49974285D02*
X69833303Y-50081428D01*
X69833303Y-50081428D02*
X69797589Y-50152857D01*
X69797589Y-50152857D02*
X69797589Y-50224285D01*
X69976160Y-50188571D02*
X69940446Y-50260000D01*
X69940446Y-50260000D02*
X69869017Y-50331428D01*
X69869017Y-50331428D02*
X69726160Y-50367142D01*
X69726160Y-50367142D02*
X69476160Y-50367142D01*
X69476160Y-50367142D02*
X69333303Y-50331428D01*
X69333303Y-50331428D02*
X69261875Y-50260000D01*
X69261875Y-50260000D02*
X69226160Y-50188571D01*
X69226160Y-50188571D02*
X69226160Y-50045714D01*
X69226160Y-50045714D02*
X69261875Y-49974285D01*
X69261875Y-49974285D02*
X69333303Y-49902857D01*
X69333303Y-49902857D02*
X69476160Y-49867142D01*
X69476160Y-49867142D02*
X69726160Y-49867142D01*
X69726160Y-49867142D02*
X69869017Y-49902857D01*
X69869017Y-49902857D02*
X69940446Y-49974285D01*
X69940446Y-49974285D02*
X69976160Y-50045714D01*
X69976160Y-50045714D02*
X69976160Y-50188571D01*
X69976160Y-49152857D02*
X69976160Y-49581428D01*
X69976160Y-49367143D02*
X69226160Y-49367143D01*
X69226160Y-49367143D02*
X69333303Y-49438571D01*
X69333303Y-49438571D02*
X69404732Y-49510000D01*
X69404732Y-49510000D02*
X69440446Y-49581428D01*
%TO.C,R3*%
X114682999Y-81301535D02*
X114432999Y-80944392D01*
X114254428Y-81301535D02*
X114254428Y-80551535D01*
X114254428Y-80551535D02*
X114540142Y-80551535D01*
X114540142Y-80551535D02*
X114611571Y-80587250D01*
X114611571Y-80587250D02*
X114647285Y-80622964D01*
X114647285Y-80622964D02*
X114682999Y-80694392D01*
X114682999Y-80694392D02*
X114682999Y-80801535D01*
X114682999Y-80801535D02*
X114647285Y-80872964D01*
X114647285Y-80872964D02*
X114611571Y-80908678D01*
X114611571Y-80908678D02*
X114540142Y-80944392D01*
X114540142Y-80944392D02*
X114254428Y-80944392D01*
X114932999Y-80551535D02*
X115397285Y-80551535D01*
X115397285Y-80551535D02*
X115147285Y-80837250D01*
X115147285Y-80837250D02*
X115254428Y-80837250D01*
X115254428Y-80837250D02*
X115325857Y-80872964D01*
X115325857Y-80872964D02*
X115361571Y-80908678D01*
X115361571Y-80908678D02*
X115397285Y-80980107D01*
X115397285Y-80980107D02*
X115397285Y-81158678D01*
X115397285Y-81158678D02*
X115361571Y-81230107D01*
X115361571Y-81230107D02*
X115325857Y-81265821D01*
X115325857Y-81265821D02*
X115254428Y-81301535D01*
X115254428Y-81301535D02*
X115040142Y-81301535D01*
X115040142Y-81301535D02*
X114968714Y-81265821D01*
X114968714Y-81265821D02*
X114932999Y-81230107D01*
%TO.C,R23*%
X94005856Y-57171535D02*
X93755856Y-56814392D01*
X93577285Y-57171535D02*
X93577285Y-56421535D01*
X93577285Y-56421535D02*
X93862999Y-56421535D01*
X93862999Y-56421535D02*
X93934428Y-56457250D01*
X93934428Y-56457250D02*
X93970142Y-56492964D01*
X93970142Y-56492964D02*
X94005856Y-56564392D01*
X94005856Y-56564392D02*
X94005856Y-56671535D01*
X94005856Y-56671535D02*
X93970142Y-56742964D01*
X93970142Y-56742964D02*
X93934428Y-56778678D01*
X93934428Y-56778678D02*
X93862999Y-56814392D01*
X93862999Y-56814392D02*
X93577285Y-56814392D01*
X94291571Y-56492964D02*
X94327285Y-56457250D01*
X94327285Y-56457250D02*
X94398714Y-56421535D01*
X94398714Y-56421535D02*
X94577285Y-56421535D01*
X94577285Y-56421535D02*
X94648714Y-56457250D01*
X94648714Y-56457250D02*
X94684428Y-56492964D01*
X94684428Y-56492964D02*
X94720142Y-56564392D01*
X94720142Y-56564392D02*
X94720142Y-56635821D01*
X94720142Y-56635821D02*
X94684428Y-56742964D01*
X94684428Y-56742964D02*
X94255856Y-57171535D01*
X94255856Y-57171535D02*
X94720142Y-57171535D01*
X94970142Y-56421535D02*
X95434428Y-56421535D01*
X95434428Y-56421535D02*
X95184428Y-56707250D01*
X95184428Y-56707250D02*
X95291571Y-56707250D01*
X95291571Y-56707250D02*
X95363000Y-56742964D01*
X95363000Y-56742964D02*
X95398714Y-56778678D01*
X95398714Y-56778678D02*
X95434428Y-56850107D01*
X95434428Y-56850107D02*
X95434428Y-57028678D01*
X95434428Y-57028678D02*
X95398714Y-57100107D01*
X95398714Y-57100107D02*
X95363000Y-57135821D01*
X95363000Y-57135821D02*
X95291571Y-57171535D01*
X95291571Y-57171535D02*
X95077285Y-57171535D01*
X95077285Y-57171535D02*
X95005857Y-57135821D01*
X95005857Y-57135821D02*
X94970142Y-57100107D01*
%TO.C,Q3*%
X84440921Y-49831428D02*
X84405207Y-49902857D01*
X84405207Y-49902857D02*
X84333778Y-49974285D01*
X84333778Y-49974285D02*
X84226635Y-50081428D01*
X84226635Y-50081428D02*
X84190921Y-50152857D01*
X84190921Y-50152857D02*
X84190921Y-50224285D01*
X84369492Y-50188571D02*
X84333778Y-50260000D01*
X84333778Y-50260000D02*
X84262349Y-50331428D01*
X84262349Y-50331428D02*
X84119492Y-50367142D01*
X84119492Y-50367142D02*
X83869492Y-50367142D01*
X83869492Y-50367142D02*
X83726635Y-50331428D01*
X83726635Y-50331428D02*
X83655207Y-50260000D01*
X83655207Y-50260000D02*
X83619492Y-50188571D01*
X83619492Y-50188571D02*
X83619492Y-50045714D01*
X83619492Y-50045714D02*
X83655207Y-49974285D01*
X83655207Y-49974285D02*
X83726635Y-49902857D01*
X83726635Y-49902857D02*
X83869492Y-49867142D01*
X83869492Y-49867142D02*
X84119492Y-49867142D01*
X84119492Y-49867142D02*
X84262349Y-49902857D01*
X84262349Y-49902857D02*
X84333778Y-49974285D01*
X84333778Y-49974285D02*
X84369492Y-50045714D01*
X84369492Y-50045714D02*
X84369492Y-50188571D01*
X83619492Y-49617143D02*
X83619492Y-49152857D01*
X83619492Y-49152857D02*
X83905207Y-49402857D01*
X83905207Y-49402857D02*
X83905207Y-49295714D01*
X83905207Y-49295714D02*
X83940921Y-49224286D01*
X83940921Y-49224286D02*
X83976635Y-49188571D01*
X83976635Y-49188571D02*
X84048064Y-49152857D01*
X84048064Y-49152857D02*
X84226635Y-49152857D01*
X84226635Y-49152857D02*
X84298064Y-49188571D01*
X84298064Y-49188571D02*
X84333778Y-49224286D01*
X84333778Y-49224286D02*
X84369492Y-49295714D01*
X84369492Y-49295714D02*
X84369492Y-49510000D01*
X84369492Y-49510000D02*
X84333778Y-49581428D01*
X84333778Y-49581428D02*
X84298064Y-49617143D01*
%TO.C,R15*%
X74628570Y-86117535D02*
X74378570Y-85760392D01*
X74199999Y-86117535D02*
X74199999Y-85367535D01*
X74199999Y-85367535D02*
X74485713Y-85367535D01*
X74485713Y-85367535D02*
X74557142Y-85403250D01*
X74557142Y-85403250D02*
X74592856Y-85438964D01*
X74592856Y-85438964D02*
X74628570Y-85510392D01*
X74628570Y-85510392D02*
X74628570Y-85617535D01*
X74628570Y-85617535D02*
X74592856Y-85688964D01*
X74592856Y-85688964D02*
X74557142Y-85724678D01*
X74557142Y-85724678D02*
X74485713Y-85760392D01*
X74485713Y-85760392D02*
X74199999Y-85760392D01*
X75342856Y-86117535D02*
X74914285Y-86117535D01*
X75128570Y-86117535D02*
X75128570Y-85367535D01*
X75128570Y-85367535D02*
X75057142Y-85474678D01*
X75057142Y-85474678D02*
X74985713Y-85546107D01*
X74985713Y-85546107D02*
X74914285Y-85581821D01*
X76021428Y-85367535D02*
X75664285Y-85367535D01*
X75664285Y-85367535D02*
X75628571Y-85724678D01*
X75628571Y-85724678D02*
X75664285Y-85688964D01*
X75664285Y-85688964D02*
X75735714Y-85653250D01*
X75735714Y-85653250D02*
X75914285Y-85653250D01*
X75914285Y-85653250D02*
X75985714Y-85688964D01*
X75985714Y-85688964D02*
X76021428Y-85724678D01*
X76021428Y-85724678D02*
X76057142Y-85796107D01*
X76057142Y-85796107D02*
X76057142Y-85974678D01*
X76057142Y-85974678D02*
X76021428Y-86046107D01*
X76021428Y-86046107D02*
X75985714Y-86081821D01*
X75985714Y-86081821D02*
X75914285Y-86117535D01*
X75914285Y-86117535D02*
X75735714Y-86117535D01*
X75735714Y-86117535D02*
X75664285Y-86081821D01*
X75664285Y-86081821D02*
X75628571Y-86046107D01*
%TO.C,Q2*%
X77244255Y-49831428D02*
X77208541Y-49902857D01*
X77208541Y-49902857D02*
X77137112Y-49974285D01*
X77137112Y-49974285D02*
X77029969Y-50081428D01*
X77029969Y-50081428D02*
X76994255Y-50152857D01*
X76994255Y-50152857D02*
X76994255Y-50224285D01*
X77172826Y-50188571D02*
X77137112Y-50260000D01*
X77137112Y-50260000D02*
X77065683Y-50331428D01*
X77065683Y-50331428D02*
X76922826Y-50367142D01*
X76922826Y-50367142D02*
X76672826Y-50367142D01*
X76672826Y-50367142D02*
X76529969Y-50331428D01*
X76529969Y-50331428D02*
X76458541Y-50260000D01*
X76458541Y-50260000D02*
X76422826Y-50188571D01*
X76422826Y-50188571D02*
X76422826Y-50045714D01*
X76422826Y-50045714D02*
X76458541Y-49974285D01*
X76458541Y-49974285D02*
X76529969Y-49902857D01*
X76529969Y-49902857D02*
X76672826Y-49867142D01*
X76672826Y-49867142D02*
X76922826Y-49867142D01*
X76922826Y-49867142D02*
X77065683Y-49902857D01*
X77065683Y-49902857D02*
X77137112Y-49974285D01*
X77137112Y-49974285D02*
X77172826Y-50045714D01*
X77172826Y-50045714D02*
X77172826Y-50188571D01*
X76494255Y-49581428D02*
X76458541Y-49545714D01*
X76458541Y-49545714D02*
X76422826Y-49474286D01*
X76422826Y-49474286D02*
X76422826Y-49295714D01*
X76422826Y-49295714D02*
X76458541Y-49224286D01*
X76458541Y-49224286D02*
X76494255Y-49188571D01*
X76494255Y-49188571D02*
X76565683Y-49152857D01*
X76565683Y-49152857D02*
X76637112Y-49152857D01*
X76637112Y-49152857D02*
X76744255Y-49188571D01*
X76744255Y-49188571D02*
X77172826Y-49617143D01*
X77172826Y-49617143D02*
X77172826Y-49152857D01*
%TO.C,D2*%
X129249928Y-79777535D02*
X129249928Y-79027535D01*
X129249928Y-79027535D02*
X129428499Y-79027535D01*
X129428499Y-79027535D02*
X129535642Y-79063250D01*
X129535642Y-79063250D02*
X129607071Y-79134678D01*
X129607071Y-79134678D02*
X129642785Y-79206107D01*
X129642785Y-79206107D02*
X129678499Y-79348964D01*
X129678499Y-79348964D02*
X129678499Y-79456107D01*
X129678499Y-79456107D02*
X129642785Y-79598964D01*
X129642785Y-79598964D02*
X129607071Y-79670392D01*
X129607071Y-79670392D02*
X129535642Y-79741821D01*
X129535642Y-79741821D02*
X129428499Y-79777535D01*
X129428499Y-79777535D02*
X129249928Y-79777535D01*
X129964214Y-79098964D02*
X129999928Y-79063250D01*
X129999928Y-79063250D02*
X130071357Y-79027535D01*
X130071357Y-79027535D02*
X130249928Y-79027535D01*
X130249928Y-79027535D02*
X130321357Y-79063250D01*
X130321357Y-79063250D02*
X130357071Y-79098964D01*
X130357071Y-79098964D02*
X130392785Y-79170392D01*
X130392785Y-79170392D02*
X130392785Y-79241821D01*
X130392785Y-79241821D02*
X130357071Y-79348964D01*
X130357071Y-79348964D02*
X129928499Y-79777535D01*
X129928499Y-79777535D02*
X130392785Y-79777535D01*
%TO.C,C1*%
X105513107Y-60670000D02*
X105548821Y-60705714D01*
X105548821Y-60705714D02*
X105584535Y-60812857D01*
X105584535Y-60812857D02*
X105584535Y-60884285D01*
X105584535Y-60884285D02*
X105548821Y-60991428D01*
X105548821Y-60991428D02*
X105477392Y-61062857D01*
X105477392Y-61062857D02*
X105405964Y-61098571D01*
X105405964Y-61098571D02*
X105263107Y-61134285D01*
X105263107Y-61134285D02*
X105155964Y-61134285D01*
X105155964Y-61134285D02*
X105013107Y-61098571D01*
X105013107Y-61098571D02*
X104941678Y-61062857D01*
X104941678Y-61062857D02*
X104870250Y-60991428D01*
X104870250Y-60991428D02*
X104834535Y-60884285D01*
X104834535Y-60884285D02*
X104834535Y-60812857D01*
X104834535Y-60812857D02*
X104870250Y-60705714D01*
X104870250Y-60705714D02*
X104905964Y-60670000D01*
X105584535Y-59955714D02*
X105584535Y-60384285D01*
X105584535Y-60170000D02*
X104834535Y-60170000D01*
X104834535Y-60170000D02*
X104941678Y-60241428D01*
X104941678Y-60241428D02*
X105013107Y-60312857D01*
X105013107Y-60312857D02*
X105048821Y-60384285D01*
%TO.C,J1*%
X137810000Y-49305535D02*
X137810000Y-49841250D01*
X137810000Y-49841250D02*
X137774285Y-49948392D01*
X137774285Y-49948392D02*
X137702857Y-50019821D01*
X137702857Y-50019821D02*
X137595714Y-50055535D01*
X137595714Y-50055535D02*
X137524285Y-50055535D01*
X138560000Y-50055535D02*
X138131429Y-50055535D01*
X138345714Y-50055535D02*
X138345714Y-49305535D01*
X138345714Y-49305535D02*
X138274286Y-49412678D01*
X138274286Y-49412678D02*
X138202857Y-49484107D01*
X138202857Y-49484107D02*
X138131429Y-49519821D01*
%TO.C,R14*%
X74628570Y-87651535D02*
X74378570Y-87294392D01*
X74199999Y-87651535D02*
X74199999Y-86901535D01*
X74199999Y-86901535D02*
X74485713Y-86901535D01*
X74485713Y-86901535D02*
X74557142Y-86937250D01*
X74557142Y-86937250D02*
X74592856Y-86972964D01*
X74592856Y-86972964D02*
X74628570Y-87044392D01*
X74628570Y-87044392D02*
X74628570Y-87151535D01*
X74628570Y-87151535D02*
X74592856Y-87222964D01*
X74592856Y-87222964D02*
X74557142Y-87258678D01*
X74557142Y-87258678D02*
X74485713Y-87294392D01*
X74485713Y-87294392D02*
X74199999Y-87294392D01*
X75342856Y-87651535D02*
X74914285Y-87651535D01*
X75128570Y-87651535D02*
X75128570Y-86901535D01*
X75128570Y-86901535D02*
X75057142Y-87008678D01*
X75057142Y-87008678D02*
X74985713Y-87080107D01*
X74985713Y-87080107D02*
X74914285Y-87115821D01*
X75985714Y-87151535D02*
X75985714Y-87651535D01*
X75807142Y-86865821D02*
X75628571Y-87401535D01*
X75628571Y-87401535D02*
X76092856Y-87401535D01*
%TO.C,D1*%
X137617428Y-79777535D02*
X137617428Y-79027535D01*
X137617428Y-79027535D02*
X137795999Y-79027535D01*
X137795999Y-79027535D02*
X137903142Y-79063250D01*
X137903142Y-79063250D02*
X137974571Y-79134678D01*
X137974571Y-79134678D02*
X138010285Y-79206107D01*
X138010285Y-79206107D02*
X138045999Y-79348964D01*
X138045999Y-79348964D02*
X138045999Y-79456107D01*
X138045999Y-79456107D02*
X138010285Y-79598964D01*
X138010285Y-79598964D02*
X137974571Y-79670392D01*
X137974571Y-79670392D02*
X137903142Y-79741821D01*
X137903142Y-79741821D02*
X137795999Y-79777535D01*
X137795999Y-79777535D02*
X137617428Y-79777535D01*
X138760285Y-79777535D02*
X138331714Y-79777535D01*
X138545999Y-79777535D02*
X138545999Y-79027535D01*
X138545999Y-79027535D02*
X138474571Y-79134678D01*
X138474571Y-79134678D02*
X138403142Y-79206107D01*
X138403142Y-79206107D02*
X138331714Y-79241821D01*
%TO.C,TP1*%
X102685571Y-83901535D02*
X103114143Y-83901535D01*
X102899857Y-84651535D02*
X102899857Y-83901535D01*
X103364143Y-84651535D02*
X103364143Y-83901535D01*
X103364143Y-83901535D02*
X103649857Y-83901535D01*
X103649857Y-83901535D02*
X103721286Y-83937250D01*
X103721286Y-83937250D02*
X103757000Y-83972964D01*
X103757000Y-83972964D02*
X103792714Y-84044392D01*
X103792714Y-84044392D02*
X103792714Y-84151535D01*
X103792714Y-84151535D02*
X103757000Y-84222964D01*
X103757000Y-84222964D02*
X103721286Y-84258678D01*
X103721286Y-84258678D02*
X103649857Y-84294392D01*
X103649857Y-84294392D02*
X103364143Y-84294392D01*
X104507000Y-84651535D02*
X104078429Y-84651535D01*
X104292714Y-84651535D02*
X104292714Y-83901535D01*
X104292714Y-83901535D02*
X104221286Y-84008678D01*
X104221286Y-84008678D02*
X104149857Y-84080107D01*
X104149857Y-84080107D02*
X104078429Y-84115821D01*
%TO.C,R16*%
X83411142Y-65934535D02*
X83161142Y-65577392D01*
X82982571Y-65934535D02*
X82982571Y-65184535D01*
X82982571Y-65184535D02*
X83268285Y-65184535D01*
X83268285Y-65184535D02*
X83339714Y-65220250D01*
X83339714Y-65220250D02*
X83375428Y-65255964D01*
X83375428Y-65255964D02*
X83411142Y-65327392D01*
X83411142Y-65327392D02*
X83411142Y-65434535D01*
X83411142Y-65434535D02*
X83375428Y-65505964D01*
X83375428Y-65505964D02*
X83339714Y-65541678D01*
X83339714Y-65541678D02*
X83268285Y-65577392D01*
X83268285Y-65577392D02*
X82982571Y-65577392D01*
X84125428Y-65934535D02*
X83696857Y-65934535D01*
X83911142Y-65934535D02*
X83911142Y-65184535D01*
X83911142Y-65184535D02*
X83839714Y-65291678D01*
X83839714Y-65291678D02*
X83768285Y-65363107D01*
X83768285Y-65363107D02*
X83696857Y-65398821D01*
X84768286Y-65184535D02*
X84625428Y-65184535D01*
X84625428Y-65184535D02*
X84554000Y-65220250D01*
X84554000Y-65220250D02*
X84518286Y-65255964D01*
X84518286Y-65255964D02*
X84446857Y-65363107D01*
X84446857Y-65363107D02*
X84411143Y-65505964D01*
X84411143Y-65505964D02*
X84411143Y-65791678D01*
X84411143Y-65791678D02*
X84446857Y-65863107D01*
X84446857Y-65863107D02*
X84482571Y-65898821D01*
X84482571Y-65898821D02*
X84554000Y-65934535D01*
X84554000Y-65934535D02*
X84696857Y-65934535D01*
X84696857Y-65934535D02*
X84768286Y-65898821D01*
X84768286Y-65898821D02*
X84804000Y-65863107D01*
X84804000Y-65863107D02*
X84839714Y-65791678D01*
X84839714Y-65791678D02*
X84839714Y-65613107D01*
X84839714Y-65613107D02*
X84804000Y-65541678D01*
X84804000Y-65541678D02*
X84768286Y-65505964D01*
X84768286Y-65505964D02*
X84696857Y-65470250D01*
X84696857Y-65470250D02*
X84554000Y-65470250D01*
X84554000Y-65470250D02*
X84482571Y-65505964D01*
X84482571Y-65505964D02*
X84446857Y-65541678D01*
X84446857Y-65541678D02*
X84411143Y-65613107D01*
%TO.C,VR1*%
X133248000Y-43498000D02*
X130248000Y-43498000D01*
X130248000Y-43498000D02*
X130248000Y-33798000D01*
X130248000Y-33798000D02*
X133248000Y-33798000D01*
X138248000Y-43498000D02*
X142748000Y-43498000D01*
X142748000Y-43498000D02*
X142748000Y-42648000D01*
X142748000Y-34648000D02*
X142748000Y-33798000D01*
X142748000Y-33798000D02*
X138248000Y-33798000D01*
X143948000Y-41248000D02*
X143948000Y-41248000D01*
X143948000Y-41048000D02*
X143948000Y-41048000D01*
X143948000Y-41048000D02*
G75*
G03*
X143948000Y-41248000I0J-100000D01*
G01*
X143948000Y-41248000D02*
G75*
G03*
X143948000Y-41048000I0J100000D01*
G01*
%TO.C,SW2*%
X64239000Y-67185000D02*
X75969000Y-67185000D01*
X75969000Y-67185000D02*
X75969000Y-80135000D01*
X75969000Y-80135000D02*
X64239000Y-80135000D01*
X64239000Y-80135000D02*
X64239000Y-67185000D01*
X63594000Y-76395000D02*
X63594000Y-76395000D01*
X63694000Y-76395000D02*
X63694000Y-76395000D01*
X63594000Y-76395000D02*
X63594000Y-76395000D01*
X63594000Y-76395000D02*
G75*
G03*
X63694000Y-76395000I50000J0D01*
G01*
X63694000Y-76395000D02*
G75*
G03*
X63594000Y-76395000I-50000J0D01*
G01*
X63594000Y-76395000D02*
G75*
G03*
X63694000Y-76395000I50000J0D01*
G01*
%TO.C,C7*%
X131930000Y-63500000D02*
G75*
G03*
X131930000Y-63500000I-2120000J0D01*
G01*
X130090000Y-61438000D02*
X130090000Y-62660000D01*
X130370000Y-61495000D02*
X130370000Y-62660000D01*
X131091000Y-61850000D02*
X131091000Y-62660000D01*
X130290000Y-61475000D02*
X130290000Y-62660000D01*
X131571000Y-62358000D02*
X131571000Y-62660000D01*
X130170000Y-61450000D02*
X130170000Y-62660000D01*
X131411000Y-64340000D02*
X131411000Y-64851000D01*
X130330000Y-61484000D02*
X130330000Y-62660000D01*
X130010000Y-64340000D02*
X130010000Y-65571000D01*
X131731000Y-62641000D02*
X131731000Y-64359000D01*
X131211000Y-64340000D02*
X131211000Y-65052000D01*
X130050000Y-64340000D02*
X130050000Y-65567000D01*
X131811000Y-62836000D02*
X131811000Y-64164000D01*
X131011000Y-61792000D02*
X131011000Y-62660000D01*
X129810000Y-61420000D02*
X129810000Y-65580000D01*
X130691000Y-64340000D02*
X130691000Y-65389000D01*
X131611000Y-62420000D02*
X131611000Y-62660000D01*
X131611000Y-64340000D02*
X131611000Y-64580000D01*
X131091000Y-64340000D02*
X131091000Y-65150000D01*
X130811000Y-64340000D02*
X130811000Y-65330000D01*
X130490000Y-64340000D02*
X130490000Y-65468000D01*
X129970000Y-61426000D02*
X129970000Y-65574000D01*
X130651000Y-61593000D02*
X130651000Y-62660000D01*
X130210000Y-64340000D02*
X130210000Y-65542000D01*
X130410000Y-61506000D02*
X130410000Y-62660000D01*
X131131000Y-64340000D02*
X131131000Y-65119000D01*
X130611000Y-64340000D02*
X130611000Y-65424000D01*
X131171000Y-61913000D02*
X131171000Y-62660000D01*
X130891000Y-61715000D02*
X130891000Y-62660000D01*
X131371000Y-64340000D02*
X131371000Y-64896000D01*
X130210000Y-61458000D02*
X130210000Y-62660000D01*
X130851000Y-61692000D02*
X130851000Y-62660000D01*
X130771000Y-64340000D02*
X130771000Y-65351000D01*
X127740199Y-62105000D02*
X127740199Y-62505000D01*
X130450000Y-61518000D02*
X130450000Y-62660000D01*
X131771000Y-62732000D02*
X131771000Y-64268000D01*
X130130000Y-61444000D02*
X130130000Y-62660000D01*
X127540199Y-62305000D02*
X127940199Y-62305000D01*
X131051000Y-64340000D02*
X131051000Y-65180000D01*
X130250000Y-64340000D02*
X130250000Y-65534000D01*
X131451000Y-64340000D02*
X131451000Y-64804000D01*
X130611000Y-61576000D02*
X130611000Y-62660000D01*
X130971000Y-64340000D02*
X130971000Y-65235000D01*
X130691000Y-61611000D02*
X130691000Y-62660000D01*
X130811000Y-61670000D02*
X130811000Y-62660000D01*
X131531000Y-62300000D02*
X131531000Y-62660000D01*
X130931000Y-61740000D02*
X130931000Y-62660000D01*
X130931000Y-64340000D02*
X130931000Y-65260000D01*
X131131000Y-61881000D02*
X131131000Y-62660000D01*
X131651000Y-62487000D02*
X131651000Y-64513000D01*
X131491000Y-64340000D02*
X131491000Y-64754000D01*
X131171000Y-64340000D02*
X131171000Y-65087000D01*
X131211000Y-61948000D02*
X131211000Y-62660000D01*
X131451000Y-62196000D02*
X131451000Y-62660000D01*
X131531000Y-64340000D02*
X131531000Y-64700000D01*
X130651000Y-64340000D02*
X130651000Y-65407000D01*
X130531000Y-64340000D02*
X130531000Y-65454000D01*
X131331000Y-64340000D02*
X131331000Y-64938000D01*
X130450000Y-64340000D02*
X130450000Y-65482000D01*
X130330000Y-64340000D02*
X130330000Y-65516000D01*
X130851000Y-64340000D02*
X130851000Y-65308000D01*
X130370000Y-64340000D02*
X130370000Y-65505000D01*
X130170000Y-64340000D02*
X130170000Y-65550000D01*
X131011000Y-64340000D02*
X131011000Y-65208000D01*
X130971000Y-61765000D02*
X130971000Y-62660000D01*
X131491000Y-62246000D02*
X131491000Y-62660000D01*
X130891000Y-64340000D02*
X130891000Y-65285000D01*
X130290000Y-64340000D02*
X130290000Y-65525000D01*
X130731000Y-61630000D02*
X130731000Y-62660000D01*
X131291000Y-64340000D02*
X131291000Y-64978000D01*
X130771000Y-61649000D02*
X130771000Y-62660000D01*
X130050000Y-61433000D02*
X130050000Y-62660000D01*
X129850000Y-61420000D02*
X129850000Y-65580000D01*
X129930000Y-61423000D02*
X129930000Y-65577000D01*
X130531000Y-61546000D02*
X130531000Y-62660000D01*
X130571000Y-64340000D02*
X130571000Y-65440000D01*
X130490000Y-61532000D02*
X130490000Y-62660000D01*
X131051000Y-61820000D02*
X131051000Y-62660000D01*
X131331000Y-62062000D02*
X131331000Y-62660000D01*
X131691000Y-62560000D02*
X131691000Y-64440000D01*
X130571000Y-61560000D02*
X130571000Y-62660000D01*
X130010000Y-61429000D02*
X130010000Y-62660000D01*
X129890000Y-61421000D02*
X129890000Y-65579000D01*
X131891000Y-63130000D02*
X131891000Y-63870000D01*
X131851000Y-62963000D02*
X131851000Y-64037000D01*
X130250000Y-61466000D02*
X130250000Y-62660000D01*
X130410000Y-64340000D02*
X130410000Y-65494000D01*
X130731000Y-64340000D02*
X130731000Y-65370000D01*
X130090000Y-64340000D02*
X130090000Y-65562000D01*
X131251000Y-64340000D02*
X131251000Y-65016000D01*
X131291000Y-62022000D02*
X131291000Y-62660000D01*
X131371000Y-62104000D02*
X131371000Y-62660000D01*
X131571000Y-64340000D02*
X131571000Y-64642000D01*
X131251000Y-61984000D02*
X131251000Y-62660000D01*
X131411000Y-62149000D02*
X131411000Y-62660000D01*
X130130000Y-64340000D02*
X130130000Y-65556000D01*
%TO.C,U2*%
X104005000Y-43605000D02*
X104005000Y-30555000D01*
X63575000Y-30555000D02*
X63575000Y-43605000D01*
X63575000Y-43605000D02*
X74900000Y-43605000D01*
%TO.C,SW3*%
X93690000Y-80062000D02*
X89190000Y-80062000D01*
X89190000Y-86562000D02*
X93690000Y-86562000D01*
X94940000Y-84062000D02*
X94940000Y-82562000D01*
X87940000Y-82562000D02*
X87940000Y-84062000D01*
%TO.C,SW1*%
X123525000Y-31600000D02*
X119025000Y-31600000D01*
X119025000Y-38100000D02*
X123525000Y-38100000D01*
X124775000Y-35600000D02*
X124775000Y-34100000D01*
X117775000Y-34100000D02*
X117775000Y-35600000D01*
%TO.C,R21*%
X79868000Y-77120000D02*
X83708000Y-77120000D01*
X79868000Y-75280000D02*
X83708000Y-75280000D01*
%TO.C,R12*%
X83708000Y-78836000D02*
X79868000Y-78836000D01*
X83708000Y-80676000D02*
X79868000Y-80676000D01*
%TO.C,R4*%
X112019000Y-46832000D02*
X108179000Y-46832000D01*
X112019000Y-48672000D02*
X108179000Y-48672000D01*
%TO.C,R10*%
X112019000Y-49372000D02*
X108179000Y-49372000D01*
X112019000Y-51212000D02*
X108179000Y-51212000D01*
%TO.C,R20*%
X82017291Y-53920000D02*
X78177291Y-53920000D01*
X82017291Y-55760000D02*
X78177291Y-55760000D01*
%TO.C,R22*%
X89213957Y-53920000D02*
X85373957Y-53920000D01*
X89213957Y-55760000D02*
X85373957Y-55760000D01*
%TO.C,R11*%
X111765000Y-77185000D02*
X107925000Y-77185000D01*
X111765000Y-79025000D02*
X107925000Y-79025000D01*
%TO.C,C4*%
X99672000Y-78370000D02*
X99672000Y-81610000D01*
X99672000Y-81610000D02*
X99607000Y-81610000D01*
X97497000Y-81610000D02*
X97432000Y-81610000D01*
X97497000Y-78370000D02*
X97432000Y-78370000D01*
X97432000Y-78370000D02*
X97432000Y-81610000D01*
X99672000Y-78370000D02*
X99607000Y-78370000D01*
%TO.C,Y1*%
X109792750Y-67435000D02*
X109792750Y-61035000D01*
X114842750Y-67435000D02*
X114842750Y-61035000D01*
X109792750Y-67435000D02*
G75*
G03*
X114842750Y-67435000I2525000J0D01*
G01*
X114842750Y-61035000D02*
G75*
G03*
X109792750Y-61035000I-2525000J0D01*
G01*
%TO.C,R5*%
X112019000Y-51912000D02*
X108179000Y-51912000D01*
X112019000Y-53752000D02*
X108179000Y-53752000D01*
%TO.C,C2*%
X106439000Y-69545000D02*
X106439000Y-66305000D01*
X106439000Y-66305000D02*
X106504000Y-66305000D01*
X108614000Y-66305000D02*
X108679000Y-66305000D01*
X108614000Y-69545000D02*
X108679000Y-69545000D01*
X108679000Y-69545000D02*
X108679000Y-66305000D01*
X106439000Y-69545000D02*
X106504000Y-69545000D01*
%TO.C,R6*%
X112019000Y-44292000D02*
X108179000Y-44292000D01*
X112019000Y-46132000D02*
X108179000Y-46132000D01*
%TO.C,Q4*%
X96700625Y-51560000D02*
X96700625Y-47960000D01*
X96689103Y-47921522D02*
G75*
G03*
X92250625Y-49760000I-1838478J-1838478D01*
G01*
X92250625Y-49760000D02*
G75*
G03*
X96689103Y-51598478I2600000J0D01*
G01*
%TO.C,U3*%
X94100000Y-67260000D02*
X92450000Y-67260000D01*
X88800000Y-67260000D02*
X88800000Y-77540000D01*
X94100000Y-77540000D02*
X94100000Y-67260000D01*
X90450000Y-67260000D02*
X88800000Y-67260000D01*
X88800000Y-77540000D02*
X94100000Y-77540000D01*
X90450000Y-67260000D02*
G75*
G03*
X92450000Y-67260000I1000000J0D01*
G01*
%TO.C,U1*%
X123935000Y-41110000D02*
X122285000Y-41110000D01*
X123935000Y-76790000D02*
X123935000Y-41110000D01*
X120285000Y-41110000D02*
X118635000Y-41110000D01*
X118635000Y-41110000D02*
X118635000Y-76790000D01*
X118635000Y-76790000D02*
X123935000Y-76790000D01*
X120285000Y-41110000D02*
G75*
G03*
X122285000Y-41110000I1000000J0D01*
G01*
%TO.C,R2*%
X121808000Y-82634000D02*
X117968000Y-82634000D01*
X121808000Y-84474000D02*
X117968000Y-84474000D01*
%TO.C,C3*%
X130015000Y-55510000D02*
X130015000Y-58750000D01*
X130015000Y-58750000D02*
X129950000Y-58750000D01*
X127840000Y-58750000D02*
X127775000Y-58750000D01*
X127840000Y-55510000D02*
X127775000Y-55510000D01*
X127775000Y-55510000D02*
X127775000Y-58750000D01*
X130015000Y-55510000D02*
X129950000Y-55510000D01*
%TO.C,R18*%
X79868000Y-74580000D02*
X83708000Y-74580000D01*
X79868000Y-72740000D02*
X83708000Y-72740000D01*
%TO.C,R7*%
X111765000Y-72143000D02*
X107925000Y-72143000D01*
X111765000Y-73983000D02*
X107925000Y-73983000D01*
%TO.C,C5*%
X98214000Y-65936000D02*
X101454000Y-65936000D01*
X101454000Y-65936000D02*
X101454000Y-66001000D01*
X101454000Y-68111000D02*
X101454000Y-68176000D01*
X98214000Y-68111000D02*
X98214000Y-68176000D01*
X98214000Y-68176000D02*
X101454000Y-68176000D01*
X98214000Y-65936000D02*
X98214000Y-66001000D01*
%TO.C,TP2*%
X108528000Y-87560000D02*
X108528000Y-85160000D01*
X110928000Y-87560000D02*
X108528000Y-87560000D01*
X110928000Y-85160000D02*
X110928000Y-87560000D01*
X108528000Y-85160000D02*
X110928000Y-85160000D01*
%TO.C,R8*%
X111765000Y-74645000D02*
X107925000Y-74645000D01*
X111765000Y-76485000D02*
X107925000Y-76485000D01*
%TO.C,R13*%
X83708000Y-81376000D02*
X79868000Y-81376000D01*
X83708000Y-83216000D02*
X79868000Y-83216000D01*
%TO.C,R19*%
X74820625Y-53920000D02*
X70980625Y-53920000D01*
X74820625Y-55760000D02*
X70980625Y-55760000D01*
%TO.C,R17*%
X97632000Y-70470000D02*
X97632000Y-74310000D01*
X99472000Y-70470000D02*
X99472000Y-74310000D01*
%TO.C,R9*%
X112029000Y-41752000D02*
X108189000Y-41752000D01*
X112029000Y-43592000D02*
X108189000Y-43592000D01*
%TO.C,C6*%
X114162000Y-57508000D02*
X110922000Y-57508000D01*
X110922000Y-57508000D02*
X110922000Y-57443000D01*
X110922000Y-55333000D02*
X110922000Y-55268000D01*
X114162000Y-55333000D02*
X114162000Y-55268000D01*
X114162000Y-55268000D02*
X110922000Y-55268000D01*
X114162000Y-57508000D02*
X114162000Y-57443000D01*
%TO.C,R1*%
X108179000Y-41052000D02*
X112019000Y-41052000D01*
X108179000Y-39212000D02*
X112019000Y-39212000D01*
%TO.C,Q1*%
X75110625Y-51560000D02*
X75110625Y-47960000D01*
X75099103Y-47921522D02*
G75*
G03*
X70660625Y-49760000I-1838478J-1838478D01*
G01*
X70660625Y-49760000D02*
G75*
G03*
X75099103Y-51598478I2600000J0D01*
G01*
%TO.C,R3*%
X121808000Y-80106000D02*
X117968000Y-80106000D01*
X121808000Y-81946000D02*
X117968000Y-81946000D01*
%TO.C,R23*%
X96410625Y-53920000D02*
X92570625Y-53920000D01*
X96410625Y-55760000D02*
X92570625Y-55760000D01*
%TO.C,Q3*%
X89503957Y-51560000D02*
X89503957Y-47960000D01*
X89492435Y-47921522D02*
G75*
G03*
X85053957Y-49760000I-1838478J-1838478D01*
G01*
X85053957Y-49760000D02*
G75*
G03*
X89492435Y-51598478I2600000J0D01*
G01*
%TO.C,R15*%
X83708000Y-86456000D02*
X79868000Y-86456000D01*
X83708000Y-88296000D02*
X79868000Y-88296000D01*
%TO.C,Q2*%
X82307291Y-51560000D02*
X82307291Y-47960000D01*
X82295769Y-47921522D02*
G75*
G03*
X77857291Y-49760000I-1838478J-1838478D01*
G01*
X77857291Y-49760000D02*
G75*
G03*
X82295769Y-51598478I2600000J0D01*
G01*
%TO.C,D2*%
X128234000Y-81314000D02*
X128234000Y-81470000D01*
X128234000Y-83630000D02*
X128234000Y-83786000D01*
X130835129Y-81470164D02*
G75*
G03*
X128753040Y-81470001I-1041129J-1079836D01*
G01*
X128234001Y-83785515D02*
G75*
G03*
X131466334Y-83628608I1559999J1235515D01*
G01*
X128753040Y-83629999D02*
G75*
G03*
X130835129Y-83629836I1040960J1079999D01*
G01*
X131466334Y-81471392D02*
G75*
G03*
X128234001Y-81314485I-1672334J-1078608D01*
G01*
%TO.C,C1*%
X106439000Y-62165000D02*
X106439000Y-58925000D01*
X106439000Y-58925000D02*
X106504000Y-58925000D01*
X108614000Y-58925000D02*
X108679000Y-58925000D01*
X108614000Y-62165000D02*
X108679000Y-62165000D01*
X108679000Y-62165000D02*
X108679000Y-58925000D01*
X106439000Y-62165000D02*
X106504000Y-62165000D01*
%TO.C,J1*%
X133500000Y-50670000D02*
X142620000Y-50670000D01*
X142620000Y-50670000D02*
X142620000Y-71250000D01*
X132110000Y-56380000D02*
X133110000Y-55880000D01*
X134810000Y-69950000D02*
X134810000Y-63010000D01*
X134810000Y-58910000D02*
X134810000Y-51970000D01*
X142620000Y-71250000D02*
X133500000Y-71250000D01*
X133110000Y-55880000D02*
X132110000Y-55380000D01*
X134810000Y-63010000D02*
X133500000Y-63010000D01*
X134810000Y-51970000D02*
X141310000Y-51970000D01*
X134810000Y-63010000D02*
X134810000Y-63010000D01*
X141310000Y-69950000D02*
X134810000Y-69950000D01*
X132110000Y-55380000D02*
X132110000Y-56380000D01*
X141310000Y-51970000D02*
X141310000Y-69950000D01*
X133500000Y-58910000D02*
X134810000Y-58910000D01*
X133500000Y-71250000D02*
X133500000Y-50670000D01*
%TO.C,R14*%
X83708000Y-83916000D02*
X79868000Y-83916000D01*
X83708000Y-85756000D02*
X79868000Y-85756000D01*
%TO.C,D1*%
X136611000Y-81314000D02*
X136611000Y-81470000D01*
X136611000Y-83630000D02*
X136611000Y-83786000D01*
X139212129Y-81470164D02*
G75*
G03*
X137130040Y-81470001I-1041129J-1079836D01*
G01*
X136611001Y-83785515D02*
G75*
G03*
X139843334Y-83628608I1559999J1235515D01*
G01*
X137130040Y-83629999D02*
G75*
G03*
X139212129Y-83629836I1040960J1079999D01*
G01*
X139843334Y-81471392D02*
G75*
G03*
X136611001Y-81314485I-1672334J-1078608D01*
G01*
%TO.C,TP1*%
X102432000Y-87574000D02*
X102432000Y-85174000D01*
X104832000Y-87574000D02*
X102432000Y-87574000D01*
X104832000Y-85174000D02*
X104832000Y-87574000D01*
X102432000Y-85174000D02*
X104832000Y-85174000D01*
%TO.C,R16*%
X79868000Y-72040000D02*
X83708000Y-72040000D01*
X79868000Y-70200000D02*
X83708000Y-70200000D01*
%TD*%
M02*
