%TF.GenerationSoftware,KiCad,Pcbnew,7.0.0-da2b9df05c~171~ubuntu22.04.1*%
%TF.CreationDate,2023-03-13T21:40:03+08:00*%
%TF.ProjectId,circuit,63697263-7569-4742-9e6b-696361645f70,1.0*%
%TF.SameCoordinates,Original*%
%TF.FileFunction,Legend,Top*%
%TF.FilePolarity,Positive*%
%FSLAX46Y46*%
G04 Gerber Fmt 4.6, Leading zero omitted, Abs format (unit mm)*
G04 Created by KiCad (PCBNEW 7.0.0-da2b9df05c~171~ubuntu22.04.1) date 2023-03-13 21:40:03*
%MOMM*%
%LPD*%
G01*
G04 APERTURE LIST*
%ADD10C,0.100000*%
%ADD11C,0.300000*%
%ADD12C,0.150000*%
G04 APERTURE END LIST*
D10*
X104648000Y-54356000D02*
X102108000Y-54356000D01*
X104648000Y-71628000D02*
X102108000Y-71628000D01*
X75438000Y-83058000D02*
X75438000Y-85852000D01*
X72898000Y-83058000D02*
X75438000Y-83058000D01*
X104648000Y-54356000D02*
X104648000Y-51816000D01*
X104648000Y-71628000D02*
X104648000Y-74168000D01*
D11*
X66572858Y-61009500D02*
X67287144Y-61009500D01*
X66430001Y-61438071D02*
X66930001Y-59938071D01*
X66930001Y-59938071D02*
X67430001Y-61438071D01*
X67715715Y-59938071D02*
X68572858Y-59938071D01*
X68144286Y-61438071D02*
X68144286Y-59938071D01*
X69072857Y-61438071D02*
X69072857Y-59938071D01*
X69072857Y-59938071D02*
X69572857Y-61009500D01*
X69572857Y-61009500D02*
X70072857Y-59938071D01*
X70072857Y-59938071D02*
X70072857Y-61438071D01*
X70787143Y-60652357D02*
X71287143Y-60652357D01*
X71501429Y-61438071D02*
X70787143Y-61438071D01*
X70787143Y-61438071D02*
X70787143Y-59938071D01*
X70787143Y-59938071D02*
X71501429Y-59938071D01*
X72930001Y-60009500D02*
X72787144Y-59938071D01*
X72787144Y-59938071D02*
X72572858Y-59938071D01*
X72572858Y-59938071D02*
X72358572Y-60009500D01*
X72358572Y-60009500D02*
X72215715Y-60152357D01*
X72215715Y-60152357D02*
X72144286Y-60295214D01*
X72144286Y-60295214D02*
X72072858Y-60580928D01*
X72072858Y-60580928D02*
X72072858Y-60795214D01*
X72072858Y-60795214D02*
X72144286Y-61080928D01*
X72144286Y-61080928D02*
X72215715Y-61223785D01*
X72215715Y-61223785D02*
X72358572Y-61366642D01*
X72358572Y-61366642D02*
X72572858Y-61438071D01*
X72572858Y-61438071D02*
X72715715Y-61438071D01*
X72715715Y-61438071D02*
X72930001Y-61366642D01*
X72930001Y-61366642D02*
X73001429Y-61295214D01*
X73001429Y-61295214D02*
X73001429Y-60795214D01*
X73001429Y-60795214D02*
X72715715Y-60795214D01*
X73572858Y-61009500D02*
X74287144Y-61009500D01*
X73430001Y-61438071D02*
X73930001Y-59938071D01*
X73930001Y-59938071D02*
X74430001Y-61438071D01*
X75144286Y-60580928D02*
X75001429Y-60509500D01*
X75001429Y-60509500D02*
X74930000Y-60438071D01*
X74930000Y-60438071D02*
X74858572Y-60295214D01*
X74858572Y-60295214D02*
X74858572Y-60223785D01*
X74858572Y-60223785D02*
X74930000Y-60080928D01*
X74930000Y-60080928D02*
X75001429Y-60009500D01*
X75001429Y-60009500D02*
X75144286Y-59938071D01*
X75144286Y-59938071D02*
X75430000Y-59938071D01*
X75430000Y-59938071D02*
X75572858Y-60009500D01*
X75572858Y-60009500D02*
X75644286Y-60080928D01*
X75644286Y-60080928D02*
X75715715Y-60223785D01*
X75715715Y-60223785D02*
X75715715Y-60295214D01*
X75715715Y-60295214D02*
X75644286Y-60438071D01*
X75644286Y-60438071D02*
X75572858Y-60509500D01*
X75572858Y-60509500D02*
X75430000Y-60580928D01*
X75430000Y-60580928D02*
X75144286Y-60580928D01*
X75144286Y-60580928D02*
X75001429Y-60652357D01*
X75001429Y-60652357D02*
X74930000Y-60723785D01*
X74930000Y-60723785D02*
X74858572Y-60866642D01*
X74858572Y-60866642D02*
X74858572Y-61152357D01*
X74858572Y-61152357D02*
X74930000Y-61295214D01*
X74930000Y-61295214D02*
X75001429Y-61366642D01*
X75001429Y-61366642D02*
X75144286Y-61438071D01*
X75144286Y-61438071D02*
X75430000Y-61438071D01*
X75430000Y-61438071D02*
X75572858Y-61366642D01*
X75572858Y-61366642D02*
X75644286Y-61295214D01*
X75644286Y-61295214D02*
X75715715Y-61152357D01*
X75715715Y-61152357D02*
X75715715Y-60866642D01*
X75715715Y-60866642D02*
X75644286Y-60723785D01*
X75644286Y-60723785D02*
X75572858Y-60652357D01*
X75572858Y-60652357D02*
X75430000Y-60580928D01*
X76287143Y-61009500D02*
X77001429Y-61009500D01*
X76144286Y-61438071D02*
X76644286Y-59938071D01*
X76644286Y-59938071D02*
X77144286Y-61438071D01*
X78330000Y-59938071D02*
X79187143Y-59938071D01*
X78758571Y-61438071D02*
X78758571Y-59938071D01*
X80330000Y-60438071D02*
X80330000Y-61438071D01*
X79687142Y-60438071D02*
X79687142Y-61223785D01*
X79687142Y-61223785D02*
X79758571Y-61366642D01*
X79758571Y-61366642D02*
X79901428Y-61438071D01*
X79901428Y-61438071D02*
X80115714Y-61438071D01*
X80115714Y-61438071D02*
X80258571Y-61366642D01*
X80258571Y-61366642D02*
X80330000Y-61295214D01*
X80830000Y-60438071D02*
X81401428Y-60438071D01*
X81044285Y-59938071D02*
X81044285Y-61223785D01*
X81044285Y-61223785D02*
X81115714Y-61366642D01*
X81115714Y-61366642D02*
X81258571Y-61438071D01*
X81258571Y-61438071D02*
X81401428Y-61438071D01*
X82115714Y-61438071D02*
X81972857Y-61366642D01*
X81972857Y-61366642D02*
X81901428Y-61295214D01*
X81901428Y-61295214D02*
X81830000Y-61152357D01*
X81830000Y-61152357D02*
X81830000Y-60723785D01*
X81830000Y-60723785D02*
X81901428Y-60580928D01*
X81901428Y-60580928D02*
X81972857Y-60509500D01*
X81972857Y-60509500D02*
X82115714Y-60438071D01*
X82115714Y-60438071D02*
X82330000Y-60438071D01*
X82330000Y-60438071D02*
X82472857Y-60509500D01*
X82472857Y-60509500D02*
X82544286Y-60580928D01*
X82544286Y-60580928D02*
X82615714Y-60723785D01*
X82615714Y-60723785D02*
X82615714Y-61152357D01*
X82615714Y-61152357D02*
X82544286Y-61295214D01*
X82544286Y-61295214D02*
X82472857Y-61366642D01*
X82472857Y-61366642D02*
X82330000Y-61438071D01*
X82330000Y-61438071D02*
X82115714Y-61438071D01*
X83258571Y-61438071D02*
X83258571Y-60438071D01*
X83258571Y-60723785D02*
X83330000Y-60580928D01*
X83330000Y-60580928D02*
X83401429Y-60509500D01*
X83401429Y-60509500D02*
X83544286Y-60438071D01*
X83544286Y-60438071D02*
X83687143Y-60438071D01*
X84187142Y-61438071D02*
X84187142Y-60438071D01*
X84187142Y-59938071D02*
X84115714Y-60009500D01*
X84115714Y-60009500D02*
X84187142Y-60080928D01*
X84187142Y-60080928D02*
X84258571Y-60009500D01*
X84258571Y-60009500D02*
X84187142Y-59938071D01*
X84187142Y-59938071D02*
X84187142Y-60080928D01*
X85544286Y-61438071D02*
X85544286Y-60652357D01*
X85544286Y-60652357D02*
X85472857Y-60509500D01*
X85472857Y-60509500D02*
X85330000Y-60438071D01*
X85330000Y-60438071D02*
X85044286Y-60438071D01*
X85044286Y-60438071D02*
X84901428Y-60509500D01*
X85544286Y-61366642D02*
X85401428Y-61438071D01*
X85401428Y-61438071D02*
X85044286Y-61438071D01*
X85044286Y-61438071D02*
X84901428Y-61366642D01*
X84901428Y-61366642D02*
X84830000Y-61223785D01*
X84830000Y-61223785D02*
X84830000Y-61080928D01*
X84830000Y-61080928D02*
X84901428Y-60938071D01*
X84901428Y-60938071D02*
X85044286Y-60866642D01*
X85044286Y-60866642D02*
X85401428Y-60866642D01*
X85401428Y-60866642D02*
X85544286Y-60795214D01*
X86472857Y-61438071D02*
X86330000Y-61366642D01*
X86330000Y-61366642D02*
X86258571Y-61223785D01*
X86258571Y-61223785D02*
X86258571Y-59938071D01*
X88444285Y-60652357D02*
X88658571Y-60723785D01*
X88658571Y-60723785D02*
X88730000Y-60795214D01*
X88730000Y-60795214D02*
X88801428Y-60938071D01*
X88801428Y-60938071D02*
X88801428Y-61152357D01*
X88801428Y-61152357D02*
X88730000Y-61295214D01*
X88730000Y-61295214D02*
X88658571Y-61366642D01*
X88658571Y-61366642D02*
X88515714Y-61438071D01*
X88515714Y-61438071D02*
X87944285Y-61438071D01*
X87944285Y-61438071D02*
X87944285Y-59938071D01*
X87944285Y-59938071D02*
X88444285Y-59938071D01*
X88444285Y-59938071D02*
X88587143Y-60009500D01*
X88587143Y-60009500D02*
X88658571Y-60080928D01*
X88658571Y-60080928D02*
X88730000Y-60223785D01*
X88730000Y-60223785D02*
X88730000Y-60366642D01*
X88730000Y-60366642D02*
X88658571Y-60509500D01*
X88658571Y-60509500D02*
X88587143Y-60580928D01*
X88587143Y-60580928D02*
X88444285Y-60652357D01*
X88444285Y-60652357D02*
X87944285Y-60652357D01*
X89658571Y-61438071D02*
X89515714Y-61366642D01*
X89515714Y-61366642D02*
X89444285Y-61295214D01*
X89444285Y-61295214D02*
X89372857Y-61152357D01*
X89372857Y-61152357D02*
X89372857Y-60723785D01*
X89372857Y-60723785D02*
X89444285Y-60580928D01*
X89444285Y-60580928D02*
X89515714Y-60509500D01*
X89515714Y-60509500D02*
X89658571Y-60438071D01*
X89658571Y-60438071D02*
X89872857Y-60438071D01*
X89872857Y-60438071D02*
X90015714Y-60509500D01*
X90015714Y-60509500D02*
X90087143Y-60580928D01*
X90087143Y-60580928D02*
X90158571Y-60723785D01*
X90158571Y-60723785D02*
X90158571Y-61152357D01*
X90158571Y-61152357D02*
X90087143Y-61295214D01*
X90087143Y-61295214D02*
X90015714Y-61366642D01*
X90015714Y-61366642D02*
X89872857Y-61438071D01*
X89872857Y-61438071D02*
X89658571Y-61438071D01*
X91444286Y-61438071D02*
X91444286Y-60652357D01*
X91444286Y-60652357D02*
X91372857Y-60509500D01*
X91372857Y-60509500D02*
X91230000Y-60438071D01*
X91230000Y-60438071D02*
X90944286Y-60438071D01*
X90944286Y-60438071D02*
X90801428Y-60509500D01*
X91444286Y-61366642D02*
X91301428Y-61438071D01*
X91301428Y-61438071D02*
X90944286Y-61438071D01*
X90944286Y-61438071D02*
X90801428Y-61366642D01*
X90801428Y-61366642D02*
X90730000Y-61223785D01*
X90730000Y-61223785D02*
X90730000Y-61080928D01*
X90730000Y-61080928D02*
X90801428Y-60938071D01*
X90801428Y-60938071D02*
X90944286Y-60866642D01*
X90944286Y-60866642D02*
X91301428Y-60866642D01*
X91301428Y-60866642D02*
X91444286Y-60795214D01*
X92158571Y-61438071D02*
X92158571Y-60438071D01*
X92158571Y-60723785D02*
X92230000Y-60580928D01*
X92230000Y-60580928D02*
X92301429Y-60509500D01*
X92301429Y-60509500D02*
X92444286Y-60438071D01*
X92444286Y-60438071D02*
X92587143Y-60438071D01*
X93730000Y-61438071D02*
X93730000Y-59938071D01*
X93730000Y-61366642D02*
X93587142Y-61438071D01*
X93587142Y-61438071D02*
X93301428Y-61438071D01*
X93301428Y-61438071D02*
X93158571Y-61366642D01*
X93158571Y-61366642D02*
X93087142Y-61295214D01*
X93087142Y-61295214D02*
X93015714Y-61152357D01*
X93015714Y-61152357D02*
X93015714Y-60723785D01*
X93015714Y-60723785D02*
X93087142Y-60580928D01*
X93087142Y-60580928D02*
X93158571Y-60509500D01*
X93158571Y-60509500D02*
X93301428Y-60438071D01*
X93301428Y-60438071D02*
X93587142Y-60438071D01*
X93587142Y-60438071D02*
X93730000Y-60509500D01*
X95272857Y-61009500D02*
X95987143Y-61009500D01*
X95130000Y-61438071D02*
X95630000Y-59938071D01*
X95630000Y-59938071D02*
X96130000Y-61438071D01*
D10*
X132040571Y-66349071D02*
X132147714Y-66384785D01*
X132147714Y-66384785D02*
X132326285Y-66384785D01*
X132326285Y-66384785D02*
X132397714Y-66349071D01*
X132397714Y-66349071D02*
X132433428Y-66313357D01*
X132433428Y-66313357D02*
X132469142Y-66241928D01*
X132469142Y-66241928D02*
X132469142Y-66170500D01*
X132469142Y-66170500D02*
X132433428Y-66099071D01*
X132433428Y-66099071D02*
X132397714Y-66063357D01*
X132397714Y-66063357D02*
X132326285Y-66027642D01*
X132326285Y-66027642D02*
X132183428Y-65991928D01*
X132183428Y-65991928D02*
X132111999Y-65956214D01*
X132111999Y-65956214D02*
X132076285Y-65920500D01*
X132076285Y-65920500D02*
X132040571Y-65849071D01*
X132040571Y-65849071D02*
X132040571Y-65777642D01*
X132040571Y-65777642D02*
X132076285Y-65706214D01*
X132076285Y-65706214D02*
X132111999Y-65670500D01*
X132111999Y-65670500D02*
X132183428Y-65634785D01*
X132183428Y-65634785D02*
X132361999Y-65634785D01*
X132361999Y-65634785D02*
X132469142Y-65670500D01*
X133219142Y-66313357D02*
X133183428Y-66349071D01*
X133183428Y-66349071D02*
X133076285Y-66384785D01*
X133076285Y-66384785D02*
X133004857Y-66384785D01*
X133004857Y-66384785D02*
X132897714Y-66349071D01*
X132897714Y-66349071D02*
X132826285Y-66277642D01*
X132826285Y-66277642D02*
X132790571Y-66206214D01*
X132790571Y-66206214D02*
X132754857Y-66063357D01*
X132754857Y-66063357D02*
X132754857Y-65956214D01*
X132754857Y-65956214D02*
X132790571Y-65813357D01*
X132790571Y-65813357D02*
X132826285Y-65741928D01*
X132826285Y-65741928D02*
X132897714Y-65670500D01*
X132897714Y-65670500D02*
X133004857Y-65634785D01*
X133004857Y-65634785D02*
X133076285Y-65634785D01*
X133076285Y-65634785D02*
X133183428Y-65670500D01*
X133183428Y-65670500D02*
X133219142Y-65706214D01*
X133540571Y-66384785D02*
X133540571Y-65634785D01*
X133969142Y-66384785D02*
X133647714Y-65956214D01*
X133969142Y-65634785D02*
X133540571Y-66063357D01*
X142303428Y-68210500D02*
X142232000Y-68174785D01*
X142232000Y-68174785D02*
X142124857Y-68174785D01*
X142124857Y-68174785D02*
X142017714Y-68210500D01*
X142017714Y-68210500D02*
X141946285Y-68281928D01*
X141946285Y-68281928D02*
X141910571Y-68353357D01*
X141910571Y-68353357D02*
X141874857Y-68496214D01*
X141874857Y-68496214D02*
X141874857Y-68603357D01*
X141874857Y-68603357D02*
X141910571Y-68746214D01*
X141910571Y-68746214D02*
X141946285Y-68817642D01*
X141946285Y-68817642D02*
X142017714Y-68889071D01*
X142017714Y-68889071D02*
X142124857Y-68924785D01*
X142124857Y-68924785D02*
X142196285Y-68924785D01*
X142196285Y-68924785D02*
X142303428Y-68889071D01*
X142303428Y-68889071D02*
X142339142Y-68853357D01*
X142339142Y-68853357D02*
X142339142Y-68603357D01*
X142339142Y-68603357D02*
X142196285Y-68603357D01*
X142660571Y-68924785D02*
X142660571Y-68174785D01*
X142660571Y-68174785D02*
X143089142Y-68924785D01*
X143089142Y-68924785D02*
X143089142Y-68174785D01*
X143446285Y-68924785D02*
X143446285Y-68174785D01*
X143446285Y-68174785D02*
X143624856Y-68174785D01*
X143624856Y-68174785D02*
X143731999Y-68210500D01*
X143731999Y-68210500D02*
X143803428Y-68281928D01*
X143803428Y-68281928D02*
X143839142Y-68353357D01*
X143839142Y-68353357D02*
X143874856Y-68496214D01*
X143874856Y-68496214D02*
X143874856Y-68603357D01*
X143874856Y-68603357D02*
X143839142Y-68746214D01*
X143839142Y-68746214D02*
X143803428Y-68817642D01*
X143803428Y-68817642D02*
X143731999Y-68889071D01*
X143731999Y-68889071D02*
X143624856Y-68924785D01*
X143624856Y-68924785D02*
X143446285Y-68924785D01*
X132683427Y-68924785D02*
X132433427Y-68567642D01*
X132254856Y-68924785D02*
X132254856Y-68174785D01*
X132254856Y-68174785D02*
X132540570Y-68174785D01*
X132540570Y-68174785D02*
X132611999Y-68210500D01*
X132611999Y-68210500D02*
X132647713Y-68246214D01*
X132647713Y-68246214D02*
X132683427Y-68317642D01*
X132683427Y-68317642D02*
X132683427Y-68424785D01*
X132683427Y-68424785D02*
X132647713Y-68496214D01*
X132647713Y-68496214D02*
X132611999Y-68531928D01*
X132611999Y-68531928D02*
X132540570Y-68567642D01*
X132540570Y-68567642D02*
X132254856Y-68567642D01*
X132969142Y-68889071D02*
X133076285Y-68924785D01*
X133076285Y-68924785D02*
X133254856Y-68924785D01*
X133254856Y-68924785D02*
X133326285Y-68889071D01*
X133326285Y-68889071D02*
X133361999Y-68853357D01*
X133361999Y-68853357D02*
X133397713Y-68781928D01*
X133397713Y-68781928D02*
X133397713Y-68710500D01*
X133397713Y-68710500D02*
X133361999Y-68639071D01*
X133361999Y-68639071D02*
X133326285Y-68603357D01*
X133326285Y-68603357D02*
X133254856Y-68567642D01*
X133254856Y-68567642D02*
X133111999Y-68531928D01*
X133111999Y-68531928D02*
X133040570Y-68496214D01*
X133040570Y-68496214D02*
X133004856Y-68460500D01*
X133004856Y-68460500D02*
X132969142Y-68389071D01*
X132969142Y-68389071D02*
X132969142Y-68317642D01*
X132969142Y-68317642D02*
X133004856Y-68246214D01*
X133004856Y-68246214D02*
X133040570Y-68210500D01*
X133040570Y-68210500D02*
X133111999Y-68174785D01*
X133111999Y-68174785D02*
X133290570Y-68174785D01*
X133290570Y-68174785D02*
X133397713Y-68210500D01*
X133611999Y-68174785D02*
X134040571Y-68174785D01*
X133826285Y-68924785D02*
X133826285Y-68174785D01*
X132151285Y-67910500D02*
X134037000Y-67910500D01*
X131576285Y-63844785D02*
X131576285Y-63094785D01*
X131576285Y-63094785D02*
X131826285Y-63630500D01*
X131826285Y-63630500D02*
X132076285Y-63094785D01*
X132076285Y-63094785D02*
X132076285Y-63844785D01*
X132433428Y-63844785D02*
X132433428Y-63094785D01*
X132754857Y-63809071D02*
X132862000Y-63844785D01*
X132862000Y-63844785D02*
X133040571Y-63844785D01*
X133040571Y-63844785D02*
X133112000Y-63809071D01*
X133112000Y-63809071D02*
X133147714Y-63773357D01*
X133147714Y-63773357D02*
X133183428Y-63701928D01*
X133183428Y-63701928D02*
X133183428Y-63630500D01*
X133183428Y-63630500D02*
X133147714Y-63559071D01*
X133147714Y-63559071D02*
X133112000Y-63523357D01*
X133112000Y-63523357D02*
X133040571Y-63487642D01*
X133040571Y-63487642D02*
X132897714Y-63451928D01*
X132897714Y-63451928D02*
X132826285Y-63416214D01*
X132826285Y-63416214D02*
X132790571Y-63380500D01*
X132790571Y-63380500D02*
X132754857Y-63309071D01*
X132754857Y-63309071D02*
X132754857Y-63237642D01*
X132754857Y-63237642D02*
X132790571Y-63166214D01*
X132790571Y-63166214D02*
X132826285Y-63130500D01*
X132826285Y-63130500D02*
X132897714Y-63094785D01*
X132897714Y-63094785D02*
X133076285Y-63094785D01*
X133076285Y-63094785D02*
X133183428Y-63130500D01*
X133647714Y-63094785D02*
X133790571Y-63094785D01*
X133790571Y-63094785D02*
X133862000Y-63130500D01*
X133862000Y-63130500D02*
X133933428Y-63201928D01*
X133933428Y-63201928D02*
X133969143Y-63344785D01*
X133969143Y-63344785D02*
X133969143Y-63594785D01*
X133969143Y-63594785D02*
X133933428Y-63737642D01*
X133933428Y-63737642D02*
X133862000Y-63809071D01*
X133862000Y-63809071D02*
X133790571Y-63844785D01*
X133790571Y-63844785D02*
X133647714Y-63844785D01*
X133647714Y-63844785D02*
X133576286Y-63809071D01*
X133576286Y-63809071D02*
X133504857Y-63737642D01*
X133504857Y-63737642D02*
X133469143Y-63594785D01*
X133469143Y-63594785D02*
X133469143Y-63344785D01*
X133469143Y-63344785D02*
X133504857Y-63201928D01*
X133504857Y-63201928D02*
X133576286Y-63130500D01*
X133576286Y-63130500D02*
X133647714Y-63094785D01*
D12*
X133639523Y-89698380D02*
X133306190Y-89222190D01*
X133068095Y-89698380D02*
X133068095Y-88698380D01*
X133068095Y-88698380D02*
X133449047Y-88698380D01*
X133449047Y-88698380D02*
X133544285Y-88746000D01*
X133544285Y-88746000D02*
X133591904Y-88793619D01*
X133591904Y-88793619D02*
X133639523Y-88888857D01*
X133639523Y-88888857D02*
X133639523Y-89031714D01*
X133639523Y-89031714D02*
X133591904Y-89126952D01*
X133591904Y-89126952D02*
X133544285Y-89174571D01*
X133544285Y-89174571D02*
X133449047Y-89222190D01*
X133449047Y-89222190D02*
X133068095Y-89222190D01*
X134449047Y-89650761D02*
X134353809Y-89698380D01*
X134353809Y-89698380D02*
X134163333Y-89698380D01*
X134163333Y-89698380D02*
X134068095Y-89650761D01*
X134068095Y-89650761D02*
X134020476Y-89555523D01*
X134020476Y-89555523D02*
X134020476Y-89174571D01*
X134020476Y-89174571D02*
X134068095Y-89079333D01*
X134068095Y-89079333D02*
X134163333Y-89031714D01*
X134163333Y-89031714D02*
X134353809Y-89031714D01*
X134353809Y-89031714D02*
X134449047Y-89079333D01*
X134449047Y-89079333D02*
X134496666Y-89174571D01*
X134496666Y-89174571D02*
X134496666Y-89269809D01*
X134496666Y-89269809D02*
X134020476Y-89365047D01*
X134830000Y-89031714D02*
X135068095Y-89698380D01*
X135068095Y-89698380D02*
X135306190Y-89031714D01*
X136810952Y-89698380D02*
X136239524Y-89698380D01*
X136525238Y-89698380D02*
X136525238Y-88698380D01*
X136525238Y-88698380D02*
X136430000Y-88841238D01*
X136430000Y-88841238D02*
X136334762Y-88936476D01*
X136334762Y-88936476D02*
X136239524Y-88984095D01*
X137239524Y-89603142D02*
X137287143Y-89650761D01*
X137287143Y-89650761D02*
X137239524Y-89698380D01*
X137239524Y-89698380D02*
X137191905Y-89650761D01*
X137191905Y-89650761D02*
X137239524Y-89603142D01*
X137239524Y-89603142D02*
X137239524Y-89698380D01*
X138239523Y-89698380D02*
X137668095Y-89698380D01*
X137953809Y-89698380D02*
X137953809Y-88698380D01*
X137953809Y-88698380D02*
X137858571Y-88841238D01*
X137858571Y-88841238D02*
X137763333Y-88936476D01*
X137763333Y-88936476D02*
X137668095Y-88984095D01*
D10*
X141803428Y-63094785D02*
X142053428Y-63844785D01*
X142053428Y-63844785D02*
X142303428Y-63094785D01*
X142981999Y-63773357D02*
X142946285Y-63809071D01*
X142946285Y-63809071D02*
X142839142Y-63844785D01*
X142839142Y-63844785D02*
X142767714Y-63844785D01*
X142767714Y-63844785D02*
X142660571Y-63809071D01*
X142660571Y-63809071D02*
X142589142Y-63737642D01*
X142589142Y-63737642D02*
X142553428Y-63666214D01*
X142553428Y-63666214D02*
X142517714Y-63523357D01*
X142517714Y-63523357D02*
X142517714Y-63416214D01*
X142517714Y-63416214D02*
X142553428Y-63273357D01*
X142553428Y-63273357D02*
X142589142Y-63201928D01*
X142589142Y-63201928D02*
X142660571Y-63130500D01*
X142660571Y-63130500D02*
X142767714Y-63094785D01*
X142767714Y-63094785D02*
X142839142Y-63094785D01*
X142839142Y-63094785D02*
X142946285Y-63130500D01*
X142946285Y-63130500D02*
X142981999Y-63166214D01*
X143731999Y-63773357D02*
X143696285Y-63809071D01*
X143696285Y-63809071D02*
X143589142Y-63844785D01*
X143589142Y-63844785D02*
X143517714Y-63844785D01*
X143517714Y-63844785D02*
X143410571Y-63809071D01*
X143410571Y-63809071D02*
X143339142Y-63737642D01*
X143339142Y-63737642D02*
X143303428Y-63666214D01*
X143303428Y-63666214D02*
X143267714Y-63523357D01*
X143267714Y-63523357D02*
X143267714Y-63416214D01*
X143267714Y-63416214D02*
X143303428Y-63273357D01*
X143303428Y-63273357D02*
X143339142Y-63201928D01*
X143339142Y-63201928D02*
X143410571Y-63130500D01*
X143410571Y-63130500D02*
X143517714Y-63094785D01*
X143517714Y-63094785D02*
X143589142Y-63094785D01*
X143589142Y-63094785D02*
X143696285Y-63130500D01*
X143696285Y-63130500D02*
X143731999Y-63166214D01*
X141910571Y-66384785D02*
X141910571Y-65634785D01*
X141910571Y-65634785D02*
X142160571Y-66170500D01*
X142160571Y-66170500D02*
X142410571Y-65634785D01*
X142410571Y-65634785D02*
X142410571Y-66384785D01*
X142910571Y-65634785D02*
X143053428Y-65634785D01*
X143053428Y-65634785D02*
X143124857Y-65670500D01*
X143124857Y-65670500D02*
X143196285Y-65741928D01*
X143196285Y-65741928D02*
X143232000Y-65884785D01*
X143232000Y-65884785D02*
X143232000Y-66134785D01*
X143232000Y-66134785D02*
X143196285Y-66277642D01*
X143196285Y-66277642D02*
X143124857Y-66349071D01*
X143124857Y-66349071D02*
X143053428Y-66384785D01*
X143053428Y-66384785D02*
X142910571Y-66384785D01*
X142910571Y-66384785D02*
X142839143Y-66349071D01*
X142839143Y-66349071D02*
X142767714Y-66277642D01*
X142767714Y-66277642D02*
X142732000Y-66134785D01*
X142732000Y-66134785D02*
X142732000Y-65884785D01*
X142732000Y-65884785D02*
X142767714Y-65741928D01*
X142767714Y-65741928D02*
X142839143Y-65670500D01*
X142839143Y-65670500D02*
X142910571Y-65634785D01*
X143517714Y-66349071D02*
X143624857Y-66384785D01*
X143624857Y-66384785D02*
X143803428Y-66384785D01*
X143803428Y-66384785D02*
X143874857Y-66349071D01*
X143874857Y-66349071D02*
X143910571Y-66313357D01*
X143910571Y-66313357D02*
X143946285Y-66241928D01*
X143946285Y-66241928D02*
X143946285Y-66170500D01*
X143946285Y-66170500D02*
X143910571Y-66099071D01*
X143910571Y-66099071D02*
X143874857Y-66063357D01*
X143874857Y-66063357D02*
X143803428Y-66027642D01*
X143803428Y-66027642D02*
X143660571Y-65991928D01*
X143660571Y-65991928D02*
X143589142Y-65956214D01*
X143589142Y-65956214D02*
X143553428Y-65920500D01*
X143553428Y-65920500D02*
X143517714Y-65849071D01*
X143517714Y-65849071D02*
X143517714Y-65777642D01*
X143517714Y-65777642D02*
X143553428Y-65706214D01*
X143553428Y-65706214D02*
X143589142Y-65670500D01*
X143589142Y-65670500D02*
X143660571Y-65634785D01*
X143660571Y-65634785D02*
X143839142Y-65634785D01*
X143839142Y-65634785D02*
X143946285Y-65670500D01*
X144267714Y-66384785D02*
X144267714Y-65634785D01*
%TO.C,R27*%
X102461142Y-79269535D02*
X102211142Y-78912392D01*
X102032571Y-79269535D02*
X102032571Y-78519535D01*
X102032571Y-78519535D02*
X102318285Y-78519535D01*
X102318285Y-78519535D02*
X102389714Y-78555250D01*
X102389714Y-78555250D02*
X102425428Y-78590964D01*
X102425428Y-78590964D02*
X102461142Y-78662392D01*
X102461142Y-78662392D02*
X102461142Y-78769535D01*
X102461142Y-78769535D02*
X102425428Y-78840964D01*
X102425428Y-78840964D02*
X102389714Y-78876678D01*
X102389714Y-78876678D02*
X102318285Y-78912392D01*
X102318285Y-78912392D02*
X102032571Y-78912392D01*
X102746857Y-78590964D02*
X102782571Y-78555250D01*
X102782571Y-78555250D02*
X102854000Y-78519535D01*
X102854000Y-78519535D02*
X103032571Y-78519535D01*
X103032571Y-78519535D02*
X103104000Y-78555250D01*
X103104000Y-78555250D02*
X103139714Y-78590964D01*
X103139714Y-78590964D02*
X103175428Y-78662392D01*
X103175428Y-78662392D02*
X103175428Y-78733821D01*
X103175428Y-78733821D02*
X103139714Y-78840964D01*
X103139714Y-78840964D02*
X102711142Y-79269535D01*
X102711142Y-79269535D02*
X103175428Y-79269535D01*
X103425428Y-78519535D02*
X103925428Y-78519535D01*
X103925428Y-78519535D02*
X103604000Y-79269535D01*
%TO.C,SW3*%
X90186000Y-79545821D02*
X90293143Y-79581535D01*
X90293143Y-79581535D02*
X90471714Y-79581535D01*
X90471714Y-79581535D02*
X90543143Y-79545821D01*
X90543143Y-79545821D02*
X90578857Y-79510107D01*
X90578857Y-79510107D02*
X90614571Y-79438678D01*
X90614571Y-79438678D02*
X90614571Y-79367250D01*
X90614571Y-79367250D02*
X90578857Y-79295821D01*
X90578857Y-79295821D02*
X90543143Y-79260107D01*
X90543143Y-79260107D02*
X90471714Y-79224392D01*
X90471714Y-79224392D02*
X90328857Y-79188678D01*
X90328857Y-79188678D02*
X90257428Y-79152964D01*
X90257428Y-79152964D02*
X90221714Y-79117250D01*
X90221714Y-79117250D02*
X90186000Y-79045821D01*
X90186000Y-79045821D02*
X90186000Y-78974392D01*
X90186000Y-78974392D02*
X90221714Y-78902964D01*
X90221714Y-78902964D02*
X90257428Y-78867250D01*
X90257428Y-78867250D02*
X90328857Y-78831535D01*
X90328857Y-78831535D02*
X90507428Y-78831535D01*
X90507428Y-78831535D02*
X90614571Y-78867250D01*
X90864571Y-78831535D02*
X91043143Y-79581535D01*
X91043143Y-79581535D02*
X91186000Y-79045821D01*
X91186000Y-79045821D02*
X91328857Y-79581535D01*
X91328857Y-79581535D02*
X91507429Y-78831535D01*
X91721714Y-78831535D02*
X92186000Y-78831535D01*
X92186000Y-78831535D02*
X91936000Y-79117250D01*
X91936000Y-79117250D02*
X92043143Y-79117250D01*
X92043143Y-79117250D02*
X92114572Y-79152964D01*
X92114572Y-79152964D02*
X92150286Y-79188678D01*
X92150286Y-79188678D02*
X92186000Y-79260107D01*
X92186000Y-79260107D02*
X92186000Y-79438678D01*
X92186000Y-79438678D02*
X92150286Y-79510107D01*
X92150286Y-79510107D02*
X92114572Y-79545821D01*
X92114572Y-79545821D02*
X92043143Y-79581535D01*
X92043143Y-79581535D02*
X91828857Y-79581535D01*
X91828857Y-79581535D02*
X91757429Y-79545821D01*
X91757429Y-79545821D02*
X91721714Y-79510107D01*
%TO.C,SW1*%
X120275000Y-30839821D02*
X120382143Y-30875535D01*
X120382143Y-30875535D02*
X120560714Y-30875535D01*
X120560714Y-30875535D02*
X120632143Y-30839821D01*
X120632143Y-30839821D02*
X120667857Y-30804107D01*
X120667857Y-30804107D02*
X120703571Y-30732678D01*
X120703571Y-30732678D02*
X120703571Y-30661250D01*
X120703571Y-30661250D02*
X120667857Y-30589821D01*
X120667857Y-30589821D02*
X120632143Y-30554107D01*
X120632143Y-30554107D02*
X120560714Y-30518392D01*
X120560714Y-30518392D02*
X120417857Y-30482678D01*
X120417857Y-30482678D02*
X120346428Y-30446964D01*
X120346428Y-30446964D02*
X120310714Y-30411250D01*
X120310714Y-30411250D02*
X120275000Y-30339821D01*
X120275000Y-30339821D02*
X120275000Y-30268392D01*
X120275000Y-30268392D02*
X120310714Y-30196964D01*
X120310714Y-30196964D02*
X120346428Y-30161250D01*
X120346428Y-30161250D02*
X120417857Y-30125535D01*
X120417857Y-30125535D02*
X120596428Y-30125535D01*
X120596428Y-30125535D02*
X120703571Y-30161250D01*
X120953571Y-30125535D02*
X121132143Y-30875535D01*
X121132143Y-30875535D02*
X121275000Y-30339821D01*
X121275000Y-30339821D02*
X121417857Y-30875535D01*
X121417857Y-30875535D02*
X121596429Y-30125535D01*
X122275000Y-30875535D02*
X121846429Y-30875535D01*
X122060714Y-30875535D02*
X122060714Y-30125535D01*
X122060714Y-30125535D02*
X121989286Y-30232678D01*
X121989286Y-30232678D02*
X121917857Y-30304107D01*
X121917857Y-30304107D02*
X121846429Y-30339821D01*
%TO.C,R24*%
X73358570Y-84527335D02*
X73108570Y-84170192D01*
X72929999Y-84527335D02*
X72929999Y-83777335D01*
X72929999Y-83777335D02*
X73215713Y-83777335D01*
X73215713Y-83777335D02*
X73287142Y-83813050D01*
X73287142Y-83813050D02*
X73322856Y-83848764D01*
X73322856Y-83848764D02*
X73358570Y-83920192D01*
X73358570Y-83920192D02*
X73358570Y-84027335D01*
X73358570Y-84027335D02*
X73322856Y-84098764D01*
X73322856Y-84098764D02*
X73287142Y-84134478D01*
X73287142Y-84134478D02*
X73215713Y-84170192D01*
X73215713Y-84170192D02*
X72929999Y-84170192D01*
X73644285Y-83848764D02*
X73679999Y-83813050D01*
X73679999Y-83813050D02*
X73751428Y-83777335D01*
X73751428Y-83777335D02*
X73929999Y-83777335D01*
X73929999Y-83777335D02*
X74001428Y-83813050D01*
X74001428Y-83813050D02*
X74037142Y-83848764D01*
X74037142Y-83848764D02*
X74072856Y-83920192D01*
X74072856Y-83920192D02*
X74072856Y-83991621D01*
X74072856Y-83991621D02*
X74037142Y-84098764D01*
X74037142Y-84098764D02*
X73608570Y-84527335D01*
X73608570Y-84527335D02*
X74072856Y-84527335D01*
X74715714Y-84027335D02*
X74715714Y-84527335D01*
X74537142Y-83741621D02*
X74358571Y-84277335D01*
X74358571Y-84277335D02*
X74822856Y-84277335D01*
%TO.C,R15*%
X73358570Y-85822735D02*
X73108570Y-85465592D01*
X72929999Y-85822735D02*
X72929999Y-85072735D01*
X72929999Y-85072735D02*
X73215713Y-85072735D01*
X73215713Y-85072735D02*
X73287142Y-85108450D01*
X73287142Y-85108450D02*
X73322856Y-85144164D01*
X73322856Y-85144164D02*
X73358570Y-85215592D01*
X73358570Y-85215592D02*
X73358570Y-85322735D01*
X73358570Y-85322735D02*
X73322856Y-85394164D01*
X73322856Y-85394164D02*
X73287142Y-85429878D01*
X73287142Y-85429878D02*
X73215713Y-85465592D01*
X73215713Y-85465592D02*
X72929999Y-85465592D01*
X74072856Y-85822735D02*
X73644285Y-85822735D01*
X73858570Y-85822735D02*
X73858570Y-85072735D01*
X73858570Y-85072735D02*
X73787142Y-85179878D01*
X73787142Y-85179878D02*
X73715713Y-85251307D01*
X73715713Y-85251307D02*
X73644285Y-85287021D01*
X74751428Y-85072735D02*
X74394285Y-85072735D01*
X74394285Y-85072735D02*
X74358571Y-85429878D01*
X74358571Y-85429878D02*
X74394285Y-85394164D01*
X74394285Y-85394164D02*
X74465714Y-85358450D01*
X74465714Y-85358450D02*
X74644285Y-85358450D01*
X74644285Y-85358450D02*
X74715714Y-85394164D01*
X74715714Y-85394164D02*
X74751428Y-85429878D01*
X74751428Y-85429878D02*
X74787142Y-85501307D01*
X74787142Y-85501307D02*
X74787142Y-85679878D01*
X74787142Y-85679878D02*
X74751428Y-85751307D01*
X74751428Y-85751307D02*
X74715714Y-85787021D01*
X74715714Y-85787021D02*
X74644285Y-85822735D01*
X74644285Y-85822735D02*
X74465714Y-85822735D01*
X74465714Y-85822735D02*
X74394285Y-85787021D01*
X74394285Y-85787021D02*
X74358571Y-85751307D01*
%TO.C,R5*%
X103028856Y-50863867D02*
X102778856Y-50506724D01*
X102600285Y-50863867D02*
X102600285Y-50113867D01*
X102600285Y-50113867D02*
X102885999Y-50113867D01*
X102885999Y-50113867D02*
X102957428Y-50149582D01*
X102957428Y-50149582D02*
X102993142Y-50185296D01*
X102993142Y-50185296D02*
X103028856Y-50256724D01*
X103028856Y-50256724D02*
X103028856Y-50363867D01*
X103028856Y-50363867D02*
X102993142Y-50435296D01*
X102993142Y-50435296D02*
X102957428Y-50471010D01*
X102957428Y-50471010D02*
X102885999Y-50506724D01*
X102885999Y-50506724D02*
X102600285Y-50506724D01*
X103707428Y-50113867D02*
X103350285Y-50113867D01*
X103350285Y-50113867D02*
X103314571Y-50471010D01*
X103314571Y-50471010D02*
X103350285Y-50435296D01*
X103350285Y-50435296D02*
X103421714Y-50399582D01*
X103421714Y-50399582D02*
X103600285Y-50399582D01*
X103600285Y-50399582D02*
X103671714Y-50435296D01*
X103671714Y-50435296D02*
X103707428Y-50471010D01*
X103707428Y-50471010D02*
X103743142Y-50542439D01*
X103743142Y-50542439D02*
X103743142Y-50721010D01*
X103743142Y-50721010D02*
X103707428Y-50792439D01*
X103707428Y-50792439D02*
X103671714Y-50828153D01*
X103671714Y-50828153D02*
X103600285Y-50863867D01*
X103600285Y-50863867D02*
X103421714Y-50863867D01*
X103421714Y-50863867D02*
X103350285Y-50828153D01*
X103350285Y-50828153D02*
X103314571Y-50792439D01*
%TO.C,R4*%
X103028856Y-52239700D02*
X102778856Y-51882557D01*
X102600285Y-52239700D02*
X102600285Y-51489700D01*
X102600285Y-51489700D02*
X102885999Y-51489700D01*
X102885999Y-51489700D02*
X102957428Y-51525415D01*
X102957428Y-51525415D02*
X102993142Y-51561129D01*
X102993142Y-51561129D02*
X103028856Y-51632557D01*
X103028856Y-51632557D02*
X103028856Y-51739700D01*
X103028856Y-51739700D02*
X102993142Y-51811129D01*
X102993142Y-51811129D02*
X102957428Y-51846843D01*
X102957428Y-51846843D02*
X102885999Y-51882557D01*
X102885999Y-51882557D02*
X102600285Y-51882557D01*
X103671714Y-51739700D02*
X103671714Y-52239700D01*
X103493142Y-51453986D02*
X103314571Y-51989700D01*
X103314571Y-51989700D02*
X103778856Y-51989700D01*
%TO.C,R23*%
X75971856Y-56239535D02*
X75721856Y-55882392D01*
X75543285Y-56239535D02*
X75543285Y-55489535D01*
X75543285Y-55489535D02*
X75828999Y-55489535D01*
X75828999Y-55489535D02*
X75900428Y-55525250D01*
X75900428Y-55525250D02*
X75936142Y-55560964D01*
X75936142Y-55560964D02*
X75971856Y-55632392D01*
X75971856Y-55632392D02*
X75971856Y-55739535D01*
X75971856Y-55739535D02*
X75936142Y-55810964D01*
X75936142Y-55810964D02*
X75900428Y-55846678D01*
X75900428Y-55846678D02*
X75828999Y-55882392D01*
X75828999Y-55882392D02*
X75543285Y-55882392D01*
X76257571Y-55560964D02*
X76293285Y-55525250D01*
X76293285Y-55525250D02*
X76364714Y-55489535D01*
X76364714Y-55489535D02*
X76543285Y-55489535D01*
X76543285Y-55489535D02*
X76614714Y-55525250D01*
X76614714Y-55525250D02*
X76650428Y-55560964D01*
X76650428Y-55560964D02*
X76686142Y-55632392D01*
X76686142Y-55632392D02*
X76686142Y-55703821D01*
X76686142Y-55703821D02*
X76650428Y-55810964D01*
X76650428Y-55810964D02*
X76221856Y-56239535D01*
X76221856Y-56239535D02*
X76686142Y-56239535D01*
X76936142Y-55489535D02*
X77400428Y-55489535D01*
X77400428Y-55489535D02*
X77150428Y-55775250D01*
X77150428Y-55775250D02*
X77257571Y-55775250D01*
X77257571Y-55775250D02*
X77329000Y-55810964D01*
X77329000Y-55810964D02*
X77364714Y-55846678D01*
X77364714Y-55846678D02*
X77400428Y-55918107D01*
X77400428Y-55918107D02*
X77400428Y-56096678D01*
X77400428Y-56096678D02*
X77364714Y-56168107D01*
X77364714Y-56168107D02*
X77329000Y-56203821D01*
X77329000Y-56203821D02*
X77257571Y-56239535D01*
X77257571Y-56239535D02*
X77043285Y-56239535D01*
X77043285Y-56239535D02*
X76971857Y-56203821D01*
X76971857Y-56203821D02*
X76936142Y-56168107D01*
%TO.C,R25*%
X86131856Y-56239535D02*
X85881856Y-55882392D01*
X85703285Y-56239535D02*
X85703285Y-55489535D01*
X85703285Y-55489535D02*
X85988999Y-55489535D01*
X85988999Y-55489535D02*
X86060428Y-55525250D01*
X86060428Y-55525250D02*
X86096142Y-55560964D01*
X86096142Y-55560964D02*
X86131856Y-55632392D01*
X86131856Y-55632392D02*
X86131856Y-55739535D01*
X86131856Y-55739535D02*
X86096142Y-55810964D01*
X86096142Y-55810964D02*
X86060428Y-55846678D01*
X86060428Y-55846678D02*
X85988999Y-55882392D01*
X85988999Y-55882392D02*
X85703285Y-55882392D01*
X86417571Y-55560964D02*
X86453285Y-55525250D01*
X86453285Y-55525250D02*
X86524714Y-55489535D01*
X86524714Y-55489535D02*
X86703285Y-55489535D01*
X86703285Y-55489535D02*
X86774714Y-55525250D01*
X86774714Y-55525250D02*
X86810428Y-55560964D01*
X86810428Y-55560964D02*
X86846142Y-55632392D01*
X86846142Y-55632392D02*
X86846142Y-55703821D01*
X86846142Y-55703821D02*
X86810428Y-55810964D01*
X86810428Y-55810964D02*
X86381856Y-56239535D01*
X86381856Y-56239535D02*
X86846142Y-56239535D01*
X87524714Y-55489535D02*
X87167571Y-55489535D01*
X87167571Y-55489535D02*
X87131857Y-55846678D01*
X87131857Y-55846678D02*
X87167571Y-55810964D01*
X87167571Y-55810964D02*
X87239000Y-55775250D01*
X87239000Y-55775250D02*
X87417571Y-55775250D01*
X87417571Y-55775250D02*
X87489000Y-55810964D01*
X87489000Y-55810964D02*
X87524714Y-55846678D01*
X87524714Y-55846678D02*
X87560428Y-55918107D01*
X87560428Y-55918107D02*
X87560428Y-56096678D01*
X87560428Y-56096678D02*
X87524714Y-56168107D01*
X87524714Y-56168107D02*
X87489000Y-56203821D01*
X87489000Y-56203821D02*
X87417571Y-56239535D01*
X87417571Y-56239535D02*
X87239000Y-56239535D01*
X87239000Y-56239535D02*
X87167571Y-56203821D01*
X87167571Y-56203821D02*
X87131857Y-56168107D01*
%TO.C,R20*%
X102461142Y-76221535D02*
X102211142Y-75864392D01*
X102032571Y-76221535D02*
X102032571Y-75471535D01*
X102032571Y-75471535D02*
X102318285Y-75471535D01*
X102318285Y-75471535D02*
X102389714Y-75507250D01*
X102389714Y-75507250D02*
X102425428Y-75542964D01*
X102425428Y-75542964D02*
X102461142Y-75614392D01*
X102461142Y-75614392D02*
X102461142Y-75721535D01*
X102461142Y-75721535D02*
X102425428Y-75792964D01*
X102425428Y-75792964D02*
X102389714Y-75828678D01*
X102389714Y-75828678D02*
X102318285Y-75864392D01*
X102318285Y-75864392D02*
X102032571Y-75864392D01*
X102746857Y-75542964D02*
X102782571Y-75507250D01*
X102782571Y-75507250D02*
X102854000Y-75471535D01*
X102854000Y-75471535D02*
X103032571Y-75471535D01*
X103032571Y-75471535D02*
X103104000Y-75507250D01*
X103104000Y-75507250D02*
X103139714Y-75542964D01*
X103139714Y-75542964D02*
X103175428Y-75614392D01*
X103175428Y-75614392D02*
X103175428Y-75685821D01*
X103175428Y-75685821D02*
X103139714Y-75792964D01*
X103139714Y-75792964D02*
X102711142Y-76221535D01*
X102711142Y-76221535D02*
X103175428Y-76221535D01*
X103639714Y-75471535D02*
X103711143Y-75471535D01*
X103711143Y-75471535D02*
X103782571Y-75507250D01*
X103782571Y-75507250D02*
X103818286Y-75542964D01*
X103818286Y-75542964D02*
X103854000Y-75614392D01*
X103854000Y-75614392D02*
X103889714Y-75757250D01*
X103889714Y-75757250D02*
X103889714Y-75935821D01*
X103889714Y-75935821D02*
X103854000Y-76078678D01*
X103854000Y-76078678D02*
X103818286Y-76150107D01*
X103818286Y-76150107D02*
X103782571Y-76185821D01*
X103782571Y-76185821D02*
X103711143Y-76221535D01*
X103711143Y-76221535D02*
X103639714Y-76221535D01*
X103639714Y-76221535D02*
X103568286Y-76185821D01*
X103568286Y-76185821D02*
X103532571Y-76150107D01*
X103532571Y-76150107D02*
X103496857Y-76078678D01*
X103496857Y-76078678D02*
X103461143Y-75935821D01*
X103461143Y-75935821D02*
X103461143Y-75757250D01*
X103461143Y-75757250D02*
X103496857Y-75614392D01*
X103496857Y-75614392D02*
X103532571Y-75542964D01*
X103532571Y-75542964D02*
X103568286Y-75507250D01*
X103568286Y-75507250D02*
X103639714Y-75471535D01*
%TO.C,R10*%
X131851856Y-47689535D02*
X131601856Y-47332392D01*
X131423285Y-47689535D02*
X131423285Y-46939535D01*
X131423285Y-46939535D02*
X131708999Y-46939535D01*
X131708999Y-46939535D02*
X131780428Y-46975250D01*
X131780428Y-46975250D02*
X131816142Y-47010964D01*
X131816142Y-47010964D02*
X131851856Y-47082392D01*
X131851856Y-47082392D02*
X131851856Y-47189535D01*
X131851856Y-47189535D02*
X131816142Y-47260964D01*
X131816142Y-47260964D02*
X131780428Y-47296678D01*
X131780428Y-47296678D02*
X131708999Y-47332392D01*
X131708999Y-47332392D02*
X131423285Y-47332392D01*
X132566142Y-47689535D02*
X132137571Y-47689535D01*
X132351856Y-47689535D02*
X132351856Y-46939535D01*
X132351856Y-46939535D02*
X132280428Y-47046678D01*
X132280428Y-47046678D02*
X132208999Y-47118107D01*
X132208999Y-47118107D02*
X132137571Y-47153821D01*
X133030428Y-46939535D02*
X133101857Y-46939535D01*
X133101857Y-46939535D02*
X133173285Y-46975250D01*
X133173285Y-46975250D02*
X133209000Y-47010964D01*
X133209000Y-47010964D02*
X133244714Y-47082392D01*
X133244714Y-47082392D02*
X133280428Y-47225250D01*
X133280428Y-47225250D02*
X133280428Y-47403821D01*
X133280428Y-47403821D02*
X133244714Y-47546678D01*
X133244714Y-47546678D02*
X133209000Y-47618107D01*
X133209000Y-47618107D02*
X133173285Y-47653821D01*
X133173285Y-47653821D02*
X133101857Y-47689535D01*
X133101857Y-47689535D02*
X133030428Y-47689535D01*
X133030428Y-47689535D02*
X132959000Y-47653821D01*
X132959000Y-47653821D02*
X132923285Y-47618107D01*
X132923285Y-47618107D02*
X132887571Y-47546678D01*
X132887571Y-47546678D02*
X132851857Y-47403821D01*
X132851857Y-47403821D02*
X132851857Y-47225250D01*
X132851857Y-47225250D02*
X132887571Y-47082392D01*
X132887571Y-47082392D02*
X132923285Y-47010964D01*
X132923285Y-47010964D02*
X132959000Y-46975250D01*
X132959000Y-46975250D02*
X133030428Y-46939535D01*
%TO.C,C6*%
X100752107Y-83437000D02*
X100787821Y-83472714D01*
X100787821Y-83472714D02*
X100823535Y-83579857D01*
X100823535Y-83579857D02*
X100823535Y-83651285D01*
X100823535Y-83651285D02*
X100787821Y-83758428D01*
X100787821Y-83758428D02*
X100716392Y-83829857D01*
X100716392Y-83829857D02*
X100644964Y-83865571D01*
X100644964Y-83865571D02*
X100502107Y-83901285D01*
X100502107Y-83901285D02*
X100394964Y-83901285D01*
X100394964Y-83901285D02*
X100252107Y-83865571D01*
X100252107Y-83865571D02*
X100180678Y-83829857D01*
X100180678Y-83829857D02*
X100109250Y-83758428D01*
X100109250Y-83758428D02*
X100073535Y-83651285D01*
X100073535Y-83651285D02*
X100073535Y-83579857D01*
X100073535Y-83579857D02*
X100109250Y-83472714D01*
X100109250Y-83472714D02*
X100144964Y-83437000D01*
X100073535Y-82794143D02*
X100073535Y-82937000D01*
X100073535Y-82937000D02*
X100109250Y-83008428D01*
X100109250Y-83008428D02*
X100144964Y-83044143D01*
X100144964Y-83044143D02*
X100252107Y-83115571D01*
X100252107Y-83115571D02*
X100394964Y-83151285D01*
X100394964Y-83151285D02*
X100680678Y-83151285D01*
X100680678Y-83151285D02*
X100752107Y-83115571D01*
X100752107Y-83115571D02*
X100787821Y-83079857D01*
X100787821Y-83079857D02*
X100823535Y-83008428D01*
X100823535Y-83008428D02*
X100823535Y-82865571D01*
X100823535Y-82865571D02*
X100787821Y-82794143D01*
X100787821Y-82794143D02*
X100752107Y-82758428D01*
X100752107Y-82758428D02*
X100680678Y-82722714D01*
X100680678Y-82722714D02*
X100502107Y-82722714D01*
X100502107Y-82722714D02*
X100430678Y-82758428D01*
X100430678Y-82758428D02*
X100394964Y-82794143D01*
X100394964Y-82794143D02*
X100359250Y-82865571D01*
X100359250Y-82865571D02*
X100359250Y-83008428D01*
X100359250Y-83008428D02*
X100394964Y-83079857D01*
X100394964Y-83079857D02*
X100430678Y-83115571D01*
X100430678Y-83115571D02*
X100502107Y-83151285D01*
%TO.C,Y1*%
X108711142Y-64592142D02*
X109068285Y-64592142D01*
X108318285Y-64842142D02*
X108711142Y-64592142D01*
X108711142Y-64592142D02*
X108318285Y-64342142D01*
X109068285Y-63699285D02*
X109068285Y-64127856D01*
X109068285Y-63913571D02*
X108318285Y-63913571D01*
X108318285Y-63913571D02*
X108425428Y-63984999D01*
X108425428Y-63984999D02*
X108496857Y-64056428D01*
X108496857Y-64056428D02*
X108532571Y-64127856D01*
%TO.C,R3*%
X103028856Y-53615535D02*
X102778856Y-53258392D01*
X102600285Y-53615535D02*
X102600285Y-52865535D01*
X102600285Y-52865535D02*
X102885999Y-52865535D01*
X102885999Y-52865535D02*
X102957428Y-52901250D01*
X102957428Y-52901250D02*
X102993142Y-52936964D01*
X102993142Y-52936964D02*
X103028856Y-53008392D01*
X103028856Y-53008392D02*
X103028856Y-53115535D01*
X103028856Y-53115535D02*
X102993142Y-53186964D01*
X102993142Y-53186964D02*
X102957428Y-53222678D01*
X102957428Y-53222678D02*
X102885999Y-53258392D01*
X102885999Y-53258392D02*
X102600285Y-53258392D01*
X103278856Y-52865535D02*
X103743142Y-52865535D01*
X103743142Y-52865535D02*
X103493142Y-53151250D01*
X103493142Y-53151250D02*
X103600285Y-53151250D01*
X103600285Y-53151250D02*
X103671714Y-53186964D01*
X103671714Y-53186964D02*
X103707428Y-53222678D01*
X103707428Y-53222678D02*
X103743142Y-53294107D01*
X103743142Y-53294107D02*
X103743142Y-53472678D01*
X103743142Y-53472678D02*
X103707428Y-53544107D01*
X103707428Y-53544107D02*
X103671714Y-53579821D01*
X103671714Y-53579821D02*
X103600285Y-53615535D01*
X103600285Y-53615535D02*
X103385999Y-53615535D01*
X103385999Y-53615535D02*
X103314571Y-53579821D01*
X103314571Y-53579821D02*
X103278856Y-53544107D01*
%TO.C,C3*%
X105513107Y-68050000D02*
X105548821Y-68085714D01*
X105548821Y-68085714D02*
X105584535Y-68192857D01*
X105584535Y-68192857D02*
X105584535Y-68264285D01*
X105584535Y-68264285D02*
X105548821Y-68371428D01*
X105548821Y-68371428D02*
X105477392Y-68442857D01*
X105477392Y-68442857D02*
X105405964Y-68478571D01*
X105405964Y-68478571D02*
X105263107Y-68514285D01*
X105263107Y-68514285D02*
X105155964Y-68514285D01*
X105155964Y-68514285D02*
X105013107Y-68478571D01*
X105013107Y-68478571D02*
X104941678Y-68442857D01*
X104941678Y-68442857D02*
X104870250Y-68371428D01*
X104870250Y-68371428D02*
X104834535Y-68264285D01*
X104834535Y-68264285D02*
X104834535Y-68192857D01*
X104834535Y-68192857D02*
X104870250Y-68085714D01*
X104870250Y-68085714D02*
X104905964Y-68050000D01*
X104834535Y-67800000D02*
X104834535Y-67335714D01*
X104834535Y-67335714D02*
X105120250Y-67585714D01*
X105120250Y-67585714D02*
X105120250Y-67478571D01*
X105120250Y-67478571D02*
X105155964Y-67407143D01*
X105155964Y-67407143D02*
X105191678Y-67371428D01*
X105191678Y-67371428D02*
X105263107Y-67335714D01*
X105263107Y-67335714D02*
X105441678Y-67335714D01*
X105441678Y-67335714D02*
X105513107Y-67371428D01*
X105513107Y-67371428D02*
X105548821Y-67407143D01*
X105548821Y-67407143D02*
X105584535Y-67478571D01*
X105584535Y-67478571D02*
X105584535Y-67692857D01*
X105584535Y-67692857D02*
X105548821Y-67764285D01*
X105548821Y-67764285D02*
X105513107Y-67800000D01*
%TO.C,R6*%
X103028856Y-49488034D02*
X102778856Y-49130891D01*
X102600285Y-49488034D02*
X102600285Y-48738034D01*
X102600285Y-48738034D02*
X102885999Y-48738034D01*
X102885999Y-48738034D02*
X102957428Y-48773749D01*
X102957428Y-48773749D02*
X102993142Y-48809463D01*
X102993142Y-48809463D02*
X103028856Y-48880891D01*
X103028856Y-48880891D02*
X103028856Y-48988034D01*
X103028856Y-48988034D02*
X102993142Y-49059463D01*
X102993142Y-49059463D02*
X102957428Y-49095177D01*
X102957428Y-49095177D02*
X102885999Y-49130891D01*
X102885999Y-49130891D02*
X102600285Y-49130891D01*
X103671714Y-48738034D02*
X103528856Y-48738034D01*
X103528856Y-48738034D02*
X103457428Y-48773749D01*
X103457428Y-48773749D02*
X103421714Y-48809463D01*
X103421714Y-48809463D02*
X103350285Y-48916606D01*
X103350285Y-48916606D02*
X103314571Y-49059463D01*
X103314571Y-49059463D02*
X103314571Y-49345177D01*
X103314571Y-49345177D02*
X103350285Y-49416606D01*
X103350285Y-49416606D02*
X103385999Y-49452320D01*
X103385999Y-49452320D02*
X103457428Y-49488034D01*
X103457428Y-49488034D02*
X103600285Y-49488034D01*
X103600285Y-49488034D02*
X103671714Y-49452320D01*
X103671714Y-49452320D02*
X103707428Y-49416606D01*
X103707428Y-49416606D02*
X103743142Y-49345177D01*
X103743142Y-49345177D02*
X103743142Y-49166606D01*
X103743142Y-49166606D02*
X103707428Y-49095177D01*
X103707428Y-49095177D02*
X103671714Y-49059463D01*
X103671714Y-49059463D02*
X103600285Y-49023749D01*
X103600285Y-49023749D02*
X103457428Y-49023749D01*
X103457428Y-49023749D02*
X103385999Y-49059463D01*
X103385999Y-49059463D02*
X103350285Y-49095177D01*
X103350285Y-49095177D02*
X103314571Y-49166606D01*
%TO.C,Q4*%
X91637589Y-48077428D02*
X91601875Y-48148857D01*
X91601875Y-48148857D02*
X91530446Y-48220285D01*
X91530446Y-48220285D02*
X91423303Y-48327428D01*
X91423303Y-48327428D02*
X91387589Y-48398857D01*
X91387589Y-48398857D02*
X91387589Y-48470285D01*
X91566160Y-48434571D02*
X91530446Y-48506000D01*
X91530446Y-48506000D02*
X91459017Y-48577428D01*
X91459017Y-48577428D02*
X91316160Y-48613142D01*
X91316160Y-48613142D02*
X91066160Y-48613142D01*
X91066160Y-48613142D02*
X90923303Y-48577428D01*
X90923303Y-48577428D02*
X90851875Y-48506000D01*
X90851875Y-48506000D02*
X90816160Y-48434571D01*
X90816160Y-48434571D02*
X90816160Y-48291714D01*
X90816160Y-48291714D02*
X90851875Y-48220285D01*
X90851875Y-48220285D02*
X90923303Y-48148857D01*
X90923303Y-48148857D02*
X91066160Y-48113142D01*
X91066160Y-48113142D02*
X91316160Y-48113142D01*
X91316160Y-48113142D02*
X91459017Y-48148857D01*
X91459017Y-48148857D02*
X91530446Y-48220285D01*
X91530446Y-48220285D02*
X91566160Y-48291714D01*
X91566160Y-48291714D02*
X91566160Y-48434571D01*
X91066160Y-47470286D02*
X91566160Y-47470286D01*
X90780446Y-47648857D02*
X91316160Y-47827428D01*
X91316160Y-47827428D02*
X91316160Y-47363143D01*
%TO.C,U3*%
X90624571Y-66029535D02*
X90624571Y-66636678D01*
X90624571Y-66636678D02*
X90660285Y-66708107D01*
X90660285Y-66708107D02*
X90696000Y-66743821D01*
X90696000Y-66743821D02*
X90767428Y-66779535D01*
X90767428Y-66779535D02*
X90910285Y-66779535D01*
X90910285Y-66779535D02*
X90981714Y-66743821D01*
X90981714Y-66743821D02*
X91017428Y-66708107D01*
X91017428Y-66708107D02*
X91053142Y-66636678D01*
X91053142Y-66636678D02*
X91053142Y-66029535D01*
X91338856Y-66029535D02*
X91803142Y-66029535D01*
X91803142Y-66029535D02*
X91553142Y-66315250D01*
X91553142Y-66315250D02*
X91660285Y-66315250D01*
X91660285Y-66315250D02*
X91731714Y-66350964D01*
X91731714Y-66350964D02*
X91767428Y-66386678D01*
X91767428Y-66386678D02*
X91803142Y-66458107D01*
X91803142Y-66458107D02*
X91803142Y-66636678D01*
X91803142Y-66636678D02*
X91767428Y-66708107D01*
X91767428Y-66708107D02*
X91731714Y-66743821D01*
X91731714Y-66743821D02*
X91660285Y-66779535D01*
X91660285Y-66779535D02*
X91445999Y-66779535D01*
X91445999Y-66779535D02*
X91374571Y-66743821D01*
X91374571Y-66743821D02*
X91338856Y-66708107D01*
%TO.C,U1*%
X120713571Y-39635535D02*
X120713571Y-40242678D01*
X120713571Y-40242678D02*
X120749285Y-40314107D01*
X120749285Y-40314107D02*
X120785000Y-40349821D01*
X120785000Y-40349821D02*
X120856428Y-40385535D01*
X120856428Y-40385535D02*
X120999285Y-40385535D01*
X120999285Y-40385535D02*
X121070714Y-40349821D01*
X121070714Y-40349821D02*
X121106428Y-40314107D01*
X121106428Y-40314107D02*
X121142142Y-40242678D01*
X121142142Y-40242678D02*
X121142142Y-39635535D01*
X121892142Y-40385535D02*
X121463571Y-40385535D01*
X121677856Y-40385535D02*
X121677856Y-39635535D01*
X121677856Y-39635535D02*
X121606428Y-39742678D01*
X121606428Y-39742678D02*
X121534999Y-39814107D01*
X121534999Y-39814107D02*
X121463571Y-39849821D01*
%TO.C,R8*%
X121032999Y-78253535D02*
X120782999Y-77896392D01*
X120604428Y-78253535D02*
X120604428Y-77503535D01*
X120604428Y-77503535D02*
X120890142Y-77503535D01*
X120890142Y-77503535D02*
X120961571Y-77539250D01*
X120961571Y-77539250D02*
X120997285Y-77574964D01*
X120997285Y-77574964D02*
X121032999Y-77646392D01*
X121032999Y-77646392D02*
X121032999Y-77753535D01*
X121032999Y-77753535D02*
X120997285Y-77824964D01*
X120997285Y-77824964D02*
X120961571Y-77860678D01*
X120961571Y-77860678D02*
X120890142Y-77896392D01*
X120890142Y-77896392D02*
X120604428Y-77896392D01*
X121461571Y-77824964D02*
X121390142Y-77789250D01*
X121390142Y-77789250D02*
X121354428Y-77753535D01*
X121354428Y-77753535D02*
X121318714Y-77682107D01*
X121318714Y-77682107D02*
X121318714Y-77646392D01*
X121318714Y-77646392D02*
X121354428Y-77574964D01*
X121354428Y-77574964D02*
X121390142Y-77539250D01*
X121390142Y-77539250D02*
X121461571Y-77503535D01*
X121461571Y-77503535D02*
X121604428Y-77503535D01*
X121604428Y-77503535D02*
X121675857Y-77539250D01*
X121675857Y-77539250D02*
X121711571Y-77574964D01*
X121711571Y-77574964D02*
X121747285Y-77646392D01*
X121747285Y-77646392D02*
X121747285Y-77682107D01*
X121747285Y-77682107D02*
X121711571Y-77753535D01*
X121711571Y-77753535D02*
X121675857Y-77789250D01*
X121675857Y-77789250D02*
X121604428Y-77824964D01*
X121604428Y-77824964D02*
X121461571Y-77824964D01*
X121461571Y-77824964D02*
X121390142Y-77860678D01*
X121390142Y-77860678D02*
X121354428Y-77896392D01*
X121354428Y-77896392D02*
X121318714Y-77967821D01*
X121318714Y-77967821D02*
X121318714Y-78110678D01*
X121318714Y-78110678D02*
X121354428Y-78182107D01*
X121354428Y-78182107D02*
X121390142Y-78217821D01*
X121390142Y-78217821D02*
X121461571Y-78253535D01*
X121461571Y-78253535D02*
X121604428Y-78253535D01*
X121604428Y-78253535D02*
X121675857Y-78217821D01*
X121675857Y-78217821D02*
X121711571Y-78182107D01*
X121711571Y-78182107D02*
X121747285Y-78110678D01*
X121747285Y-78110678D02*
X121747285Y-77967821D01*
X121747285Y-77967821D02*
X121711571Y-77896392D01*
X121711571Y-77896392D02*
X121675857Y-77860678D01*
X121675857Y-77860678D02*
X121604428Y-77824964D01*
%TO.C,C4*%
X131268107Y-59307000D02*
X131303821Y-59342714D01*
X131303821Y-59342714D02*
X131339535Y-59449857D01*
X131339535Y-59449857D02*
X131339535Y-59521285D01*
X131339535Y-59521285D02*
X131303821Y-59628428D01*
X131303821Y-59628428D02*
X131232392Y-59699857D01*
X131232392Y-59699857D02*
X131160964Y-59735571D01*
X131160964Y-59735571D02*
X131018107Y-59771285D01*
X131018107Y-59771285D02*
X130910964Y-59771285D01*
X130910964Y-59771285D02*
X130768107Y-59735571D01*
X130768107Y-59735571D02*
X130696678Y-59699857D01*
X130696678Y-59699857D02*
X130625250Y-59628428D01*
X130625250Y-59628428D02*
X130589535Y-59521285D01*
X130589535Y-59521285D02*
X130589535Y-59449857D01*
X130589535Y-59449857D02*
X130625250Y-59342714D01*
X130625250Y-59342714D02*
X130660964Y-59307000D01*
X130839535Y-58664143D02*
X131339535Y-58664143D01*
X130553821Y-58842714D02*
X131089535Y-59021285D01*
X131089535Y-59021285D02*
X131089535Y-58557000D01*
%TO.C,R22*%
X102461142Y-77745535D02*
X102211142Y-77388392D01*
X102032571Y-77745535D02*
X102032571Y-76995535D01*
X102032571Y-76995535D02*
X102318285Y-76995535D01*
X102318285Y-76995535D02*
X102389714Y-77031250D01*
X102389714Y-77031250D02*
X102425428Y-77066964D01*
X102425428Y-77066964D02*
X102461142Y-77138392D01*
X102461142Y-77138392D02*
X102461142Y-77245535D01*
X102461142Y-77245535D02*
X102425428Y-77316964D01*
X102425428Y-77316964D02*
X102389714Y-77352678D01*
X102389714Y-77352678D02*
X102318285Y-77388392D01*
X102318285Y-77388392D02*
X102032571Y-77388392D01*
X102746857Y-77066964D02*
X102782571Y-77031250D01*
X102782571Y-77031250D02*
X102854000Y-76995535D01*
X102854000Y-76995535D02*
X103032571Y-76995535D01*
X103032571Y-76995535D02*
X103104000Y-77031250D01*
X103104000Y-77031250D02*
X103139714Y-77066964D01*
X103139714Y-77066964D02*
X103175428Y-77138392D01*
X103175428Y-77138392D02*
X103175428Y-77209821D01*
X103175428Y-77209821D02*
X103139714Y-77316964D01*
X103139714Y-77316964D02*
X102711142Y-77745535D01*
X102711142Y-77745535D02*
X103175428Y-77745535D01*
X103461143Y-77066964D02*
X103496857Y-77031250D01*
X103496857Y-77031250D02*
X103568286Y-76995535D01*
X103568286Y-76995535D02*
X103746857Y-76995535D01*
X103746857Y-76995535D02*
X103818286Y-77031250D01*
X103818286Y-77031250D02*
X103854000Y-77066964D01*
X103854000Y-77066964D02*
X103889714Y-77138392D01*
X103889714Y-77138392D02*
X103889714Y-77209821D01*
X103889714Y-77209821D02*
X103854000Y-77316964D01*
X103854000Y-77316964D02*
X103425428Y-77745535D01*
X103425428Y-77745535D02*
X103889714Y-77745535D01*
%TO.C,R18*%
X102461142Y-73173535D02*
X102211142Y-72816392D01*
X102032571Y-73173535D02*
X102032571Y-72423535D01*
X102032571Y-72423535D02*
X102318285Y-72423535D01*
X102318285Y-72423535D02*
X102389714Y-72459250D01*
X102389714Y-72459250D02*
X102425428Y-72494964D01*
X102425428Y-72494964D02*
X102461142Y-72566392D01*
X102461142Y-72566392D02*
X102461142Y-72673535D01*
X102461142Y-72673535D02*
X102425428Y-72744964D01*
X102425428Y-72744964D02*
X102389714Y-72780678D01*
X102389714Y-72780678D02*
X102318285Y-72816392D01*
X102318285Y-72816392D02*
X102032571Y-72816392D01*
X103175428Y-73173535D02*
X102746857Y-73173535D01*
X102961142Y-73173535D02*
X102961142Y-72423535D01*
X102961142Y-72423535D02*
X102889714Y-72530678D01*
X102889714Y-72530678D02*
X102818285Y-72602107D01*
X102818285Y-72602107D02*
X102746857Y-72637821D01*
X103604000Y-72744964D02*
X103532571Y-72709250D01*
X103532571Y-72709250D02*
X103496857Y-72673535D01*
X103496857Y-72673535D02*
X103461143Y-72602107D01*
X103461143Y-72602107D02*
X103461143Y-72566392D01*
X103461143Y-72566392D02*
X103496857Y-72494964D01*
X103496857Y-72494964D02*
X103532571Y-72459250D01*
X103532571Y-72459250D02*
X103604000Y-72423535D01*
X103604000Y-72423535D02*
X103746857Y-72423535D01*
X103746857Y-72423535D02*
X103818286Y-72459250D01*
X103818286Y-72459250D02*
X103854000Y-72494964D01*
X103854000Y-72494964D02*
X103889714Y-72566392D01*
X103889714Y-72566392D02*
X103889714Y-72602107D01*
X103889714Y-72602107D02*
X103854000Y-72673535D01*
X103854000Y-72673535D02*
X103818286Y-72709250D01*
X103818286Y-72709250D02*
X103746857Y-72744964D01*
X103746857Y-72744964D02*
X103604000Y-72744964D01*
X103604000Y-72744964D02*
X103532571Y-72780678D01*
X103532571Y-72780678D02*
X103496857Y-72816392D01*
X103496857Y-72816392D02*
X103461143Y-72887821D01*
X103461143Y-72887821D02*
X103461143Y-73030678D01*
X103461143Y-73030678D02*
X103496857Y-73102107D01*
X103496857Y-73102107D02*
X103532571Y-73137821D01*
X103532571Y-73137821D02*
X103604000Y-73173535D01*
X103604000Y-73173535D02*
X103746857Y-73173535D01*
X103746857Y-73173535D02*
X103818286Y-73137821D01*
X103818286Y-73137821D02*
X103854000Y-73102107D01*
X103854000Y-73102107D02*
X103889714Y-73030678D01*
X103889714Y-73030678D02*
X103889714Y-72887821D01*
X103889714Y-72887821D02*
X103854000Y-72816392D01*
X103854000Y-72816392D02*
X103818286Y-72780678D01*
X103818286Y-72780678D02*
X103746857Y-72744964D01*
%TO.C,C7*%
X98934999Y-66280107D02*
X98899285Y-66315821D01*
X98899285Y-66315821D02*
X98792142Y-66351535D01*
X98792142Y-66351535D02*
X98720714Y-66351535D01*
X98720714Y-66351535D02*
X98613571Y-66315821D01*
X98613571Y-66315821D02*
X98542142Y-66244392D01*
X98542142Y-66244392D02*
X98506428Y-66172964D01*
X98506428Y-66172964D02*
X98470714Y-66030107D01*
X98470714Y-66030107D02*
X98470714Y-65922964D01*
X98470714Y-65922964D02*
X98506428Y-65780107D01*
X98506428Y-65780107D02*
X98542142Y-65708678D01*
X98542142Y-65708678D02*
X98613571Y-65637250D01*
X98613571Y-65637250D02*
X98720714Y-65601535D01*
X98720714Y-65601535D02*
X98792142Y-65601535D01*
X98792142Y-65601535D02*
X98899285Y-65637250D01*
X98899285Y-65637250D02*
X98934999Y-65672964D01*
X99184999Y-65601535D02*
X99684999Y-65601535D01*
X99684999Y-65601535D02*
X99363571Y-66351535D01*
%TO.C,R19*%
X102461142Y-74697535D02*
X102211142Y-74340392D01*
X102032571Y-74697535D02*
X102032571Y-73947535D01*
X102032571Y-73947535D02*
X102318285Y-73947535D01*
X102318285Y-73947535D02*
X102389714Y-73983250D01*
X102389714Y-73983250D02*
X102425428Y-74018964D01*
X102425428Y-74018964D02*
X102461142Y-74090392D01*
X102461142Y-74090392D02*
X102461142Y-74197535D01*
X102461142Y-74197535D02*
X102425428Y-74268964D01*
X102425428Y-74268964D02*
X102389714Y-74304678D01*
X102389714Y-74304678D02*
X102318285Y-74340392D01*
X102318285Y-74340392D02*
X102032571Y-74340392D01*
X103175428Y-74697535D02*
X102746857Y-74697535D01*
X102961142Y-74697535D02*
X102961142Y-73947535D01*
X102961142Y-73947535D02*
X102889714Y-74054678D01*
X102889714Y-74054678D02*
X102818285Y-74126107D01*
X102818285Y-74126107D02*
X102746857Y-74161821D01*
X103532571Y-74697535D02*
X103675428Y-74697535D01*
X103675428Y-74697535D02*
X103746857Y-74661821D01*
X103746857Y-74661821D02*
X103782571Y-74626107D01*
X103782571Y-74626107D02*
X103854000Y-74518964D01*
X103854000Y-74518964D02*
X103889714Y-74376107D01*
X103889714Y-74376107D02*
X103889714Y-74090392D01*
X103889714Y-74090392D02*
X103854000Y-74018964D01*
X103854000Y-74018964D02*
X103818286Y-73983250D01*
X103818286Y-73983250D02*
X103746857Y-73947535D01*
X103746857Y-73947535D02*
X103604000Y-73947535D01*
X103604000Y-73947535D02*
X103532571Y-73983250D01*
X103532571Y-73983250D02*
X103496857Y-74018964D01*
X103496857Y-74018964D02*
X103461143Y-74090392D01*
X103461143Y-74090392D02*
X103461143Y-74268964D01*
X103461143Y-74268964D02*
X103496857Y-74340392D01*
X103496857Y-74340392D02*
X103532571Y-74376107D01*
X103532571Y-74376107D02*
X103604000Y-74411821D01*
X103604000Y-74411821D02*
X103746857Y-74411821D01*
X103746857Y-74411821D02*
X103818286Y-74376107D01*
X103818286Y-74376107D02*
X103854000Y-74340392D01*
X103854000Y-74340392D02*
X103889714Y-74268964D01*
%TO.C,R1*%
X103028856Y-45360535D02*
X102778856Y-45003392D01*
X102600285Y-45360535D02*
X102600285Y-44610535D01*
X102600285Y-44610535D02*
X102885999Y-44610535D01*
X102885999Y-44610535D02*
X102957428Y-44646250D01*
X102957428Y-44646250D02*
X102993142Y-44681964D01*
X102993142Y-44681964D02*
X103028856Y-44753392D01*
X103028856Y-44753392D02*
X103028856Y-44860535D01*
X103028856Y-44860535D02*
X102993142Y-44931964D01*
X102993142Y-44931964D02*
X102957428Y-44967678D01*
X102957428Y-44967678D02*
X102885999Y-45003392D01*
X102885999Y-45003392D02*
X102600285Y-45003392D01*
X103743142Y-45360535D02*
X103314571Y-45360535D01*
X103528856Y-45360535D02*
X103528856Y-44610535D01*
X103528856Y-44610535D02*
X103457428Y-44717678D01*
X103457428Y-44717678D02*
X103385999Y-44789107D01*
X103385999Y-44789107D02*
X103314571Y-44824821D01*
%TO.C,R14*%
X73358570Y-87118135D02*
X73108570Y-86760992D01*
X72929999Y-87118135D02*
X72929999Y-86368135D01*
X72929999Y-86368135D02*
X73215713Y-86368135D01*
X73215713Y-86368135D02*
X73287142Y-86403850D01*
X73287142Y-86403850D02*
X73322856Y-86439564D01*
X73322856Y-86439564D02*
X73358570Y-86510992D01*
X73358570Y-86510992D02*
X73358570Y-86618135D01*
X73358570Y-86618135D02*
X73322856Y-86689564D01*
X73322856Y-86689564D02*
X73287142Y-86725278D01*
X73287142Y-86725278D02*
X73215713Y-86760992D01*
X73215713Y-86760992D02*
X72929999Y-86760992D01*
X74072856Y-87118135D02*
X73644285Y-87118135D01*
X73858570Y-87118135D02*
X73858570Y-86368135D01*
X73858570Y-86368135D02*
X73787142Y-86475278D01*
X73787142Y-86475278D02*
X73715713Y-86546707D01*
X73715713Y-86546707D02*
X73644285Y-86582421D01*
X74715714Y-86618135D02*
X74715714Y-87118135D01*
X74537142Y-86332421D02*
X74358571Y-86868135D01*
X74358571Y-86868135D02*
X74822856Y-86868135D01*
%TO.C,C1*%
X127966107Y-31855000D02*
X128001821Y-31890714D01*
X128001821Y-31890714D02*
X128037535Y-31997857D01*
X128037535Y-31997857D02*
X128037535Y-32069285D01*
X128037535Y-32069285D02*
X128001821Y-32176428D01*
X128001821Y-32176428D02*
X127930392Y-32247857D01*
X127930392Y-32247857D02*
X127858964Y-32283571D01*
X127858964Y-32283571D02*
X127716107Y-32319285D01*
X127716107Y-32319285D02*
X127608964Y-32319285D01*
X127608964Y-32319285D02*
X127466107Y-32283571D01*
X127466107Y-32283571D02*
X127394678Y-32247857D01*
X127394678Y-32247857D02*
X127323250Y-32176428D01*
X127323250Y-32176428D02*
X127287535Y-32069285D01*
X127287535Y-32069285D02*
X127287535Y-31997857D01*
X127287535Y-31997857D02*
X127323250Y-31890714D01*
X127323250Y-31890714D02*
X127358964Y-31855000D01*
X128037535Y-31140714D02*
X128037535Y-31569285D01*
X128037535Y-31355000D02*
X127287535Y-31355000D01*
X127287535Y-31355000D02*
X127394678Y-31426428D01*
X127394678Y-31426428D02*
X127466107Y-31497857D01*
X127466107Y-31497857D02*
X127501821Y-31569285D01*
%TO.C,R21*%
X65811856Y-56239535D02*
X65561856Y-55882392D01*
X65383285Y-56239535D02*
X65383285Y-55489535D01*
X65383285Y-55489535D02*
X65668999Y-55489535D01*
X65668999Y-55489535D02*
X65740428Y-55525250D01*
X65740428Y-55525250D02*
X65776142Y-55560964D01*
X65776142Y-55560964D02*
X65811856Y-55632392D01*
X65811856Y-55632392D02*
X65811856Y-55739535D01*
X65811856Y-55739535D02*
X65776142Y-55810964D01*
X65776142Y-55810964D02*
X65740428Y-55846678D01*
X65740428Y-55846678D02*
X65668999Y-55882392D01*
X65668999Y-55882392D02*
X65383285Y-55882392D01*
X66097571Y-55560964D02*
X66133285Y-55525250D01*
X66133285Y-55525250D02*
X66204714Y-55489535D01*
X66204714Y-55489535D02*
X66383285Y-55489535D01*
X66383285Y-55489535D02*
X66454714Y-55525250D01*
X66454714Y-55525250D02*
X66490428Y-55560964D01*
X66490428Y-55560964D02*
X66526142Y-55632392D01*
X66526142Y-55632392D02*
X66526142Y-55703821D01*
X66526142Y-55703821D02*
X66490428Y-55810964D01*
X66490428Y-55810964D02*
X66061856Y-56239535D01*
X66061856Y-56239535D02*
X66526142Y-56239535D01*
X67240428Y-56239535D02*
X66811857Y-56239535D01*
X67026142Y-56239535D02*
X67026142Y-55489535D01*
X67026142Y-55489535D02*
X66954714Y-55596678D01*
X66954714Y-55596678D02*
X66883285Y-55668107D01*
X66883285Y-55668107D02*
X66811857Y-55703821D01*
%TO.C,R17*%
X100943535Y-75666143D02*
X100586392Y-75916143D01*
X100943535Y-76094714D02*
X100193535Y-76094714D01*
X100193535Y-76094714D02*
X100193535Y-75809000D01*
X100193535Y-75809000D02*
X100229250Y-75737571D01*
X100229250Y-75737571D02*
X100264964Y-75701857D01*
X100264964Y-75701857D02*
X100336392Y-75666143D01*
X100336392Y-75666143D02*
X100443535Y-75666143D01*
X100443535Y-75666143D02*
X100514964Y-75701857D01*
X100514964Y-75701857D02*
X100550678Y-75737571D01*
X100550678Y-75737571D02*
X100586392Y-75809000D01*
X100586392Y-75809000D02*
X100586392Y-76094714D01*
X100943535Y-74951857D02*
X100943535Y-75380428D01*
X100943535Y-75166143D02*
X100193535Y-75166143D01*
X100193535Y-75166143D02*
X100300678Y-75237571D01*
X100300678Y-75237571D02*
X100372107Y-75309000D01*
X100372107Y-75309000D02*
X100407821Y-75380428D01*
X100193535Y-74701857D02*
X100193535Y-74201857D01*
X100193535Y-74201857D02*
X100943535Y-74523285D01*
%TO.C,R7*%
X103028856Y-48112201D02*
X102778856Y-47755058D01*
X102600285Y-48112201D02*
X102600285Y-47362201D01*
X102600285Y-47362201D02*
X102885999Y-47362201D01*
X102885999Y-47362201D02*
X102957428Y-47397916D01*
X102957428Y-47397916D02*
X102993142Y-47433630D01*
X102993142Y-47433630D02*
X103028856Y-47505058D01*
X103028856Y-47505058D02*
X103028856Y-47612201D01*
X103028856Y-47612201D02*
X102993142Y-47683630D01*
X102993142Y-47683630D02*
X102957428Y-47719344D01*
X102957428Y-47719344D02*
X102885999Y-47755058D01*
X102885999Y-47755058D02*
X102600285Y-47755058D01*
X103278856Y-47362201D02*
X103778856Y-47362201D01*
X103778856Y-47362201D02*
X103457428Y-48112201D01*
%TO.C,C5*%
X108586999Y-56592107D02*
X108551285Y-56627821D01*
X108551285Y-56627821D02*
X108444142Y-56663535D01*
X108444142Y-56663535D02*
X108372714Y-56663535D01*
X108372714Y-56663535D02*
X108265571Y-56627821D01*
X108265571Y-56627821D02*
X108194142Y-56556392D01*
X108194142Y-56556392D02*
X108158428Y-56484964D01*
X108158428Y-56484964D02*
X108122714Y-56342107D01*
X108122714Y-56342107D02*
X108122714Y-56234964D01*
X108122714Y-56234964D02*
X108158428Y-56092107D01*
X108158428Y-56092107D02*
X108194142Y-56020678D01*
X108194142Y-56020678D02*
X108265571Y-55949250D01*
X108265571Y-55949250D02*
X108372714Y-55913535D01*
X108372714Y-55913535D02*
X108444142Y-55913535D01*
X108444142Y-55913535D02*
X108551285Y-55949250D01*
X108551285Y-55949250D02*
X108586999Y-55984964D01*
X109265571Y-55913535D02*
X108908428Y-55913535D01*
X108908428Y-55913535D02*
X108872714Y-56270678D01*
X108872714Y-56270678D02*
X108908428Y-56234964D01*
X108908428Y-56234964D02*
X108979857Y-56199250D01*
X108979857Y-56199250D02*
X109158428Y-56199250D01*
X109158428Y-56199250D02*
X109229857Y-56234964D01*
X109229857Y-56234964D02*
X109265571Y-56270678D01*
X109265571Y-56270678D02*
X109301285Y-56342107D01*
X109301285Y-56342107D02*
X109301285Y-56520678D01*
X109301285Y-56520678D02*
X109265571Y-56592107D01*
X109265571Y-56592107D02*
X109229857Y-56627821D01*
X109229857Y-56627821D02*
X109158428Y-56663535D01*
X109158428Y-56663535D02*
X108979857Y-56663535D01*
X108979857Y-56663535D02*
X108908428Y-56627821D01*
X108908428Y-56627821D02*
X108872714Y-56592107D01*
%TO.C,R2*%
X103028856Y-46736368D02*
X102778856Y-46379225D01*
X102600285Y-46736368D02*
X102600285Y-45986368D01*
X102600285Y-45986368D02*
X102885999Y-45986368D01*
X102885999Y-45986368D02*
X102957428Y-46022083D01*
X102957428Y-46022083D02*
X102993142Y-46057797D01*
X102993142Y-46057797D02*
X103028856Y-46129225D01*
X103028856Y-46129225D02*
X103028856Y-46236368D01*
X103028856Y-46236368D02*
X102993142Y-46307797D01*
X102993142Y-46307797D02*
X102957428Y-46343511D01*
X102957428Y-46343511D02*
X102885999Y-46379225D01*
X102885999Y-46379225D02*
X102600285Y-46379225D01*
X103314571Y-46057797D02*
X103350285Y-46022083D01*
X103350285Y-46022083D02*
X103421714Y-45986368D01*
X103421714Y-45986368D02*
X103600285Y-45986368D01*
X103600285Y-45986368D02*
X103671714Y-46022083D01*
X103671714Y-46022083D02*
X103707428Y-46057797D01*
X103707428Y-46057797D02*
X103743142Y-46129225D01*
X103743142Y-46129225D02*
X103743142Y-46200654D01*
X103743142Y-46200654D02*
X103707428Y-46307797D01*
X103707428Y-46307797D02*
X103278856Y-46736368D01*
X103278856Y-46736368D02*
X103743142Y-46736368D01*
%TO.C,Q1*%
X70047589Y-48077428D02*
X70011875Y-48148857D01*
X70011875Y-48148857D02*
X69940446Y-48220285D01*
X69940446Y-48220285D02*
X69833303Y-48327428D01*
X69833303Y-48327428D02*
X69797589Y-48398857D01*
X69797589Y-48398857D02*
X69797589Y-48470285D01*
X69976160Y-48434571D02*
X69940446Y-48506000D01*
X69940446Y-48506000D02*
X69869017Y-48577428D01*
X69869017Y-48577428D02*
X69726160Y-48613142D01*
X69726160Y-48613142D02*
X69476160Y-48613142D01*
X69476160Y-48613142D02*
X69333303Y-48577428D01*
X69333303Y-48577428D02*
X69261875Y-48506000D01*
X69261875Y-48506000D02*
X69226160Y-48434571D01*
X69226160Y-48434571D02*
X69226160Y-48291714D01*
X69226160Y-48291714D02*
X69261875Y-48220285D01*
X69261875Y-48220285D02*
X69333303Y-48148857D01*
X69333303Y-48148857D02*
X69476160Y-48113142D01*
X69476160Y-48113142D02*
X69726160Y-48113142D01*
X69726160Y-48113142D02*
X69869017Y-48148857D01*
X69869017Y-48148857D02*
X69940446Y-48220285D01*
X69940446Y-48220285D02*
X69976160Y-48291714D01*
X69976160Y-48291714D02*
X69976160Y-48434571D01*
X69976160Y-47398857D02*
X69976160Y-47827428D01*
X69976160Y-47613143D02*
X69226160Y-47613143D01*
X69226160Y-47613143D02*
X69333303Y-47684571D01*
X69333303Y-47684571D02*
X69404732Y-47756000D01*
X69404732Y-47756000D02*
X69440446Y-47827428D01*
%TO.C,R11*%
X120675856Y-86465535D02*
X120425856Y-86108392D01*
X120247285Y-86465535D02*
X120247285Y-85715535D01*
X120247285Y-85715535D02*
X120532999Y-85715535D01*
X120532999Y-85715535D02*
X120604428Y-85751250D01*
X120604428Y-85751250D02*
X120640142Y-85786964D01*
X120640142Y-85786964D02*
X120675856Y-85858392D01*
X120675856Y-85858392D02*
X120675856Y-85965535D01*
X120675856Y-85965535D02*
X120640142Y-86036964D01*
X120640142Y-86036964D02*
X120604428Y-86072678D01*
X120604428Y-86072678D02*
X120532999Y-86108392D01*
X120532999Y-86108392D02*
X120247285Y-86108392D01*
X121390142Y-86465535D02*
X120961571Y-86465535D01*
X121175856Y-86465535D02*
X121175856Y-85715535D01*
X121175856Y-85715535D02*
X121104428Y-85822678D01*
X121104428Y-85822678D02*
X121032999Y-85894107D01*
X121032999Y-85894107D02*
X120961571Y-85929821D01*
X122104428Y-86465535D02*
X121675857Y-86465535D01*
X121890142Y-86465535D02*
X121890142Y-85715535D01*
X121890142Y-85715535D02*
X121818714Y-85822678D01*
X121818714Y-85822678D02*
X121747285Y-85894107D01*
X121747285Y-85894107D02*
X121675857Y-85929821D01*
%TO.C,R26*%
X96291856Y-56239535D02*
X96041856Y-55882392D01*
X95863285Y-56239535D02*
X95863285Y-55489535D01*
X95863285Y-55489535D02*
X96148999Y-55489535D01*
X96148999Y-55489535D02*
X96220428Y-55525250D01*
X96220428Y-55525250D02*
X96256142Y-55560964D01*
X96256142Y-55560964D02*
X96291856Y-55632392D01*
X96291856Y-55632392D02*
X96291856Y-55739535D01*
X96291856Y-55739535D02*
X96256142Y-55810964D01*
X96256142Y-55810964D02*
X96220428Y-55846678D01*
X96220428Y-55846678D02*
X96148999Y-55882392D01*
X96148999Y-55882392D02*
X95863285Y-55882392D01*
X96577571Y-55560964D02*
X96613285Y-55525250D01*
X96613285Y-55525250D02*
X96684714Y-55489535D01*
X96684714Y-55489535D02*
X96863285Y-55489535D01*
X96863285Y-55489535D02*
X96934714Y-55525250D01*
X96934714Y-55525250D02*
X96970428Y-55560964D01*
X96970428Y-55560964D02*
X97006142Y-55632392D01*
X97006142Y-55632392D02*
X97006142Y-55703821D01*
X97006142Y-55703821D02*
X96970428Y-55810964D01*
X96970428Y-55810964D02*
X96541856Y-56239535D01*
X96541856Y-56239535D02*
X97006142Y-56239535D01*
X97649000Y-55489535D02*
X97506142Y-55489535D01*
X97506142Y-55489535D02*
X97434714Y-55525250D01*
X97434714Y-55525250D02*
X97399000Y-55560964D01*
X97399000Y-55560964D02*
X97327571Y-55668107D01*
X97327571Y-55668107D02*
X97291857Y-55810964D01*
X97291857Y-55810964D02*
X97291857Y-56096678D01*
X97291857Y-56096678D02*
X97327571Y-56168107D01*
X97327571Y-56168107D02*
X97363285Y-56203821D01*
X97363285Y-56203821D02*
X97434714Y-56239535D01*
X97434714Y-56239535D02*
X97577571Y-56239535D01*
X97577571Y-56239535D02*
X97649000Y-56203821D01*
X97649000Y-56203821D02*
X97684714Y-56168107D01*
X97684714Y-56168107D02*
X97720428Y-56096678D01*
X97720428Y-56096678D02*
X97720428Y-55918107D01*
X97720428Y-55918107D02*
X97684714Y-55846678D01*
X97684714Y-55846678D02*
X97649000Y-55810964D01*
X97649000Y-55810964D02*
X97577571Y-55775250D01*
X97577571Y-55775250D02*
X97434714Y-55775250D01*
X97434714Y-55775250D02*
X97363285Y-55810964D01*
X97363285Y-55810964D02*
X97327571Y-55846678D01*
X97327571Y-55846678D02*
X97291857Y-55918107D01*
%TO.C,Q3*%
X84440921Y-48077428D02*
X84405207Y-48148857D01*
X84405207Y-48148857D02*
X84333778Y-48220285D01*
X84333778Y-48220285D02*
X84226635Y-48327428D01*
X84226635Y-48327428D02*
X84190921Y-48398857D01*
X84190921Y-48398857D02*
X84190921Y-48470285D01*
X84369492Y-48434571D02*
X84333778Y-48506000D01*
X84333778Y-48506000D02*
X84262349Y-48577428D01*
X84262349Y-48577428D02*
X84119492Y-48613142D01*
X84119492Y-48613142D02*
X83869492Y-48613142D01*
X83869492Y-48613142D02*
X83726635Y-48577428D01*
X83726635Y-48577428D02*
X83655207Y-48506000D01*
X83655207Y-48506000D02*
X83619492Y-48434571D01*
X83619492Y-48434571D02*
X83619492Y-48291714D01*
X83619492Y-48291714D02*
X83655207Y-48220285D01*
X83655207Y-48220285D02*
X83726635Y-48148857D01*
X83726635Y-48148857D02*
X83869492Y-48113142D01*
X83869492Y-48113142D02*
X84119492Y-48113142D01*
X84119492Y-48113142D02*
X84262349Y-48148857D01*
X84262349Y-48148857D02*
X84333778Y-48220285D01*
X84333778Y-48220285D02*
X84369492Y-48291714D01*
X84369492Y-48291714D02*
X84369492Y-48434571D01*
X83619492Y-47863143D02*
X83619492Y-47398857D01*
X83619492Y-47398857D02*
X83905207Y-47648857D01*
X83905207Y-47648857D02*
X83905207Y-47541714D01*
X83905207Y-47541714D02*
X83940921Y-47470286D01*
X83940921Y-47470286D02*
X83976635Y-47434571D01*
X83976635Y-47434571D02*
X84048064Y-47398857D01*
X84048064Y-47398857D02*
X84226635Y-47398857D01*
X84226635Y-47398857D02*
X84298064Y-47434571D01*
X84298064Y-47434571D02*
X84333778Y-47470286D01*
X84333778Y-47470286D02*
X84369492Y-47541714D01*
X84369492Y-47541714D02*
X84369492Y-47756000D01*
X84369492Y-47756000D02*
X84333778Y-47827428D01*
X84333778Y-47827428D02*
X84298064Y-47863143D01*
%TO.C,R12*%
X66319856Y-85703535D02*
X66069856Y-85346392D01*
X65891285Y-85703535D02*
X65891285Y-84953535D01*
X65891285Y-84953535D02*
X66176999Y-84953535D01*
X66176999Y-84953535D02*
X66248428Y-84989250D01*
X66248428Y-84989250D02*
X66284142Y-85024964D01*
X66284142Y-85024964D02*
X66319856Y-85096392D01*
X66319856Y-85096392D02*
X66319856Y-85203535D01*
X66319856Y-85203535D02*
X66284142Y-85274964D01*
X66284142Y-85274964D02*
X66248428Y-85310678D01*
X66248428Y-85310678D02*
X66176999Y-85346392D01*
X66176999Y-85346392D02*
X65891285Y-85346392D01*
X67034142Y-85703535D02*
X66605571Y-85703535D01*
X66819856Y-85703535D02*
X66819856Y-84953535D01*
X66819856Y-84953535D02*
X66748428Y-85060678D01*
X66748428Y-85060678D02*
X66676999Y-85132107D01*
X66676999Y-85132107D02*
X66605571Y-85167821D01*
X67319857Y-85024964D02*
X67355571Y-84989250D01*
X67355571Y-84989250D02*
X67427000Y-84953535D01*
X67427000Y-84953535D02*
X67605571Y-84953535D01*
X67605571Y-84953535D02*
X67677000Y-84989250D01*
X67677000Y-84989250D02*
X67712714Y-85024964D01*
X67712714Y-85024964D02*
X67748428Y-85096392D01*
X67748428Y-85096392D02*
X67748428Y-85167821D01*
X67748428Y-85167821D02*
X67712714Y-85274964D01*
X67712714Y-85274964D02*
X67284142Y-85703535D01*
X67284142Y-85703535D02*
X67748428Y-85703535D01*
%TO.C,Q2*%
X77244255Y-48077428D02*
X77208541Y-48148857D01*
X77208541Y-48148857D02*
X77137112Y-48220285D01*
X77137112Y-48220285D02*
X77029969Y-48327428D01*
X77029969Y-48327428D02*
X76994255Y-48398857D01*
X76994255Y-48398857D02*
X76994255Y-48470285D01*
X77172826Y-48434571D02*
X77137112Y-48506000D01*
X77137112Y-48506000D02*
X77065683Y-48577428D01*
X77065683Y-48577428D02*
X76922826Y-48613142D01*
X76922826Y-48613142D02*
X76672826Y-48613142D01*
X76672826Y-48613142D02*
X76529969Y-48577428D01*
X76529969Y-48577428D02*
X76458541Y-48506000D01*
X76458541Y-48506000D02*
X76422826Y-48434571D01*
X76422826Y-48434571D02*
X76422826Y-48291714D01*
X76422826Y-48291714D02*
X76458541Y-48220285D01*
X76458541Y-48220285D02*
X76529969Y-48148857D01*
X76529969Y-48148857D02*
X76672826Y-48113142D01*
X76672826Y-48113142D02*
X76922826Y-48113142D01*
X76922826Y-48113142D02*
X77065683Y-48148857D01*
X77065683Y-48148857D02*
X77137112Y-48220285D01*
X77137112Y-48220285D02*
X77172826Y-48291714D01*
X77172826Y-48291714D02*
X77172826Y-48434571D01*
X76494255Y-47827428D02*
X76458541Y-47791714D01*
X76458541Y-47791714D02*
X76422826Y-47720286D01*
X76422826Y-47720286D02*
X76422826Y-47541714D01*
X76422826Y-47541714D02*
X76458541Y-47470286D01*
X76458541Y-47470286D02*
X76494255Y-47434571D01*
X76494255Y-47434571D02*
X76565683Y-47398857D01*
X76565683Y-47398857D02*
X76637112Y-47398857D01*
X76637112Y-47398857D02*
X76744255Y-47434571D01*
X76744255Y-47434571D02*
X77172826Y-47863143D01*
X77172826Y-47863143D02*
X77172826Y-47398857D01*
%TO.C,D2*%
X137885928Y-77491535D02*
X137885928Y-76741535D01*
X137885928Y-76741535D02*
X138064499Y-76741535D01*
X138064499Y-76741535D02*
X138171642Y-76777250D01*
X138171642Y-76777250D02*
X138243071Y-76848678D01*
X138243071Y-76848678D02*
X138278785Y-76920107D01*
X138278785Y-76920107D02*
X138314499Y-77062964D01*
X138314499Y-77062964D02*
X138314499Y-77170107D01*
X138314499Y-77170107D02*
X138278785Y-77312964D01*
X138278785Y-77312964D02*
X138243071Y-77384392D01*
X138243071Y-77384392D02*
X138171642Y-77455821D01*
X138171642Y-77455821D02*
X138064499Y-77491535D01*
X138064499Y-77491535D02*
X137885928Y-77491535D01*
X138600214Y-76812964D02*
X138635928Y-76777250D01*
X138635928Y-76777250D02*
X138707357Y-76741535D01*
X138707357Y-76741535D02*
X138885928Y-76741535D01*
X138885928Y-76741535D02*
X138957357Y-76777250D01*
X138957357Y-76777250D02*
X138993071Y-76812964D01*
X138993071Y-76812964D02*
X139028785Y-76884392D01*
X139028785Y-76884392D02*
X139028785Y-76955821D01*
X139028785Y-76955821D02*
X138993071Y-77062964D01*
X138993071Y-77062964D02*
X138564499Y-77491535D01*
X138564499Y-77491535D02*
X139028785Y-77491535D01*
%TO.C,U2*%
X64549535Y-42731428D02*
X65156678Y-42731428D01*
X65156678Y-42731428D02*
X65228107Y-42695714D01*
X65228107Y-42695714D02*
X65263821Y-42660000D01*
X65263821Y-42660000D02*
X65299535Y-42588571D01*
X65299535Y-42588571D02*
X65299535Y-42445714D01*
X65299535Y-42445714D02*
X65263821Y-42374285D01*
X65263821Y-42374285D02*
X65228107Y-42338571D01*
X65228107Y-42338571D02*
X65156678Y-42302857D01*
X65156678Y-42302857D02*
X64549535Y-42302857D01*
X64620964Y-41981428D02*
X64585250Y-41945714D01*
X64585250Y-41945714D02*
X64549535Y-41874286D01*
X64549535Y-41874286D02*
X64549535Y-41695714D01*
X64549535Y-41695714D02*
X64585250Y-41624286D01*
X64585250Y-41624286D02*
X64620964Y-41588571D01*
X64620964Y-41588571D02*
X64692392Y-41552857D01*
X64692392Y-41552857D02*
X64763821Y-41552857D01*
X64763821Y-41552857D02*
X64870964Y-41588571D01*
X64870964Y-41588571D02*
X65299535Y-42017143D01*
X65299535Y-42017143D02*
X65299535Y-41552857D01*
%TO.C,C2*%
X105513107Y-60670000D02*
X105548821Y-60705714D01*
X105548821Y-60705714D02*
X105584535Y-60812857D01*
X105584535Y-60812857D02*
X105584535Y-60884285D01*
X105584535Y-60884285D02*
X105548821Y-60991428D01*
X105548821Y-60991428D02*
X105477392Y-61062857D01*
X105477392Y-61062857D02*
X105405964Y-61098571D01*
X105405964Y-61098571D02*
X105263107Y-61134285D01*
X105263107Y-61134285D02*
X105155964Y-61134285D01*
X105155964Y-61134285D02*
X105013107Y-61098571D01*
X105013107Y-61098571D02*
X104941678Y-61062857D01*
X104941678Y-61062857D02*
X104870250Y-60991428D01*
X104870250Y-60991428D02*
X104834535Y-60884285D01*
X104834535Y-60884285D02*
X104834535Y-60812857D01*
X104834535Y-60812857D02*
X104870250Y-60705714D01*
X104870250Y-60705714D02*
X104905964Y-60670000D01*
X104905964Y-60384285D02*
X104870250Y-60348571D01*
X104870250Y-60348571D02*
X104834535Y-60277143D01*
X104834535Y-60277143D02*
X104834535Y-60098571D01*
X104834535Y-60098571D02*
X104870250Y-60027143D01*
X104870250Y-60027143D02*
X104905964Y-59991428D01*
X104905964Y-59991428D02*
X104977392Y-59955714D01*
X104977392Y-59955714D02*
X105048821Y-59955714D01*
X105048821Y-59955714D02*
X105155964Y-59991428D01*
X105155964Y-59991428D02*
X105584535Y-60420000D01*
X105584535Y-60420000D02*
X105584535Y-59955714D01*
%TO.C,J1*%
X137799000Y-60695535D02*
X137799000Y-61231250D01*
X137799000Y-61231250D02*
X137763285Y-61338392D01*
X137763285Y-61338392D02*
X137691857Y-61409821D01*
X137691857Y-61409821D02*
X137584714Y-61445535D01*
X137584714Y-61445535D02*
X137513285Y-61445535D01*
X138549000Y-61445535D02*
X138120429Y-61445535D01*
X138334714Y-61445535D02*
X138334714Y-60695535D01*
X138334714Y-60695535D02*
X138263286Y-60802678D01*
X138263286Y-60802678D02*
X138191857Y-60874107D01*
X138191857Y-60874107D02*
X138120429Y-60909821D01*
%TO.C,R9*%
X132208999Y-56155535D02*
X131958999Y-55798392D01*
X131780428Y-56155535D02*
X131780428Y-55405535D01*
X131780428Y-55405535D02*
X132066142Y-55405535D01*
X132066142Y-55405535D02*
X132137571Y-55441250D01*
X132137571Y-55441250D02*
X132173285Y-55476964D01*
X132173285Y-55476964D02*
X132208999Y-55548392D01*
X132208999Y-55548392D02*
X132208999Y-55655535D01*
X132208999Y-55655535D02*
X132173285Y-55726964D01*
X132173285Y-55726964D02*
X132137571Y-55762678D01*
X132137571Y-55762678D02*
X132066142Y-55798392D01*
X132066142Y-55798392D02*
X131780428Y-55798392D01*
X132566142Y-56155535D02*
X132708999Y-56155535D01*
X132708999Y-56155535D02*
X132780428Y-56119821D01*
X132780428Y-56119821D02*
X132816142Y-56084107D01*
X132816142Y-56084107D02*
X132887571Y-55976964D01*
X132887571Y-55976964D02*
X132923285Y-55834107D01*
X132923285Y-55834107D02*
X132923285Y-55548392D01*
X132923285Y-55548392D02*
X132887571Y-55476964D01*
X132887571Y-55476964D02*
X132851857Y-55441250D01*
X132851857Y-55441250D02*
X132780428Y-55405535D01*
X132780428Y-55405535D02*
X132637571Y-55405535D01*
X132637571Y-55405535D02*
X132566142Y-55441250D01*
X132566142Y-55441250D02*
X132530428Y-55476964D01*
X132530428Y-55476964D02*
X132494714Y-55548392D01*
X132494714Y-55548392D02*
X132494714Y-55726964D01*
X132494714Y-55726964D02*
X132530428Y-55798392D01*
X132530428Y-55798392D02*
X132566142Y-55834107D01*
X132566142Y-55834107D02*
X132637571Y-55869821D01*
X132637571Y-55869821D02*
X132780428Y-55869821D01*
X132780428Y-55869821D02*
X132851857Y-55834107D01*
X132851857Y-55834107D02*
X132887571Y-55798392D01*
X132887571Y-55798392D02*
X132923285Y-55726964D01*
%TO.C,R13*%
X73358570Y-88413535D02*
X73108570Y-88056392D01*
X72929999Y-88413535D02*
X72929999Y-87663535D01*
X72929999Y-87663535D02*
X73215713Y-87663535D01*
X73215713Y-87663535D02*
X73287142Y-87699250D01*
X73287142Y-87699250D02*
X73322856Y-87734964D01*
X73322856Y-87734964D02*
X73358570Y-87806392D01*
X73358570Y-87806392D02*
X73358570Y-87913535D01*
X73358570Y-87913535D02*
X73322856Y-87984964D01*
X73322856Y-87984964D02*
X73287142Y-88020678D01*
X73287142Y-88020678D02*
X73215713Y-88056392D01*
X73215713Y-88056392D02*
X72929999Y-88056392D01*
X74072856Y-88413535D02*
X73644285Y-88413535D01*
X73858570Y-88413535D02*
X73858570Y-87663535D01*
X73858570Y-87663535D02*
X73787142Y-87770678D01*
X73787142Y-87770678D02*
X73715713Y-87842107D01*
X73715713Y-87842107D02*
X73644285Y-87877821D01*
X74322856Y-87663535D02*
X74787142Y-87663535D01*
X74787142Y-87663535D02*
X74537142Y-87949250D01*
X74537142Y-87949250D02*
X74644285Y-87949250D01*
X74644285Y-87949250D02*
X74715714Y-87984964D01*
X74715714Y-87984964D02*
X74751428Y-88020678D01*
X74751428Y-88020678D02*
X74787142Y-88092107D01*
X74787142Y-88092107D02*
X74787142Y-88270678D01*
X74787142Y-88270678D02*
X74751428Y-88342107D01*
X74751428Y-88342107D02*
X74715714Y-88377821D01*
X74715714Y-88377821D02*
X74644285Y-88413535D01*
X74644285Y-88413535D02*
X74429999Y-88413535D01*
X74429999Y-88413535D02*
X74358571Y-88377821D01*
X74358571Y-88377821D02*
X74322856Y-88342107D01*
%TO.C,SW2*%
X67842000Y-73899821D02*
X67949143Y-73935535D01*
X67949143Y-73935535D02*
X68127714Y-73935535D01*
X68127714Y-73935535D02*
X68199143Y-73899821D01*
X68199143Y-73899821D02*
X68234857Y-73864107D01*
X68234857Y-73864107D02*
X68270571Y-73792678D01*
X68270571Y-73792678D02*
X68270571Y-73721250D01*
X68270571Y-73721250D02*
X68234857Y-73649821D01*
X68234857Y-73649821D02*
X68199143Y-73614107D01*
X68199143Y-73614107D02*
X68127714Y-73578392D01*
X68127714Y-73578392D02*
X67984857Y-73542678D01*
X67984857Y-73542678D02*
X67913428Y-73506964D01*
X67913428Y-73506964D02*
X67877714Y-73471250D01*
X67877714Y-73471250D02*
X67842000Y-73399821D01*
X67842000Y-73399821D02*
X67842000Y-73328392D01*
X67842000Y-73328392D02*
X67877714Y-73256964D01*
X67877714Y-73256964D02*
X67913428Y-73221250D01*
X67913428Y-73221250D02*
X67984857Y-73185535D01*
X67984857Y-73185535D02*
X68163428Y-73185535D01*
X68163428Y-73185535D02*
X68270571Y-73221250D01*
X68520571Y-73185535D02*
X68699143Y-73935535D01*
X68699143Y-73935535D02*
X68842000Y-73399821D01*
X68842000Y-73399821D02*
X68984857Y-73935535D01*
X68984857Y-73935535D02*
X69163429Y-73185535D01*
X69413429Y-73256964D02*
X69449143Y-73221250D01*
X69449143Y-73221250D02*
X69520572Y-73185535D01*
X69520572Y-73185535D02*
X69699143Y-73185535D01*
X69699143Y-73185535D02*
X69770572Y-73221250D01*
X69770572Y-73221250D02*
X69806286Y-73256964D01*
X69806286Y-73256964D02*
X69842000Y-73328392D01*
X69842000Y-73328392D02*
X69842000Y-73399821D01*
X69842000Y-73399821D02*
X69806286Y-73506964D01*
X69806286Y-73506964D02*
X69377714Y-73935535D01*
X69377714Y-73935535D02*
X69842000Y-73935535D01*
%TO.C,VR1*%
X136673535Y-39630142D02*
X137423535Y-39380142D01*
X137423535Y-39380142D02*
X136673535Y-39130142D01*
X137423535Y-38451571D02*
X137066392Y-38701571D01*
X137423535Y-38880142D02*
X136673535Y-38880142D01*
X136673535Y-38880142D02*
X136673535Y-38594428D01*
X136673535Y-38594428D02*
X136709250Y-38522999D01*
X136709250Y-38522999D02*
X136744964Y-38487285D01*
X136744964Y-38487285D02*
X136816392Y-38451571D01*
X136816392Y-38451571D02*
X136923535Y-38451571D01*
X136923535Y-38451571D02*
X136994964Y-38487285D01*
X136994964Y-38487285D02*
X137030678Y-38522999D01*
X137030678Y-38522999D02*
X137066392Y-38594428D01*
X137066392Y-38594428D02*
X137066392Y-38880142D01*
X137423535Y-37737285D02*
X137423535Y-38165856D01*
X137423535Y-37951571D02*
X136673535Y-37951571D01*
X136673535Y-37951571D02*
X136780678Y-38022999D01*
X136780678Y-38022999D02*
X136852107Y-38094428D01*
X136852107Y-38094428D02*
X136887821Y-38165856D01*
%TO.C,D1*%
X130764428Y-77491535D02*
X130764428Y-76741535D01*
X130764428Y-76741535D02*
X130942999Y-76741535D01*
X130942999Y-76741535D02*
X131050142Y-76777250D01*
X131050142Y-76777250D02*
X131121571Y-76848678D01*
X131121571Y-76848678D02*
X131157285Y-76920107D01*
X131157285Y-76920107D02*
X131192999Y-77062964D01*
X131192999Y-77062964D02*
X131192999Y-77170107D01*
X131192999Y-77170107D02*
X131157285Y-77312964D01*
X131157285Y-77312964D02*
X131121571Y-77384392D01*
X131121571Y-77384392D02*
X131050142Y-77455821D01*
X131050142Y-77455821D02*
X130942999Y-77491535D01*
X130942999Y-77491535D02*
X130764428Y-77491535D01*
X131907285Y-77491535D02*
X131478714Y-77491535D01*
X131692999Y-77491535D02*
X131692999Y-76741535D01*
X131692999Y-76741535D02*
X131621571Y-76848678D01*
X131621571Y-76848678D02*
X131550142Y-76920107D01*
X131550142Y-76920107D02*
X131478714Y-76955821D01*
%TO.C,R16*%
X80543856Y-65807535D02*
X80293856Y-65450392D01*
X80115285Y-65807535D02*
X80115285Y-65057535D01*
X80115285Y-65057535D02*
X80400999Y-65057535D01*
X80400999Y-65057535D02*
X80472428Y-65093250D01*
X80472428Y-65093250D02*
X80508142Y-65128964D01*
X80508142Y-65128964D02*
X80543856Y-65200392D01*
X80543856Y-65200392D02*
X80543856Y-65307535D01*
X80543856Y-65307535D02*
X80508142Y-65378964D01*
X80508142Y-65378964D02*
X80472428Y-65414678D01*
X80472428Y-65414678D02*
X80400999Y-65450392D01*
X80400999Y-65450392D02*
X80115285Y-65450392D01*
X81258142Y-65807535D02*
X80829571Y-65807535D01*
X81043856Y-65807535D02*
X81043856Y-65057535D01*
X81043856Y-65057535D02*
X80972428Y-65164678D01*
X80972428Y-65164678D02*
X80900999Y-65236107D01*
X80900999Y-65236107D02*
X80829571Y-65271821D01*
X81901000Y-65057535D02*
X81758142Y-65057535D01*
X81758142Y-65057535D02*
X81686714Y-65093250D01*
X81686714Y-65093250D02*
X81651000Y-65128964D01*
X81651000Y-65128964D02*
X81579571Y-65236107D01*
X81579571Y-65236107D02*
X81543857Y-65378964D01*
X81543857Y-65378964D02*
X81543857Y-65664678D01*
X81543857Y-65664678D02*
X81579571Y-65736107D01*
X81579571Y-65736107D02*
X81615285Y-65771821D01*
X81615285Y-65771821D02*
X81686714Y-65807535D01*
X81686714Y-65807535D02*
X81829571Y-65807535D01*
X81829571Y-65807535D02*
X81901000Y-65771821D01*
X81901000Y-65771821D02*
X81936714Y-65736107D01*
X81936714Y-65736107D02*
X81972428Y-65664678D01*
X81972428Y-65664678D02*
X81972428Y-65486107D01*
X81972428Y-65486107D02*
X81936714Y-65414678D01*
X81936714Y-65414678D02*
X81901000Y-65378964D01*
X81901000Y-65378964D02*
X81829571Y-65343250D01*
X81829571Y-65343250D02*
X81686714Y-65343250D01*
X81686714Y-65343250D02*
X81615285Y-65378964D01*
X81615285Y-65378964D02*
X81579571Y-65414678D01*
X81579571Y-65414678D02*
X81543857Y-65486107D01*
%TO.C,R27*%
X106966000Y-86006000D02*
X106966000Y-86336000D01*
X113506000Y-88746000D02*
X106966000Y-88746000D01*
X113506000Y-86006000D02*
X106966000Y-86006000D01*
X113506000Y-86336000D02*
X113506000Y-86006000D01*
X113506000Y-88416000D02*
X113506000Y-88746000D01*
X106966000Y-88746000D02*
X106966000Y-88416000D01*
%TO.C,SW3*%
X87686000Y-82806000D02*
X87686000Y-84306000D01*
X88936000Y-86806000D02*
X93436000Y-86806000D01*
X93436000Y-80306000D02*
X88936000Y-80306000D01*
X94686000Y-84306000D02*
X94686000Y-82806000D01*
%TO.C,SW1*%
X117775000Y-34100000D02*
X117775000Y-35600000D01*
X119025000Y-38100000D02*
X123525000Y-38100000D01*
X123525000Y-31600000D02*
X119025000Y-31600000D01*
X124775000Y-35600000D02*
X124775000Y-34100000D01*
%TO.C,R24*%
X77756000Y-73560000D02*
X84296000Y-73560000D01*
X77756000Y-73890000D02*
X77756000Y-73560000D01*
X77756000Y-75970000D02*
X77756000Y-76300000D01*
X77756000Y-76300000D02*
X84296000Y-76300000D01*
X84296000Y-73560000D02*
X84296000Y-73890000D01*
X84296000Y-76300000D02*
X84296000Y-75970000D01*
%TO.C,R15*%
X84296000Y-79856000D02*
X77756000Y-79856000D01*
X84296000Y-79526000D02*
X84296000Y-79856000D01*
X84296000Y-77446000D02*
X84296000Y-77116000D01*
X84296000Y-77116000D02*
X77756000Y-77116000D01*
X77756000Y-79856000D02*
X77756000Y-79526000D01*
X77756000Y-77116000D02*
X77756000Y-77446000D01*
%TO.C,R5*%
X106966000Y-44350000D02*
X113506000Y-44350000D01*
X106966000Y-44680000D02*
X106966000Y-44350000D01*
X106966000Y-46760000D02*
X106966000Y-47090000D01*
X106966000Y-47090000D02*
X113506000Y-47090000D01*
X113506000Y-44350000D02*
X113506000Y-44680000D01*
X113506000Y-47090000D02*
X113506000Y-46760000D01*
%TO.C,R4*%
X106966000Y-47906000D02*
X113506000Y-47906000D01*
X106966000Y-48236000D02*
X106966000Y-47906000D01*
X106966000Y-50316000D02*
X106966000Y-50646000D01*
X106966000Y-50646000D02*
X113506000Y-50646000D01*
X113506000Y-47906000D02*
X113506000Y-48236000D01*
X113506000Y-50646000D02*
X113506000Y-50316000D01*
%TO.C,R23*%
X79724000Y-54964000D02*
X73184000Y-54964000D01*
X79724000Y-54634000D02*
X79724000Y-54964000D01*
X79724000Y-52554000D02*
X79724000Y-52224000D01*
X79724000Y-52224000D02*
X73184000Y-52224000D01*
X73184000Y-54964000D02*
X73184000Y-54634000D01*
X73184000Y-52224000D02*
X73184000Y-52554000D01*
%TO.C,R25*%
X89884000Y-54964000D02*
X83344000Y-54964000D01*
X89884000Y-54634000D02*
X89884000Y-54964000D01*
X89884000Y-52554000D02*
X89884000Y-52224000D01*
X89884000Y-52224000D02*
X83344000Y-52224000D01*
X83344000Y-54964000D02*
X83344000Y-54634000D01*
X83344000Y-52224000D02*
X83344000Y-52554000D01*
%TO.C,R20*%
X106966000Y-78894000D02*
X106966000Y-79224000D01*
X106966000Y-81634000D02*
X106966000Y-81304000D01*
X113506000Y-78894000D02*
X106966000Y-78894000D01*
X113506000Y-79224000D02*
X113506000Y-78894000D01*
X113506000Y-81304000D02*
X113506000Y-81634000D01*
X113506000Y-81634000D02*
X106966000Y-81634000D01*
%TO.C,R10*%
X129064000Y-48414000D02*
X135604000Y-48414000D01*
X129064000Y-48744000D02*
X129064000Y-48414000D01*
X129064000Y-50824000D02*
X129064000Y-51154000D01*
X129064000Y-51154000D02*
X135604000Y-51154000D01*
X135604000Y-48414000D02*
X135604000Y-48744000D01*
X135604000Y-51154000D02*
X135604000Y-50824000D01*
%TO.C,C6*%
X99418000Y-81692000D02*
X99353000Y-81692000D01*
X99418000Y-81692000D02*
X99418000Y-84932000D01*
X97243000Y-81692000D02*
X97178000Y-81692000D01*
X97178000Y-81692000D02*
X97178000Y-84932000D01*
X99418000Y-84932000D02*
X99353000Y-84932000D01*
X97243000Y-84932000D02*
X97178000Y-84932000D01*
%TO.C,Y1*%
X109792750Y-67435000D02*
X109792750Y-61035000D01*
X114842750Y-67435000D02*
X114842750Y-61035000D01*
X109792750Y-67435000D02*
G75*
G03*
X114842750Y-67435000I2525000J0D01*
G01*
X114842750Y-61035000D02*
G75*
G03*
X109792750Y-61035000I-2525000J0D01*
G01*
%TO.C,R3*%
X106966000Y-51462000D02*
X113506000Y-51462000D01*
X106966000Y-51792000D02*
X106966000Y-51462000D01*
X106966000Y-53872000D02*
X106966000Y-54202000D01*
X106966000Y-54202000D02*
X113506000Y-54202000D01*
X113506000Y-51462000D02*
X113506000Y-51792000D01*
X113506000Y-54202000D02*
X113506000Y-53872000D01*
%TO.C,C3*%
X106439000Y-69545000D02*
X106504000Y-69545000D01*
X106439000Y-69545000D02*
X106439000Y-66305000D01*
X108614000Y-69545000D02*
X108679000Y-69545000D01*
X108679000Y-69545000D02*
X108679000Y-66305000D01*
X106439000Y-66305000D02*
X106504000Y-66305000D01*
X108614000Y-66305000D02*
X108679000Y-66305000D01*
%TO.C,R6*%
X106966000Y-40794000D02*
X113506000Y-40794000D01*
X106966000Y-41124000D02*
X106966000Y-40794000D01*
X106966000Y-43204000D02*
X106966000Y-43534000D01*
X106966000Y-43534000D02*
X113506000Y-43534000D01*
X113506000Y-40794000D02*
X113506000Y-41124000D01*
X113506000Y-43534000D02*
X113506000Y-43204000D01*
%TO.C,Q4*%
X96700625Y-49806000D02*
X96700625Y-46206000D01*
X92250625Y-48006000D02*
G75*
G03*
X96689103Y-49844478I2600000J0D01*
G01*
X96689103Y-46167522D02*
G75*
G03*
X92250625Y-48006000I-1838478J-1838478D01*
G01*
%TO.C,U3*%
X88546000Y-67504000D02*
X88546000Y-77784000D01*
X88546000Y-77784000D02*
X93846000Y-77784000D01*
X90196000Y-67504000D02*
X88546000Y-67504000D01*
X93846000Y-67504000D02*
X92196000Y-67504000D01*
X93846000Y-77784000D02*
X93846000Y-67504000D01*
X90196000Y-67504000D02*
G75*
G03*
X92196000Y-67504000I1000000J0D01*
G01*
%TO.C,U1*%
X118635000Y-41110000D02*
X118635000Y-76790000D01*
X118635000Y-76790000D02*
X123935000Y-76790000D01*
X120285000Y-41110000D02*
X118635000Y-41110000D01*
X123935000Y-41110000D02*
X122285000Y-41110000D01*
X123935000Y-76790000D02*
X123935000Y-41110000D01*
X120285000Y-41110000D02*
G75*
G03*
X122285000Y-41110000I1000000J0D01*
G01*
%TO.C,R8*%
X124428000Y-81634000D02*
X117888000Y-81634000D01*
X124428000Y-81304000D02*
X124428000Y-81634000D01*
X124428000Y-79224000D02*
X124428000Y-78894000D01*
X124428000Y-78894000D02*
X117888000Y-78894000D01*
X117888000Y-81634000D02*
X117888000Y-81304000D01*
X117888000Y-78894000D02*
X117888000Y-79224000D01*
%TO.C,C4*%
X129898000Y-57562000D02*
X129833000Y-57562000D01*
X129898000Y-57562000D02*
X129898000Y-60802000D01*
X127723000Y-57562000D02*
X127658000Y-57562000D01*
X127658000Y-57562000D02*
X127658000Y-60802000D01*
X129898000Y-60802000D02*
X129833000Y-60802000D01*
X127723000Y-60802000D02*
X127658000Y-60802000D01*
%TO.C,R22*%
X113506000Y-85190000D02*
X106966000Y-85190000D01*
X113506000Y-84860000D02*
X113506000Y-85190000D01*
X113506000Y-82780000D02*
X113506000Y-82450000D01*
X113506000Y-82450000D02*
X106966000Y-82450000D01*
X106966000Y-85190000D02*
X106966000Y-84860000D01*
X106966000Y-82450000D02*
X106966000Y-82780000D01*
%TO.C,R18*%
X106966000Y-71693000D02*
X106966000Y-72023000D01*
X106966000Y-74433000D02*
X106966000Y-74103000D01*
X113506000Y-71693000D02*
X106966000Y-71693000D01*
X113506000Y-72023000D02*
X113506000Y-71693000D01*
X113506000Y-74103000D02*
X113506000Y-74433000D01*
X113506000Y-74433000D02*
X106966000Y-74433000D01*
%TO.C,C7*%
X97440000Y-67206000D02*
X97440000Y-67271000D01*
X97440000Y-67206000D02*
X100680000Y-67206000D01*
X97440000Y-69381000D02*
X97440000Y-69446000D01*
X97440000Y-69446000D02*
X100680000Y-69446000D01*
X100680000Y-67206000D02*
X100680000Y-67271000D01*
X100680000Y-69381000D02*
X100680000Y-69446000D01*
%TO.C,R19*%
X106966000Y-75338000D02*
X106966000Y-75668000D01*
X106966000Y-78078000D02*
X106966000Y-77748000D01*
X113506000Y-75338000D02*
X106966000Y-75338000D01*
X113506000Y-75668000D02*
X113506000Y-75338000D01*
X113506000Y-77748000D02*
X113506000Y-78078000D01*
X113506000Y-78078000D02*
X106966000Y-78078000D01*
%TO.C,R1*%
X106966000Y-30126000D02*
X113506000Y-30126000D01*
X106966000Y-30456000D02*
X106966000Y-30126000D01*
X106966000Y-32536000D02*
X106966000Y-32866000D01*
X106966000Y-32866000D02*
X113506000Y-32866000D01*
X113506000Y-30126000D02*
X113506000Y-30456000D01*
X113506000Y-32866000D02*
X113506000Y-32536000D01*
%TO.C,R14*%
X84296000Y-83412000D02*
X77756000Y-83412000D01*
X84296000Y-83082000D02*
X84296000Y-83412000D01*
X84296000Y-81002000D02*
X84296000Y-80672000D01*
X84296000Y-80672000D02*
X77756000Y-80672000D01*
X77756000Y-83412000D02*
X77756000Y-83082000D01*
X77756000Y-80672000D02*
X77756000Y-81002000D01*
%TO.C,C1*%
X128882000Y-33686000D02*
X128817000Y-33686000D01*
X128882000Y-33686000D02*
X128882000Y-36926000D01*
X126707000Y-33686000D02*
X126642000Y-33686000D01*
X126642000Y-33686000D02*
X126642000Y-36926000D01*
X128882000Y-36926000D02*
X128817000Y-36926000D01*
X126707000Y-36926000D02*
X126642000Y-36926000D01*
%TO.C,R21*%
X69564000Y-54964000D02*
X63024000Y-54964000D01*
X69564000Y-54634000D02*
X69564000Y-54964000D01*
X69564000Y-52554000D02*
X69564000Y-52224000D01*
X69564000Y-52224000D02*
X63024000Y-52224000D01*
X63024000Y-54964000D02*
X63024000Y-54634000D01*
X63024000Y-52224000D02*
X63024000Y-52554000D01*
%TO.C,R17*%
X99668000Y-71914000D02*
X99668000Y-78454000D01*
X99338000Y-71914000D02*
X99668000Y-71914000D01*
X97258000Y-71914000D02*
X96928000Y-71914000D01*
X96928000Y-71914000D02*
X96928000Y-78454000D01*
X99668000Y-78454000D02*
X99338000Y-78454000D01*
X96928000Y-78454000D02*
X97258000Y-78454000D01*
%TO.C,R7*%
X106966000Y-37238000D02*
X113506000Y-37238000D01*
X106966000Y-37568000D02*
X106966000Y-37238000D01*
X106966000Y-39648000D02*
X106966000Y-39978000D01*
X106966000Y-39978000D02*
X113506000Y-39978000D01*
X113506000Y-37238000D02*
X113506000Y-37568000D01*
X113506000Y-39978000D02*
X113506000Y-39648000D01*
%TO.C,C5*%
X114162000Y-57508000D02*
X114162000Y-57443000D01*
X114162000Y-57508000D02*
X110922000Y-57508000D01*
X114162000Y-55333000D02*
X114162000Y-55268000D01*
X114162000Y-55268000D02*
X110922000Y-55268000D01*
X110922000Y-57508000D02*
X110922000Y-57443000D01*
X110922000Y-55333000D02*
X110922000Y-55268000D01*
%TO.C,R2*%
X106966000Y-33682000D02*
X113506000Y-33682000D01*
X106966000Y-34012000D02*
X106966000Y-33682000D01*
X106966000Y-36092000D02*
X106966000Y-36422000D01*
X106966000Y-36422000D02*
X113506000Y-36422000D01*
X113506000Y-33682000D02*
X113506000Y-34012000D01*
X113506000Y-36422000D02*
X113506000Y-36092000D01*
%TO.C,Q1*%
X75110625Y-49806000D02*
X75110625Y-46206000D01*
X70660625Y-48006000D02*
G75*
G03*
X75099103Y-49844478I2600000J0D01*
G01*
X75099103Y-46167522D02*
G75*
G03*
X70660625Y-48006000I-1838478J-1838478D01*
G01*
%TO.C,R11*%
X124428000Y-85190000D02*
X117888000Y-85190000D01*
X124428000Y-84860000D02*
X124428000Y-85190000D01*
X124428000Y-82780000D02*
X124428000Y-82450000D01*
X124428000Y-82450000D02*
X117888000Y-82450000D01*
X117888000Y-85190000D02*
X117888000Y-84860000D01*
X117888000Y-82450000D02*
X117888000Y-82780000D01*
%TO.C,R26*%
X100044000Y-54964000D02*
X93504000Y-54964000D01*
X100044000Y-54634000D02*
X100044000Y-54964000D01*
X100044000Y-52554000D02*
X100044000Y-52224000D01*
X100044000Y-52224000D02*
X93504000Y-52224000D01*
X93504000Y-54964000D02*
X93504000Y-54634000D01*
X93504000Y-52224000D02*
X93504000Y-52554000D01*
%TO.C,Q3*%
X89503957Y-49806000D02*
X89503957Y-46206000D01*
X85053957Y-48006000D02*
G75*
G03*
X89492435Y-49844478I2600000J0D01*
G01*
X89492435Y-46167522D02*
G75*
G03*
X85053957Y-48006000I-1838478J-1838478D01*
G01*
%TO.C,R12*%
X70072000Y-84428000D02*
X63532000Y-84428000D01*
X70072000Y-84098000D02*
X70072000Y-84428000D01*
X70072000Y-82018000D02*
X70072000Y-81688000D01*
X70072000Y-81688000D02*
X63532000Y-81688000D01*
X63532000Y-84428000D02*
X63532000Y-84098000D01*
X63532000Y-81688000D02*
X63532000Y-82018000D01*
%TO.C,Q2*%
X82307291Y-49806000D02*
X82307291Y-46206000D01*
X77857291Y-48006000D02*
G75*
G03*
X82295769Y-49844478I2600000J0D01*
G01*
X82295769Y-46167522D02*
G75*
G03*
X77857291Y-48006000I-1838478J-1838478D01*
G01*
%TO.C,D2*%
X136870000Y-79028000D02*
X136870000Y-79184000D01*
X136870000Y-81344000D02*
X136870000Y-81500000D01*
X140102334Y-79185392D02*
G75*
G03*
X136870001Y-79028485I-1672334J-1078608D01*
G01*
X139471129Y-79184164D02*
G75*
G03*
X137389040Y-79184001I-1041129J-1079836D01*
G01*
X137389040Y-81343999D02*
G75*
G03*
X139471129Y-81343836I1040960J1079999D01*
G01*
X136870001Y-81499515D02*
G75*
G03*
X140102334Y-81342608I1559999J1235515D01*
G01*
%TO.C,U2*%
X63575000Y-43605000D02*
X74900000Y-43605000D01*
X104005000Y-43605000D02*
X104005000Y-30555000D01*
X63575000Y-30555000D02*
X63575000Y-43605000D01*
%TO.C,C2*%
X106439000Y-62165000D02*
X106504000Y-62165000D01*
X106439000Y-62165000D02*
X106439000Y-58925000D01*
X108614000Y-62165000D02*
X108679000Y-62165000D01*
X108679000Y-62165000D02*
X108679000Y-58925000D01*
X106439000Y-58925000D02*
X106504000Y-58925000D01*
X108614000Y-58925000D02*
X108679000Y-58925000D01*
%TO.C,J1*%
X135449000Y-62170000D02*
X136779000Y-62170000D01*
X135449000Y-63500000D02*
X135449000Y-62170000D01*
X135449000Y-64770000D02*
X135449000Y-69910000D01*
X135449000Y-64770000D02*
X138049000Y-64770000D01*
X135449000Y-69910000D02*
X140649000Y-69910000D01*
X138049000Y-62170000D02*
X140649000Y-62170000D01*
X138049000Y-64770000D02*
X138049000Y-62170000D01*
X140649000Y-62170000D02*
X140649000Y-69910000D01*
%TO.C,R9*%
X129064000Y-51970000D02*
X135604000Y-51970000D01*
X129064000Y-52300000D02*
X129064000Y-51970000D01*
X129064000Y-54380000D02*
X129064000Y-54710000D01*
X129064000Y-54710000D02*
X135604000Y-54710000D01*
X135604000Y-51970000D02*
X135604000Y-52300000D01*
X135604000Y-54710000D02*
X135604000Y-54380000D01*
%TO.C,R13*%
X84296000Y-86968000D02*
X77756000Y-86968000D01*
X84296000Y-86638000D02*
X84296000Y-86968000D01*
X84296000Y-84558000D02*
X84296000Y-84228000D01*
X84296000Y-84228000D02*
X77756000Y-84228000D01*
X77756000Y-86968000D02*
X77756000Y-86638000D01*
X77756000Y-84228000D02*
X77756000Y-84558000D01*
%TO.C,SW2*%
X62332000Y-76395000D02*
X62332000Y-76395000D01*
X62332000Y-76395000D02*
X62332000Y-76395000D01*
X62432000Y-76395000D02*
X62432000Y-76395000D01*
X62977000Y-67185000D02*
X74707000Y-67185000D01*
X62977000Y-80135000D02*
X62977000Y-67185000D01*
X74707000Y-67185000D02*
X74707000Y-80135000D01*
X74707000Y-80135000D02*
X62977000Y-80135000D01*
X62432000Y-76395000D02*
G75*
G03*
X62332000Y-76395000I-50000J0D01*
G01*
X62332000Y-76395000D02*
G75*
G03*
X62432000Y-76395000I50000J0D01*
G01*
X62332000Y-76395000D02*
G75*
G03*
X62432000Y-76395000I50000J0D01*
G01*
%TO.C,VR1*%
X130248000Y-43498000D02*
X130248000Y-33798000D01*
X133248000Y-43498000D02*
X130248000Y-43498000D01*
X138248000Y-43498000D02*
X142748000Y-43498000D01*
X142748000Y-43498000D02*
X142748000Y-42648000D01*
X143948000Y-41248000D02*
X143948000Y-41248000D01*
X143948000Y-41048000D02*
X143948000Y-41048000D01*
X142748000Y-34648000D02*
X142748000Y-33798000D01*
X130248000Y-33798000D02*
X133248000Y-33798000D01*
X142748000Y-33798000D02*
X138248000Y-33798000D01*
X143948000Y-41048000D02*
G75*
G03*
X143948000Y-41248000I0J-100000D01*
G01*
X143948000Y-41248000D02*
G75*
G03*
X143948000Y-41048000I0J100000D01*
G01*
%TO.C,D1*%
X129758000Y-79028000D02*
X129758000Y-79184000D01*
X129758000Y-81344000D02*
X129758000Y-81500000D01*
X132990334Y-79185392D02*
G75*
G03*
X129758001Y-79028485I-1672334J-1078608D01*
G01*
X132359129Y-79184164D02*
G75*
G03*
X130277040Y-79184001I-1041129J-1079836D01*
G01*
X130277040Y-81343999D02*
G75*
G03*
X132359129Y-81343836I1040960J1079999D01*
G01*
X129758001Y-81499515D02*
G75*
G03*
X132990334Y-81342608I1559999J1235515D01*
G01*
%TO.C,R16*%
X84296000Y-69188000D02*
X84296000Y-68858000D01*
X84296000Y-66448000D02*
X84296000Y-66778000D01*
X77756000Y-69188000D02*
X84296000Y-69188000D01*
X77756000Y-68858000D02*
X77756000Y-69188000D01*
X77756000Y-66778000D02*
X77756000Y-66448000D01*
X77756000Y-66448000D02*
X84296000Y-66448000D01*
%TD*%
M02*
