%TF.GenerationSoftware,KiCad,Pcbnew,7.0.0-da2b9df05c~163~ubuntu22.04.1*%
%TF.CreationDate,2023-02-19T09:07:02+08:00*%
%TF.ProjectId,circuit,63697263-7569-4742-9e6b-696361645f70,1.0*%
%TF.SameCoordinates,Original*%
%TF.FileFunction,Copper,L3,Inr*%
%TF.FilePolarity,Positive*%
%FSLAX46Y46*%
G04 Gerber Fmt 4.6, Leading zero omitted, Abs format (unit mm)*
G04 Created by KiCad (PCBNEW 7.0.0-da2b9df05c~163~ubuntu22.04.1) date 2023-02-19 09:07:02*
%MOMM*%
%LPD*%
G01*
G04 APERTURE LIST*
G04 Aperture macros list*
%AMRoundRect*
0 Rectangle with rounded corners*
0 $1 Rounding radius*
0 $2 $3 $4 $5 $6 $7 $8 $9 X,Y pos of 4 corners*
0 Add a 4 corners polygon primitive as box body*
4,1,4,$2,$3,$4,$5,$6,$7,$8,$9,$2,$3,0*
0 Add four circle primitives for the rounded corners*
1,1,$1+$1,$2,$3*
1,1,$1+$1,$4,$5*
1,1,$1+$1,$6,$7*
1,1,$1+$1,$8,$9*
0 Add four rect primitives between the rounded corners*
20,1,$1+$1,$2,$3,$4,$5,0*
20,1,$1+$1,$4,$5,$6,$7,0*
20,1,$1+$1,$6,$7,$8,$9,0*
20,1,$1+$1,$8,$9,$2,$3,0*%
G04 Aperture macros list end*
%TA.AperFunction,ComponentPad*%
%ADD10RoundRect,0.250000X0.725000X-0.600000X0.725000X0.600000X-0.725000X0.600000X-0.725000X-0.600000X0*%
%TD*%
%TA.AperFunction,ComponentPad*%
%ADD11O,1.950000X1.700000*%
%TD*%
%TA.AperFunction,ComponentPad*%
%ADD12C,2.000000*%
%TD*%
%TA.AperFunction,ComponentPad*%
%ADD13C,1.400000*%
%TD*%
%TA.AperFunction,ComponentPad*%
%ADD14O,1.400000X1.400000*%
%TD*%
%TA.AperFunction,ComponentPad*%
%ADD15C,2.600000*%
%TD*%
%TA.AperFunction,ComponentPad*%
%ADD16C,1.600000*%
%TD*%
%TA.AperFunction,ComponentPad*%
%ADD17C,1.500000*%
%TD*%
%TA.AperFunction,ComponentPad*%
%ADD18R,1.500000X1.050000*%
%TD*%
%TA.AperFunction,ComponentPad*%
%ADD19O,1.500000X1.050000*%
%TD*%
%TA.AperFunction,ComponentPad*%
%ADD20R,1.600000X1.600000*%
%TD*%
%TA.AperFunction,ComponentPad*%
%ADD21O,1.600000X1.600000*%
%TD*%
%TA.AperFunction,ComponentPad*%
%ADD22R,1.800000X1.800000*%
%TD*%
%TA.AperFunction,ComponentPad*%
%ADD23C,1.800000*%
%TD*%
%TA.AperFunction,ComponentPad*%
%ADD24RoundRect,0.375000X0.375000X-0.375000X0.375000X0.375000X-0.375000X0.375000X-0.375000X-0.375000X0*%
%TD*%
%TA.AperFunction,ComponentPad*%
%ADD25RoundRect,0.250000X-0.600000X-0.600000X0.600000X-0.600000X0.600000X0.600000X-0.600000X0.600000X0*%
%TD*%
%TA.AperFunction,ComponentPad*%
%ADD26C,1.700000*%
%TD*%
%TA.AperFunction,ViaPad*%
%ADD27C,0.475000*%
%TD*%
%TA.AperFunction,Conductor*%
%ADD28C,0.100000*%
%TD*%
%TA.AperFunction,Conductor*%
%ADD29C,0.200000*%
%TD*%
G04 APERTURE END LIST*
D10*
%TO.N,VCC*%
%TO.C,J2*%
X139110000Y-41108000D03*
D11*
%TO.N,Net-(J2-Pad2)*%
X139109999Y-38607999D03*
%TO.N,GND*%
X139109999Y-36107999D03*
%TD*%
D12*
%TO.N,Net-(R21-Pad2)*%
%TO.C,SW3*%
X88190000Y-81062000D03*
X94690000Y-81062000D03*
%TO.N,GND*%
X88190000Y-85562000D03*
X94690000Y-85562000D03*
%TD*%
%TO.N,GND*%
%TO.C,SW1*%
X118025000Y-32600000D03*
X124525000Y-32600000D03*
%TO.N,~{RESET}*%
X118025000Y-37100000D03*
X124525000Y-37100000D03*
%TD*%
D13*
%TO.N,VCC*%
%TO.C,R21*%
X79248000Y-76200000D03*
D14*
%TO.N,Net-(R21-Pad2)*%
X84327999Y-76199999D03*
%TD*%
D13*
%TO.N,VCC*%
%TO.C,R12*%
X73750000Y-85535000D03*
D14*
%TO.N,Net-(R12-Pad2)*%
X73749999Y-80454999D03*
%TD*%
D13*
%TO.N,/A*%
%TO.C,R4*%
X112639000Y-50368000D03*
D14*
%TO.N,Net-(R4-Pad2)*%
X107558999Y-50367999D03*
%TD*%
D13*
%TO.N,/G*%
%TO.C,R10*%
X112639000Y-52908000D03*
D14*
%TO.N,Net-(R10-Pad2)*%
X107558999Y-52907999D03*
%TD*%
D13*
%TO.N,~{DIGIT_1}*%
%TO.C,R20*%
X82637291Y-54840000D03*
D14*
%TO.N,Net-(Q2-Pad2)*%
X77557290Y-54839999D03*
%TD*%
D13*
%TO.N,~{DIGIT_2}*%
%TO.C,R22*%
X89833957Y-54840000D03*
D14*
%TO.N,Net-(Q3-Pad2)*%
X84753956Y-54839999D03*
%TD*%
D15*
%TO.N,N/C*%
%TO.C,H2*%
X142960000Y-89940000D03*
%TD*%
D13*
%TO.N,/DEC*%
%TO.C,R11*%
X112385000Y-78105000D03*
D14*
%TO.N,Net-(R11-Pad2)*%
X107304999Y-78104999D03*
%TD*%
D15*
%TO.N,N/C*%
%TO.C,H4*%
X142960000Y-27940000D03*
%TD*%
D16*
%TO.N,Net-(C4-Pad1)*%
%TO.C,C4*%
X98552000Y-78740000D03*
%TO.N,GND*%
X98552000Y-81240000D03*
%TD*%
D17*
%TO.N,Net-(C2-Pad2)*%
%TO.C,Y1*%
X112317750Y-66675000D03*
%TO.N,Net-(C1-Pad1)*%
X112317750Y-61795000D03*
%TD*%
D13*
%TO.N,/B*%
%TO.C,R5*%
X112639000Y-55448000D03*
D14*
%TO.N,Net-(R5-Pad2)*%
X107558999Y-55447999D03*
%TD*%
D16*
%TO.N,GND*%
%TO.C,C2*%
X107559000Y-69175000D03*
%TO.N,Net-(C2-Pad2)*%
X107559000Y-66675000D03*
%TD*%
D13*
%TO.N,/C*%
%TO.C,R6*%
X112639000Y-47828000D03*
D14*
%TO.N,Net-(R6-Pad2)*%
X107558999Y-47827999D03*
%TD*%
D18*
%TO.N,VCC*%
%TO.C,Q4*%
X94850624Y-51029999D03*
D19*
%TO.N,Net-(Q4-Pad2)*%
X94850624Y-49759999D03*
%TO.N,Net-(Q4-Pad3)*%
X94850624Y-48489999D03*
%TD*%
D20*
%TO.N,GND*%
%TO.C,U3*%
X87639999Y-68589999D03*
D21*
%TO.N,Net-(C4-Pad1)*%
X87639999Y-71129999D03*
%TO.N,Frequency*%
X87639999Y-73669999D03*
%TO.N,Net-(R21-Pad2)*%
X87639999Y-76209999D03*
%TO.N,unconnected-(U3-Pad5)*%
X95259999Y-76209999D03*
%TO.N,Net-(C4-Pad1)*%
X95259999Y-73669999D03*
%TO.N,Net-(R16-Pad2)*%
X95259999Y-71129999D03*
%TO.N,VCC*%
X95259999Y-68589999D03*
%TD*%
D20*
%TO.N,~{RESET}*%
%TO.C,U1*%
X117474999Y-42439999D03*
D21*
%TO.N,/F*%
X117474999Y-44979999D03*
%TO.N,/C*%
X117474999Y-47519999D03*
%TO.N,/A*%
X117474999Y-50059999D03*
%TO.N,/G*%
X117474999Y-52599999D03*
%TO.N,/B*%
X117474999Y-55139999D03*
%TO.N,VCC*%
X117474999Y-57679999D03*
%TO.N,GND*%
X117474999Y-60219999D03*
%TO.N,Net-(C1-Pad1)*%
X117474999Y-62759999D03*
%TO.N,Net-(C2-Pad2)*%
X117474999Y-65299999D03*
%TO.N,/D*%
X117474999Y-67839999D03*
%TO.N,/E*%
X117474999Y-70379999D03*
%TO.N,/DEC*%
X117474999Y-72919999D03*
%TO.N,Frequency*%
X117474999Y-75459999D03*
%TO.N,Net-(D1-Pad2)*%
X125094999Y-75459999D03*
%TO.N,Net-(D2-Pad2)*%
X125094999Y-72919999D03*
%TO.N,MOSI*%
X125094999Y-70379999D03*
%TO.N,MISO*%
X125094999Y-67839999D03*
%TO.N,SCK*%
X125094999Y-65299999D03*
%TO.N,VCC*%
X125094999Y-62759999D03*
%TO.N,Net-(C3-Pad1)*%
X125094999Y-60219999D03*
%TO.N,GND*%
X125094999Y-57679999D03*
%TO.N,~{DIGIT_0}*%
X125094999Y-55139999D03*
%TO.N,~{DIGIT_1}*%
X125094999Y-52599999D03*
%TO.N,~{DIGIT_2}*%
X125094999Y-50059999D03*
%TO.N,~{DIGIT_3}*%
X125094999Y-47519999D03*
%TO.N,Net-(J2-Pad2)*%
X125094999Y-44979999D03*
%TO.N,unconnected-(U1-Pad28)*%
X125094999Y-42439999D03*
%TD*%
D13*
%TO.N,Net-(D1-Pad1)*%
%TO.C,R2*%
X133096000Y-85200000D03*
D14*
%TO.N,GND*%
X133095999Y-80119999D03*
%TD*%
D16*
%TO.N,Net-(C3-Pad1)*%
%TO.C,C3*%
X128895000Y-61000000D03*
%TO.N,GND*%
X128895000Y-63500000D03*
%TD*%
D13*
%TO.N,VCC*%
%TO.C,R18*%
X79248000Y-73660000D03*
D14*
%TO.N,Frequency*%
X84327999Y-73659999D03*
%TD*%
D13*
%TO.N,/D*%
%TO.C,R7*%
X112385000Y-73063000D03*
D14*
%TO.N,Net-(R7-Pad2)*%
X107304999Y-73062999D03*
%TD*%
D16*
%TO.N,VCC*%
%TO.C,C5*%
X98584000Y-67056000D03*
%TO.N,GND*%
X101084000Y-67056000D03*
%TD*%
D13*
%TO.N,/E*%
%TO.C,R8*%
X112385000Y-75565000D03*
D14*
%TO.N,Net-(R8-Pad2)*%
X107304999Y-75564999D03*
%TD*%
D15*
%TO.N,N/C*%
%TO.C,H3*%
X60960000Y-27940000D03*
%TD*%
D13*
%TO.N,VCC*%
%TO.C,R13*%
X71210000Y-85535000D03*
D14*
%TO.N,Net-(R13-Pad2)*%
X71209999Y-80454999D03*
%TD*%
D13*
%TO.N,~{DIGIT_0}*%
%TO.C,R19*%
X75440625Y-54840000D03*
D14*
%TO.N,Net-(Q1-Pad2)*%
X70360624Y-54839999D03*
%TD*%
D13*
%TO.N,Net-(R16-Pad2)*%
%TO.C,R17*%
X98552000Y-69850000D03*
D14*
%TO.N,Net-(C4-Pad1)*%
X98551999Y-74929999D03*
%TD*%
D13*
%TO.N,/F*%
%TO.C,R9*%
X112649000Y-45288000D03*
D14*
%TO.N,Net-(R9-Pad2)*%
X107568999Y-45287999D03*
%TD*%
D13*
%TO.N,VCC*%
%TO.C,R1*%
X107559000Y-42748000D03*
D14*
%TO.N,~{RESET}*%
X112638999Y-42747999D03*
%TD*%
D18*
%TO.N,VCC*%
%TO.C,Q1*%
X73260624Y-51029999D03*
D19*
%TO.N,Net-(Q1-Pad2)*%
X73260624Y-49759999D03*
%TO.N,Net-(Q1-Pad3)*%
X73260624Y-48489999D03*
%TD*%
D13*
%TO.N,Net-(D2-Pad1)*%
%TO.C,R3*%
X133096000Y-76835000D03*
D14*
%TO.N,GND*%
X133095999Y-71754999D03*
%TD*%
D13*
%TO.N,~{DIGIT_3}*%
%TO.C,R23*%
X97030625Y-54840000D03*
D14*
%TO.N,Net-(Q4-Pad2)*%
X91950624Y-54839999D03*
%TD*%
D15*
%TO.N,N/C*%
%TO.C,H1*%
X60960000Y-89940000D03*
%TD*%
D18*
%TO.N,VCC*%
%TO.C,Q3*%
X87653956Y-51029999D03*
D19*
%TO.N,Net-(Q3-Pad2)*%
X87653956Y-49759999D03*
%TO.N,Net-(Q3-Pad3)*%
X87653956Y-48489999D03*
%TD*%
D13*
%TO.N,VCC*%
%TO.C,R15*%
X66130000Y-85535000D03*
D14*
%TO.N,Net-(R15-Pad2)*%
X66129999Y-80454999D03*
%TD*%
D18*
%TO.N,VCC*%
%TO.C,Q2*%
X80457290Y-51029999D03*
D19*
%TO.N,Net-(Q2-Pad2)*%
X80457290Y-49759999D03*
%TO.N,Net-(Q2-Pad3)*%
X80457290Y-48489999D03*
%TD*%
D22*
%TO.N,Net-(D2-Pad1)*%
%TO.C,D2*%
X136272499Y-76834999D03*
D23*
%TO.N,Net-(D2-Pad2)*%
X138812500Y-76835000D03*
%TD*%
D24*
%TO.N,Net-(Q1-Pad3)*%
%TO.C,U2*%
X74900000Y-42160000D03*
D17*
%TO.N,Net-(Q2-Pad3)*%
X77440000Y-42160000D03*
%TO.N,Net-(R7-Pad2)*%
X79980000Y-42160000D03*
%TO.N,unconnected-(U2-Pad4)*%
X82520000Y-42160000D03*
%TO.N,Net-(R8-Pad2)*%
X85060000Y-42160000D03*
%TO.N,Net-(Q3-Pad3)*%
X87600000Y-42160000D03*
%TO.N,Net-(R11-Pad2)*%
X90140000Y-42160000D03*
%TO.N,Net-(Q4-Pad3)*%
X92680000Y-42160000D03*
%TO.N,unconnected-(U2-Pad9)*%
X92680000Y-32000000D03*
%TO.N,Net-(R9-Pad2)*%
X87600000Y-32000000D03*
%TO.N,Net-(R6-Pad2)*%
X82520000Y-32000000D03*
%TO.N,Net-(R4-Pad2)*%
X79980000Y-32000000D03*
%TO.N,Net-(R10-Pad2)*%
X77440000Y-32000000D03*
%TO.N,Net-(R5-Pad2)*%
X74900000Y-32000000D03*
%TD*%
D16*
%TO.N,Net-(C1-Pad1)*%
%TO.C,C1*%
X107559000Y-61795000D03*
%TO.N,GND*%
X107559000Y-59295000D03*
%TD*%
D25*
%TO.N,MOSI*%
%TO.C,J1*%
X136790000Y-53860000D03*
D26*
%TO.N,VCC*%
X139330000Y-53860000D03*
%TO.N,unconnected-(J1-Pad3)*%
X136790000Y-56400000D03*
%TO.N,GND*%
X139330000Y-56400000D03*
%TO.N,~{RESET}*%
X136790000Y-58940000D03*
%TO.N,GND*%
X139330000Y-58940000D03*
%TO.N,SCK*%
X136790000Y-61480000D03*
%TO.N,GND*%
X139330000Y-61480000D03*
%TO.N,MISO*%
X136790000Y-64020000D03*
%TO.N,GND*%
X139330000Y-64020000D03*
%TD*%
D13*
%TO.N,VCC*%
%TO.C,R14*%
X68670000Y-85535000D03*
D14*
%TO.N,Net-(R14-Pad2)*%
X68669999Y-80454999D03*
%TD*%
D20*
%TO.N,Net-(R16-Pad2)*%
%TO.C,SW2*%
X73749999Y-68579999D03*
D21*
X71209999Y-68579999D03*
X68669999Y-68579999D03*
X66129999Y-68579999D03*
%TO.N,Net-(R15-Pad2)*%
X66129999Y-76199999D03*
%TO.N,Net-(R14-Pad2)*%
X68669999Y-76199999D03*
%TO.N,Net-(R13-Pad2)*%
X71209999Y-76199999D03*
%TO.N,Net-(R12-Pad2)*%
X73749999Y-76199999D03*
%TD*%
D22*
%TO.N,Net-(D1-Pad1)*%
%TO.C,D1*%
X136272499Y-85199999D03*
D23*
%TO.N,Net-(D1-Pad2)*%
X138812500Y-85200000D03*
%TD*%
D13*
%TO.N,VCC*%
%TO.C,R16*%
X79248000Y-71120000D03*
D14*
%TO.N,Net-(R16-Pad2)*%
X84327999Y-71119999D03*
%TD*%
D27*
%TO.N,~{DIGIT_0}*%
X104648000Y-55880000D03*
X102870000Y-54864000D03*
%TO.N,~{DIGIT_1}*%
X102870000Y-53848000D03*
X104648000Y-54864000D03*
%TO.N,~{DIGIT_2}*%
X114300000Y-54102000D03*
X102870000Y-52832000D03*
%TO.N,~{DIGIT_3}*%
X102870000Y-51816000D03*
X114300000Y-51562000D03*
%TD*%
D28*
%TO.N,~{DIGIT_0}*%
X103632000Y-54864000D02*
X104648000Y-55880000D01*
X102870000Y-54864000D02*
X103632000Y-54864000D01*
%TO.N,~{DIGIT_1}*%
X102870000Y-53848000D02*
X103632000Y-53848000D01*
X103632000Y-53848000D02*
X104648000Y-54864000D01*
%TO.N,~{DIGIT_2}*%
X104902000Y-54102000D02*
X114300000Y-54102000D01*
X103632000Y-52832000D02*
X104902000Y-54102000D01*
X102870000Y-52832000D02*
X103632000Y-52832000D01*
%TO.N,~{DIGIT_3}*%
X114300000Y-51562000D02*
X103124000Y-51562000D01*
X103124000Y-51562000D02*
X102870000Y-51816000D01*
D29*
%TO.N,~{RESET}*%
X131572000Y-53722000D02*
X136790000Y-58940000D01*
X124525000Y-37100000D02*
X131572000Y-44147000D01*
X118025000Y-37100000D02*
X124525000Y-37100000D01*
X131572000Y-44147000D02*
X131572000Y-53722000D01*
%TO.N,Net-(R21-Pad2)*%
X88190000Y-81062000D02*
X94690000Y-81062000D01*
%TD*%
M02*
